<?xml version="1.0" encoding="UTF-8" standalone="no"?>
<!-- Created with Inkscape (http://www.inkscape.org/) -->

<svg
   xmlns:dc="http://purl.org/dc/elements/1.1/"
   xmlns:cc="http://creativecommons.org/ns#"
   xmlns:rdf="http://www.w3.org/1999/02/22-rdf-syntax-ns#"
   xmlns:svg="http://www.w3.org/2000/svg"
   xmlns="http://www.w3.org/2000/svg"
   xmlns:sodipodi="http://sodipodi.sourceforge.net/DTD/sodipodi-0.dtd"
   xmlns:inkscape="http://www.inkscape.org/namespaces/inkscape"
   width="542.53033"
   height="657.73077"
   id="svg4285"
   version="1.1"
   inkscape:version="0.48.2 r9819"
   sodipodi:docname="New document 29">
  <defs
     id="defs4287" />
  <sodipodi:namedview
     id="base"
     pagecolor="#ffffff"
     bordercolor="#666666"
     borderopacity="1.0"
     inkscape:pageopacity="0.0"
     inkscape:pageshadow="2"
     inkscape:zoom="0.59674872"
     inkscape:cx="-194.4474"
     inkscape:cy="400.90203"
     inkscape:document-units="px"
     inkscape:current-layer="layer1"
     showgrid="false"
     fit-margin-top="0"
     fit-margin-left="0"
     fit-margin-right="0"
     fit-margin-bottom="0"
     inkscape:window-width="1920"
     inkscape:window-height="1021"
     inkscape:window-x="0"
     inkscape:window-y="27"
     inkscape:window-maximized="1" />
  <metadata
     id="metadata4290">
    <rdf:RDF>
      <cc:Work
         rdf:about="">
        <dc:format>image/svg+xml</dc:format>
        <dc:type
           rdf:resource="http://purl.org/dc/dcmitype/StillImage" />
        <dc:title></dc:title>
      </cc:Work>
    </rdf:RDF>
  </metadata>
  <g
     inkscape:label="Layer 1"
     inkscape:groupmode="layer"
     id="layer1"
     transform="translate(-173.10056,-108.63671)">
    <path
       style="fill:#000000"
       d="m 692.386,765.44154 c -30.41127,-1.13023 -53.64874,-2.62784 -58.5,-3.77019 -6.37143,-1.50032 -14.86604,-1.35414 -20.53994,0.35345 -4.10141,1.23435 -19.68126,1.4817 -100.05915,1.58859 -66.94651,0.089 -95.80501,-0.19648 -97.23541,-0.96199 -1.4144,-0.75698 -24.6715,-1.08602 -76.3498,-1.08018 -67.096,0.008 -74.9692,-0.15907 -81.0421,-1.71541 -6.359,-1.62966 -7.078,-1.63012 -13.1641,-0.008 -8.3333,2.22051 -12.3665,2.161 -16.3052,-0.24059 -4.5373,-2.76658 -6.0427,-5.56636 -7.2826,-13.544 -1.4926,-9.60423 -2.6565,-12.82179 -5.547,-15.33504 -1.3611,-1.18386 -2.4747,-3.00848 -2.4747,-4.05513 0,-1.04665 -1.358,-5.21213 -3.0177,-9.25662 -1.847,-4.50078 -3.3533,-10.45721 -3.8828,-15.35361 -0.4759,-4.4 -1.6306,-10.025 -2.5662,-12.5 -0.9355,-2.475 -2.0875,-6.64632 -2.56,-9.2696 -0.4724,-2.62328 -1.7847,-5.94647 -2.9161,-7.38486 -2.4295,-3.08855 -2.6268,-5.62793 -0.5699,-7.33497 3.2033,-2.65856 4.2545,-0.53309 9.8855,19.98943 0.83,3.025 2.2455,7.51987 3.1455,9.9886 0.8999,2.46872 1.4036,5.652 1.1192,7.07394 -0.6885,3.44258 3.2847,14.14728 7.6635,20.64723 1.9303,2.86538 3.8124,7.00198 4.1825,9.19244 0.3701,2.19046 1.3127,4.51366 2.0947,5.16267 0.9378,0.7783 1.4218,3.20707 1.4218,7.13449 0,5.24793 0.3468,6.30132 2.9231,8.87755 3.2995,3.29952 5.4593,3.54381 12.4858,1.41226 6.2942,-1.9094 11.2345,-1.88563 16.7154,0.0804 3.8962,1.39763 12.5576,1.49254 79.041,0.86613 l 74.6654,-0.70351 3.3959,2.09876 3.3958,2.09876 93.93881,-0.58207 c 84.58637,-0.52411 94.18769,-0.74462 96.43879,-2.21487 3.55435,-2.32144 23.89692,-2.19147 29.85059,0.19072 3.10663,1.24303 7.29544,1.67646 16.20177,1.67646 8.415,0 13.08688,0.44917 15.60188,1.5 2.69619,1.12654 7.67548,1.5 19.99927,1.5 14.30646,0 16.49015,-0.21081 17.0405,-1.64502 2.17015,-5.65531 -5.32412,-31.55738 -9.81066,-33.90812 -1.91188,-1.00173 -2.70577,-2.63079 -3.70891,-7.6107 -0.70198,-3.48489 -1.70341,-7.96337 -2.22539,-9.95218 -0.52198,-1.98877 -0.94905,-4.78825 -0.94905,-6.22102 0,-1.43278 -1.64582,-8.35557 -3.65738,-15.38398 -2.71223,-9.47658 -3.83061,-15.62158 -4.32773,-23.77894 -0.36869,-6.05 -1.19787,-12.26679 -1.84262,-13.8151 -0.64475,-1.5483 -1.17227,-4.03568 -1.17227,-5.52749 0,-1.49182 -0.65595,-3.6489 -1.45766,-4.7935 -0.80172,-1.14461 -1.76366,-5.06782 -2.13766,-8.71824 -0.55045,-5.37271 -1.21415,-7.19607 -3.48383,-9.57108 -1.597,-1.67111 -3.07163,-4.5783 -3.42601,-6.75427 -0.34219,-2.10118 -1.04352,-4.85399 -1.5585,-6.11737 -0.51499,-1.26338 -0.93634,-6.49431 -0.93634,-11.62428 0,-5.73466 -0.57775,-10.96475 -1.5,-13.57867 -0.825,-2.3383 -1.50251,-6.33238 -1.50558,-8.87573 -0.003,-2.54335 -0.43311,-6.19927 -0.95565,-8.12427 -0.52254,-1.925 -1.17326,-11.92642 -1.44606,-22.22537 -0.33621,-12.69348 -0.91422,-19.45809 -1.79435,-21 -0.89553,-1.56891 -1.34513,-7.23877 -1.44912,-18.27463 -0.0829,-8.8 -0.48049,-29.11317 -0.88349,-45.14037 -0.65627,-26.0994 -0.56227,-29.38374 0.90076,-31.47251 1.27553,-1.82108 1.63349,-4.78918 1.63349,-13.54453 0,-6.16681 0.4968,-12.47919 1.10401,-14.02749 1.67386,-4.26817 3.17204,-24.54896 3.42138,-46.3151 0.17691,-15.44348 0.56155,-20.27342 1.84899,-23.21788 1.01667,-2.32518 1.62562,-6.47409 1.62562,-11.07569 0,-6.61417 0.26047,-7.60251 2.57726,-9.77901 1.9749,-1.85533 2.46892,-3.12311 2.1137,-5.42432 -0.41805,-2.70817 0.3613,-5.94689 4.91645,-20.43124 0.76592,-2.43548 1.3943,-8.06047 1.3964,-12.5 0.004,-8.32917 2.03504,-23.17204 3.77297,-27.57186 0.54312,-1.375 1.68807,-5.875 2.54432,-10 0.85626,-4.125 2.07996,-9.75 2.71934,-12.5 0.63938,-2.75 1.38604,-7.1488 1.65924,-9.7751 0.41662,-4.00501 0.96006,-5.0147 3.36966,-6.26076 4.36566,-2.25757 8.3646,-15.82629 8.15761,-27.6794 -0.0907,-5.19421 0.43435,-10.64835 1.2996,-13.5 0.79849,-2.6316 1.45667,-7.74056 1.46263,-11.35324 0.006,-3.61267 0.70334,-8.90045 1.54974,-11.75062 1.01089,-3.40403 1.43979,-8.1842 1.25,-13.9315 l -0.28892,-8.74938 -103,-0.30321 c -192.848,-0.56771 -247.806,-1.03876 -252.2726,-2.16226 -5.8044,-1.46 -41.5284,-1.47899 -44.248,-0.0235 -4.5599,2.44041 -5.9717,6.72228 -5.9757,18.12468 0,7.49569 0.4373,11.48133 1.4901,13.5 2.1169,4.05896 2.0341,17.16556 -0.1279,20.2523 -1.5122,2.15902 -2.0902,2.28255 -7.75,1.65654 -17.8427,-1.97351 -26.6642,-2.63492 -42.0195,-3.15049 -10.2818,-0.34522 -17.7249,-0.18136 -19,0.41828 -1.153,0.54221 -3.5144,1.51744 -5.2476,2.16717 -5.7276,2.14716 -7.2796,4.8032 -7.9359,13.58154 -0.6387,8.5429 -1.5858,12.52404 -4.5662,19.19409 -1.5218,3.4058 -1.7717,5.5208 -1.2517,10.59628 0.5488,5.3564 0.3761,6.55916 -1.1122,7.74488 -4.7107,3.75319 -8.5303,8.30493 -8.9984,10.72322 -0.2853,1.47427 -1.186,4.7659 -2.0016,7.31471 -0.8155,2.54882 -1.4828,7.33718 -1.4828,10.6408 0,3.83263 -0.7127,7.5843 -1.9691,10.36579 -1.5939,3.52854 -1.8538,5.62991 -1.364,11.02777 0.6015,6.62782 -0.9137,16.12418 -4.2696,26.75957 -0.7685,2.43548 -1.3973,6.87052 -1.3973,9.85564 0,4.33039 -0.5054,6.02809 -2.5,8.39859 -2.0098,2.38848 -2.5069,4.08356 -2.5354,8.64436 -0.019,3.1203 -0.6786,6.79827 -1.4646,8.17327 -1.0879,1.90313 -1.4402,6.79747 -1.4754,20.5 -0.033,12.96337 -0.4629,19.37358 -1.5354,22.90893 -0.8512,2.80567 -1.4892,8.81584 -1.4892,14.02749 0,6.7516 -0.4166,9.7133 -1.6048,11.40975 -1.3473,1.92353 -1.4929,4.00517 -0.9075,12.97251 0.5845,8.95425 0.4154,11.38565 -1.0462,15.03737 -1.5942,3.98297 -1.6918,7.7943 -1.1399,44.5 0.5533,36.79428 0.7781,40.72804 2.6948,47.14395 1.5277,5.11413 1.927,8.39991 1.4821,12.19623 -1.4031,11.97242 -0.834,26.6374 1.3897,35.80377 3.9268,16.18755 4.2794,18.27355 4.2553,25.17683 -0.013,3.75274 0.741,10.58493 1.6757,15.18263 1.4152,6.96076 2.1597,8.68718 4.4502,10.31809 2.4423,1.73912 2.7531,2.59544 2.7726,7.64054 0.013,3.48275 0.7875,7.36913 2,10.04111 2.2984,5.06528 2.7234,14.1408 0.6621,14.1408 -1.5947,0 -5.6841,-7.00103 -5.6841,-9.73117 0,-1.07737 -0.9,-2.77334 -2,-3.76883 -1.5292,-1.38388 -2,-3.07997 -2,-7.20465 0,-2.96707 -0.6218,-6.60982 -1.3818,-8.09501 -0.7599,-1.48519 -1.7122,-4.72534 -2.1161,-7.20034 -0.4039,-2.475 -1.2316,-5.4 -1.8392,-6.5 -0.6077,-1.1 -1.4132,-6.95 -1.79,-13 -0.7058,-11.33265 -2.1095,-19.39627 -4.4389,-25.5 -0.9575,-2.5091 -1.3268,-9.1623 -1.3042,-23.5 0.02,-12.4779 -0.4284,-21.88053 -1.1913,-25 -1.4188,-5.80178 -1.4533,-6.58355 -2.3696,-53.67852 -0.609,-31.30233 -0.5025,-36.04917 0.8685,-38.70034 1.1419,-2.20818 1.5626,-6.01468 1.5626,-14.13722 0,-6.93775 0.4618,-11.93634 1.2287,-13.29966 0.6758,-1.20134 1.5241,-7.58426 1.885,-14.18426 0.361,-6.6 1.1385,-14.025 1.7278,-16.5 0.5893,-2.475 1.0978,-11.475 1.13,-20 0.041,-10.84865 0.4911,-16.70035 1.4997,-19.5 0.7925,-2.2 1.4608,-6.3623 1.4849,-9.24956 0.068,-8.18078 2.9634,-23.47998 4.9748,-26.28995 0.9997,-1.39672 2.1535,-4.09672 2.5639,-6 0.4103,-1.90327 1.3669,-4.67564 2.1256,-6.16083 0.9575,-1.87407 1.3842,-6.61686 1.3947,-15.5 0.01,-8.59297 0.4886,-14.11429 1.4561,-16.79966 0.7925,-2.2 1.4608,-5.59721 1.4849,-7.54936 0.061,-4.8992 5.2479,-21.02409 8.0123,-24.90631 1.6209,-2.27624 2.4174,-5.1104 2.7737,-9.86881 0.3737,-4.99091 1.0588,-7.30641 2.7145,-9.17552 3.8045,-4.29481 5.5434,-10.76895 5.5434,-20.63837 l 0,-9.07151 5.4401,-5.14506 c 2.9921,-2.82978 5.9168,-5.14506 6.4994,-5.14506 0.5826,0 5.3077,-3.9375 10.5002,-8.75 12.7862,-11.85031 19.9944,-17.4063 28.1724,-21.71477 8.3327,-4.38994 12.1126,-6.86256 18.0078,-11.7799 2.4692,-2.05956 5.7023,-4.0325 7.1848,-4.3843 1.4824,-0.35181 3.5291,-1.36671 4.5482,-2.25534 1.5727,-1.37137 5.4741,-1.66118 25.7997,-1.91653 23.1417,-0.29073 24.0656,-0.22745 27.4793,1.88233 l 3.5324,2.18318 70.6679,-0.46905 c 59.23856,-0.39319 71.63819,-0.23622 76.6678,0.97057 5.09409,1.22227 21.27893,1.36077 107.19446,0.91734 84.88896,-0.43814 101.3775,-0.30174 102.33046,0.84651 1.99291,2.40131 -0.30081,40.8093 -2.95393,49.46336 -0.58904,1.92137 -1.07099,7.48582 -1.07099,12.36543 0,7.59871 -0.57408,10.66777 -4,21.38399 -2.2,6.88158 -4.00689,13.69214 -4.01531,15.13457 -0.0181,3.10265 -0.78955,4.41335 -3.45578,5.87155 -1.41217,0.77234 -2.33786,3.01658 -3.26453,7.91454 -2.47107,13.06091 -3.09167,15.88317 -5.35145,24.33652 -1.32039,4.93925 -2.55756,13.31749 -2.95331,20 -0.37458,6.325 -1.478,14.65 -2.45205,18.5 -0.97405,3.85 -2.10101,9.925 -2.50436,13.5 -0.40335,3.575 -1.24408,8.07203 -1.86829,9.9934 -0.6242,1.92137 -1.13492,6.39674 -1.13492,9.94528 0,5.6767 -0.33041,6.79636 -2.75,9.31898 l -2.75,2.86711 -0.62842,19.68761 c -0.92577,29.00321 -1.67668,40.54479 -2.83634,43.59493 -0.56938,1.49759 -1.03524,7.81364 -1.03524,14.03567 0,7.79357 -0.46662,12.42956 -1.5,14.90278 -2.18206,5.22239 -2.2382,87.32605 -0.0626,91.53321 1.01959,1.97166 1.62457,8.27949 2.08126,21.70034 0.42329,12.43955 1.12982,20.21216 2.06258,22.69093 0.78031,2.07363 1.41875,6.40455 1.41875,9.62427 0,3.21972 0.67205,7.75882 1.49344,10.08689 1.008,2.85698 1.4143,7.28927 1.25,13.63595 -0.23787,9.18802 -0.1803,9.45433 2.51691,11.64288 3.02475,2.45431 5.3806,9.20704 6.71223,19.23977 0.43801,3.3 2.01586,10.5 3.50635,16 1.49048,5.5 3.05879,14.5 3.48512,20 0.47797,6.16601 2.16705,15.14957 4.40556,23.43139 1.99671,7.38726 3.63728,15.48726 3.6457,18 0.0173,5.15956 0.53932,6.27135 3.73469,7.95409 1.48783,0.78351 2.25127,2.10451 2.25374,3.8997 0.002,1.49315 0.96948,4.28982 2.14982,6.21482 2.79098,4.55173 5.94034,16.06303 9.43883,34.5 0.67863,3.5764 -1.02309,8.58464 -2.81765,8.29243 -0.7011,-0.11417 -9.82473,-0.52534 -20.27473,-0.91371 z M 232.4743,630.36279 c -2.5598,-2.91498 -4.8877,-6.42497 -5.1731,-7.79997 -0.2855,-1.375 -1.1439,-3.85 -1.9076,-5.5 -0.7637,-1.65 -2.8213,-7.26657 -4.5725,-12.48126 -2.8637,-8.52716 -3.1195,-10.23787 -2.5426,-17 0.3528,-4.13531 1.282,-9.99374 2.0648,-13.01874 0.7829,-3.025 1.9512,-7.525 2.5963,-10 1.063,-4.07812 2.7875,-8.40363 11.5618,-29 1.5229,-3.575 4.7075,-10.28807 7.0768,-14.91794 2.3693,-4.62987 4.3078,-9.04431 4.3078,-9.80986 0,-0.76556 2.1642,-3.72748 4.8093,-6.58206 4.7701,-5.14781 7.8759,-9.7559 14.1919,-21.05642 1.9746,-3.53301 4.6151,-6.6548 6.6387,-7.84878 1.8481,-1.09037 3.3601,-2.34971 3.3601,-2.79853 0,-1.04395 10.5637,-16.82277 13.089,-19.55086 2.1172,-2.28718 2.5085,-4.43555 0.8079,-4.43555 -0.6067,0 -3.361,2.03005 -6.1206,4.51123 -5.6011,5.03584 -8.5868,6.19573 -11.6832,4.53862 -2.7507,-1.47216 -2.6533,-2.87116 0.2509,-3.60005 1.2892,-0.32356 4.7767,-2.34783 7.75,-4.49838 14.1675,-10.24711 20.5541,-14.33657 23.2513,-14.8882 2.9057,-0.59427 2.8028,-0.73147 -9.4291,-12.58202 -6.8018,-6.58966 -14.4517,-14.0062 -16.9998,-16.4812 -26.3457,-25.59011 -26.5305,-25.81447 -23.6414,-28.70354 0.8143,-0.81428 6.0903,-2.99398 11.7246,-4.84376 5.6342,-1.84979 11.0308,-4.07518 11.9922,-4.94531 0.9615,-0.87014 5.9676,-2.71126 11.1247,-4.09138 5.157,-1.38012 10.785,-3.34036 12.5065,-4.35609 1.7215,-1.01572 4.6182,-2.17361 6.437,-2.57309 1.8187,-0.39947 6.0742,-2.24743 9.4565,-4.10657 3.3823,-1.85914 6.8378,-3.38026 7.679,-3.38026 0.8412,0 4.8538,-1.40086 8.917,-3.11302 10.8705,-4.58071 16.7829,-6.83831 22.3875,-8.54846 2.75,-0.83911 6.35,-2.07293 8,-2.74182 1.65,-0.66888 7.05,-2.61276 12,-4.31973 4.95,-1.70697 14.625,-5.41274 21.5,-8.23506 6.875,-2.82231 14.75,-5.95259 17.5,-6.95618 2.75,-1.00359 8.808,-3.45844 13.4623,-5.45522 4.6542,-1.99678 9.0848,-3.63051 9.8457,-3.63051 0.7609,0 2.7011,-0.77839 4.3117,-1.72977 5.533,-3.26841 8.7837,1.88024 5.0483,7.9958 -2.5736,4.21353 -21.1031,41.19965 -25.1665,50.23397 -2.631,5.84966 -5.5102,11.67884 -11.1134,22.5 -0.4272,0.825 -3.0291,6.225 -5.7821,12 -2.7529,5.775 -5.6691,11.625 -6.4804,13 -0.8112,1.375 -4.4502,8.51385 -8.0864,15.86411 -3.6364,7.35027 -7.6894,14.77727 -9.0068,16.50447 -1.3173,1.72719 -5.4202,9.43834 -9.1175,17.13588 -9.1436,19.03678 -10.7691,21.49554 -14.2108,21.49554 -2.2278,0 -5.9988,-3.14207 -19.2375,-16.02906 -16.6062,-16.16491 -30.0945,-27.97094 -31.9567,-27.97094 -0.5555,0 -1.0099,0.49449 -1.0099,1.09887 0,0.60438 -0.6713,2.51688 -1.4917,4.25 -3.5924,7.58842 -6.8422,18.57891 -6.9936,23.65113 -0.2488,8.33493 -0.3963,9 -1.9956,9 -2.1253,0 -2.8513,-4.07371 -2.0536,-11.52259 0.5149,-4.80769 0.3794,-6.47741 -0.5257,-6.47741 -1.5061,0 -2.368,1.08564 -10.4593,13.1751 -3.5615,5.3213 -8.0317,10.95793 -9.9338,12.52583 -1.9742,1.62726 -4.5762,5.378 -6.0627,8.73931 -2.7411,6.1981 -4.2475,8.42156 -11.373,16.78689 -2.414,2.83397 -5.4903,7.65471 -6.8364,10.71277 -1.3461,3.05805 -4.2085,9.17591 -6.361,13.59524 -2.1525,4.41933 -3.9136,8.7703 -3.9136,9.66882 0,0.89852 -1.7529,5.15771 -3.8954,9.46486 -2.1424,4.30715 -4.3488,10.08118 -4.9031,12.83118 -0.5542,2.75 -1.7102,7.7 -2.569,11 -2.2687,8.71885 -2.0517,21.69615 0.4766,28.5 1.1242,3.025 2.3003,6.85 2.6137,8.5 0.3133,1.65 1.1254,3.9 1.8045,5 0.6791,1.1 1.5075,3.125 1.8409,4.5 0.3334,1.375 2.4207,4.49866 4.6385,6.94146 2.2178,2.44281 3.8738,4.91781 3.6799,5.5 -0.8611,2.58687 -3.7823,1.27332 -8.0983,-3.64149 z M 355.886,467.15171 c 0,-1.75083 -5.6172,-6.58889 -7.65,-6.58889 -2.2536,0 -1.1946,3.26916 1.493,4.60907 1.279,0.63761 2.8275,1.66142 3.4412,2.27511 1.5289,1.52888 2.7158,1.39982 2.7158,-0.29529 z m 11.3872,-17.85769 4.8872,-9.76881 -14.8872,-14.59215 c -8.188,-8.02568 -17.5872,-16.86299 -20.8872,-19.63846 -3.3,-2.77548 -6.9,-6.23803 -8,-7.69455 -3.7429,-4.95607 -19.9801,-20.20191 -25.6951,-24.12641 -6.1662,-4.2343 -7.9705,-4.60277 -11.8049,-2.41082 -1.375,0.78602 -3.4,1.47164 -4.5,1.52359 -2.5336,0.11966 -10.7485,4.14826 -11.1672,5.47641 -0.357,1.13282 5.7621,7.715 16.7337,18 7.5169,7.04641 44.9185,42.76555 58.908,56.25813 4.9967,4.81916 8.1976,7.17139 9.5255,7 1.4327,-0.18491 3.3863,-3.02907 6.8872,-10.02693 z m -22.3872,6.94643 c 0,-1.51483 -7.9684,-7.04255 -8.8628,-6.14816 -0.6072,0.60725 6.7694,7.36573 8.1128,7.43298 0.4125,0.0206 0.75,-0.55752 0.75,-1.28482 z m -12.5,-11.67763 c -0.3399,-0.55 -1.293,-1 -2.118,-1 -0.825,0 -1.2219,0.45 -0.882,1 0.3399,0.55 1.293,1 2.118,1 0.825,0 1.2219,-0.45 0.882,-1 z m -5.5,-3.5 c 0,-0.825 -0.675,-1.5 -1.5,-1.5 -2.6025,0 -1.7591,1.97081 1.25,2.92105 0.1375,0.0434 0.25,-0.59605 0.25,-1.42105 z m -5,-7.52475 c 0,-0.56361 -1.031,-1.41673 -2.2911,-1.89583 -1.2601,-0.47909 -2.8902,-1.59295 -3.6224,-2.47524 -1.6435,-1.98023 -3.0865,-2.07197 -3.0865,-0.19623 0,1.44406 5.5097,5.36073 7.75,5.5092 0.6875,0.0456 1.25,-0.37829 1.25,-0.9419 z m 57.8915,-9.09378 c 0.5979,-1.7152 0.8198,-4.18343 0.4932,-5.48497 -0.4761,-1.89662 -0.082,-2.56093 1.9827,-3.3461 2.5908,-0.98502 4.4054,-4.99105 3.1677,-6.99356 -0.3592,-0.58126 -1.5352,-1.05684 -2.6132,-1.05684 -1.5964,0 -1.8425,0.46831 -1.3264,2.52462 0.5663,2.25626 0.3292,2.52708 -2.2309,2.54781 -13.9604,0.11308 -19.7328,0.56285 -20.0713,1.5639 -0.2113,0.62499 1.0095,1.62218 2.7129,2.21599 2.1324,0.74336 3.0031,1.63533 2.7954,2.86367 -0.2059,1.21775 0.432,1.88798 2.0096,2.11157 1.2711,0.18016 2.5086,0.96766 2.75,1.75 0.2413,0.78234 0.6497,2.09744 0.9074,2.92244 0.3123,0.99969 1.7806,1.5 4.4022,1.5 3.5048,0 4.052,-0.33994 5.0207,-3.11853 z m -11.8915,-6.88147 c 0,-0.55 1.3766,-1 3.059,-1 1.7847,0 2.8016,0.41658 2.441,1 -0.3399,0.55 -1.7165,1 -3.059,1 -1.3426,0 -2.441,-0.45 -2.441,-1 z m -58.018,5.25 c -0.03,-1.22642 -7.6854,-7.21326 -8.3607,-6.53796 -1.423,1.42297 -0.4233,3.43807 2.6287,5.29892 3.3421,2.03771 5.7638,2.56118 5.732,1.23904 z m -11.482,-11.25 c -0.3399,-0.55 -1.0415,-1 -1.559,-1 -0.5176,0 -0.941,0.45 -0.941,1 0,0.55 0.7016,1 1.559,1 0.8575,0 1.2809,-0.45 0.941,-1 z m 63,-2.38939 4,-1.23569 -3.75,-0.73277 c -2.0625,-0.40303 -3.75,-1.13206 -3.75,-1.62008 0,-1.78008 4.6269,-2.25555 18.4176,-1.89265 l 14.0824,0.37058 0.09,-4.81371 c 0.08,-4.28726 0.4357,-5.02385 3.25,-6.7353 2.7026,-1.64356 3.1598,-2.50248 3.1598,-5.93629 0,-2.20809 0.4179,-4.0147 0.9286,-4.0147 2.3745,0 4.1941,-3.41911 3.9104,-7.34816 -0.2593,-3.59115 -0.01,-4.13946 2.1144,-4.64083 1.9632,-0.46345 2.6348,-1.57411 3.6335,-6.00847 0.6739,-2.99195 1.7255,-5.60668 2.337,-5.81051 2.5543,-0.85143 4.1701,-3.58642 3.8801,-6.56746 -0.3274,-3.36481 -0.5596,-3.4202 -7.2698,-1.73426 -2.1812,0.54802 -4.4312,0.62363 -5,0.16803 -1.015,-0.81302 -31.4736,-0.4523 -32.3085,0.38262 -0.2343,0.23429 -0.1405,0.8879 0.2084,1.45248 0.4057,0.65636 3.5969,0.78793 8.8502,0.36489 10.1972,-0.82118 13.4665,-0.80533 16.9657,0.0822 3.1356,0.79534 3.7186,2.65943 0.8318,2.65943 -3.5387,0 -5.2486,1.09411 -4.0212,2.57298 1.4743,1.77646 0.3481,3.41971 -2.3696,3.45743 -2.0023,0.0278 -2.0366,0.12023 -0.3987,1.07337 0.9858,0.57363 3.4608,0.89745 5.5,0.71959 3.1488,-0.27463 3.7077,-0.0219 3.7077,1.67663 0,1.27875 -0.5409,1.86398 -1.5,1.62281 -0.825,-0.20746 -2.175,-0.31412 -3,-0.23703 -0.825,0.0771 -2.7079,0.12944 -4.1843,0.11632 -1.4763,-0.0131 -2.9362,0.38389 -3.2442,0.88224 -0.7246,1.1724 1.9347,2.24564 6.7867,2.73901 4.1444,0.42143 5.6418,1.02891 5.6418,2.2889 0,0.43682 -18.2249,0.74776 -40.4997,0.69098 -32.2062,-0.0821 -40.4997,0.15781 -40.5,1.17152 -10e-5,0.70111 1.1247,1.70248 2.4997,2.22525 1.4645,0.5568 2.5,1.74307 2.5,2.86396 0,1.40021 0.9522,2.0921 3.55,2.57945 2.8786,0.54002 3.4383,1.01802 2.9594,2.52713 -0.3249,1.02363 -0.088,2.17169 0.5258,2.55124 1.0577,0.65366 36.5042,0.63425 49.5522,-0.0271 3.3481,-0.16971 7.5894,-10e-4 9.4252,0.3741 4.1378,0.84626 5.2348,3.13125 1.5033,3.13125 -2.2163,0 -2.5442,0.3356 -2.0007,2.04799 0.3575,1.12639 0.1078,2.70139 -0.555,3.5 -0.9403,1.13293 -0.9395,1.77201 0,2.90821 0.6647,0.8009 0.9609,1.85687 0.6582,2.34659 -0.3027,0.48971 -9.8121,0.79847 -21.132,0.68611 -18.4356,-0.18298 -20.5498,-0.0367 -20.2756,1.40341 0.1684,0.88423 1.3395,1.75482 2.6024,1.93465 1.263,0.17982 2.7931,1.41732 3.4003,2.75 1.2258,2.69018 2.433,2.84084 8.283,1.03365 z m 12.5,-24.715 c -4.675,-0.47193 -11.9875,-0.59467 -16.25,-0.27275 -5.3405,0.40333 -7.75,0.24204 -7.75,-0.51878 0,-0.72948 3.2876,-1.10408 9.6898,-1.10408 11.9794,0 21.412,-1.75295 21.0582,-3.91341 -0.2729,-1.66604 2.484,-2.59527 4.923,-1.65933 1.2556,0.48181 1.3169,0.88236 0.3192,2.08457 -1.3551,1.63273 -1.0841,1.7496 4.4178,1.90568 1.5994,0.0454 3.0867,0.6068 3.3051,1.24763 0.8099,2.37682 -8.1834,3.39437 -19.7131,2.23047 z m -42,-0.89561 c 0,-0.55 1.35,-1 3,-1 1.65,0 3,0.45 3,1 0,0.55 -1.35,1 -3,1 -1.65,0 -3,-0.45 -3,-1 z m 69.5,-18 c -0.7292,-1.17987 0.2167,-3 1.559,-3 0.5176,0 0.941,0.9 0.941,2 0,2.10908 -1.4549,2.69104 -2.5,1 z m 0.1667,-4.66667 c -1.1507,-1.15063 -0.7283,-2.33333 0.8333,-2.33333 0.825,0 1.5,0.675 1.5,1.5 0,1.56157 -1.1827,1.98397 -2.3333,0.83333 z m -6.0417,-1.13108 c -0.7906,-1.27929 1.0435,-3.52519 2.2632,-2.77135 1.6054,0.9922 1.3677,3.5691 -0.3292,3.5691 -0.7925,0 -1.6628,-0.35899 -1.934,-0.79775 z m 5.875,-4.20225 c -1.0268,-1.66141 0.4582,-3.00091 3.309,-2.98469 3.3626,0.0191 5.665,1.40872 4.7601,2.87289 -0.8549,1.38327 -7.2287,1.47158 -8.0691,0.1118 z m -21.5,52.90242 c 0,-1.44967 -4.7688,-2.16418 -9.6045,-1.43903 -5.5019,0.82507 -4.9922,1.74841 1.3965,2.52989 5.1923,0.63514 8.208,0.23435 8.208,-1.09086 z m -94,-8.2419 c 0,-0.73672 -1.1376,-1.85783 -2.5281,-2.49135 -1.3904,-0.63353 -2.7885,-1.83076 -3.107,-2.66052 -0.3184,-0.82976 -1.2057,-1.50865 -1.9719,-1.50865 -2.6027,0 -1.4065,2.65568 2.357,5.23289 4.3929,3.00824 5.25,3.2413 5.25,1.42763 z m 86,-1.66428 3.5,-0.22624 -4,-0.97657 c -2.2,-0.53712 -6.25,-0.86178 -9,-0.72147 -8.1705,0.41686 -9.8059,0.37276 -14,-0.37758 -4.0975,-0.73305 -7.2301,0.31531 -6.1524,2.05899 0.5239,0.84766 18.0726,0.99139 29.6524,0.24287 z m 10.6625,-1.18769 c -2.0136,-0.73345 -3.1605,-0.71052 -3.95,0.0789 -0.8167,0.81667 -0.062,1.09151 2.8375,1.03355 3.9061,-0.0781 3.9185,-0.0904 1.1125,-1.1125 z m -35.6625,-4.80855 c 0,-0.55 -2.2766,-1 -5.059,-1 -3.1181,0 -4.8219,0.38367 -4.441,1 0.3399,0.55 2.6165,1 5.059,1 2.4426,0 4.441,-0.45 4.441,-1 z m -72,-3.52475 c 0,-0.83861 -1.0865,-1.93784 -2.4144,-2.44272 -1.328,-0.50488 -2.7083,-1.84374 -3.0674,-2.97525 -0.8579,-2.70295 -4.5182,-2.76479 -4.5182,-0.0763 0,1.263 0.8794,2.20166 2.4264,2.58993 1.3345,0.33495 3.2043,1.46852 4.155,2.51906 2.084,2.30278 3.4186,2.4532 3.4186,0.38531 z m 71.8288,-18.85821 c 23.5933,-0.36333 27.8802,-0.95384 24.8972,-3.4295 -0.9787,-0.8122 -2.4157,-0.8359 -5.1362,-0.0847 -2.0775,0.57364 -4.0121,0.80824 -4.299,0.52134 -0.2869,-0.28691 -0.5971,-2.67892 -0.6893,-5.31558 -0.1314,-3.75507 -0.5607,-4.86962 -1.9812,-5.14317 -1.436,-0.27656 -1.6753,0.086 -1.1497,1.7419 1.1183,3.52339 -2.7452,4.15428 -19.0945,3.11808 -8.041,-0.50963 -16.0276,-0.69418 -17.748,-0.41011 -6.1689,1.01856 -7.6281,1.43399 -7.6281,2.17169 0,0.41187 9.6622,0.65061 21.4716,0.53054 19.6604,-0.19989 24.263,0.28122 22.2214,2.32281 -0.279,0.27899 -9.2115,0.68592 -19.8501,0.9043 -10.6386,0.21838 -20.6127,0.42576 -22.1647,0.46084 -1.7138,0.0387 -2.6663,0.53019 -2.4259,1.25159 0.4839,1.45147 4.5263,2.6307 7.2477,2.11423 1.1,-0.20877 12.948,-0.54817 26.3288,-0.75423 z m 33.1712,-1.66501 c 0,-0.4587 -0.4353,-1.103 -0.9672,-1.43179 -0.532,-0.32878 -0.7088,-1.89041 -0.3928,-3.47028 0.5696,-2.8481 0.5333,-2.87248 -4.2827,-2.87057 -5.6281,0.002 -8.3573,0.59677 -8.3573,1.82061 0,1.52005 3.8509,2.15015 6.0261,0.98601 2.6694,-1.42862 5.2928,0.43375 4.4319,3.14622 -0.3229,1.01743 -0.3186,2.28425 0.01,2.81515 0.6741,1.09071 3.5326,0.2853 3.5326,-0.99535 z m 4.5,0.048 c 0.3399,-0.55 -0.084,-1 -0.941,-1 -0.8574,0 -1.559,0.45 -1.559,1 0,0.55 0.4234,1 0.941,1 0.5175,0 1.2191,-0.45 1.559,-1 z m 2,-11.01493 c 2.2893,-0.61405 1.0455,-0.8616 -5.25,-1.04488 -4.5375,-0.13211 -8.775,-0.28519 -9.4167,-0.34019 -0.6416,-0.055 -1.3439,0.43195 -1.5607,1.08211 -0.6978,2.09359 8.8847,2.27249 16.2274,0.30296 z m -31.5,-0.18542 c 0,-0.43982 -1.0125,-0.81868 -2.25,-0.84189 -1.2375,-0.0232 -7.3125,-0.21871 -13.5,-0.43442 -8.7727,-0.30584 -11.25,-0.10555 -11.25,0.90953 0,1.00805 3.0459,1.28648 13.5,1.2341 7.425,-0.0372 13.5,-0.4275 13.5,-0.86732 z m 10.4126,-5.65827 c 0.2919,-0.47223 -3.1691,-1.20085 -7.691,-1.61916 -10.6346,-0.98379 -11.2856,-0.94105 -13.9354,0.91494 -2.0777,1.45528 -1.4287,1.56281 9.4323,1.56281 6.4149,0 11.9023,-0.38637 12.1941,-0.85859 z m 33.0235,-5.19446 c 1.0455,0.86769 1.9795,0.90099 3.4342,0.12244 2.5193,-1.34825 7.813,-1.39081 8.6297,-0.0694 0.3399,0.55 2.1453,1 4.012,1 3.0701,0 3.4934,-0.35783 4.4354,-3.75 0.5728,-2.0625 1.044,-4.48575 1.047,-5.38499 0,-0.89924 1.0881,-2.34427 2.4111,-3.21116 1.5737,-1.0311 2.6358,-2.939 3.0714,-5.51704 0.4576,-2.70864 1.2688,-4.09856 2.5944,-4.44522 1.1711,-0.30622 1.9287,-1.37261 1.9287,-2.7146 0,-1.82705 -0.3901,-2.09229 -2.25,-1.52984 -1.2375,0.37423 -4.1145,0.92983 -6.3933,1.23466 -3.0796,0.41195 -4.4196,1.16085 -5.2199,2.91723 -0.8836,1.93938 -1.5981,2.2587 -3.9854,1.78123 -3.1965,-0.63929 -4.9611,0.93917 -3.2947,2.94707 0.6209,0.74818 0.6778,1.8079 0.1433,2.67266 -0.5375,0.86973 -0.4711,1.93239 0.1691,2.70373 1.5482,1.86548 0.236,4.28131 -2.3877,4.39595 -2.202,0.0962 -2.1944,0.12389 0.2186,0.79508 1.375,0.38248 2.5,1.31944 2.5,2.08214 0,1.23404 -2.3462,1.58254 -7.5,1.11401 -1.2671,-0.1152 -1.3266,-3.09091 -0.062,-3.09091 0.516,0 0.8536,-1.20581 0.75,-2.67957 -0.1461,-2.07979 0.3713,-2.8409 2.3117,-3.40032 2.8772,-0.8295 2.7733,-0.85142 -6.2666,-1.32267 -6.3329,-0.33013 -9.0935,0.44388 -6.7497,1.89248 1.5249,0.94249 1.2229,2.51009 -0.4837,2.51009 -0.825,0 -1.5,-0.675 -1.5,-1.5 0,-0.825 -0.45,-1.5 -1,-1.5 -0.55,0 -1,0.66643 -1,1.48095 0,1.84004 -4.1041,2.94823 -8.0189,2.16526 -2.194,-0.43879 -4.6444,0.29652 -9.6054,2.88236 -4.6598,2.42886 -8.0439,3.49047 -11.2678,3.53482 -8.33,0.11458 -1.248,1.60763 8.689,1.83186 11.5019,0.25953 13.6174,-0.25894 11.9501,-2.92878 -1.8606,-2.97933 0.059,-3.86899 6.753,-3.1294 6.9834,0.77158 7.5379,2.42511 1.0745,3.20423 -2.4697,0.29772 -4.7665,0.8174 -5.104,1.15484 -0.8176,0.81759 5.2201,2.11312 6.4128,1.37602 0.5126,-0.31682 1.986,-0.17699 3.2744,0.31074 1.4512,0.54941 2.8178,0.50357 3.5923,-0.12051 0.852,-0.68654 1.7073,-0.62778 2.6861,0.18456 z m -3.8934,-8.87785 c -0.7395,-1.1966 1.1416,-2.38223 2.4736,-1.55902 1.1184,0.69118 0.3842,2.48992 -1.0163,2.48992 -0.4851,0 -1.1409,-0.41891 -1.4573,-0.9309 z M 236.7544,361.99889 C 224.7775,349.65977 215.6,340.75121 212.9613,338.90301 c -2.2901,-1.60407 -2.7842,-4.273 -0.8253,-4.45867 3.1247,-0.29618 4.7603,0.79343 12.5018,8.32859 8.908,8.67067 10.3845,8.99883 11.7856,2.61947 1.3322,-6.06514 5.5753,-13.95579 7.3108,-13.59542 1.2289,0.25518 1.5955,1.29312 1.4317,4.05441 -0.1211,2.04129 0.1739,3.71143 0.6554,3.71143 1.3508,0 8.473,-6.20991 16.11,-14.04647 6.3441,-6.50982 8.9547,-7.84687 8.9547,-4.58621 0,1.14065 -14.7383,16.6195 -19.9629,20.96601 -3.1335,2.60679 -1.8039,3.19066 2.9416,1.29185 4.9977,-1.99965 9.0213,-2.1101 9.0213,-0.24762 0,1.82817 -1.6446,3.10343 -8.6441,6.70288 -3.2207,1.65626 -7.794,4.16356 -10.1628,5.57179 l -4.3069,2.56041 4.607,4.54196 c 4.4685,4.40539 5.6386,8.05204 2.8752,8.96095 -0.6224,0.20472 -5.3474,-3.97105 -10.5,-9.27948 z m 68.9085,-53.11374 c -8.0306,-4.47013 -8.3968,-9.28379 -1.6533,-21.73428 2.7454,-5.06877 3.3378,-5.58805 6.3748,-5.58805 12.8137,0 15.5196,22.28523 3.463,28.51998 -3.4829,1.80104 -2.5528,1.93715 -8.1845,-1.19765 z m 8.6517,-5.89376 c 1.0708,-1.07085 1.5714,-3.43723 1.5714,-7.42857 0,-5.87328 -1.5343,-9 -4.4164,-9 -2.2335,0 -6.1781,5.76265 -8.0081,11.69885 -1.4723,4.77621 7.0797,8.50314 10.8531,4.72972 z m -28.3322,6.63101 c -1.4314,-0.88463 -1.2743,-3.32819 0.8392,-13.05958 0.5375,-2.475 0.9969,-6.4455 1.0209,-8.82332 0.036,-3.56553 0.3502,-4.26484 1.7935,-3.98967 2.5993,0.4956 2.9672,12.47932 0.6083,19.81299 -2.1412,6.65696 -2.4909,7.15412 -4.2619,6.05958 z m 141.8023,-26.80958 c -5.6357,-5.36249 -20.3509,-19.7625 -32.7004,-32 -15.9891,-15.84409 -23.1059,-22.25 -24.719,-22.25 -2.4305,0 -3.4793,1.69458 -3.4793,5.62163 0,1.35192 -0.9307,4.2823 -2.0682,6.51195 -1.1374,2.22965 -2.3874,5.92423 -2.7776,8.21017 -0.8621,5.05017 -3.9261,5.84054 -5.408,1.39501 -0.746,-2.23812 -0.3389,-3.94319 2.1489,-9 1.6881,-3.43132 2.6244,-6.38973 2.0806,-6.57425 -0.5437,-0.18452 -8.5426,7.2873 -17.7752,16.60405 -9.2326,9.31675 -17.789,17.47603 -19.0142,18.13173 -2.2707,1.21524 -4.1863,0.76127 -4.1863,-0.99207 0,-0.53556 6.9876,-7.99639 15.528,-16.57961 8.5405,-8.58323 15.3077,-15.82625 15.0383,-16.0956 -0.2693,-0.26935 -2.5062,0.018 -4.9708,0.63863 -5.3346,1.34328 -11.552,1.44188 -13.4912,0.21397 -1.8129,-1.14792 -0.6852,-4.06107 1.6143,-4.16999 9.6006,-0.45477 27.3317,-6.45781 29.5711,-10.0116 0.8103,-1.28587 -0.7979,-3.36063 -8.2768,-10.6775 -6.4176,-6.27861 -9.0963,-9.56686 -8.6791,-10.65402 0.3319,-0.86488 1.0519,-1.5725 1.6,-1.5725 1.4336,0 7.1359,5.05861 18.5919,16.49309 21.7665,21.7257 54.651,53.41119 58.6997,56.55948 5.6665,4.40632 17.0643,17.66961 16.2779,18.94211 -1.346,2.17782 -3.7485,0.63353 -13.6046,-8.74468 z"
       id="path4380"
       inkscape:connector-curvature="0"
       sodipodi:nodetypes="cssscsscsccsscccccsccsssscssscccsssssssssssssssssssssscsssssssssssssssssssssscsscssscssssssssscccsccssccsccscssscsccccccsssscscscccsssscsscccccccccssscssssccssscssssssssssssssssscssssssssssssssssscsscccscscscccsssscsssccssssssscsssssssssssssssscccccssssscssssscssssscccccssscssscssscsssssscsssssccsssssssscssscscsccccssscsssccscsscsscsscsssssccsssccssssccscssccssscscsscccsssscsssccscssccsscccccsssscscccsssssssssscssccsscsssssssssccsssscsssssccsccssssssccsscssccsccccsssscsccsccccccssccccsssssssccssssssscsssccccscccccssscscccscssscsssssssssssssscccsccccscsssscsssssscssscsssssssscssccccscscsssscccscssssccsssssssscs" />
  </g>
</svg>
