<?xml version="1.0" encoding="UTF-8" standalone="no"?>
<!-- Created with Inkscape (http://www.inkscape.org/) -->

<svg
   xmlns:dc="http://purl.org/dc/elements/1.1/"
   xmlns:cc="http://creativecommons.org/ns#"
   xmlns:rdf="http://www.w3.org/1999/02/22-rdf-syntax-ns#"
   xmlns:svg="http://www.w3.org/2000/svg"
   xmlns="http://www.w3.org/2000/svg"
   xmlns:sodipodi="http://sodipodi.sourceforge.net/DTD/sodipodi-0.dtd"
   xmlns:inkscape="http://www.inkscape.org/namespaces/inkscape"
   width="542.48755"
   height="656.19202"
   id="svg4401"
   version="1.1"
   inkscape:version="0.48.2 r9819"
   sodipodi:docname="New document 36">
  <defs
     id="defs4403" />
  <sodipodi:namedview
     id="base"
     pagecolor="#ffffff"
     bordercolor="#666666"
     borderopacity="1.0"
     inkscape:pageopacity="0.0"
     inkscape:pageshadow="2"
     inkscape:zoom="0.5981481"
     inkscape:cx="19.220467"
     inkscape:cy="542.4717"
     inkscape:document-units="px"
     inkscape:current-layer="layer1"
     showgrid="false"
     fit-margin-top="0"
     fit-margin-left="0"
     fit-margin-right="0"
     fit-margin-bottom="0"
     inkscape:window-width="1920"
     inkscape:window-height="1021"
     inkscape:window-x="0"
     inkscape:window-y="27"
     inkscape:window-maximized="1" />
  <metadata
     id="metadata4406">
    <rdf:RDF>
      <cc:Work
         rdf:about="">
        <dc:format>image/svg+xml</dc:format>
        <dc:type
           rdf:resource="http://purl.org/dc/dcmitype/StillImage" />
        <dc:title></dc:title>
      </cc:Work>
    </rdf:RDF>
  </metadata>
  <g
     inkscape:label="Layer 1"
     inkscape:groupmode="layer"
     id="layer1"
     transform="translate(-55.045383,-73.767515)">
    <path
       style="fill:#000000"
       d="m 555.14869,729.2407 c -0.40981,-0.40981 -9.59731,-1.08243 -20.41666,-1.49469 -10.81935,-0.41226 -22.72337,-1.01599 -26.45336,-1.34162 -4.43742,-0.38738 -7.8943,-0.15508 -10,0.672 -4.69927,1.84579 -195.07339,2.23183 -198.71819,0.40296 -1.9313,-0.9691 -19.8716,-1.28839 -78.8713,-1.40372 -52.0855,-0.10181 -77.0075,-0.48974 -78.3718,-1.2199 -1.8922,-1.01271 -5.5677,-0.89954 -24.5379,0.7555 -6.2625,0.54638 -6.2925,0.53638 -10.25,-3.42107 -3.5977,-3.59776 -3.969,-4.45078 -3.969,-9.11881 0,-2.83237 -0.675,-6.76527 -1.5,-8.73977 -0.825,-1.97451 -1.5,-4.3833 -1.5,-5.35287 0,-0.96958 -1.0345,-2.44069 -2.2988,-3.26913 -1.2644,-0.82844 -2.7993,-3.0177 -3.4108,-4.86501 -0.6116,-1.84731 -2.113,-5.83375 -3.3364,-8.85875 -1.2493,-3.08919 -2.5612,-9.2258 -2.9928,-14 -0.4942,-5.46592 -2.2307,-13.00992 -4.8648,-21.13457 -3.4097,-10.51642 -4.0964,-13.98418 -4.0964,-20.6849 0,-4.42768 -0.4874,-9.31713 -1.0832,-10.86543 -0.5958,-1.54831 -1.3957,-4.615 -1.7776,-6.81487 -0.5167,-2.97565 -1.3764,-4.32661 -3.3578,-5.27626 -3.154,-1.5117 -4.1972,-4.19394 -3.3622,-8.64498 0.3569,-1.9024 -0.018,-5.02443 -0.905,-7.53879 -0.8328,-2.36041 -1.5142,-5.97998 -1.5142,-8.04348 0,-2.11501 -0.6544,-4.29494 -1.5,-4.99672 -1.1575,-0.96067 -1.5,-3.62147 -1.5,-11.65456 0,-6.99082 -0.4926,-11.58874 -1.5,-13.99968 -0.825,-1.97451 -1.5,-5.0551 -1.5,-6.84576 0,-1.79066 -0.675,-4.87125 -1.5,-6.84576 -1.1718,-2.8046 -1.5,-8.18688 -1.5,-24.60188 0,-15.87175 -0.3521,-21.9342 -1.4395,-24.78212 -2.1092,-5.52453 -2.9353,-90.4736 -0.9262,-95.25176 0.8782,-2.0887 1.3657,-7.22515 1.3657,-14.38989 0,-6.12799 0.4932,-12.71382 1.096,-14.63519 1.5061,-4.80074 2.8767,-20.88366 3.7066,-43.4934 0.3836,-10.45 1.0974,-19.62072 1.5864,-20.37938 0.4889,-0.75866 1.2826,-5.70866 1.7637,-11 2.1923,-24.11294 2.2077,-24.19455 4.9876,-26.4799 3.5426,-2.91243 5.3726,-12.75637 5.0921,-27.3915 -0.1462,-7.6304 0.2321,-12.45723 1.1756,-15 0.7652,-2.06207 2.1404,-7.57422 3.056,-12.24922 1.9101,-9.75197 3.1281,-13.39981 5.7436,-17.20071 2.689,-3.90771 4.7691,-11.51265 4.7816,-17.4812 0.01,-4.53377 0.3627,-5.43246 2.8241,-7.18513 3.5579,-2.53343 5.1867,-9.08354 5.1867,-20.85747 l 0,-8.57192 5.75,-5.39088 c 3.1625,-2.96498 7.122,-5.98752 8.799,-6.71676 1.6769,-0.72923 6.5865,-4.76163 10.9102,-8.9609 4.3237,-4.19927 8.5137,-7.63503 9.3112,-7.63503 0.7975,0 3.4495,-2.0281 5.8932,-4.5069 2.4437,-2.478792 6.3126,-5.460612 8.5974,-6.626272 5.0444,-2.57346 13.523,-8.10462 16.1954,-10.56537 8.9356,-8.22788 15.5017,-9.65501 43.7557,-9.51022 11.9417,0.0612 23.4167,0.52488 25.5,1.03041 2.085,0.50594 36.1129,1.00173 75.6922,1.10285 59.84943,0.15291 72.36403,0.42146 74.64661,1.60183 2.30005,1.1894 19.39864,1.48312 106.01794,1.82119 99.55696,0.38856 103.32592,0.47057 104.67285,2.27778 1.10826,1.48695 1.28588,4.87374 0.8588,16.3747 -0.29614,7.975002 -1.00078,17.875002 -1.56585,22.000002 -0.56508,4.125 -1.54108,13.575 -2.1689,21 -0.91719,10.84723 -1.82241,15.46501 -4.6067,23.5 -1.90586,5.5 -3.78372,12.10301 -4.17302,14.67336 -0.38929,2.57035 -1.91791,6.41954 -3.39692,8.55375 -1.47901,2.13422 -2.68911,4.70399 -2.68911,5.71062 0,1.92057 -1.06712,6.38338 -3.72115,15.56227 -2.8393,9.81964 -3.39572,13.29898 -4.23795,26.5 -0.45618,7.15 -1.57769,15.925 -2.49225,19.5 -0.91457,3.575 -2.04726,9.65 -2.5171,13.5 -0.46985,3.85 -1.34415,8.26679 -1.94291,9.8151 -0.59875,1.5483 -1.08864,5.84838 -1.08864,9.55572 0,5.61971 -0.41573,7.30411 -2.5,10.12918 -2.4562,3.3292 -2.5,3.71533 -2.5,22.04127 0,17.21737 -0.1539,18.83016 -2,20.95873 -1.73694,2.00271 -2,3.74136 -2,13.21875 0,6.002 -0.4506,11.75469 -1.00134,12.78376 -0.55074,1.02906 -1.02376,6.51198 -1.05116,12.18426 -0.0338,6.99463 -0.57715,11.72639 -1.68862,14.70491 -1.49157,3.99711 -1.53741,8.30966 -0.51022,48 0.97345,37.61407 1.3631,44.07475 2.8347,47.00164 1.43398,2.85207 1.61809,5.32443 1.15422,15.5 -0.80826,17.7301 1.80179,41.14043 5.31965,47.71362 0.69863,1.30539 1.48339,6.80016 1.74392,12.2106 0.3946,8.19467 0.78468,10.03137 2.33627,11.00035 1.02442,0.63976 1.86258,1.7412 1.86258,2.44764 0,0.70644 0.9,3.8451 2,6.97479 1.1,3.1297 2.01603,7.73096 2.03562,10.22502 0.0383,4.87234 1.94696,13.66878 4.02172,18.53466 0.70355,1.65 1.61932,7.725 2.03506,13.5 0.88675,12.31793 1.82935,17.4778 5.29766,29 1.40723,4.675 2.86062,11.34503 3.22977,14.82228 0.54306,5.11553 1.12058,6.61675 3.02567,7.86501 1.56512,1.02551 2.3545,2.50253 2.3545,4.40557 0,1.57456 1.07687,5.2353 2.39305,8.13499 1.31617,2.89968 2.91239,7.29715 3.54714,9.77215 5.87484,22.90699 6.32264,27.42831 2.80981,28.36971 -3.25603,0.87259 -39.27737,0.76959 -40.16179,-0.11483 z m 36.82089,-4.10781 c 0.94886,-1.53528 -1.41145,-13.45598 -4.54742,-22.96664 -2.39513,-7.26385 -3.6064,-9.56263 -5.4913,-10.42144 -1.33008,-0.60603 -2.66369,-2.26222 -2.96356,-3.68043 -0.29988,-1.41821 -0.96409,-3.61223 -1.47603,-4.87561 -0.51193,-1.26338 -0.9361,-4.86338 -0.9426,-8 -0.0112,-5.41772 -2.08368,-15.3372 -5.26562,-25.20295 -2.74953,-8.52508 -3.72264,-14.04877 -3.74611,-21.26435 -0.0208,-6.3931 -1.27524,-12.70027 -4.91841,-24.72905 -0.58193,-1.92137 -1.05805,-6.0695 -1.05805,-9.21806 0,-5.18695 -0.25069,-5.85601 -2.6689,-7.12305 -3.54789,-1.85892 -5.24894,-7.97867 -6.30012,-22.66549 -0.4527,-6.325 -1.29391,-12.85 -1.86935,-14.5 -2.4719,-7.08778 -3.58162,-17.36209 -4.10438,-38 -0.343,-13.54159 -0.99374,-22.76895 -1.69255,-24 -1.85624,-3.27005 -2.55473,-89.10261 -0.77952,-95.79049 0.76556,-2.88413 1.33696,-9.45004 1.28011,-14.70951 -0.0565,-5.225 0.39633,-10.75523 1.00624,-12.28941 0.60991,-1.53417 1.32324,-7.74023 1.58518,-13.79124 0.26193,-6.05101 0.82882,-11.54578 1.25976,-12.21059 0.43094,-0.66482 1.10937,-10.20876 1.50762,-21.20876 1.35346,-37.38388 1.49668,-38.61636 4.84501,-41.69363 2.48321,-2.28218 2.9309,-3.44925 2.9309,-7.64052 0,-2.7208 1.125,-9.27679 2.5,-14.56887 1.80301,-6.93942 2.5,-12.2307 2.5,-18.97909 0,-7.49522 0.776,-12.51703 3.89985,-25.2375 4.38883,-17.87155 7.10015,-30.88173 7.10015,-34.06983 0,-1.17906 1.17828,-3.00206 2.6184,-4.05112 4.85803,-3.53883 9.88518,-22.59503 8.8781,-33.65383 -0.49959,-5.48607 -0.2703,-7.99543 1.006,-11.00965 2.71909,-6.42166 5.59788,-40.895582 3.58327,-42.910192 -1.13238,-1.13238 -59.92701,-1.15975 -151.63132,-0.0706 -44.84229,0.53258 -49.38445,0.43606 -53,-1.1263 -3.58423,-1.54882 -10.83276,-1.74247 -77.42385,-2.06839 -48.3276,-0.23654 -74.3388,-0.71973 -76.0101,-1.41198 -1.5693,-0.65003 -10.1418,-0.94842 -22.4215,-0.78045 l -19.8808,0.27194 -3.1091,3.84745 c -3.0975,3.83303 -3.1084,3.88921 -2.9132,15 0.1305,7.427512 0.715,12.394352 1.75,14.870432 2.0704,4.95294 2.1254,18.06308 0.083,19.75814 -0.9275,0.76979 -3.2369,1.02972 -6.25,0.70349 -2.6284,-0.28458 -9.2789,-0.99954 -14.7789,-1.58881 -5.5,-0.58927 -12.0066,-1.55591 -14.4591,-2.1481 -5.9573,-1.43846 -28.2822,-1.02376 -34.5493,0.64178 -2.9149,0.77467 -6.505,2.70717 -8.5889,4.62332 -3.3789,3.10695 -3.6164,3.74269 -4.2193,11.2923 -0.3545,4.44015 -1.7518,11.11487 -3.14,15 -1.8722,5.23953 -2.5065,9.03271 -2.5223,15.08246 l -0.021,8.08246 -3.7427,2.42198 c -4.0221,2.6028 -7.1317,7.79643 -7.2093,12.04098 -0.026,1.44533 -0.723,4.24337 -1.548,6.21788 -0.825,1.9745 -1.5,5.60016 -1.5,8.05702 0,2.45686 -0.5337,5.73382 -1.1861,7.28212 -0.6523,1.54831 -1.506,8.6651 -1.897,15.8151 -0.7199,13.16364 -1.7164,19.70567 -3.78,24.8151 -0.6253,1.5483 -1.1369,5.45366 -1.1369,8.67857 0,5.54448 -1.1193,8.16723 -3.912,9.16704 -1.4554,0.52104 -3.2126,17.34576 -3.9521,37.83929 -0.3969,11.00129 -1.1678,19.64106 -1.9017,21.3151 -0.6898,1.57334 -1.2498,7.08717 -1.2696,12.5 -0.024,6.50492 -0.5047,10.50576 -1.4646,12.1849 -0.9833,1.72018 -1.4402,5.79661 -1.4646,13.0685 -0.023,6.78871 -0.6187,12.51106 -1.6664,16 -1.4475,4.8205 -1.5519,10.14934 -0.9277,47.37102 0.6072,36.207 0.9293,42.35784 2.3562,45 1.3568,2.51215 1.7193,7.0021 2.0231,25.06048 0.2037,12.1 0.7929,22.51486 1.3094,23.14412 0.5165,0.62927 1.2107,3.55427 1.5425,6.5 0.3318,2.94574 1.1038,6.25588 1.7154,7.35588 0.6117,1.1 1.3847,7.175 1.718,13.5 0.6613,12.55243 2.849,20.446 6.6472,23.98457 1.744,1.62482 2.2469,3.19997 2.2469,7.03771 0,2.7194 1.35,9.90937 3,15.97772 2.156,7.92925 3,13.26896 3,18.97966 0,5.64095 0.592,9.44822 2.0406,13.12326 1.1223,2.84733 2.527,7.47649 3.1216,10.28702 0.5946,2.81053 1.7471,6.41368 2.5611,8.007 0.814,1.59332 1.4506,5.35938 1.4147,8.36902 -0.036,3.00963 0.5933,7.04846 1.3983,8.97518 0.805,1.92671 1.4637,4.33778 1.4637,5.35793 0,1.02015 1.166,2.61884 2.5912,3.55264 1.4252,0.9338 3.0441,2.85667 3.5978,4.27305 1.4895,3.81092 5.7849,21.26151 5.8029,23.57524 0.01,1.1 0.8924,3.43808 1.9641,5.19574 2.558,4.19521 7.5274,5.24247 13.9516,2.94018 6.0145,-2.15547 14.3143,-2.11128 18.3921,0.0979 2.9521,1.59935 9.1726,1.74299 80.2003,1.8519 42.35,0.0649 85.775,0.60968 96.5,1.21056 22.5251,1.26197 169.09064,0.47784 172.8151,-0.92457 3.83364,-1.44352 26.08439,-1.00918 32.1849,0.62827 3.42635,0.91967 10.21285,1.48651 18,1.50344 6.875,0.0149 13.175,0.4634 14,0.99656 1.84785,1.19417 34.67768,1.33053 35.4091,0.14707 z M 100.90568,645.443 c -0.9534,-2.48455 2.6555,-12.56874 6.2952,-17.59015 1.847,-2.54813 5.1404,-6.24313 7.3187,-8.21111 2.1783,-1.96798 4.846,-5.28314 5.9283,-7.36703 1.0822,-2.08389 6.9503,-8.73122 13.0401,-14.77184 10.7243,-10.63758 12.896,-13.43076 9.3989,-12.0888 -0.9205,0.35322 -3.6205,0.35027 -6,-0.007 -3.2148,-0.48164 -4.3264,-1.09994 -4.3264,-2.40596 0,-1.34358 1.1275,-1.9072 4.7862,-2.39254 2.6324,-0.3492 5.6699,-1.24967 6.75,-2.00105 1.0801,-0.75138 3.4819,-1.69661 5.3373,-2.1005 4.2742,-0.93043 9.3283,-3.84987 15.3765,-8.88215 4.9727,-4.13739 6.0454,-7.31905 3.25,-9.63905 -0.825,-0.68469 -1.5022,-1.97729 -1.5049,-2.87244 -0.01,-1.89231 -6.0199,-18.34107 -8.3625,-22.87122 -0.8779,-1.69756 -3.4043,-8.59308 -5.6144,-15.32338 -3.3826,-10.30135 -4.0182,-13.54704 -4.0182,-20.51983 0,-4.55561 -0.4563,-9.48298 -1.0139,-10.94971 -0.5577,-1.46674 -1.2712,-8.13353 -1.5857,-14.8151 -0.3145,-6.68158 -1.2082,-13.84493 -1.9861,-15.91856 -2.0953,-5.5857 -2.0383,-57.70977 0.07,-63.68454 1.7462,-4.94907 0.7594,-7.72868 -4.3599,-12.28192 -5.3188,-4.73064 -10.759,-17.66838 -14.7164,-34.99827 -1.8549,-8.12298 -1.9153,-7.20761 1.6001,-24.26503 0.4534,-2.2 1.5142,-6.475 2.3573,-9.5 8.8806,-31.86343 8.1769,-30.75352 38.4521,-60.64786 19.8569,-19.60698 25.6052,-24.71537 30.5692,-27.16584 9.6211,-4.74948 15.6024,-6.91669 22.6136,-8.19357 3.575,-0.65109 8.0174,-1.8158 9.8721,-2.58826 1.8547,-0.77246 4.4601,-1.40447 5.7898,-1.40447 3.107,0 10.182,-3.60536 12.4857,-6.36261 2.2253,-2.66337 2.3917,-9.41091 0.3524,-14.29163 -1.8912,-4.52627 -1.9199,-8.75243 -0.07,-10.28788 1.1421,-0.9479 1.6457,-0.78437 2.5,0.81181 0.5883,1.09936 1.0697,2.72576 1.0697,3.61423 0,0.88847 0.7461,3.05555 1.6581,4.81574 l 1.658,3.20034 1.2659,-3.5 c 0.6962,-1.925 1.305,-5.75 1.3528,-8.5 0.048,-2.75 0.757,-7.20902 1.576,-9.90893 0.8191,-2.69991 1.496,-7.42491 1.5043,-10.5 0.014,-5.16614 1.3606,-10.81106 3.302,-13.84107 0.4405,-0.6875 2.1244,-1.25 3.7419,-1.25 2.3191,0 2.941,0.44316 2.941,2.09563 0,1.1526 -0.8347,3.2901 -1.855,4.75 -1.0467,1.49784 -2.1257,5.34301 -2.4763,8.82511 -0.3418,3.39391 -1.3326,7.94812 -2.2018,10.12047 -2.1024,5.25448 -1.6599,14.55837 0.7138,15.00941 0.9244,0.17564 3.495,-1.31969 5.7123,-3.32295 2.2174,-2.00326 4.4986,-3.35369 5.0693,-3.00096 2.3008,1.42194 0.7124,4.33461 -5.7386,10.52289 -8.1536,7.82156 -10.8876,11.73652 -9.3028,13.32127 0.8094,0.80942 1.9771,0.76595 4.3431,-0.16166 4.1739,-1.63641 43.5895,-2.3948 60.73602,-1.16861 19.57165,1.39962 28.02267,3.33383 47.36394,10.84031 6.51731,2.52942 9.17156,4.30358 15.5,10.36057 9.16146,8.76849 12.12735,12.9164 16.30886,22.80852 l 3.17032,7.5 0.64665,33.44054 c 0.69546,35.96486 0.30791,40.31337 -4.94316,55.46469 -1.12564,3.24787 -2.04661,6.06037 -2.04661,6.25 0,0.18962 1.14293,0.34477 2.53984,0.34477 2.72111,0 9.44744,-3.09348 13.34502,-6.13745 1.31167,-1.0244 3.0821,-1.86255 3.93427,-1.86255 0.85218,0 3.50072,-0.94461 5.88564,-2.09913 4.5853,-2.2197 7.29523,-1.9943 7.29523,0.6068 0,0.95088 -2.66294,2.85367 -6.75,4.82317 -3.7125,1.78901 -8.775,4.42732 -11.25,5.86291 -2.475,1.43559 -6.00759,2.92495 -7.85021,3.30967 -3.995,0.83414 -11.27373,5.56739 -14.11387,9.17804 -4.33427,5.51014 -1.08438,13.87883 7.92381,20.40433 6.2612,4.53559 12.0415,10.69694 13.83951,14.75186 2.11655,4.77327 3.02457,38.72819 1.19677,44.75266 -2.48022,8.17489 -3.25504,13.33508 -4.04058,26.90969 -1.49331,25.80539 -3.81551,35.73656 -11.92531,51 -2.63004,4.95 -5.07833,10.26541 -5.44063,11.81203 -1.15209,4.91811 -8.20897,14.02753 -17.54173,22.64388 -5.94967,5.49294 -9.04776,9.08242 -9.04776,10.48281 0,3.9469 14.58435,16.27034 23.82941,20.13532 4.67915,1.95616 19.36108,6.02883 24.99022,6.93212 2.47145,0.39659 4.57328,1.35418 4.91248,2.23811 1.38687,3.61413 -7.34725,5.77042 -11.29098,2.78753 -1.06762,-0.8075 -3.06613,-1.48273 -4.44113,-1.5005 -7.38769,-0.0955 -32.01383,-12.95159 -34.80728,-18.17119 -1.27508,-2.38252 -6.99701,-6.86361 -8.7546,-6.85611 -0.51597,0.002 -3.41312,2.28301 -6.43812,5.06846 -3.025,2.78545 -7.99313,6.78633 -11.04029,8.89084 -3.04715,2.10452 -6.16889,4.58382 -6.93718,5.50956 -0.7683,0.92573 -3.47843,2.73795 -6.02253,4.02714 -2.5441,1.28919 -5.24544,3.09081 -6.00298,4.00359 -0.75755,0.91279 -4.10428,3.036 -7.43719,4.71825 -3.33291,1.68225 -7.41354,4.09096 -9.06807,5.35269 -3.52838,2.69071 -14.67288,6.8063 -22.49178,8.30604 -25.209,4.83535 -24.1026,4.76312 -39.5,2.57903 -21.274,-3.0177 -35.6843,-9.81627 -48.4807,-22.87256 -3.9595,-4.03992 -8.1745,-7.86735 -9.3667,-8.50539 -1.1922,-0.63805 -3.2893,-2.82994 -4.6601,-4.87087 -4.0222,-5.98817 -11.1259,-13.21078 -12.9933,-13.21078 -3.1018,0 -8.8751,10.07713 -11.4584,20 -0.8696,3.34042 -1.6604,4.5 -3.0687,4.5 -2.57,0 -4.2082,-5.58904 -2.6443,-9.02136 1.9525,-4.28536 0.6181,-3.42106 -9.9794,6.46361 -3.7987,3.54324 -7.1796,7.52916 -7.513,8.85761 -0.3711,1.47833 -1.8785,2.94694 -3.8857,3.78562 -3.4291,1.43275 -9.064,7.67478 -11.8063,13.07835 -0.8831,1.7401 -4.4266,6.02753 -7.8745,9.52762 -5.7751,5.86251 -7.4215,8.54035 -10.7956,17.55855 -1.2838,3.43135 -3.6338,4.29821 -4.6281,1.70718 z m 174.2459,-31.94636 c 2.6999,-0.81904 6.4175,-1.49404 8.2614,-1.5 6.28,-0.0203 27.0112,-8.06909 32.1475,-12.48116 0.825,-0.70866 3.075,-2.07368 5,-3.03336 5.64863,-2.81606 16.29544,-10.10508 19,-13.00778 1.375,-1.47574 4.075,-3.49191 6,-4.48039 4.06336,-2.08651 15,-13.20446 15,-15.24868 0,-0.76396 -1.52667,-2.11704 -3.39259,-3.00684 -3.42272,-1.63218 -5.14329,-2.80351 -20.64596,-14.05534 -4.6962,-3.4085 -11.13477,-7.95752 -14.30792,-10.10894 -3.17316,-2.15142 -6.37992,-5.09233 -7.12614,-6.53536 -0.74622,-1.44303 -2.40765,-3.19798 -3.69208,-3.89989 -2.97171,-1.62398 -6.12971,-5.86767 -5.32981,-7.16207 1.7591,-2.84626 7.74069,0.7399 12.66022,7.59023 2.16232,3.01097 5.82074,6.01942 11.13842,9.15953 4.35519,2.57175 8.13342,5.23591 8.39606,5.92035 0.26265,0.68445 2.80005,2.6943 5.63867,4.46634 2.83862,1.77204 6.28613,4.20108 7.66113,5.39787 1.375,1.19679 5.05525,3.60775 8.17832,5.3577 l 5.67833,3.18173 3.82167,-3.24152 c 7.61987,-6.46311 15.84845,-14.34084 17.03624,-16.30985 0.66802,-1.10737 1.2311,-2.91339 1.25131,-4.01339 0.0202,-1.1 1.75359,-4.475 3.85197,-7.5 8.12249,-11.70934 16.16538,-31.53989 16.21396,-39.97719 0.0188,-3.26225 0.63276,-6.31734 1.5,-7.46394 1.12099,-1.48208 1.4682,-5.10404 1.4682,-15.31574 0,-7.84113 0.4566,-14.22777 1.10361,-15.43672 2.07021,-3.86824 3.17441,-13.29123 3.58013,-30.55231 0.40128,-17.07184 0.37936,-17.29029 -2.172,-21.64386 -2.81653,-4.80603 -11.02923,-12.979 -14.08785,-14.01968 -1.05814,-0.36002 -3.15711,-2.44018 -4.66439,-4.62257 -1.50727,-2.1824 -3.20358,-3.96799 -3.76959,-3.96799 -0.566,0 -8.15635,7.2 -16.86745,16 -8.71111,8.8 -16.28658,16 -16.83439,16 -0.54781,0 -2.2223,1.13648 -3.72109,2.52551 -1.49879,1.38902 -5.277,3.90036 -8.39602,5.58075 -3.11903,1.68038 -9.27096,5.04023 -13.67096,7.46633 -11.20625,6.17896 -14.06502,7.42741 -17.00772,7.42741 -1.41458,0 -4.43118,0.94848 -6.70348,2.10773 -5.4291,2.76973 -14.6477,5.82809 -17.7888,5.90161 -1.375,0.0322 -4.3,0.92798 -6.5,1.99066 -3.4031,1.6438 -6.2706,1.9372 -19.2151,1.96607 -10.715,0.0239 -16.4823,-0.39405 -19.5,-1.4131 -2.3567,-0.79587 -6.5347,-1.94795 -9.2845,-2.56017 -2.7498,-0.61223 -5.8998,-1.93906 -7,-2.94851 -1.1002,-1.00946 -4.3523,-2.14815 -7.2269,-2.53044 -3.531,-0.46958 -6.4142,-1.63891 -8.8875,-3.60446 -2.0136,-1.60016 -4.2169,-2.90939 -4.8964,-2.90939 -1.9781,0 -10.3032,-3.92385 -18.0797,-8.52143 -3.9546,-2.33801 -8.8084,-4.78502 -10.7864,-5.4378 -2.0791,-0.68618 -5.3948,-3.2152 -7.8599,-5.99503 -2.345,-2.64448 -5.6136,-5.50346 -7.2636,-6.35328 -1.65,-0.84981 -5.025,-3.3655 -7.5,-5.59041 -5.1031,-4.58744 -5.7575,-4.78975 -7.608,-2.35205 -1.9605,2.58266 -1.9567,54.89269 0,61.8185 0.7681,2.71232 1.6489,9.53769 1.9574,15.16748 0.3084,5.62978 1.03,11.1127 1.6035,12.18426 0.5735,1.07155 1.0427,6.05002 1.0427,11.06327 0,8.77491 0.246,9.7754 6.5925,26.81574 3.6259,9.73541 6.9385,18.15075 7.3613,18.70075 0.4229,0.55 1.7782,4.375 3.0117,8.5 3.0684,10.26061 3.9719,11.76937 12.0766,20.16779 3.8917,4.03272 8.4094,9.22802 10.0394,11.54513 1.6299,2.3171 3.5768,4.5671 4.3264,5 0.7495,0.43289 5.5099,4.72458 10.5786,9.53708 5.0686,4.8125 9.7557,8.75 10.4158,8.75 0.6601,0 5.5658,2.25 10.9017,5 6.8677,3.5395 10.9421,5.02817 13.9487,5.09643 2.336,0.053 6.7223,0.6659 9.7473,1.36193 7.737,1.78024 17.8217,1.80267 23.5911,0.0525 z m -12.9617,-189.26082 c 25.9208,-24.90429 75.3706,-74.76592 75.3706,-75.9983 0,-0.68843 -0.29115,-1.2517 -0.64701,-1.2517 -1.60123,0 -11.18166,8.99498 -39.46699,37.05516 -16.7123,16.57931 -35.2152,34.88079 -41.1175,40.66997 -9.8079,9.61995 -11.6529,12.27487 -8.53,12.27487 0.6163,0 7.0922,-5.7375 14.3909,-12.75 z m 10.0607,1.51859 c 6.4955,-6.17727 19.9099,-19.13948 29.8099,-28.80489 9.9,-9.66542 23.31378,-22.72379 29.8084,-29.0186 10.18294,-9.86964 14.6916,-15.20808 14.6916,-17.39544 0,-2.91395 -7.79548,4.0071 -35.14231,31.20034 -17.56109,17.4625 -36.61079,36.25 -42.33249,41.75 -5.7217,5.5 -10.7038,10.7875 -11.0712,11.75 -1.6165,4.23495 3.1547,1.05727 14.2361,-9.48141 z m 13.1223,-1.25692 c 6.9782,-6.86858 16.7098,-16.43108 21.6258,-21.25 10.01092,-9.81323 15.5618,-16.0042 15.5618,-17.35628 0,-3.06918 -5.10789,0.79381 -17.6451,13.34461 -7.8289,7.8375 -19.2147,19.12537 -25.3017,25.08415 -6.087,5.95879 -10.8125,11.24629 -10.5012,11.75 1.3906,2.24998 4.376,0.12524 16.2604,-11.57248 z m 28.36025,-16.54404 c 13.8046,-13.4572 26.61309,-25.76239 28.46331,-27.34488 5.31914,-4.54945 4.36081,-6.29009 -1.65917,-3.0136 -3.18532,1.73367 -11.18594,8.98266 -21.8667,19.81241 -9.26389,9.39314 -21.62849,21.64355 -27.47679,27.22314 -5.8483,5.57958 -10.6333,10.68778 -10.6333,11.35154 0,3.02644 9.8749,-5.31717 33.17265,-28.02861 z m -62.98105,15.78237 c 5.5215,-5.6375 11.1847,-11.00404 12.5848,-11.92565 5.323,-3.50371 67.21223,-66.23572 66.27275,-67.1752 -0.59528,-0.59528 -1.86386,-0.34535 -3.41892,0.67356 -1.35986,0.89101 -16.57043,15.68316 -33.80133,32.87144 -17.2309,17.18828 -32.9039,32.53975 -34.8289,34.11436 -4.1269,3.37573 -20.5841,19.2096 -21.491,20.67697 -0.3634,0.58799 0.4809,1.01452 2.0082,1.01452 2.0226,0 4.969,-2.38277 12.6744,-10.25 z m 60.3084,-2.05103 c 32.65706,-31.5313 48.48865,-47.3482 48.49397,-48.44897 0.008,-1.66135 -2.02379,-1.53237 -4.49397,0.28528 -1.1,0.80942 -11.06466,10.35761 -22.14369,21.21819 -11.07902,10.86059 -23.61191,23.0163 -27.85081,27.01268 -5.2966,4.99355 -7.519,7.75625 -7.1058,8.83316 0.3308,0.86185 1.1636,1.38429 1.8508,1.16097 0.6872,-0.22331 5.7495,-4.7509 11.2495,-10.06131 z m -71.0774,0.97504 c 4.4426,-4.5793 9.6524,-9.49368 11.5774,-10.92084 1.925,-1.42717 18.3293,-17.25369 36.454,-35.17005 24.10314,-23.82616 32.65644,-32.87268 31.84633,-33.68279 -0.66506,-0.66506 -1.69924,-0.76652 -2.58843,-0.25395 -0.81447,0.46949 -17.3953,16.46348 -36.8464,35.5422 -19.451,19.07872 -36.517,35.72872 -37.9243,37 -12.6138,11.39431 -14.0978,12.961 -13.5727,14.32928 1.0396,2.70932 2.9089,1.552 11.0541,-6.84385 z m -8.138,-2.92401 c 4.5612,-4.5375 19.9449,-19.5 34.1859,-33.25 41.9053,-40.46036 47.05454,-46 42.7584,-46 -0.9732,0 -23.2363,21.28969 -58.7996,56.22868 -6.2861,6.17578 -11.4293,11.65158 -11.4293,12.16844 0,0.51687 -1.6875,1.94433 -3.75,3.17213 -4.6979,2.79665 -15.25,12.93319 -15.25,14.64945 0,3.29339 4.5811,0.69467 12.2846,-6.9687 z m 87.35149,4 c 6.54396,-4.86796 17.55879,-15.11852 37.15087,-34.57315 14.04807,-13.9495 20.14357,-20.64632 19.43627,-21.35362 -0.67584,-0.67584 -1.62508,-0.69772 -2.75821,-0.0636 -0.95026,0.53179 -11.69446,10.81592 -23.87602,22.85362 -12.18156,12.03771 -24.94745,24.27577 -28.36864,27.1957 -3.4212,2.91993 -6.22036,5.95743 -6.22036,6.75 0,2.00185 1.12035,1.80636 4.63609,-0.80895 z m -97.07219,-6.25 c 15.5983,-14.09422 79.4361,-76.77806 79.4361,-78.00012 0,-0.27493 -0.8206,-0.49988 -1.8235,-0.49988 -2.2513,0 -7.2714,4.67958 -45.938,42.8216 -16.9062,16.67688 -31.9631,30.96926 -33.4598,31.76085 -3.0508,1.61349 -7.9863,8.27266 -7.1428,9.63739 0.8349,1.35091 1.7554,0.76116 8.928,-5.71984 z m -10.7916,-0.70226 c 11.5667,-10.28118 82.2277,-79.88231 82.2277,-80.99425 0,-0.44192 -0.7515,-0.80349 -1.6699,-0.80349 -1.9914,0 -5.9619,3.71509 -48.8301,45.68857 -18.15,17.77118 -34.4547,33.32378 -36.2327,34.56133 -3.3588,2.33786 -4.3943,5.7501 -1.745,5.7501 0.8373,0 3.6498,-1.89101 6.25,-4.20226 z m -7.0866,-4.04774 c 2.1312,-1.7875 10.1613,-9.57535 17.8446,-17.30634 7.6833,-7.73099 18.2447,-18.10995 23.4697,-23.06437 5.225,-4.95442 11.5641,-11.22907 14.0869,-13.94366 2.5229,-2.7146 9.1604,-9.28625 14.75,-14.60368 5.5897,-5.31742 10.1631,-10.15492 10.1631,-10.75 0,-2.61011 -3.5988,-0.62259 -9.3578,5.16805 -3.4187,3.4375 -14.9564,14.575 -25.6394,24.75 -10.683,10.175 -27.307,26.2625 -36.9422,35.75 -15.0996,14.86808 -17.1549,17.25 -14.8842,17.25 1.5106,0 4.2873,-1.38638 6.5093,-3.25 z m 3.4491,-14.48604 c 8.0491,-8.12018 25.9366,-25.75846 39.75,-39.19618 13.8133,-13.43772 25.1152,-25.02522 25.1152,-25.75 0,-0.72478 -0.6308,-1.31778 -1.4019,-1.31778 -1.4195,0 -22.9427,20.51508 -60.9788,58.12269 -19.117,18.90169 -22.2711,22.84485 -18.3103,22.89127 0.6551,0.008 7.7766,-6.62983 15.8258,-14.75 z m 137.66486,12.3269 c 1.48519,-0.77502 7.47663,-6.28752 13.31431,-12.25 5.83768,-5.96247 13.82518,-13.85517 17.75,-17.53933 6.87976,-6.45792 8.79808,-9.80153 5.62339,-9.80153 -1.55567,0 -38.92503,36.11355 -40.61487,39.25 -1.17002,2.17163 0.19228,2.28987 3.92717,0.34086 z M 216.71848,378.14075 c 48.2667,-47.52504 46.9825,-46.15493 43.2598,-46.15493 -1.8994,0 -10.5147,8.10129 -49.698,46.73256 -16.3791,16.14836 -29.5151,29.78968 -29.191,30.31405 0.3241,0.52436 1.1963,0.95339 1.9382,0.95339 0.7419,0 15.9028,-14.33028 33.691,-31.84507 z m -28.035,15.57502 c 6.2574,-6.19853 22.5145,-22.19565 36.127,-35.54916 13.6125,-13.35351 24.75,-24.70698 24.75,-25.22995 0,-2.79356 -8.4193,2.34741 -11.8383,7.22864 -0.8142,1.16254 -3.3213,3.71547 -5.5711,5.67317 -4.1463,3.60796 -35.4505,34.11424 -49.7717,48.50319 -7.5076,7.54307 -9.3856,10.64416 -6.4459,10.64416 0.7552,0 6.4927,-5.07152 12.75,-11.27005 z m -13.623,2.30108 c 2.2,-2.17676 5.7359,-5.66173 7.8575,-7.74438 2.1217,-2.08266 14.8257,-14.69915 28.2312,-28.03665 13.4055,-13.3375 24.8322,-24.25 25.3925,-24.25 0.5603,0 1.0188,-0.9 1.0188,-2 0,-1.13277 -0.6667,-2 -1.5375,-2 -0.8456,0 -12.3975,10.6875 -25.6709,23.75 -13.2733,13.0625 -28.1592,27.67553 -33.0797,32.47341 -6.0141,5.86429 -8.7543,9.22375 -8.3605,10.25 0.8686,2.26345 1.7439,1.91574 6.1486,-2.44238 z m -1.8518,-9.78103 c 4.3193,-4.2625 17.4154,-17.1567 29.1025,-28.65377 11.6871,-11.49708 21.2493,-21.28458 21.2493,-21.75 0,-2.53648 -4.2669,0.0222 -11.4282,6.85313 -22.0291,21.01263 -49.5718,48.77169 -49.5718,49.96117 0,2.89426 3.127,1.0117 10.6482,-6.41053 z m 10.6803,-21.96127 c 22.5358,-22.10667 27.5288,-27.28873 26.2933,-27.28873 -2.6002,0 -7.4434,3.65026 -16.9061,12.74176 -22.2765,21.40285 -36.7157,36.00011 -36.7157,37.11768 0,3.39977 5.403,-1.06255 27.3285,-22.57071 z m -10.0785,-1.71262 c 10.8625,-10.77926 19.75,-19.81858 19.75,-20.08738 0,-0.2688 -0.8765,-0.48873 -1.9477,-0.48873 -2.4248,0 -42.0523,37.58889 -42.0523,39.88898 0,1.51188 1.283,2.0298 2.8815,1.16322 0.8902,-0.48259 10.506,-9.69683 21.3685,-20.47609 z m -23.6888,9.67389 c 1.3948,-3.1625 4.2652,-7.55 6.3786,-9.75 2.1135,-2.2 4.5774,-5.46096 5.4754,-7.24657 0.8979,-1.78561 3.0843,-3.94724 4.8587,-4.80363 4.8002,-2.31679 8.823,-4.66664 12.6153,-7.36906 1.864,-1.32832 5.464,-3.41242 8,-4.63132 4.2972,-2.06545 6.5575,-2.86515 19.5389,-6.91281 2.7105,-0.84513 7.2664,-1.53661 10.1243,-1.53661 2.8579,0 7.0134,-0.64118 9.2346,-1.42485 3.2468,-1.14555 9.7278,-1.34797 33.0619,-1.03264 31.431,0.42475 28.3481,-0.007 50.1511,7.01762 2.475,0.79737 5.86237,1.44754 7.52749,1.44482 1.66513,-0.003 3.91513,0.6036 5,1.34739 1.08488,0.74379 3.95097,1.65966 6.36908,2.03526 2.41812,0.3756 6.46812,1.50706 9,2.51435 2.53189,1.00729 7.52843,2.9769 11.10343,4.37692 3.575,1.40002 10.325,5.08124 15,8.1805 8.99683,5.96439 8.86912,5.93834 18.55116,3.78352 2.22814,-0.49589 6.37221,-2.1649 9.20906,-3.7089 4.94624,-2.69208 5.24589,-3.09918 7.30226,-9.92063 1.1794,-3.91235 2.71475,-8.91336 3.41188,-11.11336 3.50637,-11.06537 3.7506,-14.44447 3.34956,-46.34328 l -0.39911,-31.74512 -3.27492,-5.32242 c -1.80121,-2.92734 -4.0717,-7.35087 -5.04555,-9.83008 -1.9834,-5.04936 -10.52469,-15.3256 -16.60434,-19.97709 -2.2,-1.6832 -5.575,-3.39015 -7.5,-3.79323 -1.925,-0.40307 -5.16957,-1.57794 -7.21016,-2.61082 -2.04059,-1.03288 -4.51559,-1.89227 -5.5,-1.90976 -0.98441,-0.0175 -2.61939,-0.66035 -3.63329,-1.42857 -1.03656,-0.78541 -4.1479,-1.39677 -7.10837,-1.39677 -3.56219,0 -6.36182,-0.66872 -8.65656,-2.06769 -3.24757,-1.97988 -4.7948,-2.06785 -36.43022,-2.07143 -31.0684,-0.004 -33.2725,0.11552 -36.9614,1.99626 -2.7072,1.38022 -5.8972,2 -10.2938,2 -4.8895,0 -7.9562,0.69577 -13.1882,2.99212 -3.7495,1.64566 -12.5428,4.31692 -19.5405,5.93613 -21.2503,4.91708 -25.8987,7.75784 -47.9257,29.28837 -10.2035,9.9735 -18.5518,18.71945 -18.5518,19.43545 0,0.716 -1.2375,2.07028 -2.75,3.0095 -7.0893,4.40226 -10.9873,10.52769 -15.1698,23.83843 -1.2097,3.85 -2.8477,8.19443 -3.6399,9.65429 -0.7921,1.45986 -1.4381,3.70986 -1.4354,5 0,1.29014 -0.6515,4.37071 -1.4538,6.84571 -4.8022,14.81317 -5.7438,22.51562 -3.5978,29.429 5.0463,16.25716 7.5644,22.69844 11.0712,28.321 4.3735,7.01218 6.2673,6.91289 9.5367,-0.5 z m 190.07767,-1.10336 c 2.16642,-1.56934 4.76176,-4.15684 5.76743,-5.75 1.00567,-1.59315 3.42775,-4.28371 5.38241,-5.97902 2.43979,-2.11608 3.3533,-3.60516 2.91399,-4.75 -0.35196,-0.91719 -1.03335,-1.66762 -1.51421,-1.66762 -1.01472,0 -19.50971,18.46366 -20.01578,19.98188 -0.67094,2.0128 3.60507,0.96172 7.46616,-1.83524 z m 16.25298,-4.73931 c 4.99272,-4.48889 6.12256,-6.66236 4.1099,-7.90625 -1.34446,-0.83092 -4.37623,1.40815 -8.62031,6.3664 -3.1585,3.68999 -3.72828,6.13252 -1.43058,6.13252 0.45806,0 3.1315,-2.0667 5.94099,-4.59267 z m 33.10815,-2.62984 c 0,-1.5479 -2.82063,-1.94385 -5.11191,-0.7176 l -2.26819,1.2139 2.3967,1.94074 c 2.28132,1.84729 2.45897,1.85557 3.69005,0.17197 0.71134,-0.97282 1.29335,-2.14687 1.29335,-2.60901 z"
       id="path4487"
       inkscape:connector-curvature="0"
       sodipodi:nodetypes="sssssssscssscccccssccscscscsssccscscsssccscsscscssscsssssssssssssssssssssssssssssssssssssssssssssscssssssssssssssssssssssssssssssssscscssccssssscsccscsscscssscccccsccssccsssscsscsssccssssssssscccsscsscsssssscccscsccsssssssssssccsccccccsssccscccscssssscsssssssssssssssssssssssssscssssssssssscscscsccsssccssssssssssscsssssscsssssssssssssssssssscsscssscssccsssccsssccsccssscsccsssssssssssssssssssscssssssssscsssssssscsssccsssssssccsssssssssssssssssssssccssssssssssscsssssssssssscsssssssssssssssscssssscsssssscsssssssssssssssssssccsssssssccsssssssssscsssssccsscsssssssccccssssssssssssssssscsss" />
  </g>
</svg>
