<?xml version="1.0" encoding="UTF-8" standalone="no"?>
<!-- Created with Inkscape (http://www.inkscape.org/) -->

<svg
   xmlns:dc="http://purl.org/dc/elements/1.1/"
   xmlns:cc="http://creativecommons.org/ns#"
   xmlns:rdf="http://www.w3.org/1999/02/22-rdf-syntax-ns#"
   xmlns:svg="http://www.w3.org/2000/svg"
   xmlns="http://www.w3.org/2000/svg"
   xmlns:sodipodi="http://sodipodi.sourceforge.net/DTD/sodipodi-0.dtd"
   xmlns:inkscape="http://www.inkscape.org/namespaces/inkscape"
   width="726.80182"
   height="594.38629"
   id="svg4047"
   version="1.1"
   inkscape:version="0.48.2 r9819"
   sodipodi:docname="New document 19">
  <defs
     id="defs4049" />
  <sodipodi:namedview
     id="base"
     pagecolor="#ffffff"
     bordercolor="#666666"
     borderopacity="1.0"
     inkscape:pageopacity="0.0"
     inkscape:pageshadow="2"
     inkscape:zoom="0.35"
     inkscape:cx="751.88608"
     inkscape:cy="312.88418"
     inkscape:document-units="px"
     inkscape:current-layer="layer1"
     showgrid="false"
     fit-margin-top="0"
     fit-margin-left="0"
     fit-margin-right="0"
     fit-margin-bottom="0"
     inkscape:window-width="1920"
     inkscape:window-height="1021"
     inkscape:window-x="0"
     inkscape:window-y="27"
     inkscape:window-maximized="1" />
  <metadata
     id="metadata4052">
    <rdf:RDF>
      <cc:Work
         rdf:about="">
        <dc:format>image/svg+xml</dc:format>
        <dc:type
           rdf:resource="http://purl.org/dc/dcmitype/StillImage" />
        <dc:title></dc:title>
      </cc:Work>
    </rdf:RDF>
  </metadata>
  <g
     inkscape:label="Layer 1"
     inkscape:groupmode="layer"
     id="layer1"
     transform="translate(-4.2932846,-219.91975)">
    <path
       style="fill:#000000"
       d="m 311.92863,813.16115 c -2.5761,-1.05437 -8.3855,-1.45263 -22.0066,-1.50862 -11.023,-0.0453 -19.9192,-0.54048 -22,-1.22453 -1.9214,-0.63164 -12.9434,-1.50972 -24.4934,-1.95129 -21.8769,-0.83637 -29.5942,-1.62317 -43,-4.38395 -4.4,-0.90614 -13.175,-2.02353 -19.5,-2.48311 -6.325,-0.45958 -13.072,-1.33005 -14.9934,-1.9344 -1.9214,-0.60434 -5.5214,-1.09762 -8,-1.09619 -2.4786,10e-4 -7.4316,-0.64083 -11.0066,-1.42727 -3.575,-0.78643 -9.2,-1.94144 -12.5,-2.56669 -3.3,-0.62524 -8.5807,-1.78297 -11.7349,-2.57273 -3.1542,-0.78975 -7.6542,-1.43758 -10,-1.43961 -6.502,-0.006 -33.460104,-13.59655 -43.982704,-22.1738 -2.2418,-1.82738 -5.2475,-4.05095 -6.6792,-4.94127 -1.4318,-0.89032 -8.502,-7.6426 -15.7117,-15.00506 -11.8198,-12.07018 -13.5637,-14.32178 -17.7372,-22.90105 -4.775,-9.81556 -6.0108,-14.12574 -7.734,-26.97513 -0.5532,-4.125 -1.5169,-9.975 -2.1415,-13 -0.6246,-3.025 -1.4167,-11.8 -1.7603,-19.5 -0.6091,-13.65281 -1.6394,-21.72437 -4.5949,-36 -0.7971,-3.85 -1.4578,-11.275 -1.4682,-16.5 -0.014,-6.78073 -0.4393,-10.05563 -1.4872003,-11.44113 -1.1248,-1.48715 -1.4682,-5.14129 -1.4682,-15.62427 0,-9.23214 -0.4596,-14.98589 -1.413,-17.68801 -2.1925,-6.21407 -3.1485,-97.61037 -1.0631,-101.62999 1.1047,-2.12938 1.4761,-6.5291 1.4761,-17.48751 0,-8.05327 0.4783,-16.21433 1.0629,-18.1357 0.5846,-1.92137 1.251,-8.6684 1.481,-14.9934 0.2299,-6.325 1.1041003,-14.65 1.9427003,-18.5 0.8386,-3.85 1.9844,-15.55 2.5463,-26 0.5619,-10.45 1.4569,-20.575 1.9888,-22.5 0.5319,-1.925 0.975,-6.2 0.9845,-9.5 0.025,-8.77035 3.0692,-19.76847 8.7416,-31.58682 4.7793,-9.95727 5.6135,-11.0233 19.0552,-24.34859 7.7314,-7.66448 15.3261,-14.57945 16.8771,-15.36662 1.5509,-0.78716 4.1699,-2.62616 5.8199,-4.08665 4.6704,-4.13403 8.3545,-6.40109 17,-10.46118 4.4,-2.06633 10.0967,-4.86094 12.6593,-6.21025 2.5626,-1.3493 6.837604,-2.69119 9.500004,-2.98197 5.6154,-0.61331 17.6365,-3.02401 24.8407,-4.98153 2.75,-0.74723 9.95,-2.07611 16,-2.95307 6.05,-0.87696 13.025,-2.06587 15.5,-2.64203 2.475,-0.57615 9.45,-1.46069 15.5,-1.96563 6.05,-0.50495 13.475,-1.37848 16.5,-1.94117 3.025,-0.56269 9.775,-1.43901 15,-1.94737 5.225,-0.50837 11.3,-1.3867 13.5,-1.95185 2.2,-0.56515 10.3832,-1.03829 18.1849,-1.05141 7.8017,-0.0131 15.4396,-0.50089 16.9731,-1.08393 1.5335,-0.58304 12.2503,-1.29678 23.8151,-1.58608 11.5648,-0.2893 23.2769,-1.07696 26.0269,-1.75035 7.6353,-1.86965 118.0532,-1.57382 121.4657,0.32542 1.9533,1.08715 6.213,1.24877 20.5,0.77778 14.2773,-0.47067 18.8676,-0.29686 22.0343,0.83433 2.8822,1.02958 8.9042,1.43307 21.55,1.44392 12.6912,0.0109 17.8952,0.36113 18.7968,1.26506 0.69,0.69167 5.1343,1.52762 9.95,1.87156 4.7868,0.34185 12.3032,1.38485 16.7032,2.31776 4.4,0.93292 12.95,2.10042 19,2.59447 16.91328,1.38113 26.52282,2.50463 32,3.74127 2.75,0.6209 7.7,1.62934 11,2.241 3.3,0.61165 8.58071,1.75825 11.7349,2.54801 3.1542,0.78976 7.6542,1.43575 10,1.43554 2.66926,-2.4e-4 6.51007,1.0885 10.2651,2.90981 3.3,1.60061 8.83152,4.10956 12.29227,5.57543 3.46075,1.46588 9.01786,4.54397 12.34915,6.84019 3.33129,2.29623 7.57162,5.09844 9.42295,6.22714 1.85134,1.1287 10.25359,8.63447 18.67166,16.67951 15.16827,14.49609 15.36148,14.73583 21.53478,26.72083 3.42605,6.65143 6.22919,13.01273 6.22919,14.13623 0,1.1235 0.54103,3.02564 1.20229,4.22698 1.40661,2.55546 2.55569,14.50016 3.67334,38.18426 0.44122,9.35 1.32471,18.26679 1.9633,19.8151 0.63859,1.5483 1.16107,4.75423 1.16107,7.12427 0,2.37005 0.675,6.22233 1.5,8.56063 0.99718,2.82631 1.5,8.07503 1.5,15.65785 0,7.87679 0.46416,12.51728 1.5,14.99639 1.08029,2.5855 1.5,7.34223 1.5,17.00001 0,9.65777 0.41971,14.41451 1.5,17 2.22199,5.31798 2.22199,94.47627 0,103.00707 -0.98988,3.80039 -1.5,10.5506 -1.5,19.84879 0,7.74944 -0.42426,14.5174 -0.9428,15.0399 -0.51854,0.5225 -1.15108,6.575 -1.40563,13.45 -0.52867,14.27823 -2.04598,28.22819 -3.28204,30.17468 -0.46289,0.72892 -1.16695,9.20032 -1.5646,18.82532 -1.53207,37.08405 -2.91642,44.2844 -11.99153,62.37073 -4.54578,9.05954 -6.03597,10.93813 -18.1331,22.85923 -11.91348,11.74013 -17.29658,16.14916 -27.19007,22.27004 -1.77798,1.1 -5.30624,3.47765 -7.84056,5.28366 -4.06796,2.89891 -14.40426,7.78676 -21.64967,10.23773 -1.375,0.46514 -10.15,2.24465 -19.5,3.95448 -9.35,1.70983 -19.28955,3.76473 -22.08789,4.56645 -2.79834,0.80173 -7.07334,1.46019 -9.5,1.46326 -2.42666,0.003 -6.21211,0.52695 -8.41211,1.16419 -2.2,0.63724 -8.275,1.24448 -13.5,1.34942 -6.3018,0.12657 -13.0349,1.06537 -20,2.78859 -5.775,1.42878 -12.6082,2.61903 -15.1849,2.645 -2.5767,0.026 -5.9517,0.57295 -7.5,1.2155 -2.6976,1.1195 -19.2671,2.05351 -64.8151,3.65355 -12.7368,0.44743 -22.1138,1.22015 -23.8304,1.96377 -2.0734,0.89813 -17.7204,1.36055 -58.5,1.72886 -46.8614,0.42323 -56.2234,0.27613 -59.1696,-0.92976 z m 116.8151,-8.71296 c 1.2733,-0.47946 11.5404,-0.87174 22.8157,-0.87174 11.2754,0 21.2942,-0.42468 22.264,-0.94372 0.9699,-0.51905 9.3778,-1.21874 18.6843,-1.55487 9.3065,-0.33613 18.7209,-1.02545 20.9209,-1.53183 2.2,-0.50638 5.7407,-0.93169 7.8682,-0.94513 4.1498,-0.0262 19.0396,-2.57949 24.3857,-4.18159 1.7896,-0.53631 8.0896,-1.37874 14,-1.87207 14.74627,-1.23085 25.8927,-2.81492 31.2461,-4.44054 4.35124,-1.3213 7.30614,-1.85935 19,-3.4597 3.025,-0.41398 6.76679,-1.27421 8.3151,-1.91162 1.5483,-0.63741 4.74684,-1.15893 7.10785,-1.15893 2.9133,0 6.34682,-1.06779 10.6849,-3.32289 3.51568,-1.8276 7.74215,-3.86057 9.39215,-4.51773 1.65,-0.65715 6.18834,-3.32435 10.08519,-5.9271 3.89686,-2.60276 10.2168,-6.8075 14.04431,-9.34388 3.82751,-2.53637 7.68254,-5.71569 8.56674,-7.06515 0.8842,-1.34945 6.15176,-6.89627 11.70569,-12.32626 5.55394,-5.42999 10.09807,-10.37766 10.09807,-10.99482 0,-0.61717 2.27304,-5.59513 5.05119,-11.06214 5.47221,-10.76853 8.55648,-22.87975 7.46866,-29.32768 -0.3688,-2.18603 -0.0162,-5.29272 0.89302,-7.86809 1.06929,-3.02878 1.4999,-8.364 1.49355,-18.50523 -0.007,-11.01886 0.36671,-15.14847 1.64788,-18.21474 1.13955,-2.72732 1.50966,-5.69156 1.18551,-9.49478 -0.2592,-3.04123 -0.006,-6.65451 0.56272,-8.02951 0.56869,-1.375 1.34866,-7.225 1.73327,-13 0.3846,-5.775 1.23497,-18.825 1.8897,-29 0.66952,-10.40468 1.76713,-19.82311 2.50835,-21.52366 1.91337,-4.38978 1.0111,-86.74809 -1.0288,-93.90784 -0.85026,-2.98429 -1.40505,-9.61074 -1.40505,-16.78212 0,-8.27167 -0.45301,-12.93483 -1.5,-15.44063 -1.02182,-2.44556 -1.5,-7.06256 -1.5,-14.48298 0,-6.16989 -0.62524,-13.37957 -1.442,-16.62788 -2.38997,-9.50501 -3.58767,-18.91632 -4.53412,-35.62837 -0.49505,-8.74142 -1.34588,-17.06642 -1.89073,-18.5 -0.54486,-1.43359 -1.23684,-5.98153 -1.53774,-10.10653 -0.89881,-12.32153 -1.93558,-15.90387 -8.47488,-29.28319 -5.73207,-11.72775 -6.7587,-13.18975 -12.43423,-17.70725 -3.40247,-2.70823 -8.4363,-7.24289 -11.1863,-10.07701 -10.70765,-11.0352 -29.71926,-24.11625 -40,-27.52226 -2.75,-0.91107 -6.40312,-2.5011 -8.11803,-3.53339 -1.71492,-1.03229 -4.79566,-1.87689 -6.8461,-1.87689 -2.05043,0 -6.04731,-0.61805 -8.88196,-1.37345 -2.83465,-0.7554 -9.65391,-2.14871 -15.15391,-3.09625 -5.5,-0.94754 -11.81504,-2.35449 -14.03343,-3.12655 -2.21839,-0.77207 -7.16839,-1.41807 -11,-1.43556 -4.53422,-0.0207 -7.64427,-0.54442 -8.90767,-1.5 -1.3697,-1.03593 -4.6082,-1.47399 -11,-1.48787 -4.9824,-0.0108 -12.6589,-0.69309 -17.0589,-1.51615 -4.4,-0.82306 -11.9213,-1.90265 -16.714,-2.39907 -4.7927,-0.49643 -9.2212,-1.216 -9.841,-1.59906 -0.6198,-0.38306 -8.5799,-0.6872 -17.6891,-0.67587 -11.0626,0.0138 -18.3539,-0.44607 -21.9579,-1.38479 -3.6879,-0.96058 -11.2148,-1.40538 -23.7817,-1.40538 -10.6948,0 -19.5637,-0.44952 -21.2012,-1.07457 -3.8067,-1.45307 -107.7142,-1.27687 -112.4436,0.19068 -1.8543,0.57541 -12.1465,1.19575 -22.8715,1.37853 -10.725,0.18279 -21.525,0.85793 -24,1.50032 -2.475,0.64239 -13.05,1.57182 -23.5,2.06539 -23.2474,1.09802 -36.5829,2.24825 -38.2817,3.30191 -1.8844,1.16877 -19.7537,3.56932 -26.8426,3.60603 -3.3683,0.0174 -8.0374,0.70671 -10.3757,1.53171 -2.3383,0.825 -6.9754,1.5 -10.3047,1.5 -3.3293,0 -7.4353,0.4379 -9.1243,0.97312 -4.9861,1.57998 -28.6123,6.1928 -34.571,6.74972 -3.025,0.28272 -6.245,1.16698 -7.1554,1.96501 -0.9105,0.79803 -3.6105,2.05385 -6.000004,2.7907 -6.8573,2.11457 -14.8733,6.19904 -20.8446,10.62106 -3.025,2.24015 -7.975,5.68858 -11,7.66317 -3.025,1.97459 -11.0065,8.98025 -17.7366,15.56812 -10.9693,10.73751 -12.7574,12.99182 -17.2654,21.76798 -6.9889,13.60609 -9.4046,21.67502 -9.1968,30.71988 0.105,4.57057 -0.3893,8.65305 -1.3165,10.87212 -1.0615,2.5404 -1.4915,7.43828 -1.5086,17.18123 -0.013,7.49534 -0.4756,15.42788 -1.0277,17.62788 -1.3379,5.33096 -2.8241,19.48099 -3.466,33 -0.2873,6.05 -1.1522,13.25 -1.9221,16 -0.9385,3.35229 -1.2789,8.54032 -1.033,15.74317 0.2474,7.24549 -0.1043,12.55191 -1.0802,16.29879 -2.1447,8.23394 -2.1107,84.95102 0.041,92.04912 0.8234,2.71647 1.7512,11.1617 2.0773,18.90893 0.3242,7.7 1.2841,17.6 2.1333,22 0.9727,5.04037 1.3458,10.64073 1.0083,15.13802 -0.3966,5.28459 -0.1424,7.88114 0.9788,10 0.8329,1.57409 1.6405,5.82835 1.7946,9.45391 0.1541,3.62556 0.8956,7.67556 1.6478,9 0.9711,1.71005 1.4032,6.75608 1.4906,17.40807 0.07,8.50787 0.6117,16.2184 1.2522,17.8151 0.6211,1.5483 1.1488,4.9233 1.1728,7.5 0.087,9.31651 3.666,21.53963 9.8092,33.49666 4.3287,8.42527 6.2378,10.76951 19.5555,24.01251 8.1171,8.07165 15.262,14.67573 15.8774,14.67573 0.6155,0 2.4905,1.30469 4.1667,2.89931 3.5874,3.41284 19.3135,12.24731 25.047604,14.07105 2.2,0.69971 5.4103,2.12205 7.1339,3.16075 1.7237,1.0387 6.4487,2.31334 10.5,2.83251 4.0514,0.51918 8.7161,1.36262 10.3661,1.87431 1.65,0.51169 6.15,1.47065 10,2.13102 3.85,0.66037 10.2435,1.83751 14.2078,2.61586 3.9643,0.77836 8.9597,1.41519 11.1008,1.41519 2.1411,0 5.1976,0.44016 6.7922,0.97814 1.5945,0.53798 7.6242,1.42101 13.3992,1.96229 5.775,0.54129 14.325,1.71434 19,2.60678 12.2806,2.34432 23.0055,3.4037 44.5,4.39558 10.45,0.48223 22.15,1.35265 26,1.93427 3.85,0.58163 13.975,1.12547 22.5,1.20854 8.525,0.0831 16.85,0.51875 18.5,0.96818 3.9155,1.06652 111.2922,-0.0438 114.3151,-1.18204 z m -60.4735,-103.06895 c -0.4629,-0.71654 -0.958,-24.02779 -1.1003,-51.80279 -0.1422,-27.775 -0.4883,-51.5125 -0.769,-52.75 -0.4329,-1.9085 -1.1679,-2.25 -4.8421,-2.25 -2.3825,0 -5.7114,0.48095 -7.3976,1.06877 -2.4127,0.84105 -3.7123,0.73451 -6.0996,-0.5 -4.4205,-2.28591 -5.72,-1.97316 -8.152,1.96197 -1.9307,3.12395 -2.6026,3.49839 -5.8316,3.25 l -3.6494,-0.28074 -0.5,5.49133 c -0.3867,4.24704 -0.9061,5.56841 -2.2924,5.83149 -0.9858,0.18709 -7.4124,-2.39651 -14.2813,-5.74133 -6.8689,-3.34482 -13.3267,-6.08149 -14.3506,-6.08149 -1.8791,0 -3.5027,-2.50013 -2.5864,-3.98276 0.5879,-0.95117 31.122,-16.01724 32.4619,-16.01724 0.5072,0 0.8484,2.8125 0.7583,6.25 -0.1866,7.11867 0.4887,8.75 3.6221,8.75 1.5041,0 2.8177,-1.12177 4.0985,-3.5 1.5514,-2.88083 2.4523,-3.5 5.0925,-3.5 1.7642,0 4.3518,0.9 5.7503,2 3.4268,2.69553 8.7271,2.45652 8.7271,-0.39353 0,-1.43166 -9.4088,-8.60647 -11.2862,-8.60647 -2.6633,0 -9.5389,-4.00339 -12.0971,-7.04368 -2.1249,-2.52528 -2.6167,-4.13867 -2.6167,-8.58403 0,-5.04683 0.2928,-5.74318 3.75,-8.9185 2.0625,-1.89433 4.049,-3.44638 4.4145,-3.44901 1.0421,-0.007 5.8355,-9.05603 5.8355,-11.01572 0,-0.96747 -1.1551,-2.51588 -2.5669,-3.44091 -8.613,-5.64345 -8.5848,-11.16995 0.1541,-30.25974 2.1829,-4.76853 1.0264,-7.78368 -3.4055,-8.87874 l -3.6817,-0.90967 -0.5529,-7.5 c -0.5855,-7.94277 -3.7438,-14.75046 -7.8668,-16.957 -2.7193,-1.45536 -16.388,-1.33534 -17.8803,0.157 -0.66,0.66 -1.1939,2.5725 -1.1864,4.25 0.028,6.14989 0.86,7.23711 7.3266,9.56974 3.3879,1.22208 6.7223,2.67268 7.4098,3.22355 1.6211,1.29894 1.6891,17.06366 0.087,20.07245 -2.4703,4.63809 -7.004,6.83962 -15.6847,7.61629 l -6.3481,0.56797 1.9024,2.5 c 1.0464,1.375 3.1817,5.425 4.7452,9 1.5635,3.575 4.0556,7.8974 5.5381,9.60532 4.5207,5.20839 4.8472,17.41621 0.6378,23.84071 -0.7931,1.21035 -1.5962,3.24668 -1.7847,4.52518 -0.4173,2.83085 -2.9523,4.58443 -5.3161,3.67738 -2.4407,-0.93661 -1.2475,-6.80245 2.5569,-12.57003 1.6041,-2.4318 2.9165,-5.38327 2.9165,-6.55883 0,-1.17556 -1.6172,-4.81091 -3.5939,-8.07856 -1.9766,-3.26764 -4.4526,-8.21973 -5.502,-11.00463 -1.2,-3.18414 -3.1137,-5.94438 -5.1561,-7.43691 -1.7864,-1.3054 -5.723,-4.56984 -8.748,-7.25432 -3.025,-2.68448 -8.2,-5.97381 -11.5,-7.30963 -5.0809,-2.05672 -6.9957,-2.33171 -12.5,-1.79518 -7.264,0.70806 -10.6455,2.11 -16.5,6.8408 -2.2,1.77773 -5.125,3.58073 -6.5,4.00667 -2.6053,0.80706 -7.7741,4.11295 -9.5,6.07609 -0.55,0.62562 -2.5853,2.3051 -4.5229,3.73219 -3.1403,2.31295 -3.668,3.38789 -4.8596,9.89923 -1.6257,8.88363 -3.3776,12.0813 -7.7653,14.17363 -1.8437,0.87919 -3.3522,1.97149 -3.3522,2.42732 0,0.97171 9.3415,5.20357 11.4865,5.20357 1.7692,0 3.8662,3.1617 5.4875,8.27408 0.9908,3.12404 0.9097,4.76029 -0.4708,9.5 -2.4153,8.29219 -2.721,8.64982 -8.1075,9.48484 -19.2849,2.98952 -25.2272,1.97503 -29.9138,-5.10696 -5.0624,-7.64978 -8.3156,-26.85712 -5.4544,-32.20336 2.0922,-3.90929 11.1305,-11.30994 15.7507,-12.89673 2.597,-0.89194 6.9718,-3.21463 9.7218,-5.16154 5.9663,-4.22394 6.6965,-7.23811 3.5344,-14.58881 -2.0875,-4.85236 -9.4595,-12.94269 -13.9116,-15.26696 -2.8249,-1.47481 -4.0829,-0.18713 -4.1075,4.20428 -0.017,3.0758 -3.692,17.18629 -5.2766,20.26116 -0.5669,1.1 -1.599,2.33692 -2.2936,2.74871 -0.6946,0.41179 -3.0638,4.01179 -5.2649,8 -4.7598,8.62441 -7.2958,11.4838 -11.8861,13.40175 -1.8824,0.78653 -5.2197,2.73191 -7.4163,4.32306 -2.1965,1.59116 -5.3793,3.19736 -7.073,3.56935 -1.6936,0.37199 -5.3801,1.74762 -8.1921,3.05697 -2.812,1.30934 -6.0194,2.38502 -7.1275,2.39039 -1.1082,0.005 -3.694,0.90977 -5.7464,2.00977 -2.0524,1.1 -4.7306,2 -5.9517,2 -3.0188,0 -10.7871,3.04401 -10.7871,4.22689 0,0.52535 1.5462,2.76156 3.436,4.96936 5.1574,6.02526 6.564,9.75161 6.564,17.38915 0,6.78698 -2.3163,13.77237 -5.4213,16.34929 -0.7267,0.6031 -4.8667,2.03375 -9.2,3.17923 -12.8576,3.39883 -24.800504,1.23582 -28.337604,-5.13234 -4.8276,-8.69138 -5.1218,-9.86464 -4.8279,-19.25092 l 0.2868,-9.1575 10.25,-4.98169 c 5.6375,-2.73993 10.250004,-5.33785 10.250004,-5.77316 0,-0.43531 -1.6875,-1.50495 -3.750004,-2.37699 -5.4169,-2.29029 -19.8983,-1.5431 -27.4235,1.41496 -4.7022,1.84835 -6.2269,3.0926 -8.906,7.26763 -3.7061,5.77549 -4.3367,11.58208 -1.7785,16.37609 3.939,7.38137 6.8853,12.6121 8.4445,14.99168 2.1816,3.32949 1.4405,11.57493 -1.5708,17.47762 -1.1854,2.32348 -1.862,4.5184 -1.5036,4.87761 0.3584,0.3592 2.2616,1.10609 4.2293,1.65976 3.2848,0.92425 3.7641,1.55912 5.8538,7.75388 l 2.276,6.74721 -1.8691,6.74054 c -1.2131,4.37499 -2.7556,7.50309 -4.3952,8.91342 -2.6679,2.29483 -12.7141,5.66033 -15.3537,5.14352 -0.9578,-0.18754 -2.698,-3.58292 -4.5128,-8.80524 -2.6171,-7.5311 -2.8883,-9.38237 -2.3791,-16.24087 0.5728,-7.71483 0.5652,-7.74577 -2.2439,-9.19841 -2.5503,-1.31885 -2.8797,-2.10476 -3.4609,-8.25913 -1.2725,-13.47554 -0.7416,-29.81854 1.238,-38.10684 2.4372,-10.20412 3.3316,-11.75927 8.1877,-14.23666 2.2084,-1.12665 4.2497,-2.65934 4.5362,-3.40598 0.2865,-0.74663 -0.3396,-3.5388 -1.3914,-6.20482 -1.0518,-2.66601 -3.1939,-8.67229 -4.7603,-13.34729 -1.5664,-4.675 -3.7218,-9.98823 -4.7898,-11.80719 -1.5329,-2.61056 -1.8159,-4.40101 -1.3434,-8.5 0.5095,-4.42003 1.1617,-5.67425 4.3825,-8.42793 2.0812,-1.77932 4.2921,-3.24182 4.9132,-3.25 1.9836,-0.0261 11.7649,-4.89313 14.8624,-7.39529 l 2.9916,-2.41659 -1.8219,-5.35997 c -2.196,-6.46038 -1.8681,-18.81219 0.7639,-28.77595 1.5281,-5.78469 8.1924,-19.82764 11.967,-25.21658 1.3035,-1.86105 1.2281,-2.51356 -0.7179,-6.21494 -1.9618,-3.73143 -2.2278,-6.1389 -2.7215,-24.63557 -0.5228,-19.58484 -0.673,-20.80211 -3.3633,-27.26731 -1.6574,-3.98287 -2.5857,-7.68595 -2.2563,-9 2.8417,-11.33397 3.0399,-11.78822 5.4004,-12.38068 3.7548,-0.94239 10.7928,0.19922 15.1141,2.45159 4.9489,2.57953 6.571004,1.59706 8.314004,-5.03567 1.1127,-4.23415 1.0064,-5.46837 -1.0102,-11.7297 -1.2396,-3.8487 -2.937904,-7.68177 -3.774104,-8.51793 -1.9827,-1.98269 -7.302,-1.93439 -12.4183,0.11276 -4.9008,1.9609 -21.1562,1.50984 -24.67,-0.68457 -5.5262,-3.45119 -7.8092,-19.22837 -4.0701,-28.12719 1.0813,-2.57328 2.7697,-5.40605 3.752,-6.29504 2.1466,-1.94263 14.4385,-6.52626 17.5015,-6.52626 2.6515,0 5.8793,3.38868 7.311,7.67542 0.5832,1.74648 2.8956,6.21806 5.1385,9.93686 2.2429,3.7188 4.078,7.12736 4.078,7.57458 0,2.03898 2.5489,0.37377 7.174004,-4.68686 4.2596,-4.66069 5.5605,-5.5 8.5251,-5.5 2.5873,0 4.2187,0.77098 6.2637,2.96021 l 2.7653,2.96021 6.8859,-2.6131 c 3.7873,-1.4372 8.236,-2.65679 9.886,-2.71021 2.9683,-0.0961 3.0032,-0.0356 3.3022,5.72894 0.2997,5.77824 0.2566,5.87942 -5.2515,12.33167 -8.2671,9.68422 -8.4926,13.06258 -1.1167,16.72964 3.7254,1.85211 3.8828,1.85157 8.4311,-0.0291 4.5838,-1.89526 4.6409,-1.97674 5.1756,-7.38735 0.7694,-7.785 4.1161,-13.38184 12.8192,-21.43791 4.1789,-3.86818 9.3113,-8.88754 11.4055,-11.15415 3.1114,-3.36758 4.8791,-4.34849 9.6677,-5.3647 7.6318,-1.61957 14.8538,0.47626 18.3027,5.31144 8.0937,11.34704 8.9498,23.7569 2.7178,39.39672 -0.487,1.2223 -2.3634,2.90139 -4.1696,3.73132 -1.8062,0.82993 -4.852,2.41737 -6.7684,3.52764 -2.2482,1.30251 -5.2861,2.01868 -8.5629,2.01868 -4.2517,0 -5.4961,-0.4477 -7.6434,-2.75 -1.4107,-1.5125 -3.0829,-3.75719 -3.716,-4.98819 -1.4801,-2.87812 -5.0727,-3.75374 -9.4602,-2.30574 -5.7155,1.88629 -6.2226,3.22438 -3.7167,9.8074 2.959,7.7731 9.6073,18.87097 14.2216,23.73972 2.0867,2.20175 4.3145,5.49639 4.9507,7.32141 1.6202,4.64765 4.8602,5.6745 11.3089,3.58404 2.8063,-0.90973 6.2274,-2.6627 7.6024,-3.89547 1.375,-1.23278 5.65,-4.33528 9.5,-6.89446 3.85,-2.55918 8.7544,-5.99532 10.8987,-7.63588 2.3183,-1.77369 5.1088,-2.98283 6.884,-2.98283 1.6419,0 4.7017,-0.51425 6.7995,-1.14277 7.796,-2.33575 12.55,2.39792 13.5897,13.53175 0.4476,4.79422 0.1804,7.52287 -1.0341,10.55826 -0.9008,2.25133 -1.6378,4.2666 -1.6378,4.47843 0,0.21184 1.6346,2.34023 3.6325,4.72977 1.9979,2.38953 4.5672,6.26677 5.7097,8.61608 1.7779,3.65611 3.1188,4.76589 9.3073,7.70334 3.9766,1.88752 7.7072,4.32327 8.2903,5.41278 1.7184,3.2108 1.2287,7.87212 -1.4398,13.70613 -4.4571,9.74418 -2.4202,12.94911 4.8259,7.59334 2.2957,-1.69684 8.115,-5.1331 12.9317,-7.63611 7.3409,-3.81477 9.6622,-4.55095 14.35,-4.55095 5.0254,0 5.9367,0.34433 8.9884,3.39603 3.3943,3.39432 3.3958,3.3998 2.7889,10.75001 -0.5801,7.026 -0.4897,7.46311 2.0282,9.80111 2.2578,2.09645 3.7068,2.47304 10.1117,2.62795 4.1119,0.0994 8.1004,0.69887 8.8633,1.33204 2.5474,2.11416 7.9631,14.53096 8.541,19.58245 0.4523,3.95312 0.9863,5.06603 2.5709,5.35761 3.8305,0.70486 4.5,2.1625 4.5,9.79721 0,6.08471 -0.5331,8.57516 -3,14.01587 -4.1532,9.15961 -3.9782,10.44934 2,14.74426 5.2935,3.80299 5.6742,4.84078 3.8605,10.52447 -2.563,8.03207 -3.3746,9.40218 -8.5789,14.48345 -4.7395,4.6275 -5.3885,5.72752 -5.1056,8.65417 0.2523,2.61079 1.2093,3.95963 4.324,6.09465 2.2,1.50801 5.1986,3.01584 6.6635,3.35074 1.4649,0.33489 4.6149,2.06281 7,3.8398 5.3721,4.00246 10.5309,5.95164 11.5193,4.35237 0.9044,-1.4633 0.6439,-117.64934 -0.5317,-237.20419 -0.547,-55.63023 -0.5647,-95.39369 -0.043,-95.94999 0.5631,-0.6 1.2324,-0.6 1.8167,0 0.972,0.99805 3.2373,204.69465 3.1997,287.70943 l -0.021,46.75943 4.9482,2.50742 c 6.5779,3.33329 6.4569,5.007 -0.4646,6.42566 l -3.0873,0.63278 0,53.37056 c 0,52.827 -0.2685,57.32067 -3.1583,52.84751 z M 65.423526,661.5796 c 4.8028,-2.96832 7.011,-9.41688 5.5529,-16.21606 -1.3043,-6.08138 -2.0803,-6.75124 -7.8455,-6.77178 -3.3852,-0.0121 -4.8237,0.55211 -6.7742,2.65675 -1.362,1.46964 -2.7081,3.60714 -2.9913,4.75 -0.6221,2.51048 2.93,13.22083 5.2264,15.75822 2.0811,2.29969 2.8567,2.27959 6.8317,-0.17713 z m -6.7821,-32.25315 c 1.1338,-1.2375 3.0611,-4.24027 4.2828,-6.67282 3.0788,-6.13007 2.3056,-10.02204 -3.8706,-19.4831 -4.3692,-6.69297 -5.125,-8.5604 -5.125,-12.66337 0,-2.64697 -0.434,-5.08089 -0.9644,-5.40871 -0.5304,-0.32781 -2.1054,1.65567 -3.5,4.40774 -2.4101,4.75616 -2.5356,5.82192 -2.5356,21.53702 0,15.19991 0.1613,16.69453 2,18.53324 2.675,2.67498 7.1382,2.5601 9.7128,-0.25 z m 57.721504,-18.73474 c 4.4613,-2.17785 8.5657,-8.16584 8.5657,-12.49662 0,-5.65334 -11.3556,-21.51864 -15.402,-21.51864 -0.7896,0 -5.1847,1.85035 -9.766804,4.1119 -4.5822,2.26154 -9.4562,4.63952 -10.8312,5.28441 -2.2878,1.07301 -2.5252,1.79797 -2.7969,8.54209 -0.2799,6.94736 -0.1307,7.54695 2.6053,10.46559 1.5963,1.7028 3.1658,3.85106 3.4879,4.77389 1.1397,3.26565 17.967804,3.84944 24.138004,0.83738 z m 206.4633,-15.26526 -0.1023,-4.25 -0.8174,3.47529 c -0.7497,3.18716 -0.5372,5.02471 0.5811,5.02471 0.2426,0 0.3949,-1.9125 0.3386,-4.25 z m -105.538,-10.79092 c 5.0849,-2.24928 6.6404,-4.31458 6.6404,-8.81661 0,-5.51466 -7.9491,-12.14247 -14.5631,-12.14247 -2.8134,0 -3.7597,-1.35164 -3.6499,-5.21343 0.1029,-3.62077 1.5287,-5.39685 6.2772,-7.81935 2.9152,-1.48719 3.8415,-2.65115 4.3756,-5.49792 0.3726,-1.98623 0.9242,-4.25437 1.2258,-5.04031 1.0112,-2.63498 -3.9187,-1.53285 -11.6656,2.60801 -8.9929,4.80684 -17.9954,13.91141 -17.9982,18.20227 -0.001,1.5066 0.898,5.1066 1.9977,8 1.0997,2.8934 1.9997,6.32617 2,7.62838 3e-4,1.4165 1.5601,3.92728 3.8828,6.25 3.7123,3.71226 4.1668,3.88235 10.3729,3.88235 4.3602,0 8.005,-0.6699 11.1044,-2.04092 z m -94.3596,-17.45908 c 3.2668,-1.375 6.7408,-2.50297 7.7199,-2.50659 0.979,-0.004 3.1301,-0.90066 4.7801,-1.99341 1.65,-1.09275 4.4089,-1.98979 6.1309,-1.99341 5.1013,-0.0107 16.2898,-4.77962 25.1081,-10.7018 8.2354,-5.53072 10.7038,-8.40769 14.8471,-17.30479 1.1526,-2.475 2.8393,-5.11516 3.7482,-5.86702 2.1303,-1.76218 6.6657,-16.09299 6.6657,-21.06216 0,-5.4751 -1.8605,-6.70736 -7.7935,-5.16189 -2.5886,0.67429 -6.7583,1.55396 -9.266,1.95481 -8.0512,1.28696 -10.5042,3.961 -18.1444,19.77938 -8.0334,16.6323 -10.3615,19.11321 -24.3422,25.93979 -8.7868,4.29048 -9.3221,4.41709 -18.6733,4.41709 -8.9745,0 -9.8527,-0.18323 -12.9539,-2.70293 -6.343404,-5.15401 -16.826704,-15.75201 -16.826704,-17.01089 0,-1.61122 -5.022,-14.47764 -6.1377,-15.72488 -0.5065,-0.56625 -4.208,0.72324 -9.3291,3.25 -4.6692,2.30379 -9.2193,4.1887 -10.1113,4.1887 -0.892,0 -3.2012,1.57928 -5.1314,3.50951 -3.1686,3.16858 -3.4416,3.87287 -2.8105,7.25 0.3844,2.05727 1.0804,4.20251 1.5466,4.7672 0.4662,0.56469 2.4131,5.35143 4.3265,10.63719 3.7497,10.3587 6.0793,15.36729 7.5787,16.29397 0.5204,0.32159 4.3403,-0.32488 8.4888,-1.43658 11.3185,-3.03314 22.1893,-2.71335 31.079404,0.91425 8.8055,3.59309 12.0792,3.68785 19.5,0.56446 z m 5.1643,-22.13213 c 4.9918,-1.85552 7.809,-3.70102 11.2255,-7.35356 5.8072,-6.20833 12.8331,-17.05941 17.0806,-26.37984 3.6868,-8.09028 8.177,-12.63447 12.4842,-12.63447 1.5406,0 4.4166,-0.675 6.3912,-1.5 1.9745,-0.825 5.1529,-1.5 7.0631,-1.5 4.598,0 5.1347,-1.21709 2.7683,-6.27739 -5.5694,-11.90971 -8.0193,-17.42691 -8.6057,-19.38038 -0.7041,-2.34539 -7.4531,-8.79001 -12.142,-11.59433 -6.1244,-3.66289 -11.4295,-7.92996 -11.4295,-9.19315 0,-0.72219 -1.1554,-3.83686 -2.5676,-6.9215 -1.4122,-3.08463 -2.4247,-6.85151 -2.25,-8.37084 0.2722,-2.36737 0.8896,-2.85743 4.3176,-3.42676 11.5257,-1.91426 16.1854,-4.92718 19.5928,-12.66857 3.1661,-7.19309 2.767,-8.16779 -3.3428,-8.16281 -4.156,0.003 -6.1877,0.62763 -9.75,2.99572 -2.475,1.64529 -5.1055,2.99336 -5.8456,2.99572 -0.7401,0.002 -2.5401,0.85165 -4,1.88733 -3.2047,2.27347 -10.2081,5.49126 -15.6311,7.18192 -4.245,1.32342 -18.5288,11.6771 -21.0238,15.23926 -1.8226,2.602 -1.9595,5.70881 -0.2495,5.66033 0.6875,-0.0195 2.375,-0.67854 3.75,-1.46456 1.3894,-0.79426 5.2098,-1.44487 8.6,-1.46456 5.2078,-0.0303 6.6993,0.39872 10.198,2.93318 5.0224,3.63821 6.202,5.72388 6.202,10.96565 0,2.63854 0.6143,4.58813 1.75,5.55391 0.9625,0.8185 4.734,4.15426 8.381,7.41281 3.6471,3.25855 8.0805,6.67417 9.852,7.59025 3.3892,1.75261 3.3138,1.31083 1.6224,9.50877 -0.2837,1.375 -0.7864,4.2144 -1.1172,6.30977 -0.5305,3.36131 -1.1341,4.03815 -5.1276,5.75 -5.4981,2.35676 -17.7545,2.63813 -22.8149,0.52376 -5.9227,-2.47464 -6.8121,-4.99129 -6.396,-18.0977 l 0.3661,-11.5348 -9.0079,0.18335 c -4.9543,0.10085 -10.5415,0.79363 -12.416,1.53951 -1.8744,0.74589 -6.251304,4.31355 -9.726304,7.92813 -4.9919,5.19239 -6.6685,7.76076 -7.9867,12.23498 -0.9176,3.11465 -2.7282,8.88859 -4.0236,12.83097 -1.2954,3.94239 -2.3553,7.83326 -2.3553,8.64639 0,3.58829 6.209,16.33245 9.7967,20.10805 2.131,2.24267 4.8702,5.42759 6.087,7.07759 1.2168,1.65 4.289904,4.14835 6.829204,5.55188 3.8626,2.13498 5.611,2.48992 10.702,2.17256 3.3468,-0.20864 9.084,-1.49409 12.7494,-2.85657 z m 101.1438,-21.44068 c 4.2586,-4.25862 8.5374,-6.92719 11.1071,-6.92719 0.8329,0 2.0242,-0.9525 2.6472,-2.11666 1.4291,-2.67016 0.2923,-3.90516 -7.1151,-7.73029 l -5.4473,-2.81291 -0.282,-12.32016 c -0.269,-11.75423 -0.1667,-12.4865 2.2273,-15.94105 1.3801,-1.99149 3.9614,-4.47868 5.7362,-5.5271 4.4453,-2.62588 16.7889,-3.28182 22.7395,-1.20837 3.9866,1.38907 4.7728,1.38794 8,-0.0116 15.4493,-6.69962 20.7626,-8.33186 27.1221,-8.33186 7.5412,0 8.9569,-0.94479 8.9569,-5.97749 0,-5.4071 -2.311,-8.02251 -7.0888,-8.02251 -4.9992,0 -9.1414,1.72363 -17.0521,7.09571 -9.8634,6.69809 -16.9003,9.95259 -19.0417,8.80656 -2.5312,-1.35464 -2.4376,-10.78656 0.1826,-18.40228 3.3024,-9.59853 3.742,-8.89533 -8.7981,-14.07263 -3.5827,-1.47915 -4.9083,-2.86918 -7.9636,-8.35095 -2.0159,-3.61703 -4.6413,-8.02371 -5.8342,-9.79263 -2.9956,-4.44216 -3.8154,-9.57402 -2.0778,-13.00593 0.7735,-1.52782 1.6917,-4.35758 2.0404,-6.28835 0.5452,-3.01826 0.1637,-4.05471 -2.7201,-7.39181 l -3.3542,-3.88131 -7.3691,2.2383 c -5.2631,1.5986 -8.25,3.17221 -10.451,5.50604 -1.6951,1.79725 -5.0822,4.50943 -7.5271,6.02706 -2.4449,1.51763 -5.3452,3.52828 -6.4452,4.46812 -1.1,0.93983 -6.05,2.99244 -11,4.56133 -4.95,1.5689 -9.4387,3.23051 -9.9748,3.69247 -0.5362,0.46196 -1.902,3.86626 -3.0352,7.56511 -2.4286,7.92692 -7.059,15.64823 -10.2871,17.15381 -1.2633,0.58926 -3.4232,1.07137 -4.7996,1.07137 -3.1701,0 -8.4045,2.66448 -8.3996,4.27568 0.011,3.53447 6.6488,11.78544 12.4662,15.49535 6.2042,3.95659 14.2773,12.06572 14.968,15.03475 0.3447,1.48183 2.2997,6.69352 4.3444,11.58154 4.3195,10.32592 8.0762,14.62284 17.1468,19.61269 9.8733,5.43133 15.0588,12.85625 18.6821,26.75 0.6138,2.35365 3.6246,1.24944 7.6969,-2.82281 z m 85.5614,-12.42824 c 2.7299,-2.46637 4.0524,-4.60898 4.4747,-7.25 1.0066,-6.29544 0.096,-7.68935 -7.0538,-10.80245 -3.6052,-1.56965 -7.1704,-3.46939 -7.9227,-4.22164 -1.6703,-1.67034 -1.8984,-15.29419 -0.283,-16.90952 0.5965,-0.59657 0.934,-2.14907 0.75,-3.45 -0.3124,-2.20735 -0.8207,-2.385 -7.6109,-2.65968 -7.4682,-0.3021 -8.763,0.0692 -24.0006,6.88214 -4.7931,2.14308 -9.7101,2.43958 -13.9081,0.83867 -1.7157,-0.65427 -5.4731,-0.80771 -9.621,-0.3929 -6.0968,0.60972 -7.1762,1.06019 -10.3601,4.32353 -4.8082,4.92799 -5.4093,6.95032 -4.6691,15.70744 0.5817,6.88145 0.888,7.69295 3.6435,9.65504 4.101,2.92019 12.9503,3.63744 17.1083,1.38665 1.6958,-0.91799 4.0265,-3.11743 5.1794,-4.88765 1.1529,-1.77022 3.275,-3.84889 4.7158,-4.61926 2.4881,-1.33029 2.8853,-1.17834 7.9039,3.02331 11.0718,9.26944 18.4827,13.82295 22.6434,13.91281 0.9024,0.0195 2.7658,0.67854 4.1408,1.46456 1.375,0.78602 4.4112,1.44508 6.7471,1.46456 3.4765,0.029 4.9503,-0.59985 8.1224,-3.46561 z M 80.758826,498.32645 c 1.0963,-3.4375 2.2931,-7.6 2.6595,-9.25 0.9049,-4.07497 4.0728,-9.06078 9.3857,-14.77185 4.0971,-4.40411 4.3402,-4.95671 3.1554,-7.17053 -0.706,-1.31926 -3.0231,-4.09715 -5.149,-6.17309 l -3.8654,-3.77442 -2.9424,2.819 c -5.3986,5.17215 -10.081,21.50783 -10.0766,35.15422 0,8.54103 0.2899,9.41667 3.0877,9.41667 1.2696,0 2.3005,-1.72039 3.7451,-6.25 z m 188.169804,4.25 c 0,-0.55 -0.4234,-1 -0.941,-1 -0.5175,0 -1.2191,0.45 -1.559,1 -0.3399,0.55 0.084,1 0.941,1 0.8574,0 1.559,-0.45 1.559,-1 z m -117.3533,-8.11493 c 3.2515,-1.00437 4.6673,-3.38285 5.7483,-9.657 0.5266,-3.05603 0.2402,-3.47102 -4.34,-6.28924 -2.6971,-1.65953 -5.8226,-4.57466 -6.9457,-6.47807 -2.7649,-4.68617 -5.3669,-4.46628 -10.7409,0.90766 -4.08,4.08002 -4.3684,4.72518 -4.3684,9.77216 0,4.5365 0.4846,5.99165 3.0196,9.06705 3.9395,4.77929 8.5536,5.48013 17.6271,2.67744 z m -22.2308,-30.68857 c 4.9688,-0.93979 7.5841,-3.11603 7.5841,-6.3109 0,-3.27352 -4.9329,-7.76225 -10.4371,-9.49728 l -5.3121,-1.6745 -6.0422,3.89309 c -5.7188,3.68477 -6.0642,4.13388 -6.454,8.39309 -0.6007,6.5647 0.3553,7.29675 8.7,6.66211 3.875,-0.29471 9.2576,-0.95424 11.9613,-1.46561 z m -26.9873,-2.76793 c 3.2818,-3.28179 1.1526,-5.55372 -6.678604,-7.12633 -3.6277,-0.7285 -3.469,0.52192 0.6349,5.00234 3.866304,4.22104 3.925704,4.24193 6.043704,2.12399 z m 3,-13 c 0.8643,-0.86428 1.5714,-2.5431 1.5714,-3.73068 0,-1.18759 0.9778,-4.5184 2.1729,-7.40181 2.6587,-6.41459 6.3713,-9.04396 26.3271,-18.64565 7.7,-3.70484 17.0595,-8.29181 20.7989,-10.19326 4.1695,-2.12012 8.2497,-3.45718 10.55,-3.45718 7.372,0 8.1673,-4.44523 1.8661,-10.43011 -3.0747,-2.92032 -6.2168,-7.97568 -11.1239,-17.89778 -7.5716,-15.30943 -9.2091,-16.93524 -14.9615,-14.85513 -5.0612,1.83014 -9.558,1.41501 -14.2112,-1.31192 -2.9746,-1.74327 -4.4506,-3.37508 -4.8989,-5.41632 -0.9743,-4.4361 1.2454,-11.06799 4.8175,-14.39347 4.2496,-3.95607 6.6484,-7.7204 6.6564,-10.44527 0,-1.2375 -0.2283,-2.25 -0.5154,-2.25 -0.287,0 -3.5176,1.35831 -7.179,3.01846 -5.7656,2.61427 -7.0911,2.87524 -9.8981,1.94885 -1.7825,-0.58829 -3.782,-1.7216 -4.4434,-2.51846 -2.2069,-2.65926 -5.3084,-1.57358 -8.7075,3.04811 -3.7817,5.14191 -3.9406,6.58957 -1.3171,12.00304 5.2222,10.77565 6.0015,13.89483 5.3658,21.47689 -0.5231,6.23971 -1.056,7.81602 -3.6355,10.75387 -2.7882,3.17566 -3.3456,3.394 -7.191504,2.81726 -2.293,-0.34385 -6.4029,-1.47397 -9.1331,-2.51137 -2.7302,-1.0374 -5.4638,-1.57728 -6.0747,-1.19975 -0.6109,0.37753 -1.4077,3.38118 -1.7708,6.67476 -0.5386,4.88538 -0.2805,6.81717 1.4014,10.48834 1.8248,3.98315 2.0641,6.47883 2.0835,21.729 0.019,14.78344 0.321,18.13989 2.1286,23.64621 1.8483,5.6304 2.5533,6.60924 5.75,7.98349 3.4159,1.4685 6.3642,2.18403 10.322004,2.50513 0.9232,0.0749 2.3857,-0.57096 3.25,-1.43525 z m 85.6095,-90.67858 c 6.0621,-3.05692 10.0713,-11.14533 10.2614,-20.70184 0.1506,-7.57089 -1.3445,-11.06936 -7.0361,-16.46382 -6.9896,-6.6248 -14.2413,-4.23758 -29.4394,9.69128 -9.6488,8.84305 -12.824,13.59305 -12.824,19.18454 0,4.04654 0.7188,4.25599 7,2.03984 5.1879,-1.83039 14.3771,-1.97628 15.7472,-0.25 0.5457,0.6875 1.5357,2.9375 2.2,5 1.1429,3.54834 1.4343,3.75 5.4185,3.75 2.3778,0 6.1527,-0.97937 8.6724,-2.25 z M 86.188326,342.61075 c 6.7902,-3.2294 6.8897,-4.96875 0.8948,-15.64444 -2.7456,-4.88943 -5.8736,-10.00189 -6.951,-11.36103 l -1.959,-2.47116 -5.453,1.71892 c -2.9992,0.94542 -7.1982,3.22747 -9.3311,5.07123 -3.7,3.19832 -3.8953,3.66921 -4.2538,10.25223 -0.369,6.77433 -0.3122,6.96106 3.1174,10.25755 5.8282,5.60188 14.9833,6.43444 23.9357,2.1767 z"
       id="path4135"
       inkscape:connector-curvature="0"
       sodipodi:nodetypes="csssssscssscscsssssscssscsscsssccscssssssssssssssscssscsssssssssssssssssssssssssssssssssssscssscsscsccscsssssssssssssssssssssscssssssssssssssssssssscssssssssssssscsssscsssssscccsssccccscsccscssssscssssscsssssscccssscssscscsscssscscssssscsssscscscsscsccsccccsscccssssscsssssccssssscsccsssccscssssssssscssssscscsssccscsscsssssscsscscsscssscsssscssccscssssccssssscssssscsssscsssssssssscssscssssssssscccsssssscssscsccscsscsccsccsscsscsscssssssssssccscccscssscsccscscsssscssssssssssssscssscsscssssssscsscsssssscscssccscssscsscssscscscsscsssssscscsscscssssssscsccccscssscscscscsssscsccccsssscsscscscsscssscccscsssssssscscssssssscscssssssssssssssscsccssscssscssssscsssssssssscsssssccsccss" />
  </g>
</svg>
