<?xml version="1.0" encoding="UTF-8" standalone="no"?>
<!-- Created with Inkscape (http://www.inkscape.org/) -->

<svg
   xmlns:dc="http://purl.org/dc/elements/1.1/"
   xmlns:cc="http://creativecommons.org/ns#"
   xmlns:rdf="http://www.w3.org/1999/02/22-rdf-syntax-ns#"
   xmlns:svg="http://www.w3.org/2000/svg"
   xmlns="http://www.w3.org/2000/svg"
   xmlns:sodipodi="http://sodipodi.sourceforge.net/DTD/sodipodi-0.dtd"
   xmlns:inkscape="http://www.inkscape.org/namespaces/inkscape"
   width="766.22357"
   height="685.83539"
   id="svg4508"
   version="1.1"
   inkscape:version="0.48.2 r9819"
   sodipodi:docname="New document 43">
  <defs
     id="defs4510" />
  <sodipodi:namedview
     id="base"
     pagecolor="#ffffff"
     bordercolor="#666666"
     borderopacity="1.0"
     inkscape:pageopacity="0.0"
     inkscape:pageshadow="2"
     inkscape:zoom="0.35"
     inkscape:cx="466.32943"
     inkscape:cy="426.65947"
     inkscape:document-units="px"
     inkscape:current-layer="layer1"
     showgrid="false"
     fit-margin-top="0"
     fit-margin-left="0"
     fit-margin-right="0"
     fit-margin-bottom="0"
     inkscape:window-width="1920"
     inkscape:window-height="1021"
     inkscape:window-x="0"
     inkscape:window-y="27"
     inkscape:window-maximized="1" />
  <metadata
     id="metadata4513">
    <rdf:RDF>
      <cc:Work
         rdf:about="">
        <dc:format>image/svg+xml</dc:format>
        <dc:type
           rdf:resource="http://purl.org/dc/dcmitype/StillImage" />
        <dc:title></dc:title>
      </cc:Work>
    </rdf:RDF>
  </metadata>
  <g
     inkscape:label="Layer 1"
     inkscape:groupmode="layer"
     id="layer1"
     transform="translate(68.866432,-175.47478)">
    <path
       style="fill:#000000"
       d="m 505.1521,857.9346 c -2.98187,-2.34397 -5.14165,-5.02146 -5.8972,-7.31079 -1.66205,-5.03606 -1.4177,-17.9344 0.37952,-20.03333 0.7803,-0.91129 1.698,-2.44438 2.03934,-3.40689 0.34133,-0.96249 1.09886,-1.75 1.68338,-1.75 1.87049,0 2.11839,2.54365 0.54245,5.56575 -1.59372,3.0562 -2.04921,10.11853 -0.77714,12.04948 0.40408,0.61337 1.69977,1.41614 2.87932,1.78394 2.9772,0.92834 5.35537,-1.74449 5.35537,-6.01889 0,-1.91229 0.89446,-5.32822 1.9877,-7.59095 1.22816,-2.54201 1.64409,-4.52966 1.08848,-5.20169 -0.49456,-0.5982 -1.05153,-2.43379 -1.23769,-4.07909 -0.23544,-2.08068 -0.9474,-3.08202 -2.33849,-3.28892 -5.17579,-0.76988 -6.32618,-1.3857 -7.39166,-3.95691 -0.62967,-1.5195 -6.11871,-7.71238 -12.19788,-13.76197 l -11.05302,-10.99924 -65.5385,-0.28209 c -45.08616,-0.19406 -65.93702,0.0486 -66.81553,0.77775 -0.70237,0.58291 -2.9165,4.42201 -4.92029,8.53134 -3.56926,7.31973 -3.71944,7.47149 -7.39395,7.47149 -3.24913,0 -3.90212,-0.40118 -4.88307,-3 -0.90741,-2.40401 -1.7213,-3 -4.09679,-3 -1.63043,0 -3.53161,-0.68342 -4.22484,-1.51871 -1.89381,-2.2819 -0.6197,-11.18075 2.4191,-16.89595 1.42804,-2.68577 2.59643,-5.48682 2.59643,-6.22456 0,-0.73774 2.1375,-2.90956 4.75,-4.82627 4.65265,-3.4135 4.95076,-3.48544 14.54545,-3.50972 9.0499,-0.0229 9.98228,-0.21161 12.25,-2.47934 1.35,-1.35 2.45762,-2.8125 2.46138,-3.25 0.004,-0.4375 1.56464,-1.85628 3.46862,-3.15285 3.12746,-2.12973 4.45474,-2.34333 13.74317,-2.21177 5.65476,0.0801 12.08138,0.59946 14.28138,1.15414 4.42441,1.11553 18.65185,2.58368 37,3.81809 6.6,0.44403 13.83453,1.50002 16.07673,2.34664 4.76684,1.79989 15.22249,2.16182 17.11353,0.5924 1.0481,-0.86985 1.30974,-11.20356 1.30974,-51.73015 0,-47.54072 -0.11444,-50.85661 -1.86806,-54.12755 l -1.86807,-3.4844 -51.88193,-0.5 c -42.54576,-0.41002 -52.33182,-0.75803 -54.38194,-1.93392 -1.8385,-1.0545 -6.33669,-1.45139 -17,-1.5 l -14.5,-0.0661 -8.01518,-4.1431 c -6.10585,-3.15615 -9.83245,-6.0452 -15.64388,-12.12796 -4.19579,-4.39168 -7.9631,-9.05228 -8.37182,-10.35691 -0.40871,-1.3046 -2.05308,-4.28452 -3.65416,-6.62203 -2.88103,-4.20618 -2.97304,-4.25 -8.9251,-4.25 -6.13894,0 -11.54293,1.33552 -22.65038,5.59771 -3.44329,1.32126 -7.15455,2.40229 -8.24725,2.40229 -1.0927,0 -6.35242,2.25 -11.68825,5 -5.33584,2.75 -10.17457,5.00208 -10.75275,5.00464 -0.57818,0.003 -2.51373,1.37535 -4.30123,3.05067 -2.32941,2.18325 -3.25901,3.95231 -3.2818,6.24539 -0.0175,1.75962 -0.6925,4.07281 -1.5,5.14043 -0.80751,1.06762 -1.4682,4.00823 -1.4682,6.53466 0,5.14194 -2.5021,13.04402 -7.47996,23.62301 -1.83715,3.90435 -4.34994,10.84064 -5.58394,15.41399 -1.234,4.57336 -3.5188,10.82889 -5.0772,13.9012 -1.5585,3.07231 -2.8437,6.26102 -2.856,7.08601 -0.012,0.82501 -1.0722,3.75427 -2.3552,6.50947 -1.2831,2.75521 -2.8891,7.32832 -3.569,10.16245 -0.6799,2.83413 -2.3346,6.64185 -3.6772,8.4616 -2.3128,3.13479 -2.4306,3.96694 -2.2433,15.83757 0.1205,7.63256 -0.2343,13.32966 -0.9078,14.5779 -0.6081,1.12693 -1.4235,4.85859 -1.812,8.29255 -0.6644,5.87243 -0.9043,6.3263 -4.0368,7.63513 -4.7071,1.96675 -5.3086,5.29991 -1.9811,10.97781 3.7103,6.33131 4.582,19.68186 2.0501,31.40036 -2.77,12.81996 -2.175,12.46674 -21.5458,12.79136 -12.9685,0.21733 -16.6782,-0.0181 -17.9143,-1.13673 -1.2807,-1.15896 -3.6076,-1.24707 -13.0347,-0.49362 -6.3117,0.50447 -13.6848,1.60727 -16.3847,2.45069 -7.366199,2.30108 -59.942199,2.22121 -69.203299,-0.10513 -10.2722,-2.58028 -11.671,-6.72903 -5.3611,-15.90024 3.5526,-5.16347 10.2613,-9.756 16.6804,-11.4187 2.6361,-0.68281 6.4677,-1.86299 8.5147,-2.62261 2.047,-0.75962 5.0182,-1.12186 6.6026,-0.80496 1.8967,0.37933 4.284,-0.13972 6.9884,-1.51937 2.2591,-1.15254 5.6089,-2.09553 7.4439,-2.09553 4.5478,0 19.2154,-6.13837 22.0969,-9.24752 1.287899,-1.38964 3.872699,-2.85101 5.743999,-3.2475 3.8448,-0.81463 7.4224,-3.71715 9.4974,-7.70531 2.0915,-4.01977 1.802,-4.55987 -2.845,-5.30882 -6.2615,-1.00915 -13.511399,-3.49844 -14.835499,-5.09386 -0.6377,-0.76832 -2.1811,-1.39697 -3.43,-1.39697 -2.8429,0 -3.5708,-1.80488 -2.4715,-6.12865 1.5378,-6.04892 3.7882,-14.29779 4.8756,-17.87135 0.5857,-1.925 1.9686,-7.09999 3.0731,-11.5 1.104599,-4.39999 2.740999,-10.47499 3.636599,-13.5 0.8955,-3.02499 1.9683,-8.00292 2.3838,-11.06207 0.4156,-3.05913 1.8882,-8.90913 3.2725,-13 1.3842,-4.09086 3.2963,-11.03792 4.249,-15.43793 0.9527,-4.39999 2.1837,-9.125 2.7356,-10.5 2.6392,-6.57554 7.0719,-19.91938 7.8063,-23.5 1.552,-7.566 6.1274,-26.00259 6.9488,-28 1.4823,-3.60436 4.011,-15.9237 4.0083,-19.52749 -10e-4,-1.94012 0.6723,-4.49106 1.4972,-5.66875 2.4754,-3.53415 0.9518,-5.30376 -4.5663,-5.30376 -3.8778,0 -5.3134,-0.49703 -7.147,-2.4744 -2.2378,-2.41341 -2.4225,-2.4406 -7.492,-1.10329 -3.8467,1.01475 -7.7761,1.1685 -15.1182,0.59154 -9.086999,-0.71407 -10.797499,-1.20254 -20.356899,-5.81348 -5.74,-2.76864 -11.085,-5.81561 -11.8779,-6.77103 -0.7928,-0.95542 -4.239,-2.99232 -7.6582,-4.52647 -6.9816,-3.13254 -7.8457,-4.69826 -7.0667,-12.80501 0.6583,-6.85134 3.0621,-9.4534 12.7483,-13.79962 l 8.4649,-3.79824 20.4986,0.25888 c 26.811499,0.3386 28.990399,-0.23124 38.230599,-9.99833 5.005,-5.29041 6.954,-8.18398 7.8467,-11.64963 0.6533,-2.536 1.989,-6.86092 2.9681,-9.61092 2.9347,-8.24225 6.9994,-20.49986 9.6168,-28.99999 1.3548,-4.4 2.9011,-8.78139 3.4363,-9.73643 1.785,-3.18533 1.0809,-4.48407 -2.7769,-5.12172 -2.0625,-0.34091 -53.1109,-0.62479 -113.440999,-0.63084 -86.6628,-0.009 -109.8538,-0.27343 -110.4666,-1.26101 -0.8724,-1.40576 -0.682,-45.74373 0.2001,-46.62588 0.3114,-0.31136 11.1538,-0.58049 24.0941,-0.59805 l 23.528,-0.0319 2.0011,-2.74707 c 1.7521,-2.40529 2.6677,-2.7471 7.3587,-2.7471 2.9467004,0 5.6291004,-0.43932 5.9609004,-0.97629 1.0432,-1.68784 -2.0487,-6.23119 -6.0952004,-8.95655 -5.0587,-3.40712 -7.6421,-8.36344 -7.0179,-13.46391 1.0239,-8.36698 7.9681,-10.60984 32.7817,-10.58794 9.5404,0.008 17.8898,0.36086 18.5543,0.78319 1.7568,1.1165 2.1044,24.9259 0.4093,28.02964 -2.0797,3.80798 -0.8027,5.03866 5.5726,5.37043 5.1981,0.2705 5.9271,0.58358 7.1057,3.05143 l 1.3133,2.75 19.7543,0 c 24.1971,0 24.9371,-0.26841 21.1281,-7.66315 -2.4822,-4.81882 -2.4934,-4.96678 -2.9915,-39.694 l -0.5,-34.85716 -4.7118,-4.14284 c -5.4241,-4.76917 -7.2896,-8.57489 -5.4419,-11.10182 1.1042,-1.51008 4.349,-1.63171 34.685899,-1.30022 31.2272,0.34123 33.8025,0.50572 38.4678,2.45693 7.7136,3.22615 8.0411,4.24412 7.8842,24.50858 -0.1494,19.30524 -0.2465,19.68347 -6.8903,26.85801 l -4.2267,4.56433 -0.1376,14.43567 c -0.1213,12.72395 -0.3743,14.75695 -2.1336,17.14518 -2.3149,3.14239 -2.565,6.07342 -0.6535,7.65978 1.779,1.47646 5.2707,1.60049 37.9075,1.34659 21.5023,-0.16728 27.75,-0.4989 27.75,-1.47297 0,-0.6914 -2.025,-3.72571 -4.5,-6.74291 -2.475,-3.0172 -4.4931,-5.71401 -4.4847,-5.99291 0.038,-1.25517 1.6596,-2.79203 3.5765,-3.3895 1.15054,-0.35858 3.00862,-1.65673 4.12911,-2.88478 2.68708,-2.94503 9.27909,-15.563 9.27909,-17.76139 0,-0.94994 0.68793,-3.37362 1.52874,-5.38595 1.07876,-2.58185 1.45325,-6.37066 1.27228,-12.87213 -0.28244,-10.14699 0.20404,-11.71334 3.63797,-11.71334 1.8974,0 3.0661,1.46859 6.40417,8.04739 4.32448,8.5229 6.70806,12.06788 11.80684,17.55976 3.07585,3.31299 3.33869,3.39285 11.16597,3.39285 l 8.01597,0 2.87056,3.75 c 1.5788,2.0625 3.89307,6.00475 5.1428,8.76054 1.24974,2.75578 4.63043,9.73079 7.51265,15.5 4.46992,8.94722 5.62613,10.53489 7.86395,10.79844 2.09208,0.24637 2.68984,-0.15878 2.95082,-2 0.29726,-2.09716 0.90995,-2.33652 6.67912,-2.60933 l 6.35185,-0.30036 -0.55488,-3.19964 c -1.108,-6.38918 -1.73858,-28.2287 -0.85229,-29.5182 1.37329,-1.99807 35.36283,-1.74214 41.17938,0.31006 2.35156,0.82967 5.00648,1.51539 5.89983,1.52381 2.9383,0.0277 4.33675,1.68007 5.17358,6.11293 1.11375,5.89981 -1.62562,11.82243 -6.55557,14.17335 -3.44586,1.64322 -7.7985,7.23372 -7.16167,9.19841 0.17828,0.55 3.21044,1.225 6.73815,1.5 5.79469,0.45172 6.54122,0.76652 7.73137,3.26024 l 1.31736,2.76024 24.89181,-0.26024 c 17.88034,-0.18694 25.2333,-0.6021 26.10417,-1.47389 0.94985,-0.95086 0.88372,-2.25003 -0.30541,-6 -0.83478,-2.63249 -1.30451,-6.51393 -1.04384,-8.62541 0.41357,-3.35018 1.15734,-4.27623 5.84061,-7.27209 3.76753,-2.41005 5.53043,-4.24589 5.91618,-6.16094 1.41111,-7.00537 3.75283,-13.39632 5.09767,-13.91239 0.81476,-0.31265 3.03353,-2.60125 4.93062,-5.08579 3.09637,-4.0552 3.44924,-5.1673 3.44924,-10.87065 0,-5.8002 0.29266,-6.68005 3.36163,-10.1062 1.84889,-2.06408 4.34587,-5.99727 5.54884,-8.74042 3.47917,-7.93359 5.47778,-9.51246 12.04134,-9.51246 3.72889,0 6.42927,-0.58538 8.07278,-1.75 1.35828,-0.9625 5.17091,-2.88917 8.47251,-4.28149 6.6311,-2.79642 8.17642,-5.8688 3.5029,-6.96442 -1.66489,-0.3903 -2.616,-1.3946 -2.84725,-3.00649 -0.56554,-3.94187 -7.38057,-9.81591 -11.8147,-10.18336 -4.88193,-0.40456 -6.30362,-3.08957 -6.32331,-11.94228 -0.0125,-5.61534 -0.33573,-6.84115 -2.1156,-8.02295 -2.64322,-1.75503 -4.92057,-7.67467 -5.79105,-15.05297 -0.45454,-3.85277 -1.39722,-6.47491 -2.90463,-8.07948 -1.22743,-1.30653 -2.78784,-4.24502 -3.46757,-6.52997 -0.67974,-2.28495 -2.93281,-6.52419 -5.00683,-9.42053 -2.07401,-2.89635 -5.38671,-7.96608 -7.36153,-11.26608 l -3.5906,-6 1.80678,-7.36191 c 1.96349,-8.00041 6.03858,-14.3718 11.65273,-18.21901 1.79496,-1.23003 4.63742,-3.51738 6.31659,-5.083 13.24457,-12.34898 42.59479,-22.89345 63.44697,-22.79419 5.225,0.0249 11.3,0.451 13.5,0.94695 2.2,0.49596 6.87215,1.55802 10.38255,2.36015 3.5104,0.80213 8.21524,2.74648 10.4552,4.32078 8.07868,5.67791 16.80698,19.31858 20.04738,31.33023 0.81605,3.025 1.9305,6.85 2.47654,8.5 3.29671,9.96175 5.16548,17.46327 5.15282,20.68409 -0.008,2.02624 1.16324,6.3997 2.60269,9.7188 l 2.61719,6.03472 -2.11719,3.58835 c -2.75398,4.66765 -2.71121,4.926 1.1972,7.23202 3.14768,1.85718 9.51603,10.14582 13.05837,16.99595 1.61069,3.11473 5.38652,5.28968 21.84965,12.58581 8.92105,3.95363 15.33816,12.67358 17.77981,24.16027 0.46764,2.2 1.33345,5.26679 1.92402,6.8151 0.59057,1.54831 1.07377,4.03568 1.07377,5.52749 0,1.49182 0.60759,3.60003 1.3502,4.6849 0.74262,1.08488 1.60478,3.60118 1.91592,5.59177 0.31114,1.9906 1.72855,6.5259 3.14979,10.07846 1.42125,3.55256 2.58409,7.39959 2.58409,8.54895 0,4.59 0.91841,5.25124 7.35699,5.29688 3.37865,0.024 8.16801,0.4886 10.64301,1.03255 2.475,0.54395 7.875,1.39074 12,1.88175 4.125,0.49102 9.17305,1.60137 11.21788,2.46745 2.04484,0.86609 5.21043,1.5747 7.03466,1.5747 4.67808,0 14.91466,3.71112 16.99746,6.16216 0.9625,1.13267 1.75,3.5707 1.75,5.41783 0,3.29572 -2.96182,10.30587 -5.73643,13.5772 -0.77306,0.91146 -2.61112,3.8809 -4.08457,6.59877 -3.99929,7.37692 -10.78679,18.16026 -14.63081,23.24404 -2.81931,3.72858 -8.97241,13.36354 -14.13697,22.13669 -0.59883,1.01725 -1.83633,2.67557 -2.75,3.68516 -0.91367,1.0096 -1.66122,2.34704 -1.66122,2.97209 0,0.62506 -1.35,2.67403 -3,4.55328 -1.65,1.87924 -3.01241,3.8074 -3.02758,4.2848 -0.0268,0.84228 -5.40751,9.54699 -11.4252,18.48316 -3.91127,5.80815 -8.58963,18.91752 -9.41599,26.38481 -0.3652,3.3 -1.09644,6.675 -1.62499,7.5 -0.52856,0.825 -1.28706,5.775 -1.68557,11 -1.01388,13.29331 -2.37942,23.01219 -3.69737,26.3151 -0.61782,1.5483 -1.1233,4.79338 -1.1233,7.21127 0,5.50949 -3.13955,19.35167 -6.91173,30.47363 -1.5856,4.675 -3.17685,10.525 -3.53613,13 -0.35927,2.475 -1.22764,5.4 -1.92971,6.5 -0.70207,1.1 -3.66507,9.29657 -6.58444,18.21459 l -5.30796,16.2146 -6.74954,6.66103 c -3.71224,3.66356 -8.264,7.57826 -10.11501,8.69931 -1.85102,1.12106 -5.61548,3.48225 -8.36548,5.2471 -2.75,1.76486 -7.475,4.47774 -10.5,6.02862 -3.025,1.55088 -7.3,3.94836 -9.5,5.32774 -11.64811,7.30324 -34.4361,19.09917 -36.97236,19.13829 -1.1152,0.0172 -4.27764,1.13809 -7.02764,2.49085 -6.30397,3.10104 -8.04809,3.09721 -10.09196,-0.0221 -0.90093,-1.375 -2.03631,-2.5 -2.52305,-2.5 -0.49187,-4e-5 -0.88499,12.21582 -0.88499,27.49996 0,15.125 0.39342,27.5 0.87427,27.5 0.48085,0 2.81466,-0.68461 5.18624,-1.52135 7.82332,-2.76022 16.96372,-4.47865 23.82223,-4.47865 9.29936,0 17.14456,3.83151 18.42794,9 0.47799,1.925 0.98229,3.61615 1.12065,3.75812 0.13837,0.14198 19.11042,0.52258 42.16012,0.84582 41.88213,0.58732 41.91117,0.58921 46.07082,2.98262 7.05168,4.05746 9.93493,7.0991 13.19098,13.91557 5.63106,11.78853 6.56567,20.49787 2.19965,20.49787 -1.57623,0 -2.03089,-1.00227 -2.60834,-5.75 -0.38464,-3.16249 -1.33897,-7.00759 -2.12073,-8.54467 -2.0113,-3.95453 -16.03473,-17.69816 -18.10218,-17.741 -33.93707,-0.7031 -125.30776,-0.47777 -127.22165,0.31375 -1.375,0.56865 -4.525,1.30121 -7,1.62792 -2.5605,0.33799 -4.5,1.12187 -4.5,1.81875 0,0.67361 3.825,4.65629 8.5,8.8504 15.62698,14.01951 16.02895,14.46131 15.40816,16.93475 -0.31362,1.24956 -0.0838,2.57257 0.51081,2.94003 0.59457,0.36746 1.08103,1.95941 1.08103,3.53767 0,4.74239 4.69079,8.01241 11.49367,8.01241 6.08726,0 7.8016,-3.94475 5.31753,-12.23582 -1.43573,-4.79203 -8.72774,-13.16343 -13.69863,-15.72634 -4.94506,-2.54959 -10.38297,-8.38896 -9.94771,-10.68211 0.60136,-3.16819 5.28807,-2.87288 10.18186,0.64158 l 4.35724,3.12913 50.37779,0.47641 50.37779,0.47641 4.20488,2.46423 c 4.89266,2.86729 8.33558,7.26135 8.33558,10.63837 0,3.94523 2.62592,6.66571 6.76505,7.00867 3.21589,0.26646 3.88007,0.75842 4.77915,3.53994 0.57431,1.77676 2.20058,4.47676 3.61393,6 3.67004,3.95538 4.84187,8.35923 4.84187,18.19625 0,12.42378 -3.48271,16.38159 -10.11158,11.49096 -1.7661,-1.30299 -4.67369,-2.85177 -6.46132,-3.44174 -5.70292,-1.88213 -5.0804,-5.44319 1.0729,-6.13745 2.88632,-0.32566 3.02183,-0.56586 3.57608,-6.33849 0.31684,-3.3 0.92603,-6.78371 1.35375,-7.74157 0.85825,-1.922 0.16164,-2.31303 -5.42983,-3.04795 -3.33394,-0.4382 -3.61268,-0.23251 -5.87501,4.33527 -2.08172,4.20313 -2.28772,5.61033 -1.66821,11.39525 0.92035,8.59414 3.53836,11.88927 10.79944,13.59263 6.65083,1.56019 7.09474,1.83856 5.66989,3.5554 -0.80078,0.96488 -3.35003,1.41097 -8.06324,1.41097 -6.45207,0 -7.13079,-0.21849 -10.62756,-3.42121 l -3.73531,-3.42121 -0.31617,-10.32879 c -0.3133,-10.23501 -0.28755,-10.36736 2.83651,-14.57879 1.73397,-2.33749 3.93531,-4.25 4.89186,-4.25 1.90441,0 6.0878,-3.95604 6.0878,-5.75695 0,-0.62042 -1.9125,-1.26642 -4.25,-1.43554 l -4.25,-0.30751 -0.52392,-5.20931 c -0.39803,-3.9575 -1.22397,-5.93998 -3.4371,-8.25 l -2.91316,-3.04069 -47.31291,0 c -39.52017,0 -47.31291,0.2269 -47.31291,1.37757 0,0.75765 0.7101,1.96688 1.57801,2.68717 0.8679,0.7203 2.68644,3.49702 4.0412,6.1705 2.09739,4.13901 2.41994,6.00467 2.17199,12.56283 l -0.2912,7.70193 -4.67033,0.30155 c -7.41675,0.47886 -9.06052,4.83249 -2.54869,6.75038 2.37307,0.69893 3.82857,2.13067 5.5385,5.44807 2.01732,3.91379 2.2711,5.62336 1.94809,13.12321 -0.56083,13.0214 -3.51353,16.38877 -15.30061,17.4494 -6.90466,0.62129 -7.00903,0.59383 -11.672,-3.0716 z m 6.95504,-6.75101 c -0.22917,-0.6875 -1.01667,-1.25 -1.75,-1.25 -0.73333,0 -1.52083,0.5625 -1.75,1.25 -0.24786,0.74359 0.46111,1.25 1.75,1.25 1.28889,0 1.99786,-0.50641 1.75,-1.25 z M 59.153741,825.26903 c 0.3775,-1.98145 -3.5052,-3.5268 -5.0301,-2.00198 -0.5676,0.56765 -0.7493,1.76891 -0.4038,2.66947 0.8079,2.10536 5.0039,1.58993 5.4339,-0.66749 z m 17.4814,-6.02472 c 2.7954,-1.4324 1.0076,-2.81072 -3.6459,-2.81072 -4.9377,0 -9.0311,2.37115 -6.7179,3.89148 1.5335,1.00793 7.5023,0.38549 10.3638,-1.08076 z m 14.222,-5.81072 c 0.3399,-0.55 0.168,-1 -0.382,-1 -0.55,0 -1.2781,0.45 -1.618,1 -0.3399,0.55 -0.168,1 0.382,1 0.55,0 1.2781,-0.45 1.618,-1 z m 34.270799,-2.1875 c -0.5113,-1.53391 -5.404,-3.16724 -7.3038,-2.43821 -0.8069,0.30962 -1.467,1.25206 -1.467,2.09434 0,1.15242 1.1342,1.53137 4.5833,1.53137 3.0936,0 4.4547,-0.38598 4.1875,-1.1875 z m -11.9612,-9.5625 c -0.4059,-2.10783 -2.1807,-1.97492 -2.6329,0.19719 -0.1887,0.90598 0.3626,1.55281 1.3233,1.55281 1.03,0 1.5204,-0.65539 1.3096,-1.75 z m 42.9404,-7.0144 c 5.5168,-2.88144 6.25,-3.6105 6.25,-6.21481 0,-3.28235 -2.2459,-5.02079 -6.4863,-5.02079 -2.0164,0 -2.8609,0.69738 -3.6761,3.03599 -1.7828,5.11405 -13.3376,9.42138 -13.3376,4.97189 0,-0.82067 1.6875,-2.28672 3.75,-3.25788 6.9809,-3.28706 4.4833,-4.75296 -8.0818,-4.74341 -6.8058,0.005 -9.2824,0.41153 -11.5269,1.8913 -5.6655,3.73519 -8.7278,11.47333 -4.8913,12.35984 0.9625,0.22241 8.5,0.36791 16.75,0.32333 14.9245,-0.0806 15.0314,-0.0975 21.25,-3.34546 z m 183.10704,-1.7356 c 0.59821,-3.17789 4.02714,-7.38834 7.4718,-9.17475 2.85154,-1.47883 9.06736,-1.62267 61.67116,-1.42713 46.91168,0.17436 58.8342,-0.0416 60.18709,-1.09033 0.9279,-0.71929 1.99048,-2.99529 2.36129,-5.05779 l 0.6742,-3.75 -65.90308,0 -65.90308,0 -3.99246,4.25 c -6.58266,7.00729 -7.56436,8.43864 -8.43484,12.29823 -1.3065,5.79285 -0.55929,6.58737 5.87587,6.24795 4.69698,-0.24773 5.67716,-0.62333 5.99205,-2.29618 z m -176.03824,-15.13885 6.1121,-0.63885 -0.2824,-16.61115 c -0.1554,-9.13612 -0.8041,-18.41115 -1.4416,-20.61115 -1.3781,-4.7555 -1.6515,-60.24984 -0.3072,-62.37187 1.5237,-2.40539 3.3656,-0.67526 4.7084,4.42262 0.9615,3.65026 1.3152,15.27273 1.3478,44.28259 0.035,31.00453 0.3088,39.24594 1.2941,38.9206 1.4328,-0.47309 2.4261,-13.53577 2.6428,-34.75393 0.076,-7.425 0.5306,-14.12015 1.0107,-14.87812 1.3878,-2.19113 3.0342,-0.36154 3.7662,4.1855 l 0.675,4.19262 1.8014,-4 c 2.0615,-4.5775 2.4011,-13.04755 0.6889,-17.1849 -0.6407,-1.54831 -1.4997,-5.5151 -1.9088,-8.8151 -0.4091,-3.3 -1.5017,-8.7 -2.428,-12 -0.9263,-3.3 -2.2409,-10.725 -2.9214,-16.5 -0.6805,-5.775 -1.7389,-11.43677 -2.3521,-12.58171 -0.6666,-1.24458 -0.8823,-4.33609 -0.5363,-7.68777 0.4117,-3.98916 0.1074,-6.78352 -1.0549,-9.68852 -0.8984,-2.24537 -1.6335,-5.66282 -1.6335,-7.59436 0,-1.93154 -0.675,-5.12739 -1.5,-7.10189 -0.985,-2.35733 -1.5,-6.9345 -1.5,-13.33038 0,-9.34393 -0.1236,-9.89594 -3.0377,-13.56283 -1.6707,-2.10235 -2.9082,-4.49436 -2.75,-5.31559 0.6269,-3.25355 8.9973,-3.59863 14.7876,-0.60963 2.1,1.08398 2.9234,1.04035 5.1462,-0.2727 2.4774,-1.46346 2.8259,-1.42182 5.4635,0.65295 3.1889,2.50837 10.3091,11.97806 10.3581,13.77597 0.018,0.65095 3.6323,4.9867 8.0323,9.635 8.14659,8.60632 9.33151,11.20709 6.42857,14.11002 -2.25125,2.25125 -3.60766,1.98861 -9.2138,-1.78404 -2.74237,-1.84551 -7.08787,-4.37288 -9.65657,-5.61636 -2.5687,-1.24349 -5.651,-3.58725 -6.8495,-5.20837 -2.5258,-3.41627 -8.1679,-7.16672 -9.9087,-6.58648 -1.6854,0.56182 -1.8956,16.94441 -0.2982,23.24887 0.6992,2.75979 1.3456,8.72369 1.4364,13.2531 0.099,4.9195 0.7458,9.34844 1.6073,11 0.7932,1.52059 1.445,5.14167 1.4483,8.04684 0,2.90516 0.6812,6.89761 1.5062,8.87212 0.825,1.97451 1.5,4.74059 1.5,6.14688 0,2.39666 0.9181,5.89535 3.2767,12.48709 1.0251,2.86495 4.1049,5.21201 5.6147,4.27888 0.4676,-0.28897 1.1252,-2.67228 1.4613,-5.29625 0.3361,-2.62397 0.8952,-6.23228 1.2424,-8.01848 0.6199,-3.18942 0.5757,-3.23653 -2.4665,-2.62808 -2.3711,0.47421 -3.2508,0.22073 -3.7501,-1.08045 -1.0326,-2.69084 2.683,-6.76021 9.1707,-10.04384 5.17046,-2.61694 6.00698,-3.4469 6.55139,-6.5 0.34326,-1.925 1.13605,-4.76679 1.76176,-6.3151 1.58561,-3.92357 1.36456,-5.56931 -0.42925,-3.19577 -1.50055,1.9855 -1.51006,1.9855 -5.2182,0 -2.9511,-1.58014 -3.7794,-2.65861 -4.0287,-5.24515 -0.579,-6.00745 2.2769,-8.31684 23.33277,-18.86798 10.71457,-5.36908 19.48103,-10.10843 19.48103,-10.53188 0,-0.98753 -19.56263,-10.84412 -21.52262,-10.84412 -1.90816,0 -1.87371,0.30282 0.58211,5.11661 2.14484,4.20424 2.26908,7.95414 0.28515,8.60685 -0.63544,0.20906 -1.65271,-1.10569 -2.26059,-2.92167 -1.1735,-3.5057 -4.56751,-7.8259 -15.11288,-19.23698 -8.58957,-9.29477 -23.41287,-31.61815 -25.97537,-39.11823 -2.3825,-6.97308 -3.9981,-8.44658 -9.2612,-8.44658 -3.3613,0 -4.6935,0.77265 -9.9143,5.75 -6.6676,6.35667 -8.7609,9.83853 -11.273,18.75 -0.9302,3.3 -2.1641,7.35001 -2.742,9 -0.5779,1.65001 -1.4047,5.25 -1.8373,8 -2.5264,16.05946 -3.3211,20.11662 -4.1441,21.15744 -0.5033,0.6366 -1.3052,3.3366 -1.782,6 -0.4768,2.66341 -1.9974,8.66756 -3.3792,13.34256 -1.3818,4.675 -3.27,12.10001 -4.196,16.5 -0.9259,4.40001 -3.7107,14.52501 -6.1884,22.5 -5.4625,17.58263 -5.8341,18.91588 -7.3851,26.5 -0.6748,3.3 -1.9059,7.35001 -2.7358,9 -0.8298,1.65001 -2.0772,5.925 -2.7718,9.5 -0.6947,3.575 -1.9865,9.425 -2.8708,13 -0.8842,3.575 -2.2551,9.65001 -3.0464,13.5 -0.7914,3.85001 -2.2965,9.47501 -3.3447,12.5 -4.670199,13.47746 -4.992099,16.65422 -1.553999,15.33488 0.8282,-0.31779 3.401199,0.0977 5.717999,0.92329 2.3168,0.8256 6.9123,2.04817 10.2123,2.71683 3.3,0.66864 7.125,1.71694 8.5,2.32952 4.426,1.97186 28.6562,3.22336 39.8188,2.05664 z m -50.1199,-23.08946 c -2.5137,-10.84655 -2.148,-39.56414 0.5103,-40.07449 3.5205,-0.67588 4.9284,5.92306 5.1848,24.30281 0.2579,18.48348 -0.1979,22.8404 -2.4338,23.26565 -1.0633,0.20224 -1.9498,-1.8347 -3.2613,-7.49396 z m 18.9678,7.06165 c -0.3667,-0.36667 -0.681,-11.95416 -0.6985,-25.75 -0.028,-22.3029 -0.195,-24.86759 -1.5038,-23.13708 -1.1779,1.55756 -1.7208,1.69625 -2.7181,0.69446 -1.4928,-1.4994 -1.258,-25.02899 0.2649,-26.55192 1.6337,-1.63366 2.4667,0.32411 3.0815,7.24212 l 0.5926,6.66909 0.1574,-8.625 c 0.087,-4.74375 0.4385,-10.03125 0.7823,-11.75 0.6762,-3.38094 2.9276,-4.20741 3.7457,-1.375 0.8331,2.88439 1.9485,78.66894 1.1929,81.04961 -0.6634,2.09024 -3.4635,2.96721 -4.8969,1.53372 z m 36.0166,-92.98333 c -1.0992,-1.09926 -0.7853,-6.16894 0.4285,-6.91911 0.6115,-0.37791 1.5012,-0.067 1.9772,0.69099 1.3692,2.18056 -0.8104,7.82342 -2.4057,6.22812 z m 316.9334,99.11016 c 2.09255,-1.31639 2.11537,-1.72384 2,-35.70727 l -0.1167,-34.37567 -3.57855,-5.43862 c -1.9682,-2.99123 -5.56463,-8.4761 -7.99206,-12.18861 -2.42742,-3.7125 -4.70209,-6.75 -5.05481,-6.75 -1.27566,0 -1.37022,4.20529 -1.09504,48.70022 l 0.27955,45.20022 4.72045,1.43455 c 4.96713,1.50951 7.35318,1.3169 10.83716,-0.87483 z m -75.80796,-1.32079 c 0.7775,-0.49311 -2.57856,-1.08536 -8.26788,-1.45908 -5.26714,-0.34599 -10.43898,-1.09059 -11.49299,-1.65467 -2.89346,-1.54854 -19.28681,-1.30261 -21.50952,0.32268 -4.15405,3.0375 -0.81317,3.652 19.77067,3.63638 11.10504,-0.008 20.77991,-0.38881 21.49972,-0.84531 z m 123.0872,-2.57507 c 1.93443,-1.19554 1.19826,-3.11816 -2.14594,-5.60447 -4.35998,-3.24149 -11.44652,-3.1042 -23.25,0.45047 -4.95,1.49071 -9.7875,2.93855 -10.75,3.21744 -3.14567,0.9114 -1.84016,2.25074 2.5,2.56476 7.51381,0.54363 32.50484,0.077 33.64594,-0.6282 z m -26.05959,-64.48082 c 2.06617,-1.05407 5.31075,-2.21331 7.21016,-2.57609 1.89942,-0.36277 5.92849,-2.18831 8.95349,-4.05677 3.025,-1.86846 9.54275,-5.4916 14.48388,-8.05141 4.94113,-2.55982 10.34113,-5.66232 12,-6.89445 1.65887,-1.23213 6.84112,-4.19539 11.51612,-6.58503 12.49382,-6.38626 16.60155,-9.17652 24.08132,-16.3578 5.25182,-5.04224 6.96295,-7.41491 7.76342,-10.76486 0.56473,-2.36339 3.27523,-11.04708 6.02334,-19.29708 12.96126,-38.91051 13.30039,-40.16064 12.102,-44.61111 -1.89833,-7.04985 -13.09448,-31.91575 -16.10753,-35.77375 -1.0244,-1.31167 -1.86255,-3.42261 -1.86255,-4.69098 0,-1.26837 -0.51827,-2.62643 -1.1517,-3.01792 -1.83658,-1.13506 -3.8483,2.60932 -3.8483,7.16277 0,2.30271 -0.65141,5.74579 -1.44758,7.6513 -0.79618,1.90551 -1.20369,4.39725 -0.90558,5.5372 0.38347,1.4664 -0.17565,2.54287 -1.91151,3.68025 -4.48519,2.93881 -7.37566,-0.50427 -4.66902,-5.56166 0.58647,-1.09583 1.22936,-4.77875 1.42864,-8.18426 0.30197,-5.16047 1.30123,-8.02302 5.99906,-17.18534 3.10021,-6.04642 6.24078,-11.67142 6.97906,-12.5 3.35482,-3.76516 13.51412,-27.28163 13.54148,-31.34547 0.008,-1.18856 0.57988,-3.96102 1.27083,-6.16102 0.72228,-2.29976 1.24742,-9.09204 1.23544,-15.97962 -0.0171,-9.86815 -0.28665,-12.032 -1.52901,-12.27676 -0.87556,-0.1725 -2.30073,1.17453 -3.39762,3.21134 -1.03919,1.92966 -2.96072,4.2104 -4.27006,5.06832 -4.21188,2.75973 -6.04821,-0.65755 -2.21304,-4.11829 1.1611,-1.04775 3.90787,-5.47552 6.10393,-9.83949 2.19606,-4.36398 5.01841,-9.55912 6.27189,-11.54476 1.25348,-1.98565 2.50201,-5.61512 2.7745,-8.0655 0.2725,-2.45038 0.82764,-5.46774 1.23365,-6.70524 1.16105,-3.53883 -1.00107,-2.72402 -5.7275,2.15845 -10.46088,10.80624 -13.11587,14.36133 -17.50132,23.43466 -6.0756,12.57022 -12.46668,22.45136 -16.27572,25.16364 -1.67518,1.19283 -4.13342,4.31514 -5.46276,6.93846 -1.32934,2.62332 -3.50541,6.07133 -4.83571,7.66223 -1.33031,1.59091 -3.37354,4.77401 -4.54052,7.07356 -3.00002,5.91158 -9.73994,11.85042 -18.83234,16.59397 l -7.81919,4.07931 -13.5,0.19416 c -9.41057,0.13536 -14.52046,0.645 -16.86874,1.68246 -2.73965,1.21037 -7.22141,1.4093 -24,1.06528 -13.07577,-0.26809 -21.1757,-0.0499 -22.11794,0.59569 -1.59329,1.09176 -0.10296,4.52349 8.86868,20.42162 5.25722,9.31601 5.78746,9.74987 8.17199,6.6865 l 1.94601,-2.5 1.96241,2.5 c 1.07932,1.375 2.23638,3.85001 2.57124,5.5 0.33486,1.65 1.86825,5.47501 3.40752,8.5 1.53927,3.025 3.08914,7.05337 3.44414,8.95193 0.355,1.89855 1.48987,4.37356 2.52193,5.5 1.03206,1.12644 3.06347,5.37435 4.51424,9.4398 3.32852,9.32739 3.71581,9.99389 6.65938,11.46055 4.40057,2.19258 4.62534,17.31786 0.24476,16.47048 -1.07259,-0.20748 -2.60268,-3.01106 -4.2839,-7.84935 -1.43845,-4.13964 -3.38629,-8.62725 -4.32854,-9.97251 -0.94225,-1.34525 -1.71318,-3.25478 -1.71318,-4.24338 0,-0.98862 -2.025,-5.8295 -4.5,-10.75752 -2.475,-4.92802 -4.5,-9.62284 -4.5,-10.43295 0,-0.81012 -0.54408,-2.66708 -1.20907,-4.12656 l -1.20907,-2.65362 -1.12946,3.35657 c -2.121,6.30329 -3.77851,4.86268 -10.74879,-9.34229 -12.76373,-26.01162 -15.91537,-33.28422 -15.83975,-36.55114 0.0895,-3.86843 -0.7504,-4.06412 -3.74809,-0.87324 -2.19297,2.33431 -2.22966,2.80319 -2.05438,26.25 0.13632,18.23411 0.50993,24.52165 1.58167,26.6183 0.77175,1.50977 1.84268,7.13477 2.37984,12.5 1.1577,11.56322 1.49495,13.03311 6.71233,29.25493 2.21119,6.875 4.55394,14.52501 5.20613,17 3.99096,15.14543 6.12357,21.9581 7.97036,25.46144 1.14856,2.1788 2.08828,4.55413 2.08828,5.27853 0,3.01737 11.99082,24.09584 14.28054,25.10355 0.4293,0.18894 1.8956,2.54398 3.25845,5.23343 1.47769,2.91608 4.52901,6.5112 7.55925,8.90647 2.79475,2.20912 5.28387,4.01658 5.5314,4.01658 0.24752,0 2.14054,-0.86242 4.20671,-1.91651 z m 31.46653,-53.73657 c -0.73042,-1.90346 -0.21806,-3.79853 6.17703,-22.84692 8.1227,-24.19427 10.1823,-28.91339 18.5486,-42.5 6.58041,-10.68637 12.0051,-16.58481 14.40558,-15.66367 1.31313,0.5039 1.56591,2.75834 1.56591,13.96562 0,7.35059 -0.2961,13.66082 -0.65799,14.02271 -0.3619,0.3619 -1.2619,0.15679 -2,-0.45578 -0.93998,-0.78011 -1.34201,-3.79823 -1.34201,-10.07466 0,-10.06788 -1.08313,-11.06381 -4.5,-4.13768 -1.1,2.22976 -3.23695,5.66344 -4.74877,7.63045 -1.51182,1.96699 -3.21053,4.79087 -3.77491,6.27529 -0.56437,1.48442 -1.94234,3.98562 -3.06214,5.55824 -1.11981,1.57263 -2.93977,6.12635 -4.04436,10.1194 -1.1046,3.99304 -3.62089,11.98509 -5.59176,17.76008 -1.97087,5.77501 -4.45446,13.08751 -5.51909,16.25 -1.93368,5.74404 -4.17749,7.4289 -5.45609,4.09692 z m -78.67979,-44.88674 c -0.6825,-1.77857 6.45633,-10.03322 9.51712,-11.00468 2.65774,-0.84353 4.85979,1.20952 4.85979,4.53094 0,5.26898 -12.6529,10.96643 -14.37691,6.47374 z m 55.89428,-18.08566 c -2.14865,-2.14866 -2.19997,-22.56312 -0.0612,-24.33817 2.44861,-2.03216 3.5438,-0.19297 3.5438,5.95124 0,6.94555 1.78371,9.52427 5.89376,8.52065 6.21337,-1.51722 42.10015,-19.55147 43.5826,-21.90165 0.75224,-1.19255 0.0813,-2.47523 -2.88199,-5.50995 -2.47267,-2.53225 -3.64563,-4.52067 -3.25982,-5.52609 1.00869,-2.62859 2.68941,-1.81413 8.29445,4.01935 6.86571,7.14552 7.04899,9.65215 1.121,15.33136 -4.96007,4.7519 -18.65555,11.69467 -30.75,15.58835 -4.675,1.50507 -8.9275,3.13112 -9.45,3.61344 -0.5225,0.48232 -1.6475,0.88135 -2.5,0.88672 -0.8525,0.005 -3.90468,1.10605 -6.78263,2.44594 -4.67785,2.17789 -5.3935,2.27531 -6.75,0.91881 z m -57.8229,63.9793 c 0.73409,-1.91301 -1.78112,-14.80764 -4.16525,-21.35382 -2.70369,-7.42361 -3.79025,-8.31971 -10.99179,-9.06509 -3.54835,-0.36727 -8.99163,-1.69871 -12.09618,-2.95875 l -5.64464,-2.29099 -5.41696,2.74285 -5.41696,2.74286 -31.23135,-0.18145 c -17.17723,-0.0998 -34.74831,-0.61373 -39.04683,-1.14208 -7.34572,-0.90289 -8.06701,-0.81642 -12,1.43862 -6.21178,3.56162 -13.28073,5.29403 -15.17774,3.71965 -2.19358,-1.82051 -1.93456,-2.56252 2.48376,-7.1153 2.19479,-2.26158 3.74323,-4.51209 3.44098,-5.00114 -1.81748,-2.94075 -20.7131,0.65276 -24.47209,4.65402 -2.1525,2.29123 -2.15728,2.37411 -0.41157,7.13747 3.63541,9.91962 21.33436,24.01887 31.45215,25.05525 9.23115,0.94555 14.65868,-2.26813 12.05308,-7.13673 -1.09963,-2.0547 -1.11495,-2.81972 -0.0814,-4.0651 2.05954,-2.4816 4.13444,-1.80265 8.4584,2.76776 5.54347,5.85943 9.83151,8.69134 13.22426,8.73359 1.5651,0.0195 3.97063,0.67854 5.34563,1.46456 2.05847,1.17673 10.14399,1.43539 45.78138,1.46456 39.27817,0.0322 43.33982,-0.11682 43.91309,-1.61074 z m -247.69447,-1.79479 c 0,-1.59264 -1.81436,-3.07799 -2.69007,-2.20228 -0.82264,0.82263 0.46152,3.64325 1.65869,3.64325 0.56726,0 1.03138,-0.64844 1.03138,-1.44097 z m -10,-33.42153 c 0,-0.47437 -1.35,-2.56124 -3,-4.6375 -1.65,-2.07626 -3,-4.12861 -3,-4.56078 0,-2.0245 -5.3748,-6.93922 -7.5889,-6.93922 -3.1048,0 -3.0442,1.45476 0.246,5.90561 5.1099,6.91253 13.3429,13.2259 13.3429,10.23189 z m 188.66655,-0.91026 c 0.83894,-0.53371 1.23439,-9.44619 1.40808,-31.73468 0.14,-17.96451 0.64691,-31.51801 1.20589,-32.24256 2.64521,-3.42869 7.1855,0.17289 4.8773,3.8689 -1.60388,2.56822 -1.44687,3.36588 0.36635,1.86104 0.83829,-0.69572 1.70224,-1.08686 1.9199,-0.86919 0.64774,0.64773 3.64784,9.11948 4.56448,12.88925 0.46807,1.925 1.39363,5.43716 2.05679,7.80481 0.89753,3.20436 0.92096,4.92985 0.0917,6.75 -1.46877,3.22359 -2.9778,3.09967 -3.7117,-0.30481 -0.32604,-1.5125 -1.76053,-6.70373 -3.18774,-11.53607 -3.09057,-10.46425 -4.25761,-9.82209 -4.15463,2.28607 0.0657,7.72079 1.4437,20.85593 1.76347,16.80902 0.0735,-0.93004 0.63392,-2.0002 1.24541,-2.37812 2.3803,-1.47109 2.99208,2.33658 2.381,14.8191 l -0.62418,12.75 4.19766,0 c 4.67394,0 9.85259,-2.70105 12.27918,-6.40449 0.85383,-1.3031 3.17195,-3.3702 5.15139,-4.59357 l 3.59899,-2.22429 3.20208,3.65507 c 2.24896,2.56712 4.31829,3.82978 6.95208,4.24202 4.86555,0.76156 4.79747,-0.08 -0.82304,-10.17474 -2.44982,-4.39999 -7.70339,-14.41249 -11.6746,-22.25 -6.60853,-13.04244 -9.74442,-17.0598 -9.75731,-12.5 -0.003,0.9625 0.63502,3.775 1.4172,6.25 3.49661,11.06415 5.15467,23.0722 3.58958,25.99658 -1.64641,3.07634 -2.95124,1.41483 -4.01691,-5.11498 -0.48306,-2.95988 -1.86941,-8.7566 -3.08079,-12.8816 -1.36997,-4.66501 -2.42962,-11.73091 -2.80332,-18.69292 l -0.60086,-11.19291 -15.2955,-15.30709 c -12.32937,-12.33871 -15.19198,-15.71962 -14.76173,-17.43443 0.43902,-1.74975 -0.0188,-2.23786 -2.5795,-2.75 -4.70435,-0.94087 -20.16607,-0.71681 -21.79806,0.31588 -1.44503,0.9144 2.07937,2.92203 10.80541,6.15517 7.27627,2.69597 9.00761,8.39495 5.04017,16.59058 -1.65398,3.41667 -2.62154,4.31572 -4.6446,4.31572 -2.53701,0 -2.55109,-0.0461 -1.95684,-6.40984 l 0.59856,-6.40985 -4.10258,-1.64153 c -5.19126,-2.07712 -6.77364,-0.94247 -5.05085,3.62173 0.65033,1.72291 0.94506,3.51663 0.65495,3.98604 -1.17106,1.89481 -3.21281,0.58114 -7.45373,-4.79578 -5.46271,-6.92601 -13.00448,-14.35077 -14.57692,-14.35077 -0.64064,0 -1.42382,0.675 -1.74041,1.5 -0.96981,2.52729 -2.72361,1.72314 -8.72372,-4 -6.60751,-6.3025 -9.22716,-6.91088 -10.76481,-2.5 -1.3933,3.99685 -2.63061,3.78278 -5.63387,-0.97469 -3.43347,-5.43897 -6.69603,-7.42004 -11.05487,-6.7127 -4.15609,0.67444 -12.17689,-1.5146 -15.698,-4.28431 -1.46988,-1.15619 -3.6135,-4.94769 -5.16723,-9.13943 -1.4604,-3.93994 -3.54191,-8.4087 -4.62557,-9.93056 -2.49767,-3.50765 -2.73333,-12.08015 -0.38565,-14.02854 1.19247,-0.98967 1.43142,-2.33691 0.96552,-5.44376 -0.74967,-4.99914 2.09893,-9.486 6.02241,-9.486 2.81292,0 3.36509,2.97691 0.92742,5 -3.58982,2.97929 -0.30563,8.68764 5.53566,9.62169 2.15962,0.34535 4.45601,1.26581 5.10308,2.04548 1.96269,2.3649 -0.61472,3.78605 -7.85808,4.33283 -3.80357,0.28713 -6.7894,1.00338 -7.01293,1.6823 -0.80307,2.43915 4.18492,3.77537 14.23227,3.81266 9.94056,0.0369 10.1734,0.12043 9.65,3.46298 -0.0825,0.52686 -3.6375,1.08936 -7.9,1.25 -6.98598,0.26327 -7.75,0.48924 -7.75,2.29206 0,1.80345 0.55707,1.96769 5.66854,1.67122 6.40721,-0.37162 9.83146,0.97418 9.83146,3.86397 0,1.75157 -0.70546,1.96481 -6.5,1.96481 -4.70416,0 -6.5,0.36325 -6.5,1.3148 0,1.89864 6.43755,4.6852 10.82383,4.6852 2.06578,0 6.39184,0.68656 9.61346,1.52568 l 5.85748,1.52568 6.87159,-4.15187 c 3.77938,-2.28353 7.11461,-4.54509 7.41163,-5.02568 1.06289,-1.71979 4.42201,-0.92643 4.42201,1.04441 0,5.2641 2.41198,6.47118 5.65844,2.83179 1.88842,-2.11698 1.97262,-3.19529 1.42432,-18.23896 -0.51053,-14.00732 -0.79451,-16.02941 -2.29126,-16.31533 -1.48231,-0.28317 -1.7471,0.77303 -2,7.97789 -0.23414,6.67006 -0.60661,8.36444 -1.89272,8.61 -1.29502,0.24728 -1.71974,-0.99365 -2.22096,-6.48894 -0.65284,-7.15758 -1.37861,-8.23682 -9.196,-13.67462 -1.48645,-1.034 -3.61171,-3.42075 -4.7228,-5.3039 -2.94613,-4.99333 -10.33536,-10.31615 -14.32103,-10.31615 -5.11763,0 -6.51079,0.86178 -5.82303,3.60202 0.3304,1.31643 0.33133,3.09556 0.002,3.95363 -0.50392,1.31319 -1.15093,1.1389 -4.08785,-1.1012 -3.25315,-2.4813 -4.05846,-2.63742 -11.9049,-2.30789 -9.56847,0.40185 -12.30713,1.94184 -12.81872,7.20816 -0.46451,4.7816 -3.72168,4.69492 -8.80082,-0.23422 -4.40638,-4.27625 -22.1266,-13.50598 -32.72318,-17.04417 -9.01339,-3.00955 -28.73629,-3.00281 -34.96389,0.012 -4.0772,1.97372 -11.6931,9.81222 -14.1815,14.59597 -1.4502,2.78796 -1.6216,87.89771 -0.1787,88.78942 0.5265,0.32544 1.6515,-0.75066 2.5,-2.39133 1.1503,-2.22444 1.5425,-6.18241 1.5425,-15.56407 0,-10.75232 0.2391,-12.67278 1.6446,-13.21214 2.9615,-1.13641 4.5826,2.54052 4.0536,9.19386 -0.2624,3.3 -0.6393,6.64411 -0.8376,7.43135 -0.2531,1.00482 1.207,1.79293 4.8998,2.64476 2.8933,0.66738 7.2759,2.16077 9.7392,3.31865 2.4632,1.15787 4.9335,2.10524 5.4895,2.10524 1.5606,0 1.1955,-2.60191 -0.5707,-4.06773 -0.8698,-0.72194 -2.9534,-4.03953 -4.63,-7.37245 -1.6767,-3.33291 -4.2436,-7.85983 -5.7042,-10.05982 -4.1537,-6.25638 -4.8928,-7.54271 -8.6027,-14.97178 l -3.4814,-6.97184 0,-14.71919 c 0,-15.40981 0.6452,-17.70507 3.9941,-14.20859 2.6703,2.78805 7.0059,11.53043 7.0059,14.12697 0,1.24934 0.4088,3.05292 0.9084,4.00796 0.4997,0.95504 1.668,5.56143 2.5963,10.23643 0.9283,4.675 2.815,10.88945 4.1925,13.8099 1.3776,2.92045 2.2684,6.21364 1.9795,7.31819 -0.705,2.69618 0.8736,6.93143 5.2922,14.19857 2.71941,4.47248 4.56548,6.36518 7.10276,7.28216 4.22777,1.52793 11.58938,1.74863 12.43961,0.37293 0.94446,-1.52817 -3.10649,-7.4763 -5.9849,-8.78779 -4.33036,-1.97305 -11.36055,-9.16249 -12.05607,-12.32919 -0.36234,-1.64972 -1.28862,-4.20668 -2.0584,-5.68214 -2.1412,-4.10408 -1.7736,-9.65061 0.84103,-12.69028 2.75999,-3.20869 5.06003,-2.59434 6.84961,1.82952 0.7071,1.74797 2.73825,5.31517 4.51366,7.92711 1.77542,2.61194 3.77491,6.43693 4.44333,8.5 2.40345,7.41818 9.78027,20.79318 14.47841,26.25101 2.06788,2.40225 4.81753,7.04053 10.24436,17.28078 1.45789,2.75099 4.49082,6.21751 7.14353,8.16478 2.53548,1.86122 5.45916,4.32237 6.49706,5.46923 1.0379,1.14687 2.62567,2.08521 3.52839,2.08521 0.90272,0 5.06863,2.25 9.25758,5 4.18894,2.75 8.33061,5 9.2037,5 2.58379,0 1.82145,-3.36167 -1.71669,-7.57 -7.02929,-8.36077 -12.4834,-16.11669 -14.40711,-20.48736 -2.54988,-5.79334 -11.70252,-16.67481 -29.53876,-35.11831 -4.8125,-4.97634 -8.75,-9.43269 -8.75,-9.903 0,-0.4703 -2.88168,-4.05464 -6.40374,-7.96519 l -6.40374,-7.11008 -0.39452,-13.67302 c -0.21698,-7.52017 -0.20302,-14.25932 0.031,-14.9759 0.23405,-0.71658 1.35521,-1.16658 2.49149,-1 2.7958,0.40987 7.76374,8.92216 11.79388,20.20817 3.95826,11.08473 12.77686,29.3801 17.29633,35.88355 4.12,5.92863 8.33408,10.71114 9.43807,10.71114 0.45834,0 2.0264,2.19202 3.48457,4.87115 1.45816,2.67914 3.37406,5.47107 4.25754,6.20429 0.88349,0.73323 3.6046,4.27871 6.04693,7.87885 6.7813,9.99606 8.97637,12.9035 13.20748,17.49371 2.14169,2.32347 4.71451,5.53568 5.71738,7.13824 3.81612,6.09812 19.91245,21.48093 25.18731,24.0708 5.1614,2.53416 6.70446,4.95134 3.75,5.87434 -4.87679,1.52356 -4.77291,1.43486 -3.49018,2.98045 0.87597,1.05548 3.24919,1.48817 8.16228,1.48817 4.20726,0 8.06824,0.59004 9.83318,1.50273 1.59827,0.8265 7.31343,1.95207 12.70034,2.50127 5.38691,0.5492 12.94438,1.42411 16.79438,1.94424 3.85,0.52014 8.575,0.68897 10.5,0.37518 4.29175,-0.69958 8,-3.90534 8,-6.91595 0,-3.28725 1.02218,-5.40747 2.60699,-5.40747 1.04327,0 1.39301,1.58172 1.39301,6.3 0,3.56667 0.52063,6.82063 1.2,7.5 1.35136,1.35136 3.72262,1.5367 5.46655,0.42724 z m -20.66655,-9.71278 c 0,-1.36706 1.57166,-7.10456 3.49257,-12.75 1.92091,-5.64545 3.49591,-10.99685 3.5,-11.89201 0.004,-0.89516 0.62272,-2.13821 1.37475,-2.76233 2.49562,-2.07119 3.90686,1.24303 3.46749,8.14321 -0.51229,8.04537 -6.7123,21.74667 -9.84064,21.74667 -1.45736,0 -1.99417,-0.66908 -1.99417,-2.48554 z m -32.5629,-11.46446 c -2.13666,-0.8774 -5.0535,-4.14688 -10.98107,-12.30865 -4.94769,-6.81254 -4.52778,-10.85971 0.91216,-8.79146 1.39481,0.5303 3.29084,2.44602 4.21339,4.25715 0.92255,1.81113 3.90083,5.66208 6.61839,8.55764 6.24107,6.6499 5.8408,10.99706 -0.76287,8.28531 z m -29.65652,-6.77566 c -0.86539,-0.97589 -3.33226,-5.14934 -5.48193,-9.27434 -2.14967,-4.125 -5.68377,-10.14944 -7.85357,-13.38763 -2.16979,-3.2382 -5.97008,-9.36195 -8.44508,-13.60834 -2.475,-4.24638 -6.12475,-9.69694 -8.11056,-12.11237 -1.9858,-2.41541 -4.9741,-7.09166 -6.64065,-10.39166 -1.66656,-3.3 -3.97931,-6.85724 -5.13945,-7.90499 -2.31534,-2.09102 -2.71153,-4.1048 -1.01399,-5.15393 2.18351,-1.34949 6.02927,2.05773 9.02275,7.99385 1.68218,3.3358 4.11514,7.19008 5.40659,8.56508 1.29144,1.375 2.81153,3.7269 3.37798,5.22644 1.15617,3.06067 8.18911,12.62866 9.34733,12.71661 0.4125,0.0313 0.75,-1.65704 0.75,-3.75192 0,-4.09717 2.05499,-7.89321 3.71694,-6.86607 0.5612,0.34684 1.32471,2.53397 1.69671,4.8603 0.37199,2.32632 1.5561,6.2185 2.63135,8.64928 1.12987,2.55426 1.955,6.63362 1.955,9.66536 0,5.53136 2.32091,11.9369 6.62095,18.27336 3.6069,5.31507 2.03425,10.8703 -1.84037,6.50097 z m 48.46942,-9.93662 c -2.54966,-1.02881 -1.10591,-4.57705 3.89869,-9.58164 6.2803,-6.28031 12.18157,-15.22359 14.34672,-21.74226 2.08713,-6.28375 4.17975,-8.17854 6.1128,-5.53494 2.20698,3.01822 1.63463,6.94054 -1.60821,11.02112 -1.65,2.07626 -3,4.52603 -3,5.44392 0,4.11923 -14.97703,21.52144 -18.05375,20.97713 -0.24544,-0.0434 -1.00875,-0.30592 -1.69625,-0.58333 z m 36.25,-31.33772 c -0.85053,-2.6798 0.29349,-6 2.06739,-6 1.00471,0 1.43261,1.19473 1.43261,4 0,4.34943 -2.33147,5.6817 -3.5,2 z m -12.40216,-9.39585 c -2.41069,-2.56607 -2.62362,-7.61309 -0.35265,-8.35876 1.74055,-0.5715 7.25481,5.18287 7.25481,7.5707 0,1.74578 -1.76495,3.18391 -3.90747,3.18391 -0.40915,0 -1.75676,-1.07812 -2.99469,-2.39585 z M 297.35714,481.4336 c 0,-0.55 0.45,-1 1,-1 0.55,0 1,0.45 1,1 0,0.55 -0.45,1 -1,1 -0.55,0 -1,-0.45 -1,-1 z m 28.66667,0.33333 c -0.36667,-0.36665 -0.66667,-1.52466 -0.66667,-2.57331 0,-2.72533 3.41564,-1.8309 3.81955,1.0002 0.30775,2.15704 -1.61141,3.1146 -3.15288,1.57311 z m -18.04282,-2.87118 c -0.75702,-1.97277 2.28568,-3.22656 3.41109,-1.40561 0.4582,0.74138 0.61123,1.70695 0.34006,2.14571 -0.82906,1.34146 -3.12631,0.88821 -3.75115,-0.7401 z M 270.5498,607.06271 c 5.66904,-1.85399 11.88234,-3.68759 13.80734,-4.07466 6.19039,-1.24475 7,-1.65541 7,-3.55065 0,-1.02377 -1.49842,-3.35595 -3.32983,-5.18261 -13.35672,-13.32211 -22.47996,-20.43556 -31.0967,-24.24629 -3.66073,-1.61895 -6.2391,-3.76839 -9.19159,-7.66253 -2.25699,-2.97681 -7.13336,-8.67488 -10.83638,-12.66238 -10.09092,-10.86614 -11.11627,-9.75148 -3.90948,4.25 4.87215,9.4657 15.68652,22.16852 23.76546,27.91549 5.70505,4.05831 14.59852,12.75852 14.59852,14.2813 0,0.69581 -1.13579,1.55017 -2.52397,1.89858 -2.0541,0.51555 -3.40836,-0.19377 -7.27468,-3.81026 -2.61289,-2.44405 -6.0896,-5.28249 -7.72603,-6.30765 -4.86623,-3.04849 -14.2855,-12.56854 -18.52855,-18.7268 -8.96941,-13.01797 -12.43478,-21.8534 -10.04857,-25.62019 0.60389,-0.95327 -0.27703,-2.54897 -2.89829,-5.25 -2.07123,-2.13425 -4.25697,-3.88047 -4.85721,-3.88047 -0.60024,0 -1.78945,1.35001 -2.6427,3 -1.6833,3.25513 -2.99961,3.54434 -8.8004,1.9335 -4.0493,-1.12446 -4.607,-1.00945 -18.4496,3.80453 -5.9985,2.08609 -7.25,2.89595 -7.25,4.69164 0,1.19368 0.4539,2.62426 1.0087,3.17905 0.5548,0.5548 2.5611,4.74514 4.4583,9.31187 1.8973,4.56671 4.2558,9.42597 5.2413,10.79833 0.9854,1.37236 2.7345,4.04077 3.8868,5.92981 6.2643,10.2696 18.40905,18.45077 29.4049,19.80826 5.50829,0.68002 17.29108,5.80223 22.00151,9.56449 2.10087,1.67798 7.81988,3.42146 12.69115,3.86896 0.65596,0.0603 5.83096,-1.40733 11.5,-3.26132 z M 236.85714,590.5552 c -5.2867,-2.42456 -35.7541,-32.55342 -35.3066,-34.91425 0.1826,-0.96323 1.41793,-1.83556 2.83435,-2.00151 2.06516,-0.24196 5.44999,2.59707 19.07598,16 9.11094,8.96178 17.84553,17.21901 19.41021,18.34936 1.72691,1.24757 2.55469,2.52474 2.10645,3.25 -1.02811,1.66352 -3.44651,1.45992 -8.12039,-0.6836 z m 210.175,13.28295 c 1.57971,-4.11666 -5.49953,-26.71141 -10.36693,-33.08806 -1.82939,-2.39663 -4.21881,-6.023 -5.30982,-8.05859 -1.79446,-3.34807 -1.83514,-3.84685 -0.42644,-5.22949 1.6758,-1.64481 1.81955,-1.52885 6.72487,5.42469 0.98818,1.40079 2.22568,2.54689 2.75,2.54689 0.5252,0 0.95332,-3.60269 0.95332,-8.02233 0,-7.9688 -0.0267,-8.05131 -3.99791,-12.35956 -2.19884,-2.38547 -6.81134,-5.8255 -10.25,-7.64452 -3.43865,-1.81903 -9.17709,-6.20666 -12.75209,-9.75032 -3.575,-3.54365 -7.99196,-7.08691 -9.81547,-7.87391 -4.58414,-1.97844 -3.97917,-4.74104 1.13065,-5.16312 3.54794,-0.29305 4.3391,0.21078 11.99169,7.63658 8.1477,7.90625 17.57741,13.8193 20.34463,12.75742 1.0847,-0.41624 1.37353,-2.0018 1.14876,-6.30612 l -0.30026,-5.75007 -9.5,-3.149 c -5.225,-1.73194 -13.775,-4.69406 -19,-6.58249 -8.99604,-3.25136 -10.0794,-3.41621 -20.42219,-3.10751 -6.00721,0.1793 -11.05936,0.46316 -11.227,0.63081 -0.82306,0.82305 3.20343,4.92624 6.46896,6.59219 2.02818,1.0347 8.41094,6.67542 14.18392,12.53493 l 10.49631,10.65366 13.73655,27.20168 c 18.42505,36.48605 21.48429,41.1987 23.43845,36.10624 z m -25.00571,-56.79244 c -3.42758,-2.80429 -3.53102,-7.92731 -0.16929,-8.38355 2.67697,-0.36331 7.08528,7.36129 5.37619,9.42061 -1.47277,1.77458 -1.86608,1.69625 -5.2069,-1.03706 z m -282.49729,38.13788 c 0.6832,-1.2375 1.5449,-4.72499 1.9147,-7.75 0.9054,-7.40546 5.0435,-18.33165 8.6456,-22.82761 1.6182,-2.01981 4.1737,-5.62867 5.6789,-8.01967 2.0982,-3.33306 3.2003,-4.22605 4.7239,-3.82763 1.093,0.28582 2.1913,-0.012 2.4407,-0.66191 0.2493,-0.64987 0.3343,-15.35244 0.1888,-32.67237 -0.2079,-24.74643 -0.5167,-31.0522 -1.4416,-29.44293 -0.6474,1.12632 -4.3512,11.92631 -8.2307,23.99999 -6.946,21.61671 -15.9677,48.54602 -22.0106,65.70026 -3.639,10.33014 -3.6814,10.75187 -1.0817,10.75187 1.619,0 2,0.66667 2,3.5 0,3.21299 0.2431,3.5 2.9648,3.5 2.0399,0 3.3524,-0.70194 4.2072,-2.25 z m -36.0406,-10.93919 c 3.8789,-5.84652 3.7577,-6.8951 -0.656,-5.6764 -1.9385,0.53524 -5.650999,0.83647 -8.249999,0.66939 -3.9875,-0.25635 -4.7741,-0.64592 -5.0372,-2.49465 -0.1715,-1.20498 0.3926,-3.2659 1.2535,-4.57983 0.8609,-1.31393 1.2637,-2.69054 0.8951,-3.05914 -1.6024,-1.60246 -4.0209,-0.41219 -5.773,2.84123 l -1.891,3.51139 2.3379,2.48861 c 1.2859,1.36873 3.3238,2.4886 4.5288,2.4886 1.2049,0 3.3965,0.94842 4.8701,2.10759 2.5509,2.00648 2.6033,2.22372 1.0933,4.52825 -0.8723,1.33136 -1.3128,2.86277 -0.9788,3.40312 0.9199,1.48845 4.351799,-1.32132 7.607299,-6.22815 z m -28.131399,-6.22192 c 0,-0.7761 -1.4181,-2.60439 -3.1514,-4.06285 -2.6854,-2.25955 -3.3564,-2.44686 -4.5368,-1.26644 -0.7619,0.76192 -1.1175,2.08316 -0.7902,2.93608 1.1687,3.0456 8.4784,5.10892 8.4784,2.39321 z m 539.578849,-6.83889 c 1.69903,-3.20044 3.67255,-14.55104 5.25953,-30.25 0.44479,-4.39999 1.33812,-8.98291 1.98517,-10.18426 0.64705,-1.20134 1.17645,-4.4406 1.17645,-7.19837 0,-8.11039 4.22016,-19.52059 11.21518,-30.32294 3.45665,-5.33807 7.63482,-11.84438 9.28482,-14.4585 1.65,-2.61411 3.9,-6.1376 5,-7.82998 5.86024,-9.01614 15.06596,-23.15462 23.61104,-36.26269 5.28607,-8.10879 10.77364,-17.04159 12.19461,-19.85069 1.42096,-2.8091 3.73349,-6.47406 5.13896,-8.14436 3.02038,-3.58952 3.17515,-5.92532 0.59742,-9.01599 -2.14329,-2.56978 -8.86012,-5.23221 -13.19988,-5.23221 -1.59851,0 -4.52189,-0.675 -6.49639,-1.5 -1.97451,-0.825 -5.7301,-1.5 -8.34576,-1.5 -2.61566,0 -6.37125,-0.675 -8.34576,-1.5 -5.00959,-2.09314 -18.96552,-2.04586 -21.08281,0.0714 -1.48904,1.48903 -2.00323,3.40497 -1.65166,6.15426 0.0862,0.67413 -0.49862,2.49302 -1.29962,4.04197 -3.26887,6.3213 -5.62159,14.93707 -5.65195,20.69769 -0.0196,3.71333 -0.59657,6.78135 -1.5,7.97579 -0.80751,1.06762 -1.4682,3.66477 -1.4682,5.77144 0,2.3466 -0.93227,5.27461 -2.40673,7.55887 -2.18334,3.38249 -2.40565,4.7794 -2.39512,15.05019 0.009,8.73099 0.32943,11.44359 1.4006,11.85464 0.85896,0.32961 5.11191,-3.39207 11.14513,-9.7529 5.36586,-5.65725 11.26539,-11.66684 13.11004,-13.35464 1.84466,-1.6878 4.16595,-4.64373 5.15842,-6.56873 0.99247,-1.92501 3.19571,-4.82169 4.89608,-6.4371 1.70037,-1.6154 3.09158,-3.36689 3.09158,-3.89219 0,-1.05668 8.17767,-11.16408 11.26294,-13.92072 2.26871,-2.02706 6.73706,-2.34521 6.73706,-0.47969 0,0.69867 -3.08089,4.41117 -6.84641,8.25 -3.76553,3.83883 -7.43549,8.10469 -8.15547,9.47969 -0.71998,1.375 -2.81409,4.34635 -4.65359,6.60299 -1.83949,2.25665 -3.34453,4.42096 -3.34453,4.8096 0,0.38863 -3.2625,4.54492 -7.25,9.23619 -3.9875,4.69128 -8.10051,9.95196 -9.14003,11.69041 -1.03952,1.73845 -3.62702,5.76244 -5.75,8.9422 -2.12298,3.17977 -3.85997,6.42474 -3.85997,7.21105 0,0.78631 -0.87554,2.24534 -1.94565,3.2423 -2.51517,2.34323 -13.05219,23.14797 -13.05341,25.77321 -10e-4,2.3843 -4.3598,10.88247 -7.53424,14.68955 -1.71828,2.06072 -2.41369,4.55518 -2.94584,10.56683 -0.8296,9.37189 0.14028,13.63836 5.58173,24.55377 2.14357,4.29996 3.89741,8.25191 3.89741,8.78212 0,1.93678 2.92552,7.89977 3.87573,7.89977 0.53778,0 1.75419,-1.4625 2.70312,-3.25 z m -514.57885,-2.30901 c 0,-1.45137 -0.432799,-2.2915 -0.999999,-1.94099 -0.55,0.33992 -1,1.49149 -1,2.55902 0,1.06754 0.45,1.94098 1,1.94098 0.55,0 0.999999,-1.15156 0.999999,-2.55901 z m 91.4472,-26.35557 c 0.5908,-0.95587 -5.3495,-5.08542 -7.3152,-5.08542 -1.645,0 -1.3865,2.06131 0.523,4.17127 1.7393,1.92189 5.8292,2.47235 6.7922,0.91415 z m 246.33974,-20.2176 c 0.35294,-1.83266 -2.88254,-3.04479 -4.86194,-1.82146 -1.05694,0.65323 -1.0482,1.10028 0.0473,2.42032 1.62728,1.96076 4.38779,1.61739 4.8146,-0.59886 z M 215.35714,506.6079 c 0,-1.00412 -1.16776,-2.91662 -2.59501,-4.25 -1.42726,-1.33337 -3.2998,-3.77431 -4.1612,-5.42431 -1.9853,-3.8028 -2.91434,-1.57781 -1.16947,2.80082 2.85419,7.16237 7.92568,11.56059 7.92568,6.87349 z m 129.91667,-2.81518 c 0.22916,-0.19752 -2.92084,-0.31426 -7,-0.25944 -5.10143,0.0686 -6.63625,0.34083 -4.91667,0.87219 2.26852,0.70099 10.90783,0.25675 11.91667,-0.61275 z m 59.26759,-0.49746 c 2.62327,-1.34206 33.55689,-1.07202 36.13148,0.31543 1.35494,0.73017 8.0243,1.2478 17.56575,1.36334 15.87221,0.19218 17.35485,-0.41033 6.10271,-2.48001 -7.50755,-1.38092 -11.63615,-3.91908 -10.63186,-6.53623 0.45078,-1.17471 1.22468,-1.5031 2.40609,-1.02094 2.7632,1.12773 13.2292,3.52099 19.31465,4.4167 3.06519,0.45117 6.59391,1.36665 7.84159,2.03438 3.89785,2.08607 16.41154,0.30761 26.36906,-3.74759 3.20619,-1.30572 4.29619,-2.62205 7.14103,-8.62382 3.17414,-6.69651 3.30701,-7.41024 2.43563,-13.08292 -0.50692,-3.3 -1.80788,-7.21928 -2.89103,-8.70951 -4.30838,-5.9276 -0.73373,-9.47833 4.1003,-4.07287 5.63879,6.30532 5.91679,7.17226 5.92375,18.47336 0.004,6.1887 0.43661,10.95676 1.02771,11.32208 0.56162,0.34709 5.39912,-1.32212 10.75,-3.70936 9.65008,-4.3053 9.73337,-4.37271 10.28365,-8.32207 0.30513,-2.18989 1.09263,-4.96454 1.75,-6.16589 2.67318,-4.88517 1.09036,-7.31574 -4.76411,-7.31574 -3.01114,0 -5.61759,-2.25749 -4.56773,-3.9562 0.35481,-0.57409 1.88254,-1.0438 3.39496,-1.0438 1.51242,0 3.57354,-0.6023 4.58027,-1.33844 1.73814,-1.27096 1.64687,-1.66167 -1.81054,-7.75 -2.00253,-3.52636 -4.70185,-7.17227 -5.99848,-8.10203 -4.55382,-3.26533 -14.10346,-6.0476 -22.92751,-6.67984 -9.18684,-0.65824 -10.98329,-1.62014 -10.46736,-5.60466 0.49933,-3.85624 4.1354,-4.49474 25.68473,-4.51029 20.44152,-0.0147 21.8111,-0.19 33.071,-4.23181 3.025,-1.08584 7.525,-2.66757 10,-3.51495 2.475,-0.84737 6.525,-2.43163 9,-3.52055 2.475,-1.08893 6.43427,-2.56509 8.79839,-3.28035 6.63525,-2.00748 9.20161,-4.0737 9.20161,-7.40835 0,-4.64255 -0.8738,-5.83726 -6.98409,-9.54907 l -5.77753,-3.50966 -18.49707,0 c -14.47791,0 -19.30649,0.3382 -22.22224,1.55649 -5.03166,2.10235 -8.92842,1.58055 -9.33116,-1.24953 -0.26127,-1.83598 0.30857,-2.30515 3.5,-2.88162 2.09665,-0.37873 4.65198,-1.12322 5.67852,-1.65445 1.04139,-0.53892 10.55244,-0.90897 21.51617,-0.83715 16.05947,0.1052 20.01221,-0.14524 21.63357,-1.3707 1.09111,-0.82468 3.25091,-1.51373 4.79957,-1.53123 1.54866,-0.0175 3.79866,-0.58308 5,-1.25687 1.89357,-1.06204 0.78688,-1.36148 -8.31574,-2.25 -8.21114,-0.80151 -10.5,-1.35191 -10.5,-2.52493 0,-1.22124 2.23007,-1.5962 12,-2.01766 8.70296,-0.37543 12.8793,-0.99362 15.20034,-2.25 1.76019,-0.95279 4.16718,-1.73234 5.34887,-1.73234 1.18169,0 3.67904,-0.72627 5.54966,-1.61394 4.06385,-1.92842 4.50507,-5.30183 1.47125,-11.24862 -1.06144,-2.08058 -2.70585,-6.90015 -3.65426,-10.71016 -0.94841,-3.81 -2.81643,-10.97728 -4.15116,-15.92728 -1.33473,-4.95 -2.80798,-10.52928 -3.2739,-12.3984 -1.08516,-4.35335 -10.91281,-14.45165 -17.20756,-17.68145 -5.72996,-2.94002 -9.24142,-3.04787 -13.55741,-0.41641 -1.80079,1.09794 -4.05838,1.99626 -5.01686,1.99626 -0.95848,0 -6.23511,2.93781 -11.72583,6.52847 -10.20066,6.67071 -27.04589,22.25651 -32.51778,30.08655 -2.28893,3.27535 -3.6742,4.2427 -6.78895,4.74077 -3.70136,0.59188 -4.10986,1.02899 -7.54482,8.07331 -1.99738,4.09615 -3.63159,7.70031 -3.63159,8.00922 0,1.39113 2.79319,0.22979 5.96223,-2.47897 1.90422,-1.62765 3.94331,-2.95936 4.5313,-2.95936 0.58799,0 3.75499,-2.74012 7.03777,-6.08914 6.42675,-6.55645 13.79328,-10.62218 21.69564,-11.97426 2.61324,-0.44713 6.83789,-2.26115 9.44774,-4.05677 7.98864,-5.49634 3.67612,-4.85952 -12.95785,1.91342 -2.70828,1.10276 -4.08993,1.23365 -4.86287,0.46072 -1.50907,-1.50908 -0.35469,-2.95786 4.21389,-5.28857 2.57648,-1.31443 3.93215,-2.68856 3.93215,-3.98571 0,-3.25999 3.32956,-5.61273 11.84347,-8.36885 9.92427,-3.21267 17.67,-3.40985 23.19637,-0.59051 4.64791,2.37119 5.27096,4.95817 1.21016,5.02477 -1.5125,0.0248 -4.1,0.64591 -5.75,1.38021 -3.71496,1.65328 -2.32796,2.29605 6.05446,2.80582 8.25944,0.5023 15.82639,4.23339 16.26192,8.01839 0.47486,4.12692 -2.53284,4.75049 -22.9136,4.75049 -13.70846,0 -18.81792,0.35552 -21.55702,1.5 -1.97451,0.82499 -4.90298,1.5 -6.50772,1.5 -4.12984,0 -10.05108,3.28261 -13.4424,7.45219 -1.5926,1.95808 -4.06787,5.01988 -5.50059,6.80398 -1.43272,1.7841 -4.67268,7.18181 -7.19992,11.9949 -2.52724,4.81309 -5.68519,10.21309 -7.01766,12 -1.33247,1.7869 -3.80137,6.17392 -5.48643,9.74892 -2.4465,5.19046 -5.4219,8.81689 -14.76858,18 -6.43766,6.325 -13.9104,13.81367 -16.60608,16.64149 l -4.90125,5.14149 4.79243,4.53672 c 2.63584,2.49519 6.59244,5.8795 8.79244,7.52069 2.2,1.64119 6.29899,5.161 9.10887,7.8218 4.27131,4.04469 5.45495,5.98541 7.21988,11.83781 3.11472,10.32828 1.74082,17.5 -3.35252,17.5 -2.1531,0 -7.34687,-7.726 -14.00326,-20.83056 -9.62844,-18.9557 -17.03729,-25.60512 -22.47297,-20.16944 -2.61859,2.61859 -2.52292,3.80084 0.5,6.17866 2.70824,2.1303 3.33734,4.82134 1.12712,4.82134 -0.75509,0 -3.5096,-0.94517 -6.12115,-2.10037 -3.93545,-1.74084 -6.05418,-2.01276 -12.37712,-1.58848 -4.19587,0.28154 -9.7693,0.98867 -12.3854,1.57139 -2.92025,0.65047 -14.42799,0.91936 -29.80836,0.69649 l -25.05182,-0.36303 -9.69163,3.00178 c -5.3304,1.65098 -11.94164,3.91208 -14.69164,5.0247 -9.88859,4.00079 -15.07454,3.12689 -10.4782,-1.76568 l 2.23134,-2.37515 -2.45678,-0.61661 c -1.35123,-0.33914 -4.44569,-0.47451 -6.87657,-0.30082 -4.04503,0.28901 -4.39817,0.52777 -4.1648,2.81579 2.01254,19.73158 1.14174,27.30787 -4.39873,38.27086 -1.77319,3.50863 -2.07313,4.87072 -1.13368,5.14831 0.70258,0.2076 8.70242,0.90007 17.77742,1.53882 20.68715,1.45608 34.06297,2.72807 40.5,3.85139 5.08955,0.88817 8.66214,0.5984 11.68426,-0.94772 z m 2.56574,-4.57792 c -1.90821,-0.28906 -2.75,-1.00847 -2.75,-2.35017 0,-1.62117 0.71752,-1.93358 4.44098,-1.93358 2.44254,0 4.69668,0.41372 5.00919,0.91938 0.59414,0.96133 -2.0938,4.19085 -3.2716,3.93079 -0.37321,-0.0824 -1.91607,-0.3373 -3.42857,-0.56642 z m 14.25,-0.18394 c -3.6334,-0.4843 -4.5,-0.98496 -4.5,-2.59981 0,-1.85391 0.76695,-2.02196 10.5,-2.30083 13.03307,-0.3734 17,0.25824 17,2.70685 0,2.74627 -10.9904,3.79456 -23,2.19379 z m 27.10906,-1.46839 c -0.89152,-1.07423 -0.90991,-1.63646 -0.0705,-2.15526 1.63093,-1.00796 3.65425,1.23102 2.31905,2.56622 -0.72318,0.72318 -1.41175,0.59733 -2.24856,-0.41097 z m -49.10906,-0.63142 c 0,-0.55 0.45,-1 1,-1 0.55,0 1,0.45 1,1 0,0.55 -0.45,1 -1,1 -0.55,0 -1,-0.45 -1,-1 z m -42.77749,-1.55669 c -2.77483,-1.94357 -2.87619,-5.78962 -0.22251,-8.4433 2.39211,-2.39211 6.5454,-2.62706 7.39301,-0.41821 1.32063,3.44151 0.62822,8.33647 -1.32727,9.38303 -2.56599,1.37328 -3.22156,1.31475 -5.84323,-0.52152 z m 13.97749,0.35669 c -1.71082,-1.71081 -1.4841,-7.37303 0.36945,-9.22657 2.02265,-2.02265 4.82634,-0.6425 6.9202,3.40656 1.85914,3.59519 1.8599,3.52763 -0.0611,5.44859 -1.86505,1.86505 -5.54582,2.05417 -7.22857,0.37142 z m -25.81522,-0.56531 c -1.82861,-1.20465 -2.57254,-5.01532 -1.405,-7.1969 1.35964,-2.5405 5.15773,-2.64829 7.36523,-0.20903 2.1996,2.43053 2.09162,3.41244 -0.65946,5.99695 -2.45913,2.31022 -3.5091,2.58931 -5.30077,1.40899 z m 39.95696,-1.98468 c 0.3128,-1.5125 0.9765,-4.77499 1.4749,-7.25 0.49839,-2.475 1.86997,-6.67815 3.04795,-9.34034 1.17798,-2.66218 1.86359,-5.29046 1.52357,-5.84062 -0.90432,-1.46322 -8.38544,6.22304 -8.40347,8.63391 -0.008,1.12588 -0.40811,2.6672 -0.8882,3.42517 -1.50167,2.37084 -3.09649,0.18636 -3.09649,-4.24136 0,-9.93921 13.18065,-21.94373 17.87849,-16.28317 1.58009,1.90389 0.30249,10.04107 -2.5351,16.14641 -1.45684,3.13453 -2.3275,6.88414 -2.33362,10.05 -0.0108,5.59486 -1.21187,7.44999 -4.82327,7.44999 -2.10412,0 -2.34059,-0.35252 -1.84476,-2.74999 z m 108.15826,-2.78769 c -8.82341,-3.6979 -8.39572,-3.22164 -11.43276,-12.73131 -2.05438,-6.43273 -2.0668,-8.731 -0.0472,-8.731 1.81928,0 4.97994,4.4518 4.97994,7.01425 0,3.92359 5.97826,8.70052 13.83417,11.05422 4.82938,1.44691 6.46089,2.99905 5.57609,5.30479 -0.89432,2.33057 -3.82466,1.89683 -12.91026,-1.91095 z m 48,-129.46231 c -0.7501,-1.21368 0.23059,-3 1.64702,-3 0.56593,0 4.61117,-1.575 8.98941,-3.5 7.43999,-3.27117 8.64582,-3.5 18.44339,-3.5 8.59551,0 10.59123,0.28217 11.08435,1.56722 1.09043,2.84162 -1.55766,3.84311 -11.92334,4.50935 -7.62208,0.48989 -11.25384,1.20355 -14.20227,2.79082 -4.16867,2.24417 -12.91545,2.94986 -14.03856,1.13261 z m -353.3327,127.25016 c -1.0996,-3.71258 -2.2787,-8.01962 -2.6202,-9.57119 -0.9973,-4.53146 -3.0995,-2.64792 -2.7037,2.42241 0.3602,4.61345 2.1508,9.70416 4.8814,13.87819 2.4941,3.81247 2.6886,0.85422 0.4425,-6.72941 z m 35.75253,-1.50016 c -0.12733,-3.57353 -3.29704,-12.06558 -4.66983,-12.51105 -2.24194,-0.7275 -1.57694,9.0757 0.82258,12.12619 2.53962,3.22861 3.95362,3.37005 3.84725,0.38486 z m 283.08017,-16.03777 c 0,-0.70828 -1.33171,-2.84578 -2.95936,-4.75 -2.76022,-3.22925 -2.96209,-3.30776 -3,-1.16678 -0.0224,1.2625 1.06391,3.4 2.41391,4.75 2.77101,2.77102 3.54545,3.02588 3.54545,1.16678 z m 64.21355,-10.96223 c 2.40252,-2.8875 5.65771,-7.27499 7.23377,-9.75 1.57605,-2.475 3.67102,-5.68662 4.65549,-7.13697 0.98446,-1.45033 1.51406,-2.91283 1.17689,-3.25 -0.33717,-0.33716 -2.80216,-0.61303 -5.47775,-0.61303 -3.53801,0 -5.03226,-0.4366 -5.47905,-1.60091 -0.82319,-2.14519 0.50341,-2.81698 8.44505,-4.27661 3.70263,-0.68052 7.73339,-1.44225 8.95725,-1.69272 3.732,-0.76378 14.87251,-13.42976 11.81231,-13.42976 -0.25437,0 -2.84187,0.85544 -5.75,1.90097 -2.90813,1.04553 -6.51335,2.17617 -8.01159,2.51254 -1.49824,0.33637 -4.39035,1.74234 -6.4269,3.12438 -2.03655,1.38204 -4.86071,2.73711 -6.27592,3.01127 -1.4152,0.27416 -5.82611,1.38776 -9.80202,2.47466 -4.69301,1.28294 -10.6566,2.01115 -17,2.07586 -5.37409,0.0548 -10.89608,0.41583 -12.27108,0.80224 -2.41959,0.67996 -2.35434,0.78821 2.02882,3.36572 4.94068,2.90536 12.08838,10.12315 14.33953,14.48014 0.7821,1.51372 1.94277,4.68795 2.57927,7.05384 1.21519,4.51692 3.22555,6.01642 8.22506,6.13499 2.04092,0.0484 3.70521,-1.17759 7.04087,-5.18661 z m -409.41355,1.05 c 0.66,-0.66 1.2,-2.67295 1.2,-4.47325 0,-1.80029 0.9769,-5.28401 2.1709,-7.7416 1.6118,-3.31755 1.8894,-4.80758 1.0778,-5.78546 -1.5282,-1.84142 -229.646899,-2.58236 -230.779699,-0.74959 -1.264,2.04524 -1.2154,16.91549 0.059,17.97296 0.7193,0.59696 31.4375,1.06478 80.5674,1.22699 43.6726,0.14419 94.052299,0.37192 111.954799,0.50606 24.2622,0.18179 32.8555,-0.0616 33.75,-0.95611 z M 330.0869,449.9988 c 3.56034,-1.35493 17.60556,-1.98235 63.91342,-2.85516 9.32,-0.17568 11.48402,-0.51822 13.22642,-2.09369 1.14578,-1.036 1.86369,-2.23887 1.59536,-2.67304 -0.80936,-1.30956 -91.73211,-0.63799 -92.17241,0.68081 -0.56119,1.68095 4.45108,7.1829 6.99158,7.67462 1.21873,0.23589 2.31926,0.49019 2.44563,0.56509 0.12637,0.0749 1.92637,-0.50948 4,-1.29863 z m 106.19351,-7.15409 c 1.6922,-1.4239 3.07673,-2.95371 3.07673,-3.3996 0,-0.44588 1.80218,-3.66838 4.00485,-7.1611 2.20267,-3.49272 5.56827,-9.44297 7.47911,-13.22278 1.91085,-3.7798 3.89633,-7.38092 4.41219,-8.00249 0.51586,-0.62158 1.89973,-3.57027 3.07528,-6.55267 1.17555,-2.98239 3.25983,-6.80626 4.63173,-8.4975 10.37332,-12.78787 12.39684,-15.55808 12.39684,-16.97138 0,-2.26619 -2.27677,-1.99131 -3.80744,0.45968 -1.5311,2.45168 -5.51248,2.2746 -5.9967,-0.26671 -0.17852,-0.93689 0.65174,-3.02399 1.84502,-4.63798 1.8456,-2.49632 2.01737,-3.43659 1.15021,-6.29656 -0.56066,-1.84911 -1.39552,-4.71202 -1.85524,-6.36202 -0.69056,-2.47853 -2.18299,-3.64832 -8.58585,-6.72971 -11.83964,-5.69786 -9.8914,-9.72305 2.59439,-5.36018 8.93278,3.12136 12.22545,6.28953 13.05779,12.56402 0.66393,5.00495 3.18927,7.56049 4.20868,4.25901 0.29433,-0.95323 1.13383,-3.11976 1.86556,-4.81453 1.14359,-2.64868 1.09207,-3.77206 -0.36688,-8 -3.37681,-9.78568 -5.50088,-11.62759 -14.87264,-12.897 -2.89471,-0.39208 -8.06971,-1.5664 -11.5,-2.60961 -7.4887,-2.27741 -7.83177,-2.29432 -10.27614,-0.50695 -1.37942,1.00865 -2.0681,3.05285 -2.44113,7.24599 -0.49974,5.6174 -0.67273,5.91999 -4.51963,7.90567 -3.65762,1.88797 -4.02438,2.44469 -4.28486,6.50399 -0.30843,4.80665 -3.82338,19.98539 -5.45964,23.57658 -1.26106,2.76771 -0.29934,6.81888 2.21584,9.33406 1.48476,1.48476 2.78355,1.78976 5.72457,1.34433 2.09225,-0.31688 4.14963,-0.88556 4.57195,-1.26377 0.42233,-0.37819 0.91349,-4.70709 1.09148,-9.61976 0.37681,-10.40025 1.15514,-11.10536 7.57144,-6.85924 4.41915,2.92444 5.16607,5.55762 2.4331,8.57752 -1.51726,1.67656 -1.51076,1.85599 0.0895,2.47005 1.16388,0.44662 2.68785,-0.30011 4.68176,-2.29401 2.62954,-2.62955 2.83771,-3.26779 1.88398,-5.7763 -0.84806,-2.23057 -0.73988,-3.32731 0.51749,-5.24631 2.55941,-3.90615 4.8695,-2.57242 5.55563,3.20756 0.81368,6.85432 -1.18748,10.84308 -6.75233,13.45887 -2.37493,1.11635 -4.95135,2.02972 -5.72537,2.02972 -1.88228,0 -7.4799,6.48084 -9.4381,10.92728 -1.10992,2.52026 -1.58859,6.8555 -1.62491,14.71656 -0.0505,10.92763 -0.11154,11.21865 -3.14703,15 -1.70256,2.1209 -3.85845,5.33189 -4.79087,7.13554 -2.88136,5.57362 0.0731,7.03801 5.30969,2.63173 z m 16.57673,-73.26418 c -3.95582,-1.29298 -8.5,-4.22343 -8.5,-5.48147 0,-0.70576 0.59999,-2.10373 1.33331,-3.1066 1.22613,-1.67683 1.52756,-1.69853 3.75,-0.26995 1.32918,0.85439 4.77919,2.31572 7.66669,3.24738 5.35033,1.7263 5.70916,2.10359 4.64301,4.88193 -0.6269,1.63368 -5.02239,1.99385 -8.89301,0.72872 z m -28.57258,72.21821 c 1.13992,-1.44916 2.07258,-3.03501 2.07258,-3.52411 0,-0.48908 1.6097,-3.22933 3.5771,-6.08944 1.96741,-2.8601 3.10674,-5.35698 2.53185,-5.54861 -1.09444,-0.36481 -9.10895,5.6304 -9.10895,6.8139 0,0.37519 -1.318,2.64462 -2.9289,5.04318 -1.61089,2.39856 -2.70933,4.71628 -2.44098,5.15048 1.01939,1.6494 4.30586,0.68631 6.2973,-1.8454 z m -163.42742,-2.89123 c 2.2,-1.35501 4.675,-2.47286 5.5,-2.4841 3.7452,-0.051 4.19987,-1.54334 1.85482,-6.08786 -2.05125,-3.97512 -9.73864,-15.94491 -17.91959,-27.90195 -1.69338,-2.475 -4.73405,-7.30811 -6.75705,-10.74027 -2.023,-3.43215 -6.38921,-9.95716 -9.70269,-14.5 -3.31347,-4.54285 -6.6438,-9.48186 -7.40071,-10.9756 -1.7966,-3.5455 -3.07478,-2.63335 -3.07478,2.19428 0,6.5084 -6.67573,25.16586 -11.66775,32.60926 l -4.49003,6.6949 5.82889,6.07688 c 10.23341,10.66878 11.62404,11.71864 22.82889,17.2347 6.05,2.97836 12.35,6.52192 14,7.87457 3.77793,3.0971 5.97832,3.09814 11,0.005 z m 207.51237,-3.57654 c 2.77333,-1.70644 5.66334,-4.30338 6.42226,-5.77096 0.75892,-1.46758 9.73859,-11.2089 19.95482,-21.64737 12.15795,-12.42243 19.3068,-20.53364 20.69334,-23.47904 1.1651,-2.475 3.22114,-5.96268 4.56898,-7.75039 2.68599,-3.56259 5.73143,-10.19975 5.01078,-10.92039 -0.65804,-0.65804 -10.27459,8.07143 -14.52919,13.18894 -3.19114,3.83837 -5.38355,7.12521 -12.49462,18.73184 -2.04153,3.33218 -3.64129,3.55243 -3.6316,0.5 0.008,-2.3888 6.54941,-20.50004 8.06803,-22.3366 0.49417,-0.59763 3.65468,-6.67263 7.02335,-13.5 l 6.12485,-12.4134 -2.14431,-3.75479 c -1.64323,-2.87741 -1.90384,-4.20409 -1.11526,-5.67755 0.56596,-1.05753 0.77496,-2.58486 0.46444,-3.39407 -0.6833,-1.78065 1.10368,-3.06719 3.16277,-2.27704 1.13897,0.43706 1.25106,1.03003 0.47043,2.48865 -1.32766,2.48075 0.2937,3.14511 5.85513,2.39918 4.51277,-0.6053 11.01301,-5.9033 24.07394,-19.62138 8.04209,-8.44672 13.166,-12.25568 23.75949,-17.6621 4.5375,-2.31573 8.25,-4.42866 8.25,-4.6954 0,-0.26674 -2.25,-3.00943 -5,-6.09487 -2.75,-3.08543 -5,-6.39887 -5,-7.3632 0,-2.66343 -2.16552,-6.84744 -3.54402,-6.84744 -0.79446,0 -1.36614,2.2482 -1.63154,6.41624 l -0.40856,6.41623 -21.45794,21.07092 c -21.40363,21.01757 -25.03037,23.67742 -26.62354,19.52568 -0.66801,-1.74082 23.07327,-25.59684 32.4156,-32.57224 7.12849,-5.32248 7.25423,-7.72918 0.21144,-4.04716 -9.48842,4.96064 -17.87165,11.68431 -32.54552,26.10274 -15.16749,14.90348 -16.22926,16.19686 -18.63155,22.69586 -2.89682,7.83689 -5.02459,8.92936 -5.78437,2.96992 -0.64602,-5.06717 -2.42535,-5.5693 -4.96635,-1.40153 -2.54078,4.16742 -2.55047,6.46346 -0.0446,10.57336 2.80598,4.60214 5.17277,4.15556 9.43758,-1.78075 3.78519,-5.2687 7.37106,-7.6446 10.00961,-6.6321 2.17354,0.83406 1.95373,3.99996 -0.42733,6.1548 -2.47401,2.23894 -9.76724,14.20644 -17.0089,27.91001 -3.025,5.72429 -6.97957,12.8977 -8.78793,15.94093 -1.80836,3.04323 -5.75741,12.62587 -8.77567,21.29475 -3.01826,8.66888 -6.15119,16.49471 -6.96207,17.39072 -3.58806,3.96475 -1.01967,3.904 5.53804,-0.13099 z m -60.83607,0.593 c 0.56225,-0.56225 -1.28376,-8.36196 -2.38126,-10.06122 -1.05451,-1.63269 -118.12551,-2.43201 -119.73998,-0.81754 -0.93585,0.93584 5.49085,5.31833 7.94494,5.4178 1.375,0.0557 6.1,1.354 10.5,2.88504 l 8,2.78372 47.58333,0.15092 c 26.17084,0.083 47.81267,-0.0784 48.09297,-0.35871 z m -232.3976,-4.73592 c 2.8674,-2.06005 6.6778,-4.35628 8.4674,-5.10273 2.8496,-1.18857 -1.9035,-1.45243 -38.2554,-2.12368 -22.8301,-0.42156 -50.730099,-0.60851 -61.999999,-0.41543 -18.0633,0.30947 -93.2240996,0.24244 -132.4907,-0.11815 -7.7,-0.0707 -14.7875,0.17476 -15.75,0.54548 -2.091,0.80538 -2.4771,7.87145 -0.5,9.15104 1.2599,0.81545 105.4944,1.80902 189.782599,1.80902 l 45.5326,0 5.2135,-3.74555 z m 104.51888,-1.0945 c -0.88779,-2.28797 -1.93483,-4.60995 -2.32675,-5.15995 -0.39193,-0.55 -3.64831,-6.625 -7.2364,-13.5 -14.66343,-28.09602 -13.87796,-27 -19.34944,-27 -2.41174,0 -4.38499,0.38086 -4.38499,0.84636 0,1.78384 3.48047,7.6522 12.63201,21.29859 5.21649,7.77861 10.79839,16.7457 12.40424,19.92687 3.04709,6.03625 6.25157,9.1387 8.53442,8.2627 1.09795,-0.42134 1.04844,-1.26878 -0.27309,-4.67456 z m 173.70242,1.84005 c 0,-1.375 -0.45,-2.5 -1,-2.5 -0.55,0 -1,1.125 -1,2.5 0,1.375 0.45,2.5 1,2.5 0.55,0 1,-1.125 1,-2.5 z m -30.8053,-6.42799 c 3.13209,-3.25513 6.71142,-6.06547 7.95406,-6.24521 2.08233,-0.30119 2.26467,-0.85566 2.32719,-7.0768 0.0676,-6.7239 0.0571,-6.75 -2.70007,-6.75 -1.52235,0 -5.35721,0.87671 -8.5219,1.94825 -3.16469,1.07153 -7.10398,2.08403 -8.75398,2.25 l -3,0.30175 0.35961,6.4228 c 0.38865,6.94173 3.28003,15.08015 5.35485,15.07242 0.70705,-0.003 3.84816,-2.66807 6.98024,-5.9232 z m -288.2684,-13.52649 c 0.6351,-0.39249 2.2232,-2.40625 3.5292,-4.475 l 2.3744,-3.76136 0.3351,-39.19035 c 0.2905,-33.98505 0.1358,-39.32033 -1.165,-40.16899 -0.8842,-0.57688 -8.8897,-0.85229 -19.5,-0.67086 l -18,0.3078 -0.2618,38.73352 c -0.225,33.29707 -0.045,39.15208 1.2804,41.71565 1.1828,2.2873 1.2858,3.46107 0.442,5.03767 -1.4561,2.72073 -3.1989,1.2645 -4.993099,-4.17217 -1.0824,-3.27953 -1.5008,-3.74459 -2.037,-2.26432 -0.3712,1.02459 -0.048,3.09567 0.7175,4.60241 0.7659,1.50674 1.3685,3.08174 1.3391,3.5 -0.029,0.41826 1.6491,1.0195 3.729799,1.33608 5.1356,0.78138 30.7701,0.35951 32.2094,-0.53008 z m 193.72083,-0.0109 c 3.89198,-2.72607 5.35287,-7.62104 5.35287,-17.93576 l 0,-9.59887 -10.75,-1.4e-4 -10.75,-1.5e-4 0.35283,8.75015 c 0.19405,4.81257 0.98473,10.2752 1.75706,12.13917 1.05268,2.54057 1.12146,3.72976 0.27473,4.75 -1.75987,2.12052 -2.78216,1.64369 -4.58601,-2.13903 -0.91797,-1.925 -2.03569,-3.5 -2.48382,-3.5 -1.03506,0 -1.02253,0.38644 0.10386,3.20295 0.50525,1.26338 1.16613,3.08455 1.46861,4.04705 0.46579,1.48213 1.82181,1.75 8.85885,1.75 5.67999,0 8.97082,-0.46364 10.40102,-1.46539 z m -305.326229,-3.0115 c 0.2799,-1.66272 0.8026,-3.92313 1.1615,-5.02313 0.359,-1.1 -0.5673,-0.0556 -2.0583,2.32088 -2.35,3.74567 -2.9012,4.13062 -4.1401,2.89167 -1.239,-1.23894 -1.2363,-1.89083 0.02,-4.89684 0.7969,-1.9072 1.4297,-6.35845 1.4063,-9.89167 -0.023,-3.53322 0.2876,-7.43654 0.6911,-8.67404 0.7294,-2.23656 0.6714,-2.25 -9.7112,-2.25 -7.3596996,0 -10.76419957,0.38468 -11.5256996,1.30231 -1.6564,1.99578 -1.5787,13.62316 0.1267,18.96152 2.4037,7.52436 4.5832,8.77151 14.8651996,8.50597 l 8.656,-0.22355 0.5089,-3.02312 z m 589.837799,-4.80964 c 3.17066,-5.02484 6.8413,-15.09779 6.8413,-18.77384 0,-1.44632 -0.86257,-3.41029 -1.91681,-4.36437 -1.56895,-1.41987 -2.31436,-1.52193 -4.10736,-0.56234 -1.60195,0.85733 -1.893,1.46989 -1.08319,2.2797 2.56039,2.56039 1.16907,4.5475 -4.29655,6.1364 -2.97215,0.86403 -6.23465,1.57311 -7.25,1.57574 -1.42747,0.004 -0.99388,0.7875 1.91215,3.45656 4.10513,3.77039 5.74176,7.07793 5.74176,11.60376 0,3.97164 1.00607,3.64466 4.1587,-1.35161 z m -185.59023,-2.82427 c 0.37757,-0.61093 -0.51015,-2.07343 -1.97271,-3.25 -1.79171,-1.44135 -2.83979,-3.44413 -3.21274,-6.13922 -0.86528,-6.25281 -1.19106,-6.9042 -2.78954,-5.57758 -3.12466,2.59324 -2.38848,12.14613 1.14268,14.82758 2.04005,1.54916 5.91216,1.62805 6.83231,0.13922 z M 91.046441,396.68359 c -0.2515,-0.96249 -0.4573,-0.175 -0.4573,1.75 0,1.925 0.2058,2.7125 0.4573,1.75 0.2515,-0.96249 0.2515,-2.5375 0,-3.5 z m 5.9938,-3.4375 c -0.3192,-0.79773 -0.5562,-0.56078 -0.6042,0.60417 -0.043,1.05417 0.193,1.64479 0.5253,1.3125 0.3323,-0.33229 0.3678,-1.19479 0.079,-1.91667 z M 342.35714,392.9336 c 0,-2.54098 -2.27754,-3.47798 -3.5296,-1.45211 -0.96321,1.55852 0.247,3.95211 1.99822,3.95211 0.96681,0 1.53138,-0.92167 1.53138,-2.5 z M -7.2170586,392.76639 c 0.7532,-1.96292 -0.777,-3.85177 -2.3387,-2.88664 -1.5760004,0.97404 -1.3355004,4.55385 0.3059,4.55385 0.7662,0 1.6809,-0.75025 2.0328,-1.66721 z M 148.38184,361.86851 c 0.5364,-1.4108 0.9753,-8.59497 0.9753,-15.96483 0,-12.37626 -0.1528,-13.48147 -2,-14.47008 -1.9142,-1.02446 -2.0078,-0.73649 -2.1818,6.71482 -0.1,4.28185 -0.2655,11.16018 -0.3677,15.28518 -0.2051,8.27983 0.2008,11 1.6416,11 0.5266,0 1.3963,-1.15429 1.9326,-2.56509 z m -51.317399,-5.67325 c -0.2392,-1.2439 -0.444,-0.46166 -0.4551,1.73834 -0.011,2.2 0.1846,3.21775 0.4349,2.26166 0.2503,-0.95608 0.2593,-2.75609 0.02,-4 z M 479.33831,336.39842 c -0.89488,-1.67209 -1.70398,-1.91985 -4.53518,-1.3887 -2.53509,0.47559 -3.47409,0.28662 -3.55229,-0.71483 -0.0585,-0.7487 -0.17096,-2.25324 -0.25,-3.34341 -0.079,-1.09017 -0.86965,-2.12381 -1.75691,-2.29698 -2.15991,-0.42156 -8.88679,3.6226 -8.88679,5.3427 0,2.07074 3.8252,3.6831 7.3553,3.10034 1.72958,-0.28553 4.0447,-0.13334 5.1447,0.33817 1.1,0.47153 3.25333,0.88895 4.78518,0.9276 2.49796,0.063 2.67286,-0.13959 1.69599,-1.96489 z m 112.9355,-0.59091 c 1.99459,-1.78993 -11.274,-3.00717 -15.38279,-1.41121 -4.64698,1.80503 -1.46074,2.79349 7.27592,2.2572 4.22961,-0.25964 7.8777,-0.64033 8.10687,-0.84599 z M 95.538141,325.4336 c 1.0654,0 1.6833,-0.41051 1.3732,-0.91224 -0.3101,-0.50173 -1.7991,-0.58394 -3.309,-0.18268 -1.9221,0.51083 -2.8222,1.45892 -3.0022,3.16224 l -0.257,2.43268 1.629,-2.25 c 0.8959,-1.2375 2.5006,-2.25 3.566,-2.25 z m -11.181,-0.059 c 0,-0.51755 -0.675,-0.94099 -1.5,-0.94099 -1.5464,0 -1.9867,1.17996 -0.8605,2.30615 0.7989,0.79893 2.3605,-0.10418 2.3605,-1.36516 z M 479.04269,314.2593 c 2.87624,-2.70209 2.93358,-4.42397 0.19612,-5.88901 -1.67205,-0.89485 -2.93611,-0.76493 -6,0.61669 -6.1471,2.77195 -4.93025,5.70319 3.05388,7.35645 0.23955,0.0496 1.47705,-0.88825 2.75,-2.08413 z m 39.95287,-11.32557 c -0.35171,-0.91654 -1.16959,-1.48973 -1.8175,-1.27376 -1.93427,0.64476 -3.1874,3.37624 -2.44112,5.32099 0.65973,1.71924 0.81349,1.70381 2.79809,-0.2808 1.28882,-1.28881 1.85299,-2.7437 1.46053,-3.76643 z m 11.86158,-5.26709 c 2.75,-2.0671 8.15679,-5.65293 12.0151,-7.96851 3.8583,-2.31558 8.93417,-6.16554 11.27971,-8.55547 l 4.26461,-4.34532 -2.06595,-1.86966 c -1.78794,-1.61807 -2.50796,-1.70982 -5.35071,-0.68187 -5.58817,2.0207 -8.54638,1.54683 -9.75227,-1.56222 -3.55608,-9.16837 -5.89049,-10.71793 -5.89049,-3.91005 0,5.07862 -3.71163,10.66005 -7.08889,10.66005 -2.68158,0 -2.61486,-5.07941 0.0889,-6.76793 2.46252,-1.53787 2.8391,-9.29079 0.5438,-11.19572 -2.30484,-1.91284 -3.5123,-0.3068 -3.30748,4.39929 0.21536,4.9483 -1.70745,8.24818 -3.79608,6.51476 -0.82849,-0.68758 -1.09378,-2.31054 -0.73703,-4.50891 0.51921,-3.19952 0.30883,-3.5385 -3.07292,-4.9515 -1.99667,-0.83426 -3.6303,-2.18579 -3.6303,-3.00341 0,-1.65808 -2.71911,-1.94989 -4.96024,-0.53232 -1.25638,0.7947 -1.2147,1.19497 0.29857,2.8671 1.21169,1.3389 1.55561,2.75303 1.1056,4.54601 -0.53929,2.1487 -0.22343,2.76596 1.81114,3.53951 1.82241,0.69288 2.63096,1.9341 3.10401,4.76503 0.85532,5.11863 2.30704,7.3464 3.54,5.43237 2.95584,-4.58862 7.35689,7.76031 5.26,14.7591 -2.24167,7.48203 -1.05192,7.92665 6.34092,2.36967 z m -39.14053,0.50662 c -0.0773,-0.96765 1.17039,-2.69283 2.77264,-3.83373 3.99828,-2.84704 6.89691,-8.96273 7.37777,-15.56603 0.22147,-3.04129 0.92021,-6.15321 1.55277,-6.91539 0.89313,-1.07617 0.56438,-2.38523 -1.47141,-5.85905 -3.97815,-6.78819 -5.92134,-7.81556 -10.97549,-5.80275 -6.42763,2.55978 -21.61575,10.1386 -21.61575,10.78617 0,0.32043 0.50135,1.51937 1.11411,2.66432 1.72717,3.22726 -0.41756,8.8412 -4.40749,11.53679 -3.84641,2.59864 -7.49596,2.87657 -10.26549,0.7818 -3.72709,-2.81903 -4.44113,-1.94935 -4.44113,5.40918 0,3.81755 0.44074,7.21339 0.97943,7.54632 1.42595,0.88128 9.14084,-1.63713 9.73165,-3.17676 0.7658,-1.99565 4.08335,-1.56317 5.28892,0.68947 1.36899,2.55798 2.81049,2.52666 5.63019,-0.1223 1.77941,-1.67168 2.85474,-1.94988 5.06445,-1.31025 1.54295,0.44663 4.26786,0.69148 6.05536,0.5441 2.91583,-0.24041 3.25,0.004 3.25,2.3798 0,2.17398 0.4026,2.59049 2.25,2.32772 1.43057,-0.20348 2.19882,-0.96079 2.10947,-2.07941 z m 13.79053,-8.23967 c 0,-0.5225 -0.48375,-1.11125 -1.075,-1.30833 -0.59125,-0.19709 -1.075,0.39166 -1.075,1.30833 0,0.91667 0.48375,1.50542 1.075,1.30833 0.59125,-0.19708 1.075,-0.78583 1.075,-1.30833 z m -50.15,-13 c 0,-0.825 -0.45,-1.5 -1,-1.5 -0.55,0 -1,0.675 -1,1.5 0,0.825 0.45,1.5 1,1.5 0.55,0 1,-0.675 1,-1.5 z m -5.13531,-12 c 6.81989,-3.99703 9.8564,-4.34378 13.13531,-1.5 1.26831,1.1 2.51798,2 2.77705,2 0.25907,0 4.06732,-1.8 8.46279,-4 4.39546,-2.2 8.55954,-4 9.25351,-4 0.69397,0 1.78429,-0.62961 2.42294,-1.39914 0.93752,-1.12963 0.43142,-1.75562 -2.62755,-3.25 -2.43974,-1.19184 -3.90262,-2.65276 -4.10858,-4.10304 -0.4459,-3.13987 -3.21776,-4.32925 -11.5597,-4.96015 -6.14132,-0.46448 -7.83677,-0.21795 -11.55813,1.68054 -3.5692,1.82087 -5.64308,2.16193 -11.42141,1.87833 l -7.06034,-0.34653 -0.87108,4.36095 c -0.78937,3.95186 -0.62547,4.61732 1.7472,7.09386 1.44006,1.50309 3.07257,4.37816 3.6278,6.38904 0.55523,2.01088 1.18925,3.65615 1.40893,3.65615 0.21968,0 3.08675,-1.575 6.37126,-3.5 z m 59.2819,-11.25 c 4.43566,-2.04176 5.0732,-3.74495 1.10341,-2.94776 -4.84031,0.97201 -8.38889,2.66402 -7.75116,3.69589 0.87457,1.41508 2.29572,1.25513 6.64775,-0.74813 z m 20.85341,-7.25 c 0,-0.55 -0.675,-1 -1.5,-1 -0.825,0 -1.5,0.45 -1.5,1 0,0.55 0.675,1 1.5,1 0.825,0 1.5,-0.45 1.5,-1 z m -1,-19 c 0,-0.55 -1.2375,-0.99311 -2.75,-0.98469 -2.14294,0.0119 -2.41887,0.22931 -1.25,0.98469 1.95653,1.26441 4,1.26441 4,0 z m -29,-0.89301 c 0,-0.49115 -0.675,-1.15203 -1.5,-1.46862 -1.52428,-0.58492 -2.04799,0.4803 -0.83333,1.69496 0.95569,0.9557 2.33333,0.82206 2.33333,-0.22634 z m 37.74842,-2.85084 c 0.58325,-1.75174 -4.73631,-3.67364 -6.16126,-2.22599 -0.78561,0.79813 -0.53778,1.50988 0.8935,2.56606 2.24756,1.65854 4.65403,1.50319 5.26776,-0.34007 z m -53.31985,-0.82758 c 2.89319,-2.89319 1.98922,-4.59757 -2.03778,-3.8421 -3.35339,0.6291 -3.56126,0.52599 -2.93262,-1.45469 0.9194,-2.89675 -1.4817,-2.79964 -8.20817,0.33198 -7.35509,3.42429 -7.10734,6.06053 0.31726,3.37576 2.80857,-1.01559 3.55216,-0.89074 5.95585,1 3.26656,2.56947 4.79469,2.69984 6.90546,0.58905 z m -40.92857,-4.42857 c 0.33992,-0.55 -0.0835,-1 -0.94098,-1 -0.85746,0 -1.55902,0.45 -1.55902,1 0,0.55 0.42344,1 0.94098,1 0.51754,0 1.2191,-0.45 1.55902,-1 z m 58.22917,-5.60417 c -0.33229,-0.33229 -1.1948,-0.36781 -1.91667,-0.0789 -0.79773,0.31921 -0.56078,0.55617 0.60417,0.60415 1.05416,0.0434 1.64479,-0.19292 1.3125,-0.52522 z m 10.59549,-4.05381 c 0.36189,-0.36191 0.15679,-1.26191 -0.45578,-2 -1.29189,-1.55664 -9.45186,-1.82579 -10.36888,-0.34202 -0.35533,0.57494 0.57598,1.00651 2.19098,1.01531 1.54496,0.008 3.48402,0.45153 4.30902,0.98469 1.75749,1.13578 3.40092,1.26575 4.32466,0.34202 z m -56.32466,-2.34202 c 0,-0.55 -1.14735,-1 -2.54966,-1 -1.40231,0 -3.91793,-0.70755 -5.59026,-1.57235 -1.67233,-0.86479 -3.78748,-1.28136 -4.70034,-0.92571 -1.44607,0.5634 -1.35581,0.89456 0.70104,2.57236 2.53207,2.06541 12.13922,2.79803 12.13922,0.9257 z m 24,0 c 0,-0.55 -0.19844,-1 -0.44098,-1 -0.24254,0 -0.7191,0.45 -1.05902,1 -0.33992,0.55 -0.14148,1 0.44098,1 0.58246,0 1.05902,-0.45 1.05902,-1 z m 41,-6.5 c 2.19274,-2.64209 -0.58977,-4.7451 -5.23901,-3.95961 -3.40486,0.57524 -3.96552,0.39349 -4.44527,-1.44106 -0.68262,-2.61037 -4.31572,-2.86235 -4.31572,-0.29933 0,0.99 -0.54,2.34 -1.2,3 -0.93333,0.93334 -0.43333,1.20328 2.25,1.21475 1.8975,0.008 4.575,0.63898 5.95,1.40195 3.35743,1.86298 5.50182,1.8885 7,0.0833 z m -62.18487,-1.25 c -0.21833,-1.15254 -1.43827,-1.85698 -3.57332,-2.06335 -3.74383,-0.36189 -4.26941,1.01213 -0.99181,2.59286 3.35657,1.61881 4.93737,1.43546 4.56513,-0.52951 z m 15.49102,0.11052 c 1.06481,-1.06481 -0.26976,-2.31171 -1.83243,-1.71206 -0.80423,0.30861 -1.21326,0.96396 -0.90896,1.45633 0.6482,1.04881 1.83738,1.15975 2.74139,0.25573 z m 2.69385,-8.37278 c 4.96672,-1.09375 8.98307,-3.25764 8.9922,-4.84472 0.005,-0.90167 -0.5794,-1.11465 -1.7422,-0.63475 -3.37684,1.39365 -8.78789,2.44432 -12.75,2.47568 -3.32887,0.0263 -4.20506,0.47337 -5.2222,2.66432 -1.74839,3.76607 -0.70899,4.56854 3.5257,2.72205 2.03307,-0.88651 5.2715,-1.95866 7.1965,-2.38258 z m 22,3.01226 c 0,-0.55 -0.9,-1 -2,-1 -1.1,0 -2,0.45 -2,1 0,0.55 0.9,1 2,1 1.1,0 2,-0.45 2,-1 z m -174.23533,651.75 c -0.88967,-0.6875 -2.64389,-3.25417 -3.89828,-5.70372 -1.95823,-3.82401 -2.26898,-5.90124 -2.19787,-14.69171 0.0744,-9.20289 0.32287,-10.53973 2.45715,-13.22248 2.614,-3.28577 7.15782,-5.69295 8.81397,-4.66939 1.48102,0.91532 1.32307,4.13173 -0.2817,5.73651 -4.25521,4.2552 -5.56272,13.86554 -2.95724,21.73601 1.50891,4.55802 2.28348,5.56416 4.7993,6.23416 3.52417,0.93853 6.77295,0.15346 6.22487,-1.50424 -0.33897,-1.02524 -1.93639,-1.99419 -7.72487,-4.68566 -2.57018,-1.19505 -1.65163,-3.25019 2,-4.47473 3.3171,-1.11236 3.51559,-1.43767 3.7983,-6.22515 0.25088,-4.24838 0.90213,-5.70552 4.09639,-9.16553 4.22068,-4.57181 7.05468,-5.1647 10.10531,-2.11407 1.64713,1.64713 2,3.33333 2,9.55718 0,11.21107 -1.43966,15.6716 -6.59049,20.41947 -4.269,3.93502 -4.52578,4.02335 -11.69604,4.02335 -4.33559,0 -7.99218,-0.51075 -8.9488,-1.25 z"
       id="path4578"
       inkscape:connector-curvature="0" />
  </g>
</svg>
