<?xml version="1.0" encoding="UTF-8" standalone="no"?>
<!-- Created with Inkscape (http://www.inkscape.org/) -->

<svg
   xmlns:dc="http://purl.org/dc/elements/1.1/"
   xmlns:cc="http://creativecommons.org/ns#"
   xmlns:rdf="http://www.w3.org/1999/02/22-rdf-syntax-ns#"
   xmlns:svg="http://www.w3.org/2000/svg"
   xmlns="http://www.w3.org/2000/svg"
   xmlns:sodipodi="http://sodipodi.sourceforge.net/DTD/sodipodi-0.dtd"
   xmlns:inkscape="http://www.inkscape.org/namespaces/inkscape"
   width="1540.6971"
   height="702.62146"
   id="svg2"
   version="1.1"
   inkscape:version="0.48.2 r9819"
   sodipodi:docname="paper_and_pencil.svg">
  <defs
     id="defs4" />
  <sodipodi:namedview
     id="base"
     pagecolor="#ffffff"
     bordercolor="#666666"
     borderopacity="1.0"
     inkscape:pageopacity="0.0"
     inkscape:pageshadow="2"
     inkscape:zoom="0.30071734"
     inkscape:cx="1678.1704"
     inkscape:cy="87.704587"
     inkscape:document-units="px"
     inkscape:current-layer="layer1"
     showgrid="false"
     fit-margin-top="0"
     fit-margin-left="0"
     fit-margin-right="0"
     fit-margin-bottom="0"
     inkscape:window-width="1920"
     inkscape:window-height="1021"
     inkscape:window-x="0"
     inkscape:window-y="27"
     inkscape:window-maximized="1" />
  <metadata
     id="metadata7">
    <rdf:RDF>
      <cc:Work
         rdf:about="">
        <dc:format>image/svg+xml</dc:format>
        <dc:type
           rdf:resource="http://purl.org/dc/dcmitype/StillImage" />
        <dc:title />
      </cc:Work>
    </rdf:RDF>
  </metadata>
  <g
     inkscape:label="Layer 1"
     inkscape:groupmode="layer"
     id="layer1"
     transform="translate(230.02611,-78.094231)">
    <g
       id="g4279"
       transform="translate(1682.6432,79.809165)">
      <path
         sodipodi:nodetypes="sscsscsssccssssccccsssssssssssscsssscccsssc"
         inkscape:connector-curvature="0"
         id="path4238"
         d="m -1900.7668,528.4836 c -5.1552,-1.8386 -7.4964,-4.1338 -10.201,-10.0007 -1.7309,-3.7548 -2.0582,-5.5372 -1.3557,-7.3847 1.0703,-2.8153 13.9969,-16.4126 35.3079,-37.1399 8.2143,-7.9893 24.6393,-24.4243 36.5,-36.5224 35.3614,-36.0688 61.2747,-61.4353 63.4722,-62.1328 1.1351,-0.3602 3.6453,-1.9142 5.5783,-3.4532 1.933,-1.539 7.3395,-4.3535 12.0145,-6.2546 4.675,-1.9011 10.975,-4.8448 14,-6.5416 6.1739,-3.4631 8.1968,-3.7941 9.9892,-1.6343 1.7854,2.1512 0.496,5.9702 -3.5146,10.4094 -1.911,2.1153 -3.4746,4.2838 -3.4746,4.8188 0,0.5351 -2.7,5.2788 -6,10.5415 -3.3,5.2627 -6,10.0797 -6,10.7043 0,0.6247 -3.4875,4.4999 -7.75,8.6115 -4.2625,4.1117 -8.425,8.1653 -9.25,9.008 -19.7379,20.1605 -61.8493,62.1624 -66.0741,65.9022 -3.1172,2.7595 -8.3594,8.1673 -11.6493,12.0173 -3.2898,3.85 -8.334,9.25 -11.2092,12 -2.8751,2.75 -9.7247,9.4142 -15.2212,14.8095 -14.3135,14.0498 -16.7579,15.2391 -25.1624,12.2417 z m 5.3472,-7.5678 c 1.0447,-0.5591 7.4276,-6.7178 14.1842,-13.686 6.7567,-6.9682 15.8453,-16.0732 20.1971,-20.2334 19.9283,-19.0513 72.2328,-71.9726 73.4978,-74.3645 0.7756,-1.4665 2.1256,-2.9059 3,-3.1987 2.0173,-0.6755 13.0899,-11.0251 13.0899,-12.2353 0,-0.498 -1.575,-2.7456 -3.5,-4.9945 -1.925,-2.2489 -3.5,-4.7784 -3.5,-5.621 0,-4.2246 -3.9565,-1.9025 -13.0091,7.635 -8.1891,8.6278 -44.4504,44.9754 -54.6155,54.7455 -4.8815,4.6917 -11.6005,11.4417 -14.9312,15 -3.3308,3.5582 -15.3683,15.6122 -26.75,26.7867 -15.1871,14.9104 -20.6942,20.9371 -20.6942,22.6464 0,2.7861 6.1303,8.5364 9.1005,8.5364 1.1171,0 2.8858,-0.4575 3.9305,-1.0166 z m 136.1956,-128.7334 c 2.8513,-3.2475 7.9025,-14.0874 7.9895,-17.1454 0.09,-3.1616 -1.6471,-6.1117 -3.5885,-6.0949 -2.139,0.019 -11.8693,5.0137 -15.7433,8.0819 -2.1364,1.692 -3.8843,3.8899 -3.8843,4.8842 0,0.9943 2.0667,4.1065 4.5927,6.916 4.9128,5.4643 7.9441,6.4216 10.6339,3.3582 z"
         style="fill:#000000" />
      <path
         sodipodi:nodetypes="cccscsscscsccsscccccssscsscccssscccccssccscscscccsscscssccsssscsccssccscscsscscscscscccccccccccscccscsssscccccccccscsccsccsccscsccsscssscssssccsscssscccccsccscsscssccccsscscccsccccccccsccsssccsscsccc"
         inkscape:connector-curvature="0"
         id="path4238-1"
         d="m -1264.504,651.23319 c -2.475,-0.4404 -9.5059,-0.834 -15.6243,-0.8748 -6.6212,-0.044 -12.6931,-0.6247 -15,-1.4343 -2.1316,-0.748 -6.4834,-1.6829 -9.6706,-2.0775 -4.9111,-0.608 -6.4362,-0.3823 -10,1.4804 -4.0804,2.1326 -4.9912,2.187 -30.7051,1.8359 -14.575,-0.199 -37.075,-0.272 -50,-0.1623 -58.4779,0.4967 -84.2811,0.096 -88.4399,-1.3738 -3.3927,-1.1989 -14.7456,-1.3994 -69.0601,-1.2195 -50.6544,0.1677 -65.851,-0.068 -68.856,-1.0664 -3.6626,-1.2174 -7.9617,-1.0981 -19.2832,0.5352 -2.4068,0.3472 -5.0451,0.1123 -6.3035,-0.5612 -3.3236,-1.7787 -6.0494,-7.0446 -6.0536,-11.6949 0,-2.3035 -1.5084,-8.1123 -3.3711,-13 -5.7477,-15.0815 -9.6326,-28.4183 -9.6326,-33.0683 0,-4.3398 -3.4406,-17.6944 -5.1104,-19.8359 -1.7167,-2.2015 -4.8759,-18.18 -4.8826,-24.6951 0,-3.72 -0.4045,-7.545 -0.8903,-8.5 -1.8335,-3.6042 -5.1169,-17.3624 -5.1229,-21.4654 0,-2.349 -0.6784,-5.56 -1.5,-7.1353 -0.8216,-1.5754 -1.4938,-4.4175 -1.4938,-6.3158 0,-1.8983 -0.5202,-4.4233 -1.1559,-5.6112 -0.6357,-1.1879 -1.4878,-7.3458 -1.8935,-13.6843 -0.6979,-10.9036 -1.1999,-13.7024 -4.5543,-25.3893 -0.768,-2.6756 -1.433,-9.2006 -1.4778,-14.5 -0.1015,-12.0059 -1.4989,-31.698 -2.8125,-39.6351 -1.3778,-8.3252 -2.0678,-83.3047 -0.796,-86.5 0.5473,-1.375 1.0917,-7.9306 1.2099,-14.5679 0.1181,-6.6374 0.7245,-13.0203 1.3474,-14.1843 0.6257,-1.169 1.1327,-6.566 1.1327,-12.0564 0,-6.5767 0.5373,-11.4205 1.588,-14.3157 1.2801,-3.5273 1.4678,-6.7995 0.9681,-16.8757 -0.4775,-9.6278 -0.2679,-13.8325 0.912,-18.2988 0.8425,-3.1894 1.5478,-9.0394 1.5673,-13 0.021,-4.3478 0.6018,-8.1919 1.4646,-9.7012 0.786,-1.375 1.4451,-3.9534 1.4646,-5.7297 0.044,-3.9834 2.7166,-18.6977 4.1364,-22.7703 0.5752,-1.65 1.4684,-9.3 1.985,-17 1.7616,-26.25579 3.0984,-33.22789 8.1491,-42.49999 2.6967,-4.9507 3.6934,-8.1686 4.1816,-13.5 0.6252,-6.828897 3.9544,-19.049793 5.7071,-20.949993 0.4819,-0.5225 0.8762,-5.1598 0.8762,-10.30504 l 0,-9.355 18.8558,-18.695 c 10.3706,-10.2823 20.3831,-19.734 22.25,-21.0038 6.0232,-4.097 14.2483,-10.2949 17.7967,-13.4105005 1.9019,-1.6699 6.1894,-4.3283 9.5277,-5.9077 6.0269,-2.8511 6.2055,-2.8715 25.2547,-2.8722 10.6232,-5e-4 20.3822,0.4544 21.8678,1.01920004 1.6664,0.6336 26.4142,1.2081 65.3151,1.5164 34.4477,0.27299996 80.6322,0.99319996 102.6322,1.60039996 29.7425,0.8209 48.0778,0.8085 71.5,-0.048 19.2659,-0.7049 39.6561,-0.8488 52.5,-0.3704 l 21,0.782 0.3045,9.5000005 c 0.1675,5.225 -0.3598,13.775 -1.1718,19 -0.812,5.225 -1.5093,11.4379 -1.5496,13.8065 -0.04,2.3685 -0.5641,5.2238 -1.1643,6.3452 -0.6001,1.1213 -1.4547,7.9584 -1.8992,15.1935 -0.6144,10.00164 -1.4463,15.06164 -3.4707,21.109836 -3.4263,10.2367 -6.5489,23.651197 -6.5489,28.133397 0,1.931 -0.6115,4.7261 -1.3589,6.2113 -0.7474,1.4852 -1.63,4.2753 -1.9612,6.2003 -0.3313,1.925 -1.5139,7.775 -2.628,12.99999 -1.1141,5.225 -2.0315,13.1308 -2.0388,17.5685 -0.01,4.4377 -0.6445,10.2877 -1.4163,13 -0.7717,2.7123 -2.1602,9.2065 -3.0855,14.4315 -0.9253,5.225 -2.3366,11.8458 -3.1362,14.7128 -0.9316,3.3402 -1.2205,6.972 -0.8043,10.1098 0.4294,3.2369 0.2131,5.7073 -0.638,7.2872 -1.7622,3.2709 -2.8926,19.6509 -1.9055,27.6105 0.6506,5.2458 0.4136,8.023 -1.2078,14.1531 -1.5984,6.0434 -1.886,9.2902 -1.3853,15.6404 0.4978,6.3139 0.3134,8.435 -0.8694,10 -1.1397,1.5079 -1.5089,4.9246 -1.533,14.1874 -0.02,7.6584 -0.6014,14.3603 -1.5616,18 -2.1456,8.1332 -1.0596,84.8116 1.2789,90.2988 1.1323,2.657 1.5338,8.3176 1.6667,23.5 0.1282,14.6292 0.5476,20.8057 1.5618,23 1.9044,4.1205 4.0024,16.0255 4.9344,28 0.4281,5.5 1.3299,11.8 2.0039,14 2.5648,8.3708 3.978,14.1703 4.6301,19 0.3713,2.75 1.8255,9.275 3.2316,14.5 1.4642,5.4412 2.8131,13.7724 3.1571,19.5 0.3303,5.5 0.8939,10.4608 1.2523,11.024 1.1519,1.81 7.5629,27.7317 8.722,35.2663 1.1142,7.242 4.5416,18.6754 6.2475,20.8408 1.4666,1.8617 4.0988,12.63 3.9355,16.0999 -0.084,1.777 0.7875,5.0726 1.9358,7.3236 2.7746,5.4386 2.3387,10.1278 -1.0278,11.0564 -3.4222,0.9441 -28.4544,0.8247 -34,-0.162 z m 21.1901,-3.9489 11.0599,0 -0.6584,-3.25 c -0.362,-1.7875 -0.9218,-5.95 -1.2439,-9.25 -0.3221,-3.3 -1.1481,-6.9066 -1.8355,-8.0147 -0.6875,-1.1081 -1.5859,-3.5831 -1.9965,-5.5 -0.4107,-1.9169 -1.0793,-3.9353 -1.4859,-4.4853 -2.2555,-3.0511 -6.0298,-16.727 -6.0298,-21.8484 0,-3.693 -0.8273,-7.7337 -2.3405,-11.4318 -1.2873,-3.1459 -2.9111,-8.4198 -3.6085,-11.7198 -0.6974,-3.3 -1.8942,-7.9927 -2.6595,-10.4282 -0.7653,-2.4355 -1.3915,-8.1874 -1.3915,-12.7821 0,-5.1992 -0.572,-9.7228 -1.5146,-11.9788 -2.0699,-4.9541 -4.476,-15.6438 -4.5293,-20.123 -0.024,-2.0284 -0.7012,-5.4879 -1.5047,-7.6879 -2.6045,-7.1319 -4.4497,-17.8214 -4.4506,-25.7822 -4e-4,-4.2801 -0.609,-9.2376 -1.3523,-11.0166 -0.7433,-1.7789 -1.6821,-5.4396 -2.0863,-8.1347 -0.4041,-2.6952 -1.4835,-6.0435 -2.3985,-7.4408 -1.4145,-2.1599 -1.6703,-5.6928 -1.7074,-23.5831 -0.037,-17.7532 -0.3071,-21.5362 -1.728,-24.2003 -1.2268,-2.3001 -1.6721,-5.5589 -1.6397,-12 0.024,-4.8633 -0.1721,-18.9673 -0.4368,-31.3423 -0.2647,-12.375 -0.013,-30.375 0.5589,-40 0.5721,-9.625 0.9594,-21.4127 0.8605,-26.1948 -0.1353,-6.5437 0.2456,-9.5124 1.5396,-12 1.2931,-2.4858 1.6694,-5.4125 1.5178,-11.8052 -0.1245,-5.2467 0.3714,-10.3925 1.2955,-13.4444 1.0923,-3.6074 1.4907,-9.7397 1.4733,-22.6774 -0.018,-13.5572 0.3173,-18.3975 1.4251,-20.5556 0.9613,-1.8726 1.2798,-4.5527 0.9465,-7.9632 -0.3111,-3.1835 0.079,-6.9906 1.025,-10 0.8401,-2.6727 1.7767,-7.7844 2.0813,-11.3594 0.3047,-3.575 1.2889,-8.975 2.1873,-12 0.8984,-3.025 1.9781,-11.35 2.3993,-18.5 0.4213,-7.15 1.4527,-15.925 2.292,-19.5 0.8393,-3.57499 2.4388,-10.32499 3.5545,-14.99999 1.1156,-4.675 2.7531,-12.1 3.6387,-16.5 0.8857,-4.4 3.3968,-13.445697 5.5804,-20.101597 3.7574,-11.453396 3.9624,-12.714396 3.8269,-23.545936 -0.087,-6.9573 0.3056,-12.2829 1.0012,-13.5828 0.6294,-1.176 1.1444,-5.1118 1.1444,-8.7461 0,-3.6344 0.6961,-9.978 1.5469,-14.097 0.8508,-4.119 1.4133,-10.2875 1.25,-13.7078 l -0.2969,-6.2188005 -10,-0.7138 c -5.5,-0.3926 -30.025,-0.4506 -54.5,-0.1289 -77.5973,1.0201 -107.9201,0.9251 -117,-0.3664 -8.5675,-1.2186 -45.6374,-1.4607 -96.3877,-0.6294 -19.158,0.3139 -25.9496,0.092 -29.5,-0.9648 -3.122,-0.929 -9.6667,-1.3441 -20.2553,-1.2846 -17.7277,0.1 -18.5245,0.4014 -21.939,8.3098005 -1.5866,3.6748 -1.7049,5.4244 -0.9126,13.5 0.5006,5.1029 1.3596,11.3031 1.9089,13.7781 1.5669,7.061 1.3515,17.5344 -0.3904,18.9801 -1.6003,1.3282 -3.3391,1.2131 -21.5239,-1.4242 -6.325,-0.9173 -16.9,-1.7552 -23.5,-1.8619 -11.1472,-0.1802 -12.3135,-0.016 -16.4114,2.306 -6.4143,3.635 -8.4693,6.947 -9.1933,14.8165 -0.3381,3.67594 -1.5409,10.28354 -2.6727,14.683536 -1.1319,4.4 -2.3019,11.0248 -2.6,14.721797 -0.5256,6.5174 -2.0037,10.5902 -5.7263,15.7782 -0.9867,1.375 -2.6661,6.55 -3.7322,11.5 -1.0661,4.95 -2.5103,11.47499 -3.2095,14.49999 -0.6991,3.025 -1.3207,10.675 -1.3814,17 -0.069,7.241 -0.7746,14.2776 -1.9042,19 -0.9867,4.125 -2.1927,10.425 -2.6798,14 -0.4872,3.575 -1.5815,8.4618 -2.4318,10.8595 -0.9545,2.6916 -1.3157,5.7999 -0.9441,8.1239 0.3704,2.3164 -0.057,6.0244 -1.1103,9.6404 -1.4283,4.9015 -1.6006,8.1984 -1.0386,19.8762 0.5508,11.4473 0.3875,14.7978 -0.8954,18.3757 -0.9763,2.7228 -1.5824,7.8224 -1.6044,13.5 -0.023,6.0182 -0.522,9.9753 -1.4646,11.6243 -1.0254,1.7936 -1.4391,6.07 -1.4646,15.1357 -0.026,9.3348 -0.4329,13.3839 -1.557,15.5 -1.2606,2.3727 -1.4205,5.6958 -0.9318,19.3643 0.3244,9.075 0.6906,28.2 0.8138,42.5 0.1698,19.718 0.5529,26.5972 1.5857,28.4718 0.9907,1.7984 1.476,8.4325 1.7811,24.3464 0.3713,19.369 0.6396,22.2356 2.3423,25.0281 1.0577,1.7345 1.9247,4.5612 1.9268,6.2815 0,1.7204 0.6787,4.7434 1.5037,6.7179 0.9796,2.3446 1.5,6.9183 1.5,13.1842 0,5.3655 0.6208,11.6605 1.4084,14.2822 4.0737,13.5586 4.645,16.127 4.0842,18.3611 -0.3519,1.4025 0.2264,4.7443 1.364,7.8809 3.8784,10.694 5.1433,16.8726 5.1386,25.0998 0,6.2353 0.606,10.1164 2.4106,15.3461 5.5094,15.9667 7.0274,21.3015 7.683,27 0.7128,6.1964 2.9641,14.5525 7.3916,27.4357 1.4054,4.0897 2.8007,9.2647 3.1005,11.5 0.9568,7.1347 1.3214,8.1668 3.8472,10.8922 2.9403,3.1727 6.9129,3.4711 13.3717,1.0044 4.0383,-1.5422 4.7174,-1.5463 9.0334,-0.054 3.9599,1.3695 13.2254,1.7357 61.1668,2.4177 31.075,0.442 57.625,0.6778 59,0.5239 5.167,-0.5783 18.1439,-0.3729 38,0.6014 11.275,0.5532 42.9705,1.0298 70.4345,1.0591 27.4639,0.029 54.2389,0.337 59.5,0.6841 8.5734,0.5654 10.3952,0.3628 17.5655,-1.9542 9.1001,-2.9406 15.9913,-3.2752 23.0911,-1.1214 3.1139,0.9446 9.1197,1.4931 16.4244,1.5 10.2138,0.01 12.0201,0.2807 15.9798,2.3986 3.3632,1.7989 5.0404,2.1689 6.7996,1.5 1.2844,-0.4883 7.3122,-0.8878 13.3952,-0.8878 z"
         style="fill:#000000" />
      <path
         sodipodi:nodetypes="ccsssccssccsscsssssscsscccsccscssccccscsssssssscc"
         inkscape:connector-curvature="0"
         id="path4238-0"
         d="m -387.97218,436.16756 c -6.325,-2.7715 -13.1611,-6.3414 -15.1914,-7.9332 -2.0302,-1.5918 -4.3901,-2.8941 -5.2442,-2.8941 -0.854,0 -3.5305,-1.9125 -5.9477,-4.25 -2.4172,-2.3375 -16.7816,-16.3064 -31.9211,-31.042 -15.1394,-14.7355 -29.2518,-28.1564 -31.3609,-29.8242 -2.1091,-1.6677 -6.6707,-6.2452 -10.1368,-10.1722 -3.4662,-3.927 -7.4976,-7.9242 -8.9587,-8.8827 -1.4611,-0.9585 -9.2133,-8.1746 -17.2271,-16.0358 -8.0138,-7.8612 -18.7032,-18.0971 -23.7542,-22.7465 -5.0511,-4.6493 -9.7146,-9.7351 -10.3636,-11.3018 -1.7116,-4.1323 0.1887,-9.4435 5.0921,-14.2316 3.7796,-3.6907 4.4928,-3.9749 10.8776,-4.3357 l 6.8327,-0.3861 6.9437,6.8543 c 3.819,3.7698 10.6784,10.2293 15.2431,14.3543 4.5647,4.125 14.2286,13.35 21.4754,20.5 7.2468,7.15 15.2485,14.6708 17.7817,16.713 2.5331,2.0421 15.1253,14.12 27.9825,26.8397 12.8573,12.7197 28.9359,28.5989 35.7303,35.287 6.7943,6.6881 13.04,13.5103 13.8794,15.1603 0.8393,1.65 2.9719,5.025 4.7391,7.5 5.2144,7.3029 9.5281,17.1856 9.5281,21.829 0,3.6786 -0.2656,4.1631 -2.25,4.1041 -1.2375,-0.037 -7.425,-2.3344 -13.75,-5.1058 z m 4,-6.8273 c 1.1,-1.1 2,-2.6595 2,-3.4656 0,-1.9084 -6.7365,-14.382 -9.3345,-17.2844 -2.276,-2.5426 -6.4431,-2.9931 -7.2893,-0.7881 -0.3085,0.8041 -1.3069,1.7034 -2.2186,1.9985 -0.9117,0.2951 -2.7529,2.1485 -4.0917,4.1186 -2.3806,3.5033 -2.3958,3.6528 -0.6957,6.8098 1.2355,2.2942 3.8196,4.2784 8.9341,6.8601 8.3875,4.2338 9.9917,4.455 12.6957,1.7511 z m -25.029,-18.2608 c 1.3909,-2.5374 3.1018,-5.5314 3.8019,-6.6534 1.0814,-1.733 0.9904,-2.3068 -0.6048,-3.8129 -15.6399,-14.7671 -45.3231,-43.4661 -54.708,-52.894 -6.6362,-6.6667 -14.517,-14.1178 -17.5129,-16.5582 -2.996,-2.4403 -10.8472,-9.7381 -17.4472,-16.2172 -23.411,-22.9823 -36.1072,-34.4668 -38.8694,-35.1601 -2.3506,-0.59 -3.3961,-0.1018 -6.7076,3.1318 -2.1577,2.1069 -3.923,4.3709 -3.923,5.0313 0,1.6364 31.6878,32.5734 47,45.8865 3.025,2.63 10.7311,10.0075 17.1246,16.3944 6.3935,6.3869 18.4991,18.1376 26.9013,26.1126 8.4022,7.975 20.9462,20.2364 27.8754,27.2476 6.9293,7.0112 13.0356,12.6031 13.5697,12.4264 0.534,-0.1768 2.109,-2.3974 3.5,-4.9348 z"
         style="fill:#000000" />
      <path
         sodipodi:nodetypes="ccccccsccscccssccssccsssccssccssscscccsscsccscscsssssscccscsccccsccsccsscsccccssssscscscscsccscsscsssssssscccccsccccssscsccscscccsccsscsscsssccsscccscsccssscscccscssccscsccscssccccssccccccsssscsscc"
         inkscape:connector-curvature="0"
         id="path4238-9"
         d="m -596.58222,700.08094 c -1.925,-0.6411 -9.35,-1.2312 -16.5,-1.3113 -8.7022,-0.097 -15.2392,-0.7241 -19.773,-1.8953 -6.4847,-1.675 -7.1021,-1.6721 -14.5,0.069 -6.8576,1.6142 -12.7565,1.8211 -52.42718,1.8393 -31.9877,0.015 -45.0224,-0.3018 -45.833,-1.1125 -2.5844,-2.585 11.7685,-3.5049 51.5005,-3.3009 33.98898,0.1745 39.59808,-0.011 43.40838,-1.4329 5.7216,-2.1356 18.8907,-2.1771 23.9064,-0.075 2.7894,1.1689 5.4662,1.3972 10.7179,0.9142 4.6484,-0.4275 10.0235,-0.1121 16,0.9388 4.95,0.8705 14.2818,1.5841 20.7372,1.5858 l 11.7373,0 -0.5866,-7.75 c -0.4275,-5.6473 -1.8925,-11.4127 -5.3998,-21.25 -5.98,-16.7724 -6.9755,-20.4282 -6.9825,-25.642 -0.01,-4.6666 -5.345,-26.1799 -7.5595,-30.4622 -0.9482,-1.8337 -1.4461,-5.9052 -1.4461,-11.8259 0,-5.305 -0.5801,-10.5845 -1.4064,-12.7996 -1.3519,-3.6242 -3.3997,-12.2123 -5.4296,-22.7703 -0.5288,-2.75 -2.1319,-9.0468 -3.5627,-13.9929 -1.7388,-6.0114 -2.6013,-11.404 -2.6013,-16.2651 0,-3.9997 -0.6379,-9.8529 -1.4176,-13.0071 -4.5125,-18.2555 -4.685,-19.6835 -4.686,-38.8089 -9e-4,-15.8831 -0.2774,-19.5634 -1.6526,-22 -1.2333,-2.1849 -1.6965,-5.8385 -1.8288,-14.426 -0.098,-6.325 -0.4704,-24.775 -0.8286,-41 -0.4763,-21.569 -0.3252,-30.9786 0.5618,-35 0.6672,-3.025 1.2551,-11.125 1.3063,-18 0.051,-6.875 0.6124,-13.85 1.2471,-15.5 1.4905,-3.8751 2.4958,-18.3642 2.8663,-41.3108 0.2084,-12.9026 0.7878,-20.2729 1.9617,-24.9538 0.9163,-3.6536 1.4226,-8.1424 1.1252,-9.9751 -0.2974,-1.8327 0.1086,-5.1725 0.9022,-7.4219 0.7937,-2.2494 1.443,-6.4789 1.443,-9.399 0,-2.92 0.4832,-6.576 1.0738,-8.1243 2.0712,-5.4301 3.0885,-11.9287 3.8846,-24.8151 0.5073,-8.2102 1.752,-16.7659 3.3784,-23.221 1.4163,-5.6216 3.2511,-13.7216 4.0773,-18 3.1952,-16.5462 5.5852,-26.0911 8.5279,-34.0578 2.6644,-7.2131 3.06,-9.5944 3.0736,-18.5 0.01,-5.6216 0.6676,-12.9212 1.4644,-16.221199 0.7968,-3.3 1.4648,-9.067 1.4844,-12.8157 0.02,-3.7487 0.4594,-7.6077 0.9775,-8.5756 0.518,-0.968 1.0805,-6.1938 1.25,-11.613 l 0.3081,-9.8529 -79.5,-0.152 c -43.72498,-0.084 -81.89108,0.2028 -84.81358,0.6366 -3.0571,0.4537 -7.3037,0.3667 -10,-0.205 -2.5775,-0.5465 -8.1099,-1.3906 -12.2941,-1.8758 -9.1074,-1.0561 -67.5519,-1.3409 -94.8923,-0.4625 -15.6098,0.5016 -21.2955,0.307 -28.5,-0.9755 -10.5209,-1.8728 -28.099,-2.1085 -33.6312,-0.451 -6.04822,1.8121 -8.86882,7.4482 -8.86882,17.7218 0,4.4128 0.6902,10.6326 1.5337,13.822 1.8788,7.1035 2.0698,19.866599 0.3287,21.964499 -0.8701,1.0485 -2.1753,1.3083 -4.3055,0.8571 -1.6813,-0.356 -7.1069,-1.0354 -12.0569,-1.5096 -4.95,-0.4742 -11.7,-1.3565 -15,-1.9607 -3.6714,-0.6721 -10.3892,-0.8413 -17.3093,-0.4359 -9.1285,0.5348 -11.9244,1.072 -14.5,2.7861 -4.5178,3.0069 -6.7138,8.2369 -7.699,18.3356 -0.47,4.8189 -1.7855,11.4196 -2.9232,14.6682 -1.2183,3.479 -2.0687,8.411 -2.0691,12 -5e-4,5.3579 -0.4832,6.8781 -3.99938,12.5935 -2.1994,3.575 -3.9991,7.4832 -3.9994,8.6849 -4e-4,1.2017 -0.4986,3.4517 -1.1073,5 -0.6087,1.5483 -1.5164,6.3464 -2.017,10.6624 -0.5006,4.3161 -1.4286,8.8161 -2.0623,10 -0.704,1.3154 -1.0614,6.1102 -0.9186,12.3271 0.1881,8.1962 -0.2612,12.0846 -2.311,20 -2.7132,10.4771 -4.5368,22.5725 -5.0662,33.603 -0.1789,3.7277 -0.6762,7.5527 -1.105,8.5 -0.4288,0.9474 -1.1386,9.5976 -1.5773,19.2226 -1.4278,31.3268 -2.3518,43.464 -3.464,45.5 -0.6008,1.1 -1.1287,7.3217 -1.1729,13.8261 -0.052,7.636 -0.5069,12.3399 -1.284,13.2762 -1.8707,2.2541 -0.2758,86.4244 1.7414,91.8977 1.0558,2.8649 1.6059,9.9593 1.9384,25 0.3352,15.166 0.8727,22.0474 1.9347,24.7702 0.8088,2.0736 1.4705,5.2796 1.4705,7.1243 0,1.8447 0.675,5.2672 1.5,7.6055 0.8817,2.499 1.5,7.751 1.5,12.7415 0,5.0057 0.66,10.5971 1.6082,13.6243 0.8846,2.8238 2.2368,7.1592 3.005,9.6342 0.7682,2.475 1.3945,6.6222 1.3917,9.216 0,2.5939 0.6177,6.1939 1.3786,8 2.6046,6.1823 4.6165,16.6115 4.6199,23.9481 0,5.8411 0.614,8.8342 3,14.6895 1.6481,4.0445 3.0113,8.3195 3.0292,9.5 0.018,1.1805 0.90328,4.6214 1.96738,7.6464 1.0641,3.025 1.9494,7.6109 1.9673,10.1909 0.018,2.5801 0.4236,4.9326 0.9013,5.2279 0.4778,0.2953 1.1418,2.2343 1.4757,4.309 0.3339,2.0747 1.5312,5.5722 2.6609,7.7722 2.1559,4.1988 4.4404,12.2511 6.0997,21.5 2.0702,11.5395 6.4626,15.89 13.181,13.0552 5.0236,-2.1197 12.1513,-2.4227 16.9334,-0.7198 3.4631,1.2331 12.2071,1.6313 45.78072,2.0847 45.4786,0.6141 66.913,1.4895 64.8422,2.6482 -1.9437,1.0876 -99.58772,1.8275 -105.42702,0.7989 -11.6218,-2.0473 -16.0767,-2.1404 -21.1875,-0.4429 -4.4555,1.4799 -5.4418,1.5099 -8.3884,0.2553 -5.9969,-2.5534 -8.1886,-5.9161 -8.4372,-12.9449 -0.1578,-4.4605 -0.9579,-7.6347 -2.8114,-11.1542 -1.4249,-2.7057 -2.5907,-5.9916 -2.5907,-7.3019 0,-1.3103 -0.8613,-4.0466 -1.914,-6.0805 -3.0751,-5.9416 -6.11618,-17.2857 -6.10048,-22.757 0.01,-2.9211 -0.6059,-5.8792 -1.4537,-7 -0.8075,-1.0676 -1.492,-3.2911 -1.5211,-4.9411 -0.029,-1.65 -1.2367,-6.15 -2.6837,-10 -1.9333,-5.1442 -2.8006,-9.7837 -3.2713,-17.5 -0.3523,-5.775 -1.1441,-12.075 -1.7595,-14 -0.6155,-1.925 -1.8361,-5.75 -2.7125,-8.5 -0.8765,-2.75 -1.5914,-6.9421 -1.5887,-9.3158 0,-2.3736 -0.4925,-5.2453 -1.1005,-6.3814 -2.1708,-4.0562 -4.8945,-18.052 -4.8945,-25.1508 0,-4.6579 -0.71,-9.2413 -2,-12.9117 -1.1,-3.1297 -2,-7.0812 -2,-8.7811 0,-1.6999 -0.5363,-4.0736 -1.1918,-5.275 -0.7514,-1.377 -1.4457,-10.3146 -1.8787,-24.1842 -0.3798,-12.1657 -1.178,-23.1176 -1.7857,-24.5 -1.5628,-3.5558 -3.314,-87.4948 -1.8972,-90.9374 0.5801,-1.4095 1.4301,-8.6376 1.889,-16.0626 1.6894,-27.3386 2.7274,-37.6275 4.338,-43 1.271,-4.2394 1.5095,-7.6776 1.0407,-15 -0.3601,-5.6242 -0.1323,-12.3559 0.5583,-16.5 0.6417,-3.85 1.5144,-10.375 1.9394,-14.5 1.0296,-9.9944 3.6145,-25.6573 4.9508,-30 0.5924,-1.925 1.3546,-10.7 1.6939,-19.5 0.3393,-8.8 1.0638,-16.8671 1.6099,-17.927 0.5462,-1.0598 1.3623,-4.4348 1.8134,-7.5 1.4838,-10.0809 3.7176,-18.1312 6.7701,-24.3988 2.0115,-4.1302 3.3214,-8.8227 3.9567,-14.1742 0.5223,-4.4 1.9814,-10.475 3.24248,-13.5 1.6542,-3.9678 2.4682,-8.4252 2.9221,-16 0.346,-5.775 0.9655,-11.218 1.3766,-12.0956 0.4111,-0.8776 3.2732,-3.8026 6.3601,-6.5 3.087,-2.697399 11.5462,-10.866899 18.7983,-18.154399 7.252,-7.2875 13.546,-13.25 13.9866,-13.25 0.4406,0 2.6474,-1.5086 4.904,-3.3524 2.2566,-1.8438 5.6613,-4.1549 7.5659,-5.1358 1.9045,-0.9808 4.2997,-2.8473 5.3226,-4.1476 1.0228,-1.3003 2.3895,-2.3724 3.0371,-2.3824 0.6476,-0.01 3.1576,-1.36 5.5779,-3 l 4.4005,-2.9818 18.59952,0.01 c 10.2297,0 21.2995,0.4258 24.5995,0.9371 7.6467,1.1846 20.5068,1.4142 70,1.2495 22,-0.073 43.6,0.035 48,0.2413 33.4575,1.5661 84.93878,2.3404 92.45518,1.3906 12.1304,-1.5329 99.299,-0.6899 101.3108,0.9797 1.9782,1.6418 3.1272,17.2624 1.6692,22.6942 -1.5837,5.9005 -2.9063,18.9432 -3.7522,36.999999 -0.6328,13.5101 -1.1045,16.7781 -3.0315,21 -2.1138,4.6312 -5.6731,18.3666 -11.1429,43 -1.2213,5.5 -2.8988,12.1821 -3.7278,14.849 -0.8989,2.8919 -1.5965,9.5517 -1.7283,16.5 -0.2051,10.8082 -1.1668,17.14 -3.7441,24.651 -0.5662,1.65 -1.1113,6.375 -1.2114,10.5 -0.1226,5.055 -0.778,8.6195 -2.0104,10.9341 -1.3598,2.554 -1.6937,4.7388 -1.303,8.5246 0.3334,3.2303 0.015,6.3049 -0.8721,8.4139 -1.0179,2.4209 -1.3799,7.8458 -1.333,19.9755 0.044,11.3911 -0.3384,17.5997 -1.2105,19.6519 -0.7086,1.6675 -1.3574,7.6637 -1.4608,13.5 -0.3027,17.1001 -1.9811,38.3411 -3.211,40.6363 -0.8362,1.5604 -0.9869,14.0947 -0.5591,46.5 0.4908,37.1712 0.8356,44.8501 2.1264,47.3637 1.1806,2.2988 1.7017,8.2595 2.2294,25.5 0.3787,12.375 1.1731,23.625 1.7653,25 2.1017,4.8805 4.247,16.5956 4.2444,23.1779 0,6.1011 2.925,19.5851 5.8916,27.1372 0.6082,1.5483 1.1217,4.9233 1.1412,7.5 0.02,2.5767 0.6786,5.8099 1.4646,7.1849 0.786,1.375 1.461,4.075 1.5,6 0.039,1.925 0.714,4.625 1.5,6 0.8245,1.4422 1.4441,5.2671 1.4646,9.0399 0.019,3.597 0.7396,9.222 1.6003,12.5 0.8606,3.2781 1.9404,7.7601 2.3994,9.9601 0.4591,2.2 1.7799,7.5595 2.9352,11.91 1.1553,4.3505 2.1005,9.3187 2.1005,11.0405 0,3.3597 5.0157,19.7454 7.5359,24.6189 1.6104,3.1143 2.966,8.5889 4.5203,18.2565 0.5152,3.2042 1.6133,6.7918 2.4402,7.9725 1.8842,2.69 1.9328,6.1005 0.1085,7.6146 -2.0069,1.6655 -30.0926,2.3673 -34.6049,0.8646 z M -934.39892,76.086641 c -0.7175,-0.7176 -1.1833,-0.7766 -1.1833,-0.15 0,1.3348 1.1826,2.5174 1.85,1.85 0.2842,-0.2842 -0.016,-1.0492 -0.6667,-1.7 z M -820.3322,698.27214 c -1.2375,-0.4974 -2.25,-1.4138 -2.25,-2.0364 0,-0.8221 6.9138,-1.0362 25.25,-0.782 23.9274,0.3316 30.8745,1.1148 26.1836,2.9518 -2.7455,1.0752 -46.4719,0.9566 -49.1836,-0.1334 z"
         style="fill:#000000" />
    </g>
  </g>
</svg>
