<?xml version="1.0" encoding="UTF-8" standalone="no"?>
<!-- Created with Inkscape (http://www.inkscape.org/) -->

<svg
   xmlns:dc="http://purl.org/dc/elements/1.1/"
   xmlns:cc="http://creativecommons.org/ns#"
   xmlns:rdf="http://www.w3.org/1999/02/22-rdf-syntax-ns#"
   xmlns:svg="http://www.w3.org/2000/svg"
   xmlns="http://www.w3.org/2000/svg"
   xmlns:sodipodi="http://sodipodi.sourceforge.net/DTD/sodipodi-0.dtd"
   xmlns:inkscape="http://www.inkscape.org/namespaces/inkscape"
   width="661.88501"
   height="652.6062"
   id="svg2"
   version="1.1"
   inkscape:version="0.48.2 r9819"
   sodipodi:docname="paper_and_pencil.svg">
  <defs
     id="defs4" />
  <sodipodi:namedview
     id="base"
     pagecolor="#ffffff"
     bordercolor="#666666"
     borderopacity="1.0"
     inkscape:pageopacity="0.0"
     inkscape:pageshadow="2"
     inkscape:zoom="0.3451896"
     inkscape:cx="-108.4635"
     inkscape:cy="351.31073"
     inkscape:document-units="px"
     inkscape:current-layer="layer1"
     showgrid="false"
     fit-margin-top="0"
     fit-margin-left="0"
     fit-margin-right="0"
     fit-margin-bottom="0"
     inkscape:window-width="1024"
     inkscape:window-height="541"
     inkscape:window-x="0"
     inkscape:window-y="27"
     inkscape:window-maximized="1" />
  <metadata
     id="metadata7">
    <rdf:RDF>
      <cc:Work
         rdf:about="">
        <dc:format>image/svg+xml</dc:format>
        <dc:type
           rdf:resource="http://purl.org/dc/dcmitype/StillImage" />
        <dc:title></dc:title>
      </cc:Work>
    </rdf:RDF>
  </metadata>
  <g
     inkscape:label="Layer 1"
     inkscape:groupmode="layer"
     id="layer1"
     transform="translate(-648.78597,-128.10951)">
    <path
       style="fill:#000000"
       d="m 1294.671,515.97672 c -6.325,-2.7715 -13.1611,-6.3414 -15.1914,-7.9332 -2.0302,-1.5918 -4.3901,-2.8941 -5.2442,-2.8941 -0.854,0 -3.5305,-1.9125 -5.9477,-4.25 -2.4172,-2.33749 -16.7816,-16.3064 -31.9211,-31.04199 -15.1394,-14.7355 -29.2518,-28.1564 -31.3609,-29.8242 -2.1091,-1.66771 -6.6707,-6.24521 -10.1368,-10.1722 -3.4662,-3.927 -7.4976,-7.9242 -8.9587,-8.8827 -1.4611,-0.9585 -9.2133,-8.1746 -17.2271,-16.0358 -8.0138,-7.8612 -18.7032,-18.0971 -23.7542,-22.7465 -5.0511,-4.6493 -9.7146,-9.7351 -10.3636,-11.30181 -1.7116,-4.13229 0.1887,-9.44349 5.0921,-14.2316 3.7796,-3.6907 4.4928,-3.9749 10.8776,-4.33569 l 6.8327,-0.3861 6.9437,6.8543 c 3.819,3.7698 10.6784,10.2293 15.2431,14.3543 4.5647,4.125 14.2286,13.35 21.4754,20.5 7.2468,7.15 15.2485,14.6708 17.7817,16.713 2.5331,2.0421 15.1253,14.12 27.9825,26.8397 12.8573,12.7197 28.9359,28.5989 35.7303,35.287 6.7943,6.6881 13.04,13.5103 13.8794,15.1603 0.8393,1.65 2.9719,5.025 4.7391,7.5 5.2144,7.3029 9.5281,17.1856 9.5281,21.829 0,3.6786 -0.2656,4.16309 -2.25,4.1041 -1.2375,-0.037 -7.425,-2.3344 -13.75,-5.1058 z m 4,-6.8273 c 1.1,-1.1 2,-2.65949 2,-3.46559 0,-1.9084 -6.7365,-14.38201 -9.3345,-17.28441 -2.276,-2.54259 -6.4431,-2.9931 -7.2893,-0.78809 -0.3085,0.8041 -1.3069,1.70339 -2.2186,1.99849 -0.9117,0.2951 -2.7529,2.14851 -4.0917,4.11861 -2.3806,3.5033 -2.3958,3.6528 -0.6957,6.80979 1.2355,2.2942 3.8196,4.2784 8.9341,6.8601 8.3875,4.2338 9.9917,4.455 12.6957,1.7511 z m -25.029,-18.2608 c 1.3909,-2.5374 3.1018,-5.5314 3.8019,-6.65339 1.0814,-1.73301 0.9904,-2.30681 -0.6048,-3.81291 -15.6399,-14.7671 -45.3231,-43.46609 -54.708,-52.894 -6.6362,-6.6667 -14.517,-14.1178 -17.5129,-16.5582 -2.996,-2.44029 -10.8472,-9.73809 -17.4472,-16.2172 -23.411,-22.9823 -36.1072,-34.46679 -38.8694,-35.1601 -2.3506,-0.58999 -3.3961,-0.1018 -6.7076,3.1318 -2.1577,2.1069 -3.923,4.3709 -3.923,5.0313 0,1.6364 31.6878,32.5734 47,45.8865 3.025,2.63 10.7311,10.0075 17.1246,16.39441 6.3935,6.3869 18.4991,18.1376 26.9013,26.11259 8.4022,7.97501 20.9462,20.2364 27.8754,27.2476 6.9293,7.0112 13.0356,12.6031 13.5697,12.4264 0.534,-0.1768 2.109,-2.3974 3.5,-4.9348 z"
       id="path4238-0"
       inkscape:connector-curvature="0"
       sodipodi:nodetypes="ccsssccssccsscsssssscsscccsccscssccccscsssssssscc" />
    <path
       style="fill:#000000"
       d="m 1086.061,779.89011 c -1.925,-0.64111 -9.35,-1.2312 -16.5,-1.3113 -8.7022,-0.097 -15.2392,-0.7241 -19.773,-1.8953 -6.4847,-1.675 -7.1021,-1.6721 -14.5,0.069 -6.8576,1.6142 -12.7565,1.8211 -52.4272,1.8393 -31.9877,0.015 -45.0224,-0.3018 -45.833,-1.1125 -2.5844,-2.585 11.7685,-3.5049 51.5005,-3.3009 33.989,0.1745 39.5981,-0.011 43.4084,-1.4329 5.7216,-2.1356 18.8907,-2.1771 23.9064,-0.075 2.7894,1.1689 5.4662,1.3972 10.7179,0.9142 4.6484,-0.4275 10.0235,-0.1121 16,0.9388 4.95,0.8705 14.2818,1.5841 20.7372,1.5858 l 11.7373,0 -0.5866,-7.75 c -0.4275,-5.6473 -1.8925,-11.4127 -5.3998,-21.25 -5.98,-16.7724 -6.9755,-20.4282 -6.9825,-25.64201 -0.01,-4.6666 -5.345,-26.17989 -7.5595,-30.4622 -0.9482,-1.8337 -1.4461,-5.9052 -1.4461,-11.8259 0,-5.305 -0.5801,-10.5845 -1.4064,-12.7996 -1.3519,-3.6242 -3.3997,-12.2123 -5.4296,-22.7703 -0.5288,-2.75 -2.1319,-9.0468 -3.5627,-13.9929 -1.7388,-6.0114 -2.6013,-11.404 -2.6013,-16.2651 0,-3.9997 -0.6379,-9.8529 -1.4176,-13.0071 -4.5125,-18.2555 -4.685,-19.6835 -4.686,-38.8089 -9e-4,-15.8831 -0.2774,-19.5634 -1.6526,-22 -1.2333,-2.1849 -1.6965,-5.8385 -1.8288,-14.426 -0.098,-6.325 -0.4704,-24.775 -0.8286,-41 -0.4763,-21.569 -0.3252,-30.9786 0.5618,-35 0.6672,-3.025 1.2551,-11.125 1.3063,-18 0.051,-6.875 0.6124,-13.85 1.2471,-15.5 1.4905,-3.8751 2.4958,-18.3642 2.8663,-41.3108 0.2084,-12.9026 0.7878,-20.2729 1.9617,-24.9538 0.9163,-3.6536 1.4226,-8.1424 1.1252,-9.9751 -0.2974,-1.8327 0.1086,-5.1725 0.9022,-7.4219 0.7937,-2.2494 1.443,-6.4789 1.443,-9.399 0,-2.92 0.4832,-6.576 1.0738,-8.1243 2.0712,-5.4301 3.0885,-11.9287 3.8846,-24.8151 0.5073,-8.2102 1.752,-16.7659 3.3784,-23.221 1.4163,-5.6216 3.2511,-13.7216 4.0773,-18 3.1952,-16.5462 5.5852,-26.0911 8.5279,-34.0578 2.6644,-7.2131 3.06,-9.5944 3.0736,-18.5 0.01,-5.6216 0.6676,-12.9212 1.4644,-16.22119 0.7968,-3.3 1.4648,-9.067 1.4844,-12.8157 0.02,-3.7487 0.4594,-7.6077 0.9775,-8.5756 0.518,-0.968 1.0805,-6.1938 1.25,-11.613 l 0.3081,-9.8529 -79.5,-0.152 c -43.725,-0.084 -81.8911,0.2028 -84.8136,0.6366 -3.0571,0.4537 -7.3037,0.3667 -10,-0.205 -2.5775,-0.5465 -8.1099,-1.3906 -12.2941,-1.8758 -9.1074,-1.0561 -67.5519,-1.3409 -94.8923,-0.4625 -15.6098,0.5016 -21.2955,0.307 -28.5,-0.9755 -10.5209,-1.8728 -28.099,-2.1085 -33.6312,-0.451 -6.04822,1.8121 -8.86882,7.4482 -8.86882,17.7218 0,4.4128 0.6902,10.6326 1.5337,13.822 1.8788,7.1035 2.0698,19.86659 0.3287,21.96449 -0.8701,1.0485 -2.1753,1.3083 -4.3055,0.8571 -1.6813,-0.356 -7.1069,-1.0354 -12.0569,-1.5096 -4.95,-0.4742 -11.7,-1.3565 -15,-1.9607 -3.6714,-0.6721 -10.3892,-0.8413 -17.3093,-0.4359 -9.1285,0.5348 -11.9244,1.072 -14.5,2.7861 -4.5178,3.0069 -6.7138,8.2369 -7.699,18.3356 -0.47,4.8189 -1.7855,11.4196 -2.9232,14.6682 -1.2183,3.479 -2.0687,8.411 -2.0691,12 -5e-4,5.3579 -0.4832,6.8781 -3.99938,12.5935 -2.1994,3.575 -3.9991,7.4832 -3.9994,8.6849 -4e-4,1.2017 -0.4986,3.4517 -1.1073,5 -0.6087,1.5483 -1.5164,6.3464 -2.017,10.6624 -0.5006,4.3161 -1.4286,8.8161 -2.0623,10 -0.704,1.3154 -1.0614,6.1102 -0.9186,12.3271 0.1881,8.1962 -0.2612,12.0846 -2.311,20 -2.7132,10.4771 -4.5368,22.5725 -5.0662,33.603 -0.1789,3.7277 -0.6762,7.5527 -1.105,8.5 -0.4288,0.9474 -1.1386,9.5976 -1.5773,19.2226 -1.4278,31.3268 -2.3518,43.464 -3.464,45.5 -0.6008,1.1 -1.1287,7.3217 -1.1729,13.8261 -0.052,7.636 -0.5069,12.3399 -1.284,13.2762 -1.8707,2.2541 -0.2758,86.4244 1.7414,91.8977 1.0558,2.8649 1.6059,9.9593 1.9384,25 0.3352,15.166 0.8727,22.0474 1.9347,24.7702 0.8088,2.0736 1.4705,5.2796 1.4705,7.1243 0,1.8447 0.675,5.2672 1.5,7.6055 0.8817,2.499 1.5,7.751 1.5,12.7415 0,5.0057 0.66,10.5971 1.6082,13.6243 0.8846,2.8238 2.2368,7.1592 3.005,9.6342 0.7682,2.475 1.3945,6.6222 1.3917,9.216 0,2.5939 0.6177,6.1939 1.3786,8 2.6046,6.1823 4.6165,16.6115 4.6199,23.9481 0,5.8411 0.614,8.8342 3,14.6895 1.6481,4.0445 3.0113,8.3195 3.0292,9.5 0.018,1.1805 0.90328,4.6214 1.96738,7.6464 1.0641,3.025 1.9494,7.6109 1.9673,10.1909 0.018,2.5801 0.4236,4.9326 0.9013,5.2279 0.4778,0.2953 1.1418,2.2343 1.4757,4.309 0.3339,2.0747 1.5312,5.5722 2.6609,7.7722 2.1559,4.1988 4.4404,12.2511 6.0997,21.5 2.0702,11.5395 6.4626,15.89 13.181,13.0552 5.0236,-2.1197 12.1513,-2.4227 16.9334,-0.7198 3.4631,1.2331 12.2071,1.6313 45.78072,2.0847 45.4786,0.6141 66.913,1.4895 64.8422,2.6482 -1.9437,1.0876 -99.58772,1.8275 -105.42702,0.7989 -11.6218,-2.0473 -16.0767,-2.1404 -21.1875,-0.4429 -4.4555,1.4799 -5.4418,1.5099 -8.3884,0.2553 -5.9969,-2.5534 -8.1886,-5.9161 -8.4372,-12.9449 -0.1578,-4.4605 -0.9579,-7.6347 -2.8114,-11.1542 -1.4249,-2.7057 -2.5907,-5.9916 -2.5907,-7.3019 0,-1.3103 -0.8613,-4.0466 -1.914,-6.0805 -3.0751,-5.9416 -6.11618,-17.2857 -6.10048,-22.757 0.01,-2.9211 -0.6059,-5.8792 -1.4537,-7 -0.8075,-1.0676 -1.492,-3.2911 -1.5211,-4.9411 -0.029,-1.65 -1.2367,-6.15 -2.6837,-10 -1.9333,-5.1442 -2.8006,-9.7837 -3.2713,-17.5 -0.3523,-5.775 -1.1441,-12.075 -1.7595,-14 -0.6155,-1.925 -1.8361,-5.75 -2.7125,-8.5 -0.8765,-2.75 -1.5914,-6.9421 -1.5887,-9.3158 0,-2.3736 -0.4925,-5.2453 -1.1005,-6.3814 -2.1708,-4.0562 -4.8945,-18.052 -4.8945,-25.1508 0,-4.6579 -0.71,-9.2413 -2,-12.9117 -1.1,-3.1297 -2,-7.0812 -2,-8.7811 0,-1.6999 -0.5363,-4.0736 -1.1918,-5.275 -0.7514,-1.377 -1.4457,-10.3146 -1.8787,-24.1842 -0.3798,-12.1657 -1.178,-23.1176 -1.7857,-24.5 -1.5628,-3.5558 -3.314,-87.4948 -1.8972,-90.9374 0.5801,-1.4095 1.4301,-8.6376 1.889,-16.0626 1.6894,-27.3386 2.7274,-37.6275 4.338,-43 1.271,-4.2394 1.5095,-7.6776 1.0407,-15 -0.3601,-5.6242 -0.1323,-12.3559 0.5583,-16.5 0.6417,-3.85 1.5144,-10.375 1.9394,-14.5 1.0296,-9.9944 3.6145,-25.6573 4.9508,-30 0.5924,-1.925 1.3546,-10.7 1.6939,-19.5 0.3393,-8.8 1.0638,-16.8671 1.6099,-17.927 0.5462,-1.0598 1.3623,-4.4348 1.8134,-7.5 1.4838,-10.0809 3.7176,-18.1312 6.7701,-24.3988 2.0115,-4.1302 3.3214,-8.8227 3.9567,-14.1742 0.5223,-4.4 1.9814,-10.475 3.24248,-13.5 1.6542,-3.9678 2.4682,-8.4252 2.9221,-16 0.346,-5.775 0.9655,-11.218 1.3766,-12.0956 0.4111,-0.8776 3.2732,-3.8026 6.3601,-6.5 3.087,-2.69739 11.5462,-10.86689 18.7983,-18.15439 7.252,-7.2875 13.546,-13.25 13.9866,-13.25 0.4406,0 2.6474,-1.5086 4.904,-3.3524 2.2566,-1.8438 5.6613,-4.1549 7.5659,-5.1358 1.9045,-0.9808 4.2997,-2.8473 5.3226,-4.1476 1.0228,-1.3003 2.3895,-2.3724 3.0371,-2.3824 0.6476,-0.01 3.1576,-1.36 5.5779,-3 l 4.4005,-2.9818 18.59952,0.01 c 10.2297,0 21.2995,0.4258 24.5995,0.9371 7.6467,1.1846 20.5068,1.4142 70,1.2495 22,-0.073 43.6,0.035 48,0.2413 33.4575,1.5661 84.9388,2.3404 92.4552,1.3906 12.1304,-1.5329 99.299,-0.6899 101.3108,0.9797 1.9782,1.6418 3.1272,17.2624 1.6692,22.6942 -1.5837,5.9005 -2.9063,18.9432 -3.7522,36.99999 -0.6328,13.5101 -1.1045,16.7781 -3.0315,21 -2.1138,4.6312 -5.6731,18.3666 -11.1429,43 -1.2213,5.5 -2.8988,12.1821 -3.7278,14.849 -0.8989,2.8919 -1.5965,9.5517 -1.7283,16.5 -0.2051,10.8082 -1.1668,17.14 -3.7441,24.651 -0.5662,1.65 -1.1113,6.375 -1.2114,10.5 -0.1226,5.055 -0.778,8.6195 -2.0104,10.9341 -1.3598,2.554 -1.6937,4.7388 -1.303,8.5246 0.3334,3.2303 0.015,6.3049 -0.8721,8.4139 -1.0179,2.4209 -1.3799,7.8458 -1.333,19.9755 0.044,11.3911 -0.3384,17.5997 -1.2105,19.6519 -0.7086,1.6675 -1.3574,7.6637 -1.4608,13.5 -0.3027,17.1001 -1.9811,38.3411 -3.211,40.6363 -0.8362,1.5604 -0.9869,14.0947 -0.5591,46.5 0.4908,37.1712 0.8356,44.8501 2.1264,47.3637 1.1806,2.2988 1.7017,8.2595 2.2294,25.5 0.3787,12.375 1.1731,23.625 1.7653,25 2.1017,4.8805 4.247,16.5956 4.2444,23.1779 0,6.1011 2.925,19.5851 5.8916,27.1372 0.6082,1.5483 1.1217,4.9233 1.1412,7.5 0.02,2.5767 0.6786,5.8099 1.4646,7.1849 0.786,1.375 1.461,4.075 1.5,6 0.039,1.925 0.714,4.625 1.5,6 0.8245,1.4422 1.4441,5.2671 1.4646,9.0399 0.019,3.597 0.7396,9.222 1.6003,12.5 0.8606,3.2781 1.9404,7.7601 2.3994,9.9601 0.4591,2.2 1.7799,7.5595 2.9352,11.91 1.1553,4.3505 2.1005,9.3187 2.1005,11.0405 0,3.3597 5.0157,19.7454 7.5359,24.6189 1.6104,3.1143 2.966,8.5889 4.5203,18.2565 0.5152,3.2042 1.6133,6.7918 2.4402,7.9725 1.8842,2.69 1.9328,6.1005 0.1085,7.6146 -2.0069,1.6655 -30.0926,2.3673 -34.6049,0.8646 z M 748.24428,155.89581 c -0.7175,-0.7176 -1.1833,-0.7766 -1.1833,-0.15 0,1.3348 1.1826,2.5174 1.85,1.85 0.2842,-0.2842 -0.016,-1.0492 -0.6667,-1.7 z M 862.311,778.08131 c -1.2375,-0.4974 -2.25,-1.41381 -2.25,-2.0364 0,-0.8221 6.9138,-1.0362 25.25,-0.782 23.9274,0.3316 30.8745,1.11479 26.1836,2.9518 -2.7455,1.0752 -46.4719,0.9566 -49.1836,-0.1334 z"
       id="path4238-9"
       inkscape:connector-curvature="0"
       sodipodi:nodetypes="ccccccsccscccssccssccsssccssccssscscccsscsccscscsssssscccscsccccsccsccsscsccccssssscscscscsccscsscsssssssscccccsccccssscsccscscccsccsscsscsssccsscccscsccssscscccscssccscsccscssccccssccccccsssscsscc" />
  </g>
</svg>
