<?xml version="1.0" encoding="UTF-8" standalone="no"?>
<!-- Created with Inkscape (http://www.inkscape.org/) -->

<svg
   xmlns:dc="http://purl.org/dc/elements/1.1/"
   xmlns:cc="http://creativecommons.org/ns#"
   xmlns:rdf="http://www.w3.org/1999/02/22-rdf-syntax-ns#"
   xmlns:svg="http://www.w3.org/2000/svg"
   xmlns="http://www.w3.org/2000/svg"
   version="1.1"
   width="471.20999"
   height="653.75751"
   id="svg2">
  <defs
     id="defs4" />
  <metadata
     id="metadata7">
    <rdf:RDF>
      <cc:Work
         rdf:about="">
        <dc:format>image/svg+xml</dc:format>
        <dc:type
           rdf:resource="http://purl.org/dc/dcmitype/StillImage" />
        <dc:title></dc:title>
      </cc:Work>
    </rdf:RDF>
  </metadata>
  <g
     transform="translate(16.221334,-78.094231)"
     id="layer1">
    <path
       d="m 418.1392,731.04236 c -2.475,-0.4404 -9.5059,-0.834 -15.6243,-0.87481 -6.6212,-0.044 -12.6931,-0.62469 -15,-1.4343 -2.1316,-0.748 -6.4834,-1.6829 -9.6706,-2.0775 -4.9111,-0.60799 -6.4362,-0.38229 -10,1.48041 -4.0804,2.1326 -4.9912,2.187 -30.7051,1.8359 -14.575,-0.199 -37.075,-0.272 -50,-0.1623 -58.4779,0.4967 -84.2811,0.096 -88.4399,-1.3738 -3.3927,-1.1989 -14.7456,-1.3994 -69.0601,-1.2195 -50.6544,0.1677 -65.851,-0.068 -68.856,-1.0664 -3.6626,-1.2174 -7.9617,-1.0981 -19.2832,0.5352 -2.4068,0.3472 -5.0451,0.1123 -6.3035,-0.5612 -3.3236,-1.7787 -6.0494,-7.0446 -6.0536,-11.6949 0,-2.3035 -1.5084,-8.1123 -3.3711,-13 -5.7477,-15.0815 -9.6326,-28.4183 -9.6326,-33.0683 0,-4.3398 -3.4406,-17.6944 -5.1104,-19.8359 -1.7167,-2.2015 -4.8759,-18.18 -4.8826,-24.6951 0,-3.72 -0.4045,-7.545 -0.8903,-8.5 -1.8335,-3.6042 -5.1169,-17.3624 -5.1229,-21.4654 0,-2.34901 -0.6784,-5.56001 -1.5,-7.13531 -0.8216,-1.57539 -1.4938,-4.4175 -1.4938,-6.31579 0,-1.89831 -0.5202,-4.42331 -1.1559,-5.61121 -0.6357,-1.1879 -1.4878,-7.34579 -1.8935,-13.6843 -0.6979,-10.9036 -1.1999,-13.7024 -4.5543,-25.38929 -0.768,-2.67561 -1.433,-9.2006 -1.4778,-14.5 -0.1015,-12.0059 -1.4989,-31.698 -2.8125,-39.63511 -1.3778,-8.3252 -2.0678,-83.30469 -0.796,-86.5 0.5473,-1.375 1.0917,-7.9306 1.2099,-14.5679 0.1181,-6.6374 0.7245,-13.0203 1.3474,-14.1843 0.6257,-1.169 1.1327,-6.56599 1.1327,-12.0564 0,-6.5767 0.5373,-11.4205 1.588,-14.3157 1.2801,-3.5273 1.4678,-6.7995 0.9681,-16.8757 -0.4775,-9.6278 -0.2679,-13.8325 0.912,-18.2988 0.8425,-3.1894 1.5478,-9.0394 1.5673,-13 0.021,-4.3478 0.6018,-8.1919 1.4646,-9.7012 0.786,-1.375 1.4451,-3.95339 1.4646,-5.7297 0.044,-3.9834 2.7166,-18.6977 4.1364,-22.7703 0.5752,-1.65 1.4684,-9.3 1.985,-17 1.7616,-26.25578 3.0984,-33.22789 8.1491,-42.49999 2.6967,-4.9507 3.6934,-8.1686 4.1816,-13.5 0.6252,-6.82889 3.9544,-19.04979 5.7071,-20.94999 0.4819,-0.5225 0.8762,-5.1598 0.8762,-10.30504 l 0,-9.355 18.8558,-18.695 c 10.3706,-10.2823 20.3831,-19.734 22.25,-21.0038 6.0232,-4.096998 14.2483,-10.294898 17.7967,-13.410499 1.9019,-1.6699 6.1894,-4.3283 9.5277,-5.9077 6.0269,-2.8511 6.2055,-2.8715 25.2547,-2.8722 10.6232,-5e-4 20.3822,0.4544 21.8678,1.019201 1.6664,0.6336 26.4142,1.2081 65.3151,1.5164 34.4477,0.272999 80.6322,0.993199 102.6322,1.600399 29.7425,0.8209 48.0778,0.8085 71.5,-0.048 19.2659,-0.7049 39.6561,-0.8488 52.5,-0.3704 l 21,0.782 0.3045,9.500001 c 0.1675,5.225 -0.3598,13.774998 -1.1718,18.999998 -0.812,5.225 -1.5093,11.4379 -1.5496,13.8065 -0.04,2.3685 -0.5641,5.2238 -1.1643,6.3452 -0.6001,1.1213 -1.4547,7.9584 -1.8992,15.1935 -0.6144,10.00164 -1.4463,15.06164 -3.4707,21.10984 -3.4263,10.2367 -6.5489,23.65119 -6.5489,28.13339 0,1.931 -0.6115,4.7261 -1.3589,6.2113 -0.7474,1.4852 -1.63,4.2753 -1.9612,6.2003 -0.3313,1.925 -1.5139,7.775 -2.628,12.99999 -1.1141,5.225 -2.0315,13.1308 -2.0388,17.5685 -0.01,4.4377 -0.6445,10.2877 -1.4163,13 -0.7717,2.7123 -2.1602,9.2065 -3.0855,14.4315 -0.9253,5.225 -2.3366,11.8458 -3.1362,14.7128 -0.9316,3.3402 -1.2205,6.972 -0.8043,10.1098 0.4294,3.2369 0.2131,5.7073 -0.638,7.2872 -1.7622,3.2709 -2.8926,19.6509 -1.9055,27.6105 0.6506,5.2458 0.4136,8.023 -1.2078,14.15311 -1.5984,6.0434 -1.886,9.2902 -1.3853,15.6404 0.4978,6.31389 0.3134,8.435 -0.8694,10 -1.1397,1.5079 -1.5089,4.9246 -1.533,14.1874 -0.02,7.6584 -0.6014,14.3603 -1.5616,18 -2.1456,8.1332 -1.0596,84.8116 1.2789,90.2988 1.1323,2.657 1.5338,8.3176 1.6667,23.5 0.1282,14.6292 0.5476,20.8057 1.5618,23 1.9044,4.1205 4.0024,16.0255 4.9344,28 0.4281,5.5 1.3299,11.8 2.0039,14 2.5648,8.37079 3.978,14.1703 4.6301,19 0.3713,2.75 1.8255,9.275 3.2316,14.5 1.4642,5.4412 2.8131,13.7724 3.1571,19.5 0.3303,5.5 0.8939,10.4608 1.2523,11.024 1.1519,1.81 7.5629,27.7317 8.722,35.2663 1.1142,7.242 4.5416,18.6754 6.2475,20.8408 1.4666,1.8617 4.0988,12.63 3.9355,16.0999 -0.084,1.777 0.7875,5.0726 1.9358,7.3236 2.7746,5.4386 2.3387,10.1278 -1.0278,11.0564 -3.4222,0.9441 -28.4544,0.8247 -34,-0.162 z m 21.1901,-3.9489 11.0599,0 -0.6584,-3.25 c -0.362,-1.7875 -0.9218,-5.95 -1.2439,-9.25 -0.3221,-3.3 -1.1481,-6.9066 -1.8355,-8.0147 -0.6875,-1.1081 -1.5859,-3.5831 -1.9965,-5.5 -0.4107,-1.9169 -1.0793,-3.9353 -1.4859,-4.4853 -2.2555,-3.0511 -6.0298,-16.727 -6.0298,-21.8484 0,-3.693 -0.8273,-7.7337 -2.3405,-11.4318 -1.2873,-3.1459 -2.9111,-8.4198 -3.6085,-11.7198 -0.6974,-3.3 -1.8942,-7.9927 -2.6595,-10.4282 -0.7653,-2.4355 -1.3915,-8.1874 -1.3915,-12.7821 0,-5.1992 -0.572,-9.7228 -1.5146,-11.9788 -2.0699,-4.9541 -4.476,-15.6438 -4.5293,-20.123 -0.024,-2.0284 -0.7012,-5.4879 -1.5047,-7.6879 -2.6045,-7.1319 -4.4497,-17.8214 -4.4506,-25.7822 -4e-4,-4.2801 -0.609,-9.2376 -1.3523,-11.0166 -0.7433,-1.7789 -1.6821,-5.4396 -2.0863,-8.1347 -0.4041,-2.6952 -1.4835,-6.0435 -2.3985,-7.4408 -1.4145,-2.1599 -1.6703,-5.6928 -1.7074,-23.5831 -0.037,-17.7532 -0.3071,-21.5362 -1.728,-24.2003 -1.2268,-2.3001 -1.6721,-5.5589 -1.6397,-12 0.024,-4.8633 -0.1721,-18.9673 -0.4368,-31.3423 -0.2647,-12.375 -0.013,-30.375 0.5589,-40 0.5721,-9.625 0.9594,-21.4127 0.8605,-26.1948 -0.1353,-6.5437 0.2456,-9.5124 1.5396,-12 1.2931,-2.4858 1.6694,-5.4125 1.5178,-11.8052 -0.1245,-5.2467 0.3714,-10.3925 1.2955,-13.4444 1.0923,-3.6074 1.4907,-9.7397 1.4733,-22.6774 -0.018,-13.5572 0.3173,-18.3975 1.4251,-20.5556 0.9613,-1.8726 1.2798,-4.5527 0.9465,-7.9632 -0.3111,-3.1835 0.079,-6.9906 1.025,-10 0.8401,-2.6727 1.7767,-7.7844 2.0813,-11.3594 0.3047,-3.575 1.2889,-8.975 2.1873,-12 0.8984,-3.025 1.9781,-11.35 2.3993,-18.5 0.4213,-7.15 1.4527,-15.925 2.292,-19.5 0.8393,-3.57499 2.4388,-10.32499 3.5545,-14.99999 1.1156,-4.675 2.7531,-12.1 3.6387,-16.5 0.8857,-4.4 3.3968,-13.4457 5.5804,-20.1016 3.7574,-11.4534 3.9624,-12.7144 3.8269,-23.54594 -0.087,-6.9573 0.3056,-12.2829 1.0012,-13.5828 0.6294,-1.176 1.1444,-5.1118 1.1444,-8.7461 0,-3.6344 0.6961,-9.978 1.5469,-14.097 0.8508,-4.119 1.4133,-10.287498 1.25,-13.707798 l -0.2969,-6.2188 -10,-0.7138 c -5.5,-0.3926 -30.025,-0.4506 -54.5,-0.1289 -77.5973,1.0201 -107.9201,0.9251 -117,-0.3664 -8.5675,-1.2186 -45.6374,-1.4607 -96.3877,-0.6294 -19.158,0.3139 -25.9496,0.092 -29.5,-0.9648 -3.122,-0.929 -9.6667,-1.3441 -20.2553,-1.2846 -17.7277,0.1 -18.5245,0.4014 -21.939,8.3098 -1.5866,3.6748 -1.7049,5.4244 -0.9126,13.499998 0.5006,5.1029 1.3596,11.3031 1.9089,13.7781 1.5669,7.061 1.3515,17.5344 -0.3904,18.9801 -1.6003,1.3282 -3.3391,1.2131 -21.5239,-1.4242 -6.325,-0.9173 -16.9,-1.7552 -23.5,-1.8619 -11.1472,-0.1802 -12.3135,-0.016 -16.4114,2.306 -6.4143,3.635 -8.4693,6.947 -9.1933,14.8165 -0.3381,3.67594 -1.5409,10.28354 -2.6727,14.68354 -1.1319,4.4 -2.3019,11.0248 -2.6,14.7218 -0.5256,6.5174 -2.0037,10.5902 -5.7263,15.7782 -0.9867,1.375 -2.6661,6.55 -3.7322,11.5 -1.0661,4.95 -2.5103,11.47499 -3.2095,14.49999 -0.6991,3.025 -1.3207,10.675 -1.3814,17 -0.069,7.241 -0.7746,14.2776 -1.9042,19 -0.9867,4.125 -2.1927,10.425 -2.6798,14 -0.4872,3.575 -1.5815,8.4618 -2.4318,10.8595 -0.9545,2.6916 -1.3157,5.7999 -0.9441,8.1239 0.3704,2.3164 -0.057,6.0244 -1.1103,9.6404 -1.4283,4.9015 -1.6006,8.1984 -1.0386,19.8762 0.5508,11.4473 0.3875,14.7978 -0.8954,18.3757 -0.9763,2.7228 -1.5824,7.8224 -1.6044,13.5 -0.023,6.0182 -0.522,9.9753 -1.4646,11.6243 -1.0254,1.7936 -1.4391,6.07 -1.4646,15.1357 -0.026,9.3348 -0.4329,13.3839 -1.557,15.5 -1.2606,2.3727 -1.4205,5.6958 -0.9318,19.3643 0.3244,9.075 0.6906,28.2 0.8138,42.5 0.1698,19.718 0.5529,26.5972 1.5857,28.4718 0.9907,1.7984 1.476,8.4325 1.7811,24.3464 0.3713,19.369 0.6396,22.2356 2.3423,25.0281 1.0577,1.7345 1.9247,4.5612 1.9268,6.2815 0,1.7204 0.6787,4.7434 1.5037,6.7179 0.9796,2.3446 1.5,6.9183 1.5,13.1842 0,5.3655 0.6208,11.6605 1.4084,14.2822 4.0737,13.5586 4.645,16.127 4.0842,18.3611 -0.3519,1.4025 0.2264,4.7443 1.364,7.8809 3.8784,10.694 5.1433,16.8726 5.1386,25.0998 0,6.2353 0.606,10.1164 2.4106,15.3461 5.5094,15.96669 7.0274,21.3015 7.683,27 0.7128,6.1964 2.9641,14.5525 7.3916,27.4357 1.4054,4.0897 2.8007,9.26469 3.1005,11.5 0.9568,7.13469 1.3214,8.1668 3.8472,10.8922 2.9403,3.1727 6.9129,3.4711 13.3717,1.0044 4.0383,-1.5422 4.7174,-1.5463 9.0334,-0.054 3.9599,1.3695 13.2254,1.7357 61.1668,2.4177 31.075,0.442 57.625,0.6778 59,0.5239 5.167,-0.5783 18.1439,-0.3729 38,0.6014 11.275,0.5532 42.9705,1.0298 70.4345,1.0591 27.4639,0.029 54.2389,0.337 59.5,0.6841 8.5734,0.56539 10.3952,0.36279 17.5655,-1.95421 9.1001,-2.9406 15.9913,-3.2752 23.0911,-1.1214 3.1139,0.94461 9.1197,1.49311 16.4244,1.5 10.2138,0.01 12.0201,0.28071 15.9798,2.3986 3.3632,1.7989 5.0404,2.1689 6.7996,1.5 1.2844,-0.48829 7.3122,-0.88779 13.3952,-0.88779 z"
       id="path4238-1"
       style="fill:#000000" />
  </g>
</svg>
