<?xml version="1.0" encoding="UTF-8" standalone="no"?>
<!-- Created with Inkscape (http://www.inkscape.org/) -->

<svg
   xmlns:dc="http://purl.org/dc/elements/1.1/"
   xmlns:cc="http://creativecommons.org/ns#"
   xmlns:rdf="http://www.w3.org/1999/02/22-rdf-syntax-ns#"
   xmlns:svg="http://www.w3.org/2000/svg"
   xmlns="http://www.w3.org/2000/svg"
   xmlns:sodipodi="http://sodipodi.sourceforge.net/DTD/sodipodi-0.dtd"
   xmlns:inkscape="http://www.inkscape.org/namespaces/inkscape"
   width="539.24579"
   height="807.71069"
   id="svg4618"
   version="1.1"
   inkscape:version="0.48.2 r9819"
   sodipodi:docname="New document 50">
  <defs
     id="defs4620" />
  <sodipodi:namedview
     id="base"
     pagecolor="#ffffff"
     bordercolor="#666666"
     borderopacity="1.0"
     inkscape:pageopacity="0.0"
     inkscape:pageshadow="2"
     inkscape:zoom="0.7"
     inkscape:cx="808.10981"
     inkscape:cy="358.32746"
     inkscape:document-units="px"
     inkscape:current-layer="layer1"
     showgrid="false"
     fit-margin-top="0"
     fit-margin-left="0"
     fit-margin-right="0"
     fit-margin-bottom="0"
     inkscape:window-width="1920"
     inkscape:window-height="1021"
     inkscape:window-x="0"
     inkscape:window-y="27"
     inkscape:window-maximized="1" />
  <metadata
     id="metadata4623">
    <rdf:RDF>
      <cc:Work
         rdf:about="">
        <dc:format>image/svg+xml</dc:format>
        <dc:type
           rdf:resource="http://purl.org/dc/dcmitype/StillImage" />
        <dc:title></dc:title>
      </cc:Work>
    </rdf:RDF>
  </metadata>
  <g
     inkscape:label="Layer 1"
     inkscape:groupmode="layer"
     id="layer1"
     transform="translate(611.02065,-13.653049)">
    <path
       style="fill:#000000"
       d="m -287.71429,820.37147 c -31.46814,-1.91888 -49.19646,-2.33564 -77.5,-1.82188 -16.5,0.2995 -43.95,0.11551 -61,-0.40887 -20.6475,-0.63502 -38.347,-0.60808 -53,0.0807 -28.5275,1.34088 -85.1101,1.07734 -88.5532,-0.41245 -1.4042,-0.6076 -8.3792,-1.35425 -15.5,-1.65922 l -12.9468,-0.55453 0,-6.28186 0,-6.28185 -5.9375,-0.75069 c -3.2656,-0.41288 -6.267,-1.09383 -6.6697,-1.51323 -1.6736,-1.74262 -2.3794,-33.68471 -2.1603,-97.76255 0.2103,-61.49306 1.0329,-123.3853 1.761,-132.5 0.9252,-11.58042 1.6477,-53.7098 2.0322,-118.5 0.2416,-40.7 0.6511,-80.075 0.9099,-87.5 0.2589,-7.425 0.7201,-28.575 1.025,-47 0.3048,-18.425 0.7714,-38.45 1.0369,-44.5 0.2654,-6.05 0.7276,-18.65 1.0271,-28 0.2995,-9.35 0.9675,-27.125 1.4845,-39.5 0.517,-12.375 0.9297,-27.9 0.9171,-34.5 -0.031,-16.26968 -0.1399,-15.11374 1.2879,-13.68589 1.4187,1.41869 1.3358,21.87999 -0.2317,57.18589 -0.5494,12.375 -1.2277,32.56758 -1.5073,44.87239 -0.2796,12.30481 -0.7484,22.76084 -1.0419,23.23563 -0.2934,0.47478 -0.4898,5.0322 -0.4365,10.12761 0.053,5.0954 -0.3536,30.63937 -0.9042,56.76437 -0.5505,26.125 -1.2606,82.15 -1.5778,124.5 -0.3172,42.35 -0.9979,84.65 -1.5125,94 -1.8355,33.34525 -3.0455,190.62183 -1.6517,214.68159 0.7041,12.15307 1.1347,14.80543 2.5,15.40063 1.6594,0.72333 13.5904,0.86986 150.1495,1.84409 65.06579,0.46419 75.76634,0.32973 84.5,-1.06175 8.78303,-1.39935 13.71175,-1.45443 40.5,-0.45264 56.15487,2.10002 240.273115,1.15485 242.668135,-1.24572 1.30762,-1.31067 0.80167,-163.08386 -0.55347,-176.9648 -1.46921,-15.04941 -1.60703,-109.18115 -0.19356,-132.2014 3.21106,-52.29639 3.9538,-72.09806 4.18226,-111.5 0.29327,-50.58274 -0.55686,-82.28526 -2.78672,-103.91987 -1.23662,-11.99802 -1.42861,-20.20876 -0.86517,-37 1.32222,-39.40383 1.7037,-140.041706 0.56154,-148.137857 -0.58642,-4.156752 -1.12775,-21.031752 -1.20297,-37.5 -0.0927,-20.291126 -0.48701,-30.179078 -1.2234,-30.676957 -1.66807,-1.127797 -16.029395,-0.891489 -38.086645,0.626696 -20.94827,1.441855 -126.37896,1.549771 -137.5,0.140742 -3.025,-0.383265 -32.95,-0.916152 -66.5,-1.184192 -86.94,-0.694586 -90.2041,-0.673852 -119,0.755918 -32.6165,1.619468 -43.5433,1.487269 -55.5039,-0.671516 -10.4231,-1.881257 -38.3983,-2.430764 -40.0425,-0.78654 -1.2848,1.284812 -3.458,25.390143 -3.4352,38.103579 0.01,5.6375 -0.2797,10.25 -0.6441,10.25 -0.3643,0 -5.2795,-0.473806 -10.9227,-1.052903 -10.1477,-1.041352 -16.6831,-2.43425 -24.4516,-5.211398 -2.2,-0.786473 -5.743,-1.704452 -7.8733,-2.039955 l -3.8732,-0.610004 0.5168,11.238839 c 0.4769,10.368361 0,28.087739 -1.87,69.084648 -0.5419,11.89814 -0.4345,15.72993 0.4261,15.19807 0.7377,-0.45592 0.9456,-0.17682 0.5794,0.77762 -0.3243,0.84505 -1.2333,1.23476 -2.1024,0.90128 -1.3329,-0.51149 -1.4521,-3.18822 -0.9209,-20.68686 1.5998,-52.710787 1.7375,-62.380913 0.9411,-66.099337 -0.4712,-2.2 -0.6242,-5.884662 -0.3401,-8.188138 0.4333,-3.513922 1.2007,-4.682054 4.7665,-7.256273 l 4.25,-3.068134 0,-11.93471 c 0,-6.877785 0.4237,-12.196582 1,-12.552745 0.55,-0.339919 1,-0.146517 1,0.429781 0,0.576299 1.0125,1.049147 2.25,1.050773 1.2375,0.0016 6.392,0.28573 11.4544,0.631341 9.1969,0.627868 9.2076,0.625824 13.1439,-2.491756 2.1667,-1.716076 4.2653,-3.120139 4.6636,-3.120139 0.3982,0 2.2401,-1.331064 4.093,-2.95792 5.1828,-4.5506 9.8791,-5.381398 26.3951,-4.669408 7.975,0.343795 16.525,1.176639 19,1.850765 6.0018,1.634731 45.777,1.533844 74.5,-0.188964 15.7845,-0.94676 27.93293,-1.071523 43,-0.441606 21.3315,0.891816 38.76061,1.006436 84.5,0.555703 14.025,-0.138208 31.8,0.217874 39.5,0.791293 19.01158,1.415791 116.47201,1.359737 145.5,-0.08368 12.925,-0.642698 26.537505,-0.837443 30.250005,-0.432766 l 6.75,0.735775 0,5.420406 c 0,5.909624 -0.0469,5.86784 4.97143,4.428598 2.75074,-0.788901 3.62646,-0.691203 4.28053,0.477549 0.45226,0.808146 1.05492,13.966959 1.33925,29.241808 0.28432,15.274848 0.94262,31.917215 1.46287,36.983037 1.20698,11.752627 1.17359,48.350167 -0.0619,67.789417 -2.88538,45.40046 -3.13263,60.43074 -1.97398,120 0.64186,33 1.49806,63.825 1.90266,68.5 0.79125,9.14259 -0.23129,34.87543 -1.96697,49.5 -1.72614,14.54411 -1.37214,102.03674 0.56037,138.5 1.31394,24.79196 1.45863,35.33317 0.67941,49.5 -1.03621,18.83926 -1.6156,45.98267 -1.39813,65.5 0.81627,73.25843 0.98416,161.78283 0.30886,162.85583 -0.70193,1.11532 -13.51498,1.41512 -72.228885,1.69003 -39.25656,0.18381 -76.77557,0.80854 -83.37557,1.38829 -20.2812,1.78151 -38.65624,3.0736 -41.39319,2.91067 -1.43374,-0.0854 -8.68181,-0.52563 -16.10681,-0.97839 z m 43.5,-4.033 c 9.9,-0.62744 48.15,-1.32109 85,-1.54143 36.85,-0.22035 70.150005,-0.71369 74.000005,-1.09632 l 7,-0.69568 0.5,-16.5 c 0.42198,-13.92524 0.31533,-54.14665 -0.37255,-140.5 -0.0701,-8.8 0.23613,-36.25 0.68051,-61 0.57359,-31.94665 0.4752,-48.48089 -0.3392,-57 -0.63095,-6.6 -1.30554,-30.45 -1.49911,-53 -0.19357,-22.55 -0.43457,-46.175 -0.53555,-52.5 l -0.18362,-11.5 -1.26998,10.5 c -3.43704,28.41678 -4.37895,134.55533 -1.65064,186 0.45212,8.525 0.45858,22.925 0.0144,32 -0.50929,10.40469 -0.39876,22.59531 0.29921,33 0.75748,11.29164 0.83062,27.39021 0.23172,51 -0.48134,18.975 -0.74247,41.99542 -0.58029,51.15649 l 0.29487,16.6565 -8.29487,0.6028 c -9.243585,0.67174 -88.628055,1.80009 -127.294875,1.80933 -31.92329,0.008 -86.45227,-0.78292 -120.67013,-1.74944 -20.60954,-0.58215 -27.76768,-0.45969 -31.5,0.53889 -3.57437,0.95632 -13.92792,1.2494 -39.82987,1.12746 -19.25003,-0.0906 -66.05003,-0.30746 -104.00003,-0.48187 -37.95,-0.17441 -71.2296,-0.0568 -73.9546,0.26137 -4.9078,0.573 -4.9582,0.61526 -5.3311,4.46935 -0.4807,4.96844 0.5221,5.57315 9.2857,5.5997 3.85,0.0117 11.5,0.7133 17,1.55919 11.8793,1.82702 59.3713,2.16734 88.5,0.63419 10.175,-0.53554 23.225,-0.80855 29,-0.60668 5.775,0.20188 42.90003,0.59434 82.50003,0.87214 39.6,0.2778 77.85,0.86365 85,1.30189 7.15,0.43823 14.575,0.66767 16.5,0.50985 1.925,-0.15781 11.6,-0.80029 21.5,-1.42773 z M -76.686145,387.00504 c 1.19649,-11.46999 1.15433,-16.19694 -0.58415,-65.5 -0.20363,-5.775 -0.49421,-36.15 -0.64573,-67.5 -0.22898,-47.37736 0.0374,-61.47368 1.57803,-83.5 2.11283,-30.20722 1.60849,-65.93108 -1.86294,-131.959047 l -0.44474,-8.45905 -2.90695,-0.331956 c -2.23086,-0.25475 -3.02932,0.135999 -3.43311,1.680086 -0.28939,1.106623 -0.0828,15.412575 0.45899,31.791006 1.66306,50.270761 2.06053,125.957681 0.76031,144.778961 -1.59492,23.08717 -1.37547,44.4065 0.61761,60 1.90985,14.94236 2.67888,49.1544 2.38434,106.07286 -0.19439,37.56505 0.77988,52.82369 2.16626,33.92714 0.36317,-4.95 1.2236,-14.4 1.91208,-21 z M -581.80059,41.255043 c 3.077,-2.8875 7.2779,-6.648631 9.3354,-8.35807 l 3.7408,-3.10807 -6.1416,-0.64193 c -3.3779,-0.353061 -7.9882,-0.642963 -10.245,-0.644226 l -4.1033,-0.0023 0.321,9.002296 c 0.1765,4.951263 0.5858,9.002296 0.9096,9.002296 0.3237,0 3.1061,-2.3625 6.1831,-5.249996 z"
       id="path4742"
       inkscape:connector-curvature="0"
       sodipodi:nodetypes="cssscscccscscscscssscssccsssscsssssssssssssssssscssssccccccsscscscscsssssssssssscsssssssssssssssccccsscsssssscsssssscscsssssssssssssccssssscsssssssssccssccss" />
  </g>
</svg>
