<?xml version="1.0" encoding="UTF-8" standalone="no"?>
<!-- Created with Inkscape (http://www.inkscape.org/) -->

<svg
   xmlns:dc="http://purl.org/dc/elements/1.1/"
   xmlns:cc="http://creativecommons.org/ns#"
   xmlns:rdf="http://www.w3.org/1999/02/22-rdf-syntax-ns#"
   xmlns:svg="http://www.w3.org/2000/svg"
   xmlns="http://www.w3.org/2000/svg"
   xmlns:sodipodi="http://sodipodi.sourceforge.net/DTD/sodipodi-0.dtd"
   xmlns:inkscape="http://www.inkscape.org/namespaces/inkscape"
   width="473.43329"
   height="538.15997"
   id="svg4979"
   version="1.1"
   inkscape:version="0.48.2 r9819"
   sodipodi:docname="New document 72">
  <defs
     id="defs4981" />
  <sodipodi:namedview
     id="base"
     pagecolor="#ffffff"
     bordercolor="#666666"
     borderopacity="1.0"
     inkscape:pageopacity="0.0"
     inkscape:pageshadow="2"
     inkscape:zoom="0.5"
     inkscape:cx="314.71665"
     inkscape:cy="283.07998"
     inkscape:document-units="px"
     inkscape:current-layer="layer1"
     showgrid="false"
     fit-margin-top="0"
     fit-margin-left="0"
     fit-margin-right="0"
     fit-margin-bottom="0"
     inkscape:window-width="1920"
     inkscape:window-height="1021"
     inkscape:window-x="0"
     inkscape:window-y="27"
     inkscape:window-maximized="1" />
  <metadata
     id="metadata4984">
    <rdf:RDF>
      <cc:Work
         rdf:about="">
        <dc:format>image/svg+xml</dc:format>
        <dc:type
           rdf:resource="http://purl.org/dc/dcmitype/StillImage" />
        <dc:title></dc:title>
      </cc:Work>
    </rdf:RDF>
  </metadata>
  <g
     inkscape:label="Layer 1"
     inkscape:groupmode="layer"
     id="layer1"
     transform="translate(-86.352474,-354.4336)">
    <path
       style="fill:#000000"
       d="m 390.33448,892.00443 c -0.89225,-0.57647 -41.0741,-0.74262 -104.31428,-0.43134 -87.09153,0.42868 -103.19813,0.29163 -105.04873,-0.89383 -1.7234,-1.10398 -5.9617,-1.32349 -20.0374,-1.03777 -9.8184,0.19931 -18.7638,0.0729 -19.8787,-0.28099 -1.9011,-0.60341 -1.9843,-1.1708 -1.3382,-9.13347 0.6148,-7.57745 -0.1436,-24.91458 -1.0502,-24.00794 -0.195,0.19499 -0.789,3.69803 -1.3199,7.78453 -0.531,4.0865 -1.5123,10.0175 -2.1806,13.18 l -1.2151,5.75 -14.1963,0 c -7.808,0 -16.6202,-0.47526 -19.5828,-1.05613 -2.9626,-0.58087 -7.1234,-1.23028 -9.2463,-1.44312 -2.1229,-0.21284 -4.1252,-0.65238 -4.4495,-0.97674 -0.3244,-0.32437 0.01,-3.16246 0.7433,-6.30688 0.7332,-3.14442 1.5038,-7.74213 1.7125,-10.21713 0.7857,-9.32102 2.5991,-19.54985 3.7059,-20.90403 0.8487,-1.03831 1.0908,-25.63655 0.9294,-94.43586 -0.1611,-68.69474 0.081,-93.3928 0.9269,-94.41163 0.8303,-1.00041 1.1002,-14.59451 0.9816,-49.44117 -0.1364,-40.06385 0.077,-48.58105 1.2821,-51.18435 0.9911,-2.14105 1.61,-8.31081 1.9683,-19.62296 0.2874,-9.075 0.9996,-22.35 1.5827,-29.5 0.5831,-7.15 1.2882,-20.40518 1.5669,-29.45595 0.3274,-10.63443 0.9317,-16.97047 1.7082,-17.91038 0.8114,-0.98224 1.2015,-6.09288 1.2015,-15.74126 0,-10.09462 0.3668,-14.65442 1.25,-15.53961 0.869,-0.87097 1.25,-5.13537 1.25,-13.99153 l 0,-12.73873 4.75,-0.61251 c 2.6125,-0.33689 5.65,-1.1175 6.75,-1.7347 2.7109,-1.52105 8.8613,-2.88561 15.5,-3.43888 3.025,-0.25211 6.918,-1.10594 8.6511,-1.89742 1.7331,-0.79147 3.5331,-1.44154 4,-1.44461 0.4669,-0.003 2.5364,-0.47422 4.5989,-1.047 l 3.75,-1.04143 0,-14.953 c 0,-8.22415 0.3375,-14.97567 0.75,-15.00339 0.4125,-0.0277 3.2807,-0.26317 6.3738,-0.52323 3.0931,-0.26006 6.9181,0.0392 8.5,0.66512 1.8535,0.73332 14.393,1.28875 35.2644,1.56201 17.89595,0.23431 33.19185,0.85416 34.18426,1.38528 0.98783,0.52867 2.95064,0.96122 4.3618,0.96122 1.61399,0 2.56574,0.55642 2.56574,1.5 0,1.9182 -3.62952,1.94175 -7.26161,0.0471 -2.29142,-1.19529 -7.48432,-1.34368 -30.49999,-0.87151 -20.4442,0.41941 -29.1847,0.23917 -33.2384,-0.68543 -3.025,-0.68997 -8.425,-1.30752 -12,-1.37233 l -6.5,-0.11785 0.3168,30.691 c 0.2471,23.94321 0.029,31.19866 -0.9943,33 -0.9407,1.65679 -1.2369,6.05582 -1.0487,15.57378 0.1988,10.05515 -0.089,13.9445 -1.1904,16.07394 -1.0617,2.05304 -1.5075,7.0959 -1.6563,18.73523 -0.1286,10.05352 -0.6867,17.30093 -1.5135,19.65466 -0.7371,2.09835 -1.2729,7.63438 -1.2255,12.66161 0.071,7.47155 -0.2652,9.49848 -2.0519,12.38943 -1.9166,3.10101 -2.1362,4.90284 -2.1362,17.52328 0,7.73678 -0.4629,15.28445 -1.0287,16.77261 -0.6528,1.71698 -1.0191,19.67239 -1.0023,49.13504 0.019,33.94825 -0.2922,47.01535 -1.159,48.60937 -0.8979,1.65112 -1.1396,30.4337 -0.996,118.63178 0.1042,64.04845 0.5262,116.78451 0.9377,117.19124 1.365,1.34904 38.6601,1.96076 141.62313,2.32294 56.03116,0.19709 103.50616,0.68151 105.5,1.07649 5.87982,1.1648 74.14619,0.75728 78.11857,-0.46633 1.92137,-0.59184 8.75731,-1.07607 15.19098,-1.07607 6.43367,0 11.94082,-0.39356 12.23811,-0.87458 0.67147,-1.08648 1.02703,-98.3127 0.64081,-175.23007 -0.18996,-37.83059 0.0612,-58.25945 0.73163,-59.51217 0.65476,-1.22344 1.0188,-19.4228 1.01509,-50.74747 -0.004,-34.13678 0.32473,-49.17046 1.0921,-49.93783 0.70282,-0.70282 1.11063,-6.87331 1.13332,-17.14788 0.0265,-12.02732 0.39362,-16.67659 1.46456,-18.55 0.97705,-1.70916 1.44034,-5.76323 1.46456,-12.81574 0.0195,-5.67366 0.49951,-11.18286 1.06671,-12.24268 0.56719,-1.05981 1.25557,-9.46773 1.52972,-18.68426 1.13013,-37.99267 1.59031,-46.80318 2.4918,-47.70732 0.52195,-0.52349 0.94721,-8.58967 0.94721,-17.96657 0,-13.4133 -0.35001,-17.93306 -1.65294,-21.34473 -1.53725,-4.02524 -1.53725,-4.80747 0,-11.17651 3.56164,-14.75637 2.74433,-15.81913 -11.41506,-14.8431 -36.20129,2.49539 -69.44022,3.65543 -112.432,3.92387 -79.38155,0.49565 -133.7084,0.0486 -134.86675,-1.10972 -1.02038,-1.02037 39.04124,-1.41162 161.36675,-1.57594 35.26891,-0.0474 49.26798,-0.39144 51.3151,-1.26122 1.55505,-0.66071 7.29141,-1.19608 12.81574,-1.19608 5.50035,0 10.80595,-0.43099 11.79021,-0.95775 0.98426,-0.52676 13.89218,-1.20694 28.68426,-1.5115 14.79208,-0.30457 30.94469,-0.66108 35.89469,-0.79226 l 9,-0.23849 -0.26574,33.5 c -0.33436,42.15061 -1.344,65.23375 -2.93695,67.14665 -0.78105,0.93794 -1.3887,7.38804 -1.73329,18.3988 -1.2644,40.4013 -1.4252,42.13357 -4.07221,43.86796 -2.31664,1.51792 -2.41742,2.10957 -3.03675,17.82831 -0.35233,8.94205 -0.73793,37.85828 -0.85689,64.25828 -0.15808,35.08217 -0.54444,48.77769 -1.43561,50.88975 -0.93839,2.22396 -1.18522,29.59448 -1.07129,118.79702 0.0814,63.749 -0.11475,116.17004 -0.43592,116.49121 -0.32117,0.32118 -3.76133,0.81129 -7.64479,1.08915 -3.88346,0.27786 -7.2781,0.85675 -7.54365,1.28641 -0.26555,0.42967 -5.5968,0.52935 -11.84723,0.22152 -8.06755,-0.39733 -12.34428,-0.18561 -14.74205,0.72978 -1.85769,0.70922 -10.57763,1.71111 -19.37763,2.22643 -23.15585,1.35599 -90.70255,1.96938 -92.45129,0.83954 z m 133.95129,-7.167 c 2.475,-0.555 7.425,-1.3229 11,-1.70645 l 6.5,-0.69736 0.20207,-25 c 0.11113,-13.75 0.20208,-65.84561 0.20211,-115.76801 3e-5,-49.92241 0.3591,-91.32241 0.79794,-92 0.43883,-0.6776 0.80116,-22.70027 0.80516,-48.93927 0.006,-36.67542 0.29465,-47.99465 1.25,-48.95 0.88923,-0.88923 1.24272,-5.90641 1.24272,-17.63835 0,-14.59273 0.21216,-16.69358 1.9294,-19.10522 1.48056,-2.07925 2.04961,-5.02307 2.44614,-12.65437 1.42042,-27.33634 2.72429,-44.24419 3.62569,-47.01578 0.54932,-1.68905 0.99877,-9.19999 0.99877,-16.69098 0,-8.0013 0.41253,-13.87495 1,-14.23802 2.10201,-1.29912 0.72973,-67.006 -1.41662,-67.82963 -0.60967,-0.23396 -3.35284,0.0442 -6.09594,0.61808 -2.74309,0.5739 -12.18744,1.08127 -20.98744,1.1275 l -16,0.0841 -0.0666,4.5 c -0.0367,2.475 -0.62337,7.94402 -1.30379,12.15338 -1.08334,6.70191 -1.03268,8.13159 0.40748,11.5 1.4082,3.29363 1.54612,6.21866 0.95943,20.34662 -0.37686,9.075 -1.05866,16.95504 -1.51511,17.51121 -0.45644,0.55617 -1.09636,7.98117 -1.42203,16.5 -0.32568,8.51884 -1.05147,23.36379 -1.61287,32.98879 -0.5614,9.625 -1.12874,22.77722 -1.26075,29.22716 -0.15585,7.61444 -0.66888,12.15601 -1.46287,12.95 -0.86562,0.86557 -1.22289,6.0728 -1.22289,17.82284 0,9.52291 -0.41838,17.01838 -0.98134,17.58134 -1.19123,1.19123 -1.8578,58.68691 -2.52352,217.66866 l -0.48887,116.75 10.24686,-0.0435 c 5.63578,-0.024 12.27187,-0.49764 14.74687,-1.05264 z m -8,-29.36863 c 0,-0.80565 -0.9,-1.94648 -2,-2.53518 -1.45113,-0.77662 -1.99835,-2.08985 -1.99397,-4.78518 l 0.006,-3.71482 8.24397,0 c 6.66131,0 8.24397,0.28797 8.24397,1.5 0,1.10201 -1.59195,1.65439 -6,2.08189 l -6,0.58189 6.32332,0.16811 c 5.43305,0.14444 6.2766,0.4145 5.99145,1.91811 -0.19599,1.03347 -1.41002,1.87528 -2.96506,2.05598 -2.05491,0.23878 -2.52155,0.73291 -2.12482,2.25 0.44272,1.69287 -0.0234,1.94402 -3.60823,1.94402 -2.94861,0 -4.11663,-0.41561 -4.11663,-1.46482 z m -3,-13.98949 c 0,-1.24878 1.36065,-1.54569 7.08333,-1.54569 5.22029,0 6.9747,0.32877 6.67031,1.25 -0.26151,0.79141 -2.86016,1.35848 -7.08334,1.54569 -5.47765,0.24282 -6.6703,0.0193 -6.6703,-1.25 z m 2.4309,-13.65749 c -0.37792,-0.6115 -0.0905,-1.48058 0.63883,-1.9313 0.98489,-0.60869 0.65621,-1.12465 -1.27779,-2.00584 -1.54807,-0.70534 -2.80735,-2.25133 -3.10588,-3.81301 -0.63359,-3.31438 -0.12012,-4.13039 2.62296,-4.16846 1.96902,-0.0273 2.01369,-0.13367 0.44098,-1.04969 -0.9625,-0.5606 -1.75,-1.66766 -1.75,-2.46013 0,-1.15993 1.30064,-1.34438 6.67094,-0.94604 3.66902,0.27215 6.88314,0.70702 7.1425,0.96638 0.25936,0.25936 -0.11657,1.18021 -0.83539,2.04634 -1.10951,1.33687 -0.99828,1.6555 0.73621,2.10908 2.95215,0.772 2.58776,6.33868 -0.48944,7.47701 -1.29992,0.48087 -2.22482,1.66784 -2.22482,2.85524 0,1.69919 -0.64584,2.03222 -3.94098,2.03222 -2.16754,0 -4.2502,-0.50031 -4.62812,-1.1118 z m -1.6809,-27.57694 c -3.39096,-0.88728 -1.69667,-2.31126 2.75,-2.31126 4.79607,0 6.38691,-1.92176 1.75,-2.11402 -4.63778,-0.19229 -8.45362,-0.75626 -9.03231,-1.33496 -1.33791,-1.33791 1.53663,-2.07569 9.36507,-2.40364 7.16118,-0.29999 8.41724,-0.11631 8.41724,1.23095 0,0.87096 -1.11164,1.86257 -2.47032,2.20358 -1.72226,0.43226 -2.40361,1.23126 -2.25,2.63853 0.17904,1.64036 -0.43537,2.06818 -3.27968,2.28362 -1.925,0.14581 -4.2875,0.0591 -5.25,-0.1928 z m -2.55763,-9.99884 c -1.2692,-0.25665 -2.13124,-0.99443 -1.91565,-1.63952 0.2673,-0.79983 3.04276,-1.09294 8.72569,-0.92151 7.68375,0.23179 9.99016,0.65235 8.91426,1.62547 -0.73844,0.66789 -13.34012,1.41766 -15.7243,0.93556 z m 0.80763,-5.81242 c 0,-1.16667 1.33333,-1.5 6,-1.5 4.66667,0 6,0.33333 6,1.5 0,1.16667 -1.33333,1.5 -6,1.5 -4.66667,0 -6,-0.33333 -6,-1.5 z m 1,-14 c -0.68469,-0.825 -0.90969,-1.5 -0.5,-1.5 0.40969,0 0.17566,-0.68587 -0.52006,-1.52417 -1.75345,-2.11278 -0.67705,-2.83215 5.33142,-3.56306 l 5.18864,-0.63117 -4.62756,-0.1408 c -2.60363,-0.0792 -5.13892,-0.75696 -5.79677,-1.54962 -0.98056,-1.1815 -0.1532,-1.46515 5.12756,-1.7579 7.29632,-0.40448 11.79677,0.0521 11.79677,1.19689 0,0.44174 -1.2375,1.25514 -2.75,1.80755 -2.42128,0.88433 -2.4881,1.01382 -0.55902,1.08333 3.38051,0.12181 3.66717,1.82194 0.58869,3.49143 -1.96916,1.0679 -2.2694,1.51912 -1.02967,1.54748 0.9625,0.022 1.75,0.43756 1.75,0.92341 0,2.37385 -12.09936,2.90676 -14,0.61663 z m 2.66667,-13.16667 c -1.58896,-1.58895 -0.36606,-2.33333 3.83333,-2.33333 3.33333,0 4.5,0.38889 4.5,1.5 0,1.07246 -1.09259,1.5 -3.83333,1.5 -2.10834,0 -4.13334,-0.3 -4.5,-0.66667 z m -3.57335,-16.49549 c -0.60629,-1.73918 -0.86614,-3.39835 -0.57745,-3.68704 0.28868,-0.28869 4.34071,-0.66515 9.00451,-0.8366 6.85736,-0.25207 8.47962,-0.0363 8.47962,1.12803 0,0.79185 -0.45,1.71785 -1,2.05777 -0.55,0.33992 -1,1.49148 -1,2.55902 0,1.73383 -0.73662,1.94098 -6.90217,1.94098 -6.84868,0 -6.91072,-0.0245 -8.00451,-3.16216 z m -0.79186,-7.15437 c -0.84334,-1.37247 0.0694,-1.63156 7.26368,-2.06194 7.01337,-0.41956 12.4839,0.58193 9.43486,1.72724 -2.49346,0.93662 -16.16035,1.21055 -16.69854,0.3347 z m 3.69854,-5.68347 c 0,-0.55 2.025,-1 4.5,-1 2.475,0 4.5,0.45 4.5,1 0,0.55 -2.025,1 -4.5,1 -2.475,0 -4.5,-0.45 -4.5,-1 z m 2.75,-7.79847 c -4.46015,-0.54231 -3.14123,-2.20153 1.75,-2.20153 2.475,0 4.5,0.39752 4.5,0.88337 0,1.15024 -2.79059,1.73879 -6.25,1.31816 z m -5.51862,-4.95774 c -3.27566,-1.09188 -0.54155,-2.25425 5.51862,-2.34615 5.98179,-0.0907 6.35167,-0.20277 3.25,-0.98464 -1.925,-0.48525 -4.58231,-0.63809 -5.90514,-0.33965 -3.11392,0.70254 -4.12292,-1.03875 -2.73405,-4.71829 1.08745,-2.88099 1.22966,-2.93033 7.62366,-2.64541 5.89178,0.26255 6.54612,0.50575 6.83508,2.54035 0.17575,1.2375 0.70816,2.25 1.18312,2.25 0.95628,0 1.04807,5.91915 0.0951,6.13611 -1.64502,0.37455 -14.79805,0.46381 -15.86644,0.10768 z m 7.49779,-7.84796 c -0.33229,-0.33229 -1.1948,-0.36781 -1.91667,-0.0789 -0.79773,0.31922 -0.56078,0.55618 0.60417,0.60416 1.05416,0.0434 1.64479,-0.19293 1.3125,-0.52522 z m -4.72917,-16.39583 c 0,-1.7037 0.66667,-2 4.5,-2 3.83333,0 4.5,0.2963 4.5,2 0,1.7037 -0.66667,2 -4.5,2 -3.83333,0 -4.5,-0.2963 -4.5,-2 z m 2.18315,-3.79945 c -8.51657,-0.40373 -7.88724,-2.58836 0.86537,-3.00396 6.85904,-0.32568 10.95148,0.31293 10.95148,1.70896 0,1.18482 -4.26994,1.65276 -11.81685,1.295 z m -4.44539,-4.87191 c -4.01468,-1.09353 -0.0873,-2.32864 7.40459,-2.32864 5.97307,0 7.91873,0.31954 7.61129,1.25 -0.41833,1.26604 -11.42514,2.0567 -15.01588,1.07864 z m 0.26224,-5.82864 c 0,-1.19048 1.44444,-1.5 7,-1.5 5.55556,0 7,0.30952 7,1.5 0,1.19048 -1.44444,1.5 -7,1.5 -5.55556,0 -7,-0.30952 -7,-1.5 z m 2,-14.0575 c 0,-1.21026 0.93018,-1.48894 4.17228,-1.25 5.9664,0.43973 6.31307,2.8075 0.41105,2.8075 -3.4826,0 -4.58333,-0.37405 -4.58333,-1.5575 z m -1.75,-3.15864 c -4.94324,-0.92925 -1.78161,-2.15453 6.34861,-2.46039 8.05947,-0.30319 11.16695,0.46732 8.50922,2.10989 -1.26526,0.78197 -11.30294,1.01877 -14.85783,0.3505 z m -2.44744,-4.81464 c -0.29193,-0.29192 0.16048,-2.05586 1.00535,-3.91985 1.4634,-3.22863 1.81681,-3.4047 7.46528,-3.71922 6.21075,-0.34583 8.41488,0.24751 7.34573,1.97743 -0.35051,0.56715 0.0418,1.71032 0.87189,2.54037 3.00069,3.00069 1.69439,3.65205 -7.32414,3.65205 -4.85834,0 -9.07219,-0.23885 -9.36411,-0.53078 z m 4.9352,-19.1609 c -3.83193,-0.99956 -0.24793,-2.30832 6.32126,-2.30832 6.5518,0 8.88284,1.04086 5.35919,2.39301 -1.76433,0.67704 -8.96029,0.62486 -11.68045,-0.0847 z m -2.31673,-4.22499 c -1.15738,-1.14539 -0.13419,-2.09039 2.32897,-2.15101 l 2.75,-0.0677 -2.5,-1.12883 c -1.375,-0.62086 -2.71197,-1.28987 -2.97104,-1.48669 -0.89598,-0.6807 2.4806,-2.21867 4.97104,-2.26422 2.18236,-0.0399 2.27765,-0.17522 0.75,-1.065 -3.12064,-1.81761 -1.86227,-2.9199 3.33333,-2.9199 5.39102,0 6.55355,1.90448 1.84253,3.01846 -2.13716,0.50535 -2.20786,0.6574 -0.59407,1.27758 1.00748,0.38718 3.18248,0.70396 4.83333,0.70396 1.95913,0 2.85532,0.43412 2.5805,1.25 -0.23157,0.6875 -1.37009,1.26352 -2.53003,1.28004 -1.15995,0.0165 -2.43298,0.35402 -2.82896,0.75 -0.39598,0.39598 0.48004,0.71996 1.9467,0.71996 1.46667,0 2.66706,0.5625 2.66753,1.25 6.1e-4,0.89693 -2.28132,1.25 -8.07898,1.25 -4.44391,0 -8.26929,-0.1875 -8.50085,-0.41667 z m 4.82897,-19.33333 c 0.23671,-0.71014 2.07222,-1.25 4.25,-1.25 2.17778,0 4.01329,0.53986 4.25,1.25 0.29365,0.88095 -0.96111,1.25 -4.25,1.25 -3.28889,0 -4.54365,-0.36905 -4.25,-1.25 z m -5.25,-4.25 c 0,-1.22222 1.66667,-1.5 9,-1.5 7.33333,0 9,0.27778 9,1.5 0,1.22222 -1.66667,1.5 -9,1.5 -7.33333,0 -9,-0.27778 -9,-1.5 z m 0,-5 c 0,-1.22222 1.66667,-1.5 9,-1.5 7.33333,0 9,0.27778 9,1.5 0,1.22222 -1.66667,1.5 -9,1.5 -7.33333,0 -9,-0.27778 -9,-1.5 z m 3.62572,-3.93254 -2.87428,-1.2692 2.37428,-0.63547 c 3.5533,-0.95105 10.17168,-0.76309 11.87428,0.33721 1.54669,0.99955 1.25389,1.15034 -3,1.54497 -1.375,0.12756 -3.175,0.47037 -4,0.7618 -0.825,0.29144 -2.79343,-0.0413 -4.37428,-0.73931 z m 1.76376,-13.72765 c -0.46176,-0.7369 -0.71001,-2.12731 -0.55166,-3.08981 0.20872,-1.26871 -0.38573,-1.75 -2.16146,-1.75 -1.98024,0 -2.53745,-0.60021 -2.9093,-3.13378 -0.3556,-2.42284 -0.0481,-3.24147 1.35548,-3.60852 1.1147,-0.2915 1.7309,-1.26338 1.59644,-2.51794 -0.2782,-2.59578 4.08969,-3.96477 9.18013,-2.87725 2.69247,0.57522 3.52142,1.21741 3.28588,2.54561 -0.17326,0.97697 0.46026,2.34321 1.40781,3.03608 1.56627,1.14528 1.48129,1.32039 -0.93498,1.92683 -3.08549,0.77441 -3.57612,2.32499 -0.69876,2.20837 4.14874,-0.16815 2.30228,1.93721 -1.95906,2.23373 -5.2982,0.36868 -8.00779,2.18687 -3.25902,2.18687 1.72754,0 3.4376,0.47994 3.80014,1.06653 0.88313,1.42894 0.56009,1.64281 -3.6766,2.43409 -2.55953,0.47804 -3.88395,0.28247 -4.47504,-0.66081 z m 1.11052,-8.83981 c -0.33992,-0.55 -1.26648,-1 -2.05902,-1 -0.79254,0 -1.44098,0.45 -1.44098,1 0,0.55 0.92656,1 2.05902,1 1.13246,0 1.7809,-0.45 1.44098,-1 z m 0.0789,-19.87238 c -0.59995,-0.97075 6.2458,-2.35401 7.57733,-1.53108 0.46409,0.28682 0.8438,0.94494 0.8438,1.46248 0,1.18563 -7.69204,1.24829 -8.42113,0.0686 z m -3.52824,-3.94408 c -0.57785,-0.19261 -1.05169,-1.10021 -1.05298,-2.01687 -0.002,-1.44447 1.09784,-1.62805 8.25,-1.37696 9.15183,0.32128 11.55836,0.82891 10.16957,2.14516 -0.91736,0.86944 -15.38383,1.90959 -17.36659,1.24867 z m -0.80181,-6.43354 c 0.2881,-0.86673 2.9701,-1.25 8.74709,-1.25 5.77483,0 8.46034,0.38359 8.75115,1.25 0.31539,0.93961 -1.85665,1.25 -8.74709,1.25 -6.88827,0 -9.06339,-0.31069 -8.75115,-1.25 z m 2.21557,-3.80757 c -0.62101,-1.00481 10.00868,-2.38611 11.45993,-1.48918 0.59161,0.36563 1.07565,1.09044 1.07565,1.61068 0,1.13362 -11.83074,1.01895 -12.53558,-0.1215 z m 6.21092,-14.60042 c -0.36189,-0.3619 -0.20539,-1.20334 0.34779,-1.86988 0.74939,-0.90296 -0.0176,-1.37553 -3.00868,-1.85383 -2.20795,-0.35306 -4.01445,-1.08662 -4.01445,-1.63012 0,-0.5435 0.5051,-0.98818 1.12244,-0.98818 0.80301,0 0.78667,-0.40459 -0.0574,-1.42164 -0.81117,-0.9774 -0.87224,-1.99297 -0.19544,-3.25 0.54143,-1.0056 1.22814,-2.61586 1.52603,-3.57836 0.44343,-1.43276 1.72562,-1.75 7.073,-1.75 5.89835,0 6.53138,0.19688 6.53138,2.03138 0,1.11727 0.675,2.29041 1.5,2.60699 2.43257,0.93347 1.75288,3.36163 -0.94098,3.36163 -1.34254,0 -2.7191,0.45 -3.05902,1 -0.36058,0.58342 0.65628,1 2.44098,1 3.9595,0 3.96245,1.86931 0.004,2.66096 -1.92013,0.38403 -2.87219,1.08689 -2.56315,1.89224 0.75016,1.95487 -5.00549,3.49002 -6.7067,1.78881 z m 0.89469,-28.2287 c -0.30141,-0.48768 0.19517,-1.50018 1.1035,-2.25 1.47518,-1.21775 1.29564,-1.41669 -1.68152,-1.86331 -3.68768,-0.5532 -5.12048,-2.58868 -2.29735,-3.2637 1.5411,-0.36848 1.45099,-0.57622 -0.61563,-1.4193 -4.03609,-1.64653 -0.46697,-2.75467 7.87202,-2.44411 8.57814,0.31946 10.10234,0.88368 7.50931,2.77975 -1.72953,1.26467 -1.73372,1.34736 -0.0682,1.34736 0.97596,0 1.58697,0.5625 1.3578,1.25 -0.41507,1.2452 -0.84217,1.38764 -4.87244,1.625 -1.74087,0.10253 -1.90517,0.3868 -0.91391,1.5812 0.66469,0.8009 0.91823,1.9259 0.56342,2.5 -0.78451,1.26936 -7.19145,1.39586 -7.95704,0.15711 z m -2.01526,-14.02469 c -0.3098,-0.50127 1.22887,-1.21417 3.41925,-1.58423 4.40101,-0.74355 10.02598,0.14013 10.02598,1.57507 0,1.1962 -12.70625,1.20486 -13.44523,0.009 z m 3.8272,-14.2796 c -0.40484,-0.65504 -0.2064,-1.36754 0.44098,-1.58334 2.12866,-0.70955 1.22949,-2.0868 -1.57295,-2.40926 -5.1181,-0.5889 -2.78915,-2.31456 3.52906,-2.61489 7.94767,-0.37779 7.25341,-2.20153 -0.83808,-2.20153 -4.76932,0 -5.94098,-0.31429 -5.94098,-1.59362 0,-0.87649 0.90948,-1.83145 2.02108,-2.12214 1.58798,-0.41527 1.77603,-0.82378 0.87755,-1.90638 -0.9537,-1.14914 0.072,-1.37786 6.17893,-1.37786 5.69523,0 7.05577,0.26667 6.12244,1.2 -1.73709,1.73709 -1.49046,2.48632 1.05,3.18971 l 2.25,0.62297 -2.5,1.97142 -2.5,1.97143 2.25,0.0222 c 1.32345,0.0131 2.25,0.63994 2.25,1.52224 0,1.11111 -1.16667,1.5 -4.5,1.5 -2.475,0 -4.5,0.45 -4.5,1 0,0.55 1.2375,1.01431 2.75,1.0318 2.63406,0.0305 2.66816,0.0937 0.80887,1.5 -2.33734,1.76788 -7.15469,1.9312 -8.1769,0.27722 z m 3.15191,-27.75419 c -1.1847,-1.91689 0.52825,-3.05483 4.59846,-3.05483 3.28282,0 3.95388,0.31888 3.68267,1.75 -0.37952,2.00262 -7.18695,3.07525 -8.28113,1.30483 z m -4.51228,-6.58086 c 1.93748,-2.33451 16.9784,-1.80881 16.9784,0.59342 0,0.51293 -4.1051,0.93261 -9.12244,0.93261 -8.06462,0 -8.97559,-0.17696 -7.85596,-1.52603 z m 0.71616,-3.14262 c -2.71994,-0.74505 -0.99804,-2.32758 2.57126,-2.36315 3.0118,-0.03 3.08277,-0.11367 1.26398,-1.48967 -2.62973,-1.98952 -1.4986,-2.75076 3.9256,-2.64188 5.42159,0.10882 7.77407,1.17114 4.93502,2.22852 -2.0756,0.77304 -2.07252,0.77539 3.20951,2.45837 0.90372,0.28794 1.46062,0.70604 1.23756,0.9291 -0.65831,0.65832 -15.22224,1.40483 -17.14293,0.87871 z m 3.26224,-19.8123 c 0,-1.81236 -0.67373,-2.65004 -2.5,-3.10841 -2.05192,-0.515 -2.5,-1.23534 -2.5,-4.01905 0,-3.34446 0.85924,-3.97148 4.75,-3.46624 0.6875,0.0893 1.25,-0.30741 1.25,-0.88152 0,-0.57411 -0.92656,-1.04383 -2.05902,-1.04383 -3.65013,0 -1.10836,-1.74782 3.55981,-2.44785 5.34063,-0.80088 8.86183,0.0605 8.12256,1.987 -0.2887,0.75234 0.28289,1.6137 1.28107,1.93051 1.33984,0.42525 1.77582,1.52901 1.69897,4.30119 -0.10005,3.60861 -0.22189,3.72915 -3.76954,3.72915 -2.01638,0 -4.00388,0.3375 -4.41666,0.75 -0.41279,0.4125 -5.2e-4,0.75 0.91614,0.75 2.4853,0 2.01377,1.52082 -0.88038,2.83948 -3.95824,1.80349 -5.45295,1.44155 -5.45295,-1.32043 z m 2.5154,-26.89713 c -0.28347,-0.89206 -0.72628,-2.29692 -0.98402,-3.12192 -0.25773,-0.825 -1.38273,-1.5 -2.5,-1.5 -2.49353,0 -2.58615,-0.85839 -0.28138,-2.60796 1.65727,-1.25804 1.65285,-1.33012 -0.0833,-1.36024 -2.55722,-0.0444 -1.50857,-2.45873 1.24308,-2.86202 2.0769,-0.3044 2.11748,-0.42939 0.5189,-1.5983 -3.08277,-2.25415 -0.63718,-3.57148 6.63034,-3.57148 6.67322,0 6.94098,0.0932 6.94098,2.41666 0,1.32917 0.52967,2.59323 1.17705,2.80902 0.64738,0.21579 0.84582,0.92829 0.44098,1.58333 -0.44028,0.7124 -3.6257,1.26338 -7.92705,1.37114 l -7.19098,0.18016 7.42135,0.56984 c 4.6131,0.35422 7.57724,1.04285 7.83333,1.81985 0.2845,0.86318 -0.85162,1.25 -3.67135,1.25 -4.26606,0 -5.52945,1.38856 -2.08333,2.28975 2.25294,0.58915 2.74208,2.71025 0.625,2.71025 -0.75625,0 -2.77432,0.27986 -4.4846,0.62192 -2.35869,0.47174 -3.23406,0.23026 -3.625,-1 z m -400.8464,492.12808 c 2.0216,-2.76518 3.456,-9.08359 3.456,-15.22345 0,-3.56717 0.4219,-6.7465 0.9375,-7.06518 0.5156,-0.31867 0.9518,-3.14035 0.9693,-6.27039 0.019,-3.45241 0.6188,-6.46755 1.5242,-7.6652 1.3003,-1.72011 1.4802,-14.12565 1.3975,-96.37926 -0.066,-65.88088 0.2285,-94.72856 0.9758,-95.47578 0.731,-0.73099 1.0707,-16.17419 1.0707,-48.67074 0,-28.27103 0.3806,-47.98577 0.9374,-48.55 0.5155,-0.5225 1.078,-8.67751 1.25,-18.12225 0.3007,-16.51655 0.4038,-17.26922 2.7009,-19.71163 2.2555,-2.39828 2.3608,-3.0629 1.8954,-11.96188 -0.312,-5.96422 -0.087,-10.10733 0.6117,-11.28838 1.0208,-1.72426 1.7878,-14.13073 3.1734,-51.32817 0.3142,-8.43398 1.0075,-15.02717 1.6634,-15.81744 1.0841,-1.30634 1.223,-33.09841 0.1492,-34.17218 -0.2494,-0.24937 -3.2497,0.35382 -6.6674,1.3404 -3.4177,0.98659 -8.689,2.1545 -11.714,2.59536 -3.025,0.44085 -7.75,1.59013 -10.5,2.55396 -2.75,0.96382 -7.25,1.79961 -10,1.8573 l -5,0.10491 -0.061,12.26096 c -0.04,8.0648 -0.4679,12.6679 -1.25,13.45 -0.8062,0.80628 -1.189,5.72793 -1.189,15.28904 0,9.94346 -0.3685,14.47026 -1.25,15.35601 -0.9138,0.91818 -1.1882,5.44806 -1.0202,16.84153 0.186,12.61928 -0.077,16.23278 -1.3841,18.98642 -1.2803,2.69792 -1.4766,5.09745 -0.95,11.60847 0.491,6.07161 0.2682,9.50879 -0.8564,13.20757 -1.1977,3.93959 -1.3857,7.86795 -0.8865,18.52282 0.5366,11.45378 0.3815,14.01018 -1.0137,16.70815 -1.4656,2.83414 -1.6397,8.48999 -1.579,51.29742 0.049,34.30412 -0.2552,48.50171 -1.0585,49.46972 -0.8219,0.99032 -1.0609,26.79089 -0.8833,95.35936 0.1955,75.47926 -0.01,94.30744 -1.0442,95.55325 -1.3142,1.5835 -2.4511,7.80061 -4.051,22.15287 -0.4943,4.43498 -1.0393,8.65656 -1.211,9.3813 -0.8336,3.51906 38.395,7.17252 40.8569,3.80511 z m -20.669,-15.60952 c -2.5452,-0.46576 -3.5013,-1.15905 -3.5049,-2.5414 0,-1.04551 -0.9026,-2.23471 -2,-2.64267 -3.1096,-1.15607 -0.2119,-1.83428 9.2572,-2.1667 5.6537,-0.19848 8.2517,0.0672 8.25,0.84366 0,1.40883 -3.141,2.28588 -9.0023,2.51597 l -4.5,0.17665 5.5,0.58701 c 3.9613,0.42278 5.5,1.00664 5.5,2.087 0,1.69282 -3.914,2.1627 -9.5,1.14048 z m -5.7526,-10.39048 c 0.2784,-0.8407 3.2527,-1.34461 9.0833,-1.53893 7.262,-0.24203 8.6693,-0.0391 8.6693,1.25 0,1.27229 -1.5738,1.53893 -9.0833,1.53893 -6.8209,0 -8.9802,-0.31136 -8.6693,-1.25 z m 3.9974,-5 c 0.23,-0.69862 2.4723,-1.38444 5.0834,-1.55479 3.6899,-0.24073 4.6718,0.022 4.6718,1.25 0,1.20248 -1.1519,1.55479 -5.0833,1.55479 -3.6195,0 -4.9649,-0.35997 -4.6719,-1.25 z m 4.7552,-20.25 c 0,-1.808 -0.5373,-2.5 -1.941,-2.5 -1.0675,0 -2.2191,-0.45 -2.559,-1 -0.6527,-1.05609 0.264,-1.22663 7.5,-1.39518 6.5678,-0.15299 5.9955,-1.87082 -0.6654,-1.99732 -3.5549,-0.0675 -5.817,-0.5725 -6.081,-1.3575 -0.3157,-0.9391 1.8389,-1.25 8.6631,-1.25 8.5531,0 11.3049,0.92479 7.3333,2.46443 -1.6667,0.64611 -1.6667,0.73978 0,1.96723 2.4065,1.77235 2.1924,2.56834 -0.691,2.56834 -2.6733,0 -4.1964,1.48801 -2.559,2.5 2.0463,1.26468 -0.2064,2.5 -4.559,2.5 -4.0704,0 -4.441,-0.20863 -4.441,-2.5 z m -0.8851,-11.89292 c -3.1348,-1.73762 -1.8542,-2.38151 5.4051,-2.71777 4.5886,-0.21256 5.98,0.0485 5.98,1.12175 0,2.64612 -7.5749,3.708 -11.3851,1.59602 z m -1.7098,-15.35708 c 0.4061,-0.4125 2.1686,-1.27826 3.9167,-1.92392 3.0795,-1.13745 2.9996,-1.17629 -2.5718,-1.25 -4.2655,-0.0564 -5.75,-0.44278 -5.75,-1.49649 0,-1.01442 1.9293,-1.6302 6.75,-2.15442 7.4559,-0.81077 7.3695,-0.97671 -1,-1.92061 -8.5879,-0.96852 -6.9375,-2.50456 2.691,-2.50456 8.2747,0 11.4211,1.1673 8.4371,3.1301 -1.1302,0.74343 -1.0595,1.09413 0.3929,1.94966 2.3986,1.41281 1.2442,2.92024 -2.2364,2.92024 -2.355,0 -2.7569,0.34581 -2.3243,2 0.4691,1.79415 0.031,2 -4.2603,2 -2.6308,0 -4.451,-0.3375 -4.0449,-0.75 z m -2.0276,-14.44829 c -0.8285,-1.34045 2.0293,-1.93421 7.7417,-1.60851 3.1637,0.18039 5.1748,0.71884 4.8808,1.3068 -0.5992,1.19836 -11.9014,1.46852 -12.6225,0.30171 z m 2.8308,-13.45561 c -0.9581,-0.40093 -1.006,-0.88498 -0.1855,-1.87361 0.8492,-1.02318 0.5684,-1.62607 -1.2082,-2.59385 l -2.3146,-1.26083 3,-0.57587 c 4.2726,-0.82016 16.5,-0.047 16.5,1.04339 0,0.50307 -1.0882,0.91467 -2.4182,0.91467 -1.33,0 -3.2425,0.31678 -4.25,0.70396 -1.6391,0.62989 -1.5889,0.76141 0.4772,1.25 4.1052,0.97079 2.3586,2.54072 -3.0475,2.73939 -2.8938,0.10634 -5.8428,-0.0499 -6.5532,-0.34725 z m -1.6841,-9.307 c -1.2957,-2.09645 0.4629,-2.53218 8.9355,-2.21397 6.0678,0.22788 8.5406,0.67651 8.2681,1.5 -0.5033,1.52089 -16.2998,2.17646 -17.2036,0.71397 z m 3.6269,-4.92456 c -0.9504,-0.60225 -0.3252,-1.0469 2.1157,-1.50482 3.7872,-0.71048 7.0437,0.0788 6.1684,1.49506 -0.7012,1.13458 -6.4984,1.1414 -8.2841,0.01 z m -2.7555,-14.86454 c -0.2979,-0.9625 -0.9376,-2.49748 -1.4215,-3.41107 -1.2159,-2.29516 0.6452,-2.83893 9.7161,-2.83893 l 7.5266,0 -0.6888,2.74441 c -1.1311,4.50656 -2.3684,5.25559 -8.6818,5.25559 -4.7546,0 -6.0148,-0.34188 -6.4506,-1.75 z m -1.3956,-9.70724 c 0,-1.14951 1.531,-1.44072 7.25,-1.37902 8.1627,0.0881 10.75,0.54623 10.75,1.90365 0,0.51293 -4.05,0.93261 -9,0.93261 -7.216,0 -9,-0.28886 -9,-1.45724 z m 4.6667,-3.20943 c -1.54,-1.53994 -0.4266,-2.33333 3.2743,-2.33333 4.1521,0 6.1397,1.37133 3.4715,2.39522 -2.0972,0.80475 -5.9142,0.76974 -6.7458,-0.0619 z m -1.1667,-10.33333 c 0.3399,-0.55 2.3649,-1 4.5,-1 2.1351,0 4.1601,0.45 4.5,1 0.3813,0.61691 -1.3426,1 -4.5,1 -3.1574,0 -4.8813,-0.38309 -4.5,-1 z m -2.472,-3.93973 c -1.2823,-0.82994 -1.2702,-1.03008 0.094,-1.55344 2.4875,-0.95453 16.3784,-0.11219 16.3784,0.99317 0,1.3068 -14.5537,1.80182 -16.472,0.56027 z m -0.7836,-5.31027 c 0.4894,-1.4882 7.5601,-2.14869 13.5056,-1.26158 7.3503,1.09671 4.6275,2.51158 -4.8333,2.51158 -6.8193,0 -8.9809,-0.31157 -8.6723,-1.25 z m 2.4934,-3.44168 c -0.9693,-0.25283 -1.5052,-0.87563 -1.191,-1.384 0.7306,-1.18211 12.155,-1.21581 12.8829,-0.038 1.043,1.68756 -6.9481,2.65945 -11.6919,1.422 z m 1.4471,-15.05832 c 0.3712,-1.95981 5.4132,-2.8592 7.6932,-1.37232 2.3097,1.50624 0.234,3.12232 -4.0104,3.12232 -3.2828,0 -3.9539,-0.31891 -3.6828,-1.75 z m 0.5651,-4.0499 c -9.4618,-0.4935 -6.553,-2.2001 3.75,-2.2001 5.225,0 9.5,0.40273 9.5,0.89496 0,1.12621 -5.7748,1.69502 -13.25,1.30514 z m -5.0561,-4.83958 c -1.6112,-1.61117 1.0443,-2.36052 8.3651,-2.36052 6.392,0 7.941,0.2926 7.941,1.5 0,1.20567 -1.537,1.5 -7.8333,1.5 -4.3084,0 -8.1211,-0.28777 -8.4728,-0.63948 z m 4.5561,-4.06437 c -5.8864,-0.76589 -3.3872,-2.29615 3.75,-2.29615 4,0 7,0.42857 7,1 0,0.55 -0.7875,1.00614 -1.75,1.01365 -0.9625,0.008 -2.65,0.16929 -3.75,0.35951 -1.1,0.19022 -3.4625,0.15557 -5.25,-0.077 z m -0.75,-15.29615 c -0.3842,-0.62171 1.3903,-0.97341 4.691,-0.92971 3.8889,0.0515 4.774,0.30016 3.309,0.92971 -2.7873,1.19774 -7.2598,1.19774 -8,0 z m -2.8333,-3.66667 c -1.7906,-1.79056 0.032,-2.33333 7.8333,-2.33333 8.5158,0 11.2373,1.20253 5.375,2.375 -4.1286,0.82572 -12.3669,0.79973 -13.2083,-0.0417 z m -0.464,-5.18691 c -1.0462,-0.66365 -1.0178,-1.05497 0.1467,-2.02146 0.7943,-0.65917 1.2131,-2.08195 0.9307,-3.16173 -0.4746,-1.81516 0.023,-1.96323 6.6033,-1.96323 6.3778,0 7.1166,0.2015 7.1166,1.94098 0,1.06754 0.45,2.2191 1,2.55902 0.55,0.33992 1,1.26648 1,2.05902 0,1.132 -1.6618,1.4377 -7.75,1.42567 -4.2625,-0.008 -8.3338,-0.38565 -9.0473,-0.83827 z m 3.4912,-18.7859 c -1.5327,-1.5327 0.8748,-2.36052 6.8651,-2.36052 6.1208,0 8.2994,1.0729 4.8592,2.39301 -2.0966,0.80454 -10.9117,0.78012 -11.7243,-0.0325 z m -1.1939,-5.36052 c 0.3399,-0.55 3.9399,-1 8,-1 4.0601,0 7.6601,0.45 8,1 0.3938,0.63712 -2.5093,1 -8,1 -5.4907,0 -8.3938,-0.36288 -8,-1 z m 3.75,-2.73724 c -3.7012,-0.25893 -5.25,-0.787 -5.25,-1.79002 0,-1.05299 0.7935,-1.26405 3.0531,-0.81212 2.8946,0.57892 3.0187,0.47379 2.3916,-2.025 -0.643,-2.56191 -0.5326,-2.63562 3.9469,-2.63562 3.4297,0 4.6084,0.38366 4.6084,1.5 0,0.825 -0.8734,1.5 -1.941,1.5 -1.0675,0 -2.2663,0.52647 -2.664,1.16994 -0.4872,0.78819 -0.1765,0.96021 0.9519,0.52719 0.9212,-0.35352 3.0869,-0.36036 4.8127,-0.0152 2.9108,0.58217 3.0047,0.72479 1.2979,1.97281 -1.0119,0.7399 -2.7663,1.26203 -3.8986,1.16029 -1.1324,-0.10174 -4.4214,-0.35026 -7.3089,-0.55227 z m 1.0562,-14.90632 c -0.6566,-0.26711 -0.9695,-1.0704 -0.6952,-1.78508 0.3211,-0.83668 -0.656,-1.53037 -2.7437,-1.9479 -2.2255,-0.44509 -2.9191,-0.97163 -2.2118,-1.67894 1.329,-1.32899 18.0349,-0.81645 17.3445,0.53214 -0.275,0.53716 -1.3904,1.11253 -2.4786,1.27861 -2.4889,0.37983 -4.5212,2.2384 -2.4714,2.26004 1.2332,0.013 1.2257,0.16026 -0.05,0.98469 -1.5724,1.01614 -4.6671,1.18094 -6.6938,0.35644 z m -4.5562,-8.16359 c -1.6948,-0.32878 -2.5161,-3.05887 -1,-3.32402 7.6697,-1.34134 19.7733,0.0751 17.6628,2.06707 -0.9494,0.89608 -13.6028,1.85058 -16.6628,1.25695 z m 0.7727,-6.15618 c -0.3572,-0.57794 -0.01,-1.29693 0.7759,-1.59776 2.3002,-0.88267 12.7024,-0.0312 12.9629,1.06109 0.3267,1.36985 -12.9045,1.88669 -13.7388,0.53667 z m 2.3621,-13.22917 c -0.063,-0.71913 -0.035,-2.095 0.063,-3.0575 0.1293,-1.27063 -0.5468,-1.75 -2.4682,-1.75 -1.6212,0 -2.4904,-0.46719 -2.2441,-1.20617 0.425,-1.2751 11.4907,-2.17789 15.5146,-1.26575 4.4571,1.01032 2.1215,2.47192 -3.95,2.47192 -6.2858,0 -7.2011,1.52994 -1.3,2.17305 1.8547,0.20213 3,0.8996 3,1.82695 0,1.98376 -8.4419,2.77501 -8.6152,0.8075 z m -4.6534,-10.01716 c 0.2337,-0.70969 2.1898,-1.55718 4.3468,-1.88331 l 3.9218,-0.59297 -3.2891,-0.78984 c -4.7586,-1.14274 -3.3875,-2.93913 2.7182,-3.5614 5.9246,-0.60382 9.9029,1.09429 7.0709,3.0182 -1.2559,0.85321 -1.1272,1.12111 0.7909,1.64633 4.902,1.34229 1.3982,2.8776 -7.2184,3.16299 -6.8087,0.22552 -8.6712,0.002 -8.3411,-1 z m 6.2642,-18.7974 c -0.3423,-0.55389 0.085,-1.27833 0.9485,-1.60988 2.1997,-0.84408 8.7373,0.5144 8.0247,1.66747 -0.7833,1.26738 -8.1836,1.21989 -8.9732,-0.0576 z m -1.0122,-4.00276 c -6.2277,-1.06423 -2.7824,-2.49018 6.0166,-2.49018 7.1549,0 9,0.29439 9,1.43594 0,1.0817 -1.4842,1.45174 -6.0166,1.5 -3.3091,0.0352 -7.3591,-0.16536 -9,-0.44576 z m -2.9127,-5.87583 c -0.3011,-0.48711 0.4599,-1.07815 1.691,-1.31342 3.5496,-0.67838 15.7383,0.34047 15.7383,1.31557 0,1.15539 -16.7152,1.15334 -17.4293,-0.002 z m 2.6731,-3.75278 c -2.8327,-1.20046 0.2723,-2.36157 6.3152,-2.36157 4.5256,0 6.441,0.37604 6.441,1.26454 0,1.30034 -10.2055,2.17801 -12.7562,1.09703 z m 4.6039,-15.11157 c -0.084,-0.4125 -0.1963,-1.425 -0.25,-2.25 -0.054,-0.825 -1.2227,-1.63149 -2.5977,-1.79219 -2.0186,-0.23593 -2.475,-0.81359 -2.37,-3 0.072,-1.4893 0.409,-3.49531 0.75,-4.45781 0.341,-0.9625 0.8309,-2.425 1.0886,-3.25 0.3533,-1.13072 2.015,-1.48958 6.75,-1.45767 6.0974,0.0411 6.3485,0.14737 8.5702,3.62783 1.2589,1.97202 2.0972,3.77714 1.863,4.01136 -0.2342,0.23422 -3.5747,0.45548 -7.4232,0.49169 -3.8486,0.0362 -7.6119,0.45517 -8.363,0.931 -1.6399,1.03892 -1.2456,1.08732 7.372,0.90497 7.1767,-0.15186 9.962,0.61601 7.6192,2.10051 -0.7463,0.47283 -2.7068,0.9021 -4.3568,0.95394 -1.65,0.0519 -2.4375,0.32124 -1.75,0.59865 0.6875,0.27741 1.25,1.14189 1.25,1.92105 0,0.98611 -1.2157,1.41667 -4,1.41667 -2.2,0 -4.0685,-0.3375 -4.1523,-0.75 z m 2.1523,-28.66667 c 0,-0.77916 0.5625,-1.62677 1.25,-1.88357 1.4039,-0.52439 0.1553,-1.11433 -4.5409,-2.14555 -3.1548,-0.69275 -2.737,-2.51881 0.5999,-2.62189 l 2.191,-0.0677 -2.25,-1.08513 c -2.5589,-1.23412 -2.9825,-2.77951 -0.7618,-2.77951 0.9473,0 1.4016,-0.81788 1.25,-2.25 -0.2249,-2.12432 0.1202,-2.25 6.1785,-2.25 4.2444,0 6.5577,0.42316 6.8333,1.25 0.2965,0.88943 -1.0326,1.25 -4.6077,1.25 -2.7633,0 -5.3024,0.45 -5.6423,1 -0.39,0.63101 2.0174,1 6.5243,1 8.6944,0 9.327,2.17451 0.8981,3.087 l -5.4224,0.58701 5.75,0.16299 c 4.2494,0.12046 5.75,0.53702 5.75,1.59612 0,0.9495 -1.0281,1.40388 -3.0465,1.34649 -1.6756,-0.0476 -3.5656,0.43246 -4.2,1.06689 -0.8713,0.87133 -0.86,1.1535 0.047,1.1535 0.66,0 1.2,0.675 1.2,1.5 0,1.08333 -1.1111,1.5 -4,1.5 -2.7843,0 -4,-0.43056 -4,-1.41667 z m 2.8517,-27.67496 c -1.0091,-0.62371 -0.9359,-0.93882 0.3311,-1.42503 2.3367,-0.89668 8.3172,-0.16564 8.3172,1.01666 0,1.21 -6.8294,1.53248 -8.6483,0.40837 z m 0.3315,-3.66544 c -6.6997,-0.36255 -8.1909,-2.24618 -2.6007,-3.28518 l 2.9175,-0.54226 -3.25,-0.68274 c -3.2708,-0.68711 -4.6986,-3.73275 -1.75,-3.73275 0.8333,0 1.5,-0.88889 1.5,-2 0,-1.80952 0.6667,-2 7,-2 6.4528,0 8.8077,0.98974 5.75,2.41667 -0.7513,0.35061 -0.851,0.78929 -0.25,1.09959 3.0973,1.599 3.9841,2.64239 2.6889,3.16358 -1.0293,0.41416 -0.9598,0.91578 0.323,2.3333 1.5271,1.68744 1.482,1.84961 -0.6889,2.47564 -3.602,1.03875 -4.8666,1.12068 -11.6398,0.75415 z m 4.3438,-9.19926 c -0.3251,-0.52598 -1.2516,-0.70283 -2.059,-0.39301 -2.0671,0.79323 -1.8235,1.34934 0.591,1.34934 1.1325,0 1.7931,-0.43035 1.468,-0.95633 z m -2.8323,-14.74365 c -3.0141,-0.78132 -1.28,-2.77986 2.7024,-3.11455 4.176,-0.35096 7.6331,1.54454 5.4002,2.96095 -1.3683,0.86798 -5.0756,0.93826 -8.1026,0.1536 z m -4.1368,-5.20629 c -1.2938,-2.09343 0.3001,-2.59373 8.2633,-2.59373 7.0787,0 10.3854,0.68645 9.0955,1.88816 -1.1571,1.07793 -16.7373,1.71121 -17.3588,0.70557 z m -0.5579,-5.5548 c 0,-1.27229 1.5738,-1.53893 9.0833,-1.53893 6.8209,0 8.9802,0.31136 8.6693,1.25 -0.2784,0.8407 -3.2527,1.34461 -9.0833,1.53893 -7.262,0.24203 -8.6693,0.0391 -8.6693,-1.25 z m 4.5,-3.48938 -4,-0.68053 2.8151,-1.18451 c 3.4837,-1.46585 8.1813,-1.52439 10.7786,-0.13434 4.233,2.26543 -1.2785,3.41406 -9.5937,1.99938 z m 1.75,-14.75529 c -2.4591,-0.47363 -2.9761,-1.83459 -1,-2.63198 0.6875,-0.27742 0.039,-0.53992 -1.441,-0.58334 -3.0552,-0.0896 -3.317,-0.38064 -4.247,-4.72053 l -0.6733,-3.14159 8.3057,-0.42563 c 4.5681,-0.23409 8.8919,-0.22562 9.6084,0.0188 0.8304,0.2833 1.193,1.75801 1,4.06721 -0.241,2.88275 -0.7624,3.68803 -2.5528,3.94231 -1.2375,0.17575 -2.25,0.91511 -2.25,1.64301 0,1.23939 -2.3394,2.70541 -3.8318,2.40125 -0.3675,-0.0749 -1.6807,-0.33119 -2.9182,-0.56955 z m -3.0062,-13.95862 c -2.7808,-1.12108 0.2125,-2.33564 5.7562,-2.33564 5.7829,0 8.5097,1.20671 5.4125,2.39521 -1.8522,0.71076 -9.3573,0.67072 -11.1687,-0.0596 z"
       id="path5177"
       inkscape:connector-curvature="0"
       sodipodi:nodetypes="cssscsccscsssccccscssssscssscsssscscscscsssssssscscscssccssccscsssscsssssssssssssssssssssscsssssssscssssscccscssccssssssscssccssssssscsssccccssscssscssscsssscssscsscsssssssssscsssssssscsssssssssssssscssssssscsscssscscssssssssssssssssssscsssssssccccccccsssssssssssssssssssssssssscssscscsssscscssssssssscssssccsssssssssssssssccsssccsssssssssssssssssssssssssscssscssscsssscssssssssssssscscccssssssssssscccssccccsssssssssccccssscsccssssssssssssssssssscsssssssssssscsscssssssscssssssssscccscscscccsccsssscccssscscssccscccssccscscssscsssccssscsscsscsscssssssssscsssssscscsscsccccscssssssccscccssccccscsscssssscsscccscscccsccsssscscccsscsssscssscssscsscscccsscccccssssccsssscscscssscsssccssssscssssccsssssccscccsssssscccscssssscccccssscscssccssssccscscscssssccsssccssscsscscscsscsscsssscccsscsscsssssccsssscsssssssscssscssscssscscccsccssscccsscc" />
  </g>
</svg>
