<?xml version="1.0" encoding="UTF-8" standalone="no"?>
<!-- Created with Inkscape (http://www.inkscape.org/) -->

<svg
   xmlns:dc="http://purl.org/dc/elements/1.1/"
   xmlns:cc="http://creativecommons.org/ns#"
   xmlns:rdf="http://www.w3.org/1999/02/22-rdf-syntax-ns#"
   xmlns:svg="http://www.w3.org/2000/svg"
   xmlns="http://www.w3.org/2000/svg"
   xmlns:sodipodi="http://sodipodi.sourceforge.net/DTD/sodipodi-0.dtd"
   xmlns:inkscape="http://www.inkscape.org/namespaces/inkscape"
   width="527.03467"
   height="793.74719"
   id="svg4763"
   version="1.1"
   inkscape:version="0.48.2 r9819"
   sodipodi:docname="New document 58">
  <defs
     id="defs4765" />
  <sodipodi:namedview
     id="base"
     pagecolor="#ffffff"
     bordercolor="#666666"
     borderopacity="1.0"
     inkscape:pageopacity="0.0"
     inkscape:pageshadow="2"
     inkscape:zoom="0.69845697"
     inkscape:cx="172.13834"
     inkscape:cy="356.13544"
     inkscape:document-units="px"
     inkscape:current-layer="layer1"
     showgrid="false"
     fit-margin-top="0"
     fit-margin-left="0"
     fit-margin-right="0"
     fit-margin-bottom="0"
     inkscape:window-width="1920"
     inkscape:window-height="1021"
     inkscape:window-x="0"
     inkscape:window-y="27"
     inkscape:window-maximized="1" />
  <metadata
     id="metadata4768">
    <rdf:RDF>
      <cc:Work
         rdf:about="">
        <dc:format>image/svg+xml</dc:format>
        <dc:type
           rdf:resource="http://purl.org/dc/dcmitype/StillImage" />
        <dc:title></dc:title>
      </cc:Work>
    </rdf:RDF>
  </metadata>
  <g
     inkscape:label="Layer 1"
     inkscape:groupmode="layer"
     id="layer1"
     transform="translate(-100.21958,-110.44439)">
    <path
       style="fill:#000000"
       d="m 373.95476,903.97327 c -0.18496,-0.18496 -11.12723,-0.63379 -24.31615,-0.9974 -21.78411,-0.60057 -37.50347,-1.90913 -28.97986,-2.41242 7.94285,-0.46901 31.77926,-0.17869 47.5,0.57854 9.625,0.46361 26.95,0.78411 38.5,0.71222 11.55,-0.0719 64.31732,-0.28933 117.2607,-0.48321 95.24939,-0.3488 96.26848,-0.37356 97,-2.35646 0.40662,-1.10217 0.54225,-29.22895 0.30142,-62.50395 -0.24084,-33.275 -0.39707,-64.325 -0.34718,-69 0.73287,-68.68069 1.40573,-359.73035 1.00565,-435 -0.13533,-25.46057 0.30489,-50.77582 1.13902,-65.5 1.79589,-31.70139 1.96366,-91.72748 0.29433,-105.30793 -0.69688,-5.66937 -1.31016,-18.86345 -1.36283,-29.32018 l -0.0958,-19.01224 -2.59767,0.76647 c -1.42869,0.42156 -102.94764,0.83283 -225.59764,0.91394 -135.74776,0.0898 -230.0217,0.54294 -240.94613,1.15821 -16.44556,0.92622 -24.02511,0.68273 -38.14197,-1.22528 l -5.0881,-0.6877 -0.77474,23.35736 c -0.42611,12.84654 -0.99337,28.75735 -1.26057,35.35735 -0.38567,9.52628 -0.39963,128.48036 -0.0208,177 0.043,5.5 -0.22984,53.875 -0.60619,107.5 -0.37635,53.625 -0.85227,127.425 -1.05759,164 -0.20533,36.575 -0.86584,84.275 -1.46781,106 -0.60197,21.725 -1.08263,65.59292 -1.06814,97.48427 0.0153,33.67311 -0.35254,58.11058 -0.87733,58.28551 -0.49702,0.16567 -1.18934,-2.07725 -1.53848,-4.98428 -1.006857,-8.38326 -0.66483,-102.04179 0.54882,-150.2855 0.60879,-24.2 1.23519,-73.925 1.39199,-110.5 0.1568,-36.575 0.52044,-111.05 0.80809,-165.5 0.28764,-54.45 0.42757,-109.35 0.31095,-122 -0.84243,-91.37829 0.47966,-216.88241 2.29651,-218.00529 0.37852,-0.23393 7.51756,0.19878 15.86455,0.96159 11.64256,1.06399 19.88574,1.16956 35.40162,0.4534 11.1239,-0.51344 20.90028,-1.18393 21.72528,-1.48998 1.61762,-0.6001 144.03995,-0.62312 244,-0.0395 63.0892,0.36838 196.31587,-0.57783 199,-1.41335 1.28919,-0.4013 1.58911,2.62495 2.13406,21.53308 0.34873,12.1 1.18421,26.95 1.85661,33 1.55445,13.98637 1.45532,59.13336 -0.213,97 -1.34035,30.42273 -1.6183,84.74942 -0.77767,152 0.38001,30.4005 -0.60642,307.99237 -1.2686,357 -0.0594,4.4 0.0551,32.975 0.25464,63.5 0.1995,30.525 0.21876,58.65 0.0428,62.5 l -0.31994,7 -124.78829,0.14949 c -68.63356,0.0822 -124.93962,-0.002 -125.12459,-0.18681 z"
       id="path4958"
       inkscape:connector-curvature="0"
       sodipodi:nodetypes="cssssscsssssscsssscsscsssssssssscssssssssscsscscc" />
  </g>
</svg>
