<?xml version="1.0" encoding="UTF-8" standalone="no"?>
<!-- Created with Inkscape (http://www.inkscape.org/) -->

<svg
   xmlns:dc="http://purl.org/dc/elements/1.1/"
   xmlns:cc="http://creativecommons.org/ns#"
   xmlns:rdf="http://www.w3.org/1999/02/22-rdf-syntax-ns#"
   xmlns:svg="http://www.w3.org/2000/svg"
   xmlns="http://www.w3.org/2000/svg"
   xmlns:sodipodi="http://sodipodi.sourceforge.net/DTD/sodipodi-0.dtd"
   xmlns:inkscape="http://www.inkscape.org/namespaces/inkscape"
   version="1.1"
   width="744.09448"
   height="1052.3622"
   id="svg4618"
   inkscape:version="0.48.2 r9819"
   sodipodi:docname="sheet_of_paper.svg">
  <sodipodi:namedview
     pagecolor="#ffffff"
     bordercolor="#666666"
     borderopacity="1"
     objecttolerance="10"
     gridtolerance="10"
     guidetolerance="10"
     inkscape:pageopacity="0"
     inkscape:pageshadow="2"
     inkscape:window-width="1024"
     inkscape:window-height="541"
     id="namedview7"
     showgrid="false"
     inkscape:zoom="0.22425739"
     inkscape:cx="372.04724"
     inkscape:cy="526.18109"
     inkscape:window-x="0"
     inkscape:window-y="27"
     inkscape:window-maximized="1"
     inkscape:current-layer="svg4618" />
  <defs
     id="defs4620" />
  <metadata
     id="metadata4623">
    <rdf:RDF>
      <cc:Work
         rdf:about="">
        <dc:format>image/svg+xml</dc:format>
        <dc:type
           rdf:resource="http://purl.org/dc/dcmitype/StillImage" />
        <dc:title />
      </cc:Work>
    </rdf:RDF>
  </metadata>
  <g
     transform="matrix(0.89997132,0,0,1,553.67515,230.99846)"
     id="layer1">
    <path
       d="m -172.39935,794.78215 c -39.02433,-2.37965 -61.00962,-2.89648 -96.10947,-2.25935 -20.46202,0.37141 -54.50337,0.14324 -75.64745,-0.50705 -25.60543,-0.78751 -47.55497,-0.7541 -65.72648,0.10003 -35.37759,1.66286 -105.54693,1.33603 -109.8168,-0.51148 -1.74137,-0.75351 -10.39123,-1.67945 -19.22189,-2.05764 l -16.05561,-0.68769 0,-7.79028 0,-7.79025 -7.36323,-0.93095 c -4.04974,-0.51203 -7.77185,-1.35648 -8.27124,-1.87659 -2.07548,-2.16106 -2.95075,-41.77316 -2.67903,-121.23751 0.26079,-76.25891 1.28091,-153.01286 2.18384,-164.3162 1.14737,-14.36113 2.04335,-66.60671 2.52018,-146.95448 0.29961,-50.47298 0.80745,-99.30279 1.12839,-108.51069 0.32107,-9.20791 0.89302,-35.43651 1.27113,-58.28576 0.37799,-22.84925 0.95663,-47.68269 1.28587,-55.18543 0.32914,-7.50274 0.90232,-23.128275 1.27373,-34.72342 0.37143,-11.595143 1.19982,-33.638316 1.84097,-48.984828 0.64114,-15.346514 1.15294,-34.5994107 1.13731,-42.784217 -0.0384,-20.176392 -0.17349,-18.742885 1.59715,-16.972177 1.75936,1.75935 1.65656,27.13386284 -0.28733,70.917493 -0.68133,15.346513 -1.5225,40.387781 -1.86923,55.647239 -0.34674,15.25947 -0.92811,28.22623 -1.29209,28.81503 -0.36385,0.58879 -0.60741,6.24054 -0.54131,12.55947 0.0657,6.31892 -0.43851,37.99656 -1.12132,70.39476 -0.68268,32.39818 -1.5633,101.87604 -1.95667,154.39522 -0.39336,52.51917 -1.23751,104.97634 -1.87568,116.57148 -2.27625,41.35219 -3.77679,236.39438 -2.04831,266.23142 0.87318,15.07129 1.40717,18.36054 3.10031,19.09866 2.05785,0.89702 16.85375,1.07873 186.20373,2.2869 80.68953,0.57565 93.95952,0.40891 104.79033,-1.3167 10.89203,-1.73536 17.00424,-1.80367 50.22495,-0.56133 69.63891,2.60429 297.968035,1.43216 300.938153,-1.54484 1.621608,-1.62539 0.994169,-202.24393 -0.686371,-219.45799 -1.822,-18.6631 -1.992913,-135.39798 -0.240038,-163.9459 3.982107,-64.85392 4.903196,-89.4104 5.186514,-138.27363 0.363691,-62.72877 -0.690575,-102.04377 -3.455874,-128.87333 -1.53356,-14.87901 -1.77165,-25.061331 -1.072916,-45.88452 1.639715,-48.865566 2.112797,-173.66884 0.696378,-183.70906 -0.727232,-5.15488 -1.398548,-26.08195 -1.491829,-46.50459 -0.11496,-25.16346 -0.603953,-37.42573 -1.517166,-38.04316 -2.068611,-1.39862 -19.87841,-1.10556 -47.232096,0.77717 -25.97841654,1.78808 -156.725365,1.9219 -170.516815,0.17455 -3.75136,-0.47531 -40.86202,-1.13616 -82.46812,-1.46856 -107.81623,-0.86136 -111.86412,-0.83565 -147.57455,0.93744 -40.44844,2.00833 -53.99901,1.84439 -68.83163,-0.83275 -12.92591,-2.333 -47.61858,-3.01445 -49.65758,-0.97541 -1.59331,1.59332 -4.28835,31.48687 -4.26008,47.25309 0.0124,6.99118 -0.34685,12.71125 -0.79876,12.71125 -0.45178,0 -6.54722,-0.58758 -13.54548,-1.30573 -12.58439,-1.29141 -20.68908,-3.01877 -30.32297,-6.46277 -2.72826,-0.97533 -7.12203,-2.11373 -9.76385,-2.52979 l -4.80325,-0.75649 0.64089,13.93754 c 0.59142,12.85803 0,34.83224 -2.31902,85.673411 -0.67202,14.755148 -0.53883,19.507039 0.52841,18.847471 0.91484,-0.565399 1.17266,-0.219281 0.71854,0.96434 -0.40218,1.047965 -1.52945,1.531257 -2.60724,1.117703 -1.65297,-0.634313 -1.80079,-3.953792 -1.14203,-25.654236 1.98395,-65.367829 2.15471,-77.359969 1.16708,-81.971269 -0.58435,-2.72828 -0.77408,-7.2977 -0.42176,-10.15429 0.53734,-4.35769 1.48901,-5.80632 5.91103,-8.99868 l 5.27053,-3.80484 0,-14.8005 c 0,-8.52931 0.52544,-15.12526 1.24012,-15.56695 0.68206,-0.42152 1.24012,-0.18169 1.24012,0.53299 0,0.71467 1.25562,1.30107 2.79028,1.30309 1.53465,0.002 7.92686,0.35434 14.20486,0.78293 11.40527,0.77864 11.41855,0.7761 16.30003,-3.09008 2.68697,-2.12814 5.2895,-3.86936 5.78344,-3.86936 0.49381,0 2.778,-1.65067 5.07582,-3.66818 6.42731,-5.64329 12.25129,-6.67358 32.73314,-5.79063 9.88999,0.42634 20.49303,1.45918 23.56233,2.29518 7.44296,2.02726 56.76907,1.90215 92.38911,-0.23434 19.5747,-1.1741 34.64024,-1.32884 53.32525,-0.54766 26.45368,1.10597 48.0679,1.24811 104.79033,0.68914 17.39272,-0.17138 39.43588,0.2702 48.98483,0.98132 23.57668,1.75574 144.4395322,1.68623 180.43779,-0.10381 16.028581,-0.79702 32.90975,-1.03853 37.513704,-0.53669 l 8.370824,0.91247 0,6.72195 c 0,7.32867 -0.05816,7.27685 6.165182,5.49201 3.411254,-0.97833 4.497253,-0.85717 5.30838,0.59222 0.560858,1.0022 1.30823,17.32073 1.660834,36.26342 0.352591,18.94268 1.168964,39.58125 1.814137,45.86348 1.496804,14.574698 1.455396,59.960127 -0.07676,84.067171 -3.578224,56.302118 -3.884844,74.941502 -2.447976,148.814669 0.795984,40.92403 1.857777,79.1508 2.359531,84.94836 0.981246,11.33794 -0.286828,43.2498 -2.439284,61.38606 -2.140625,18.03647 -1.701622,126.53802 0.694928,171.75692 1.629446,30.74506 1.808879,43.81745 0.842551,61.38605 -1.285027,23.36299 -2.003541,57.02414 -1.733852,81.228 1.012275,90.84942 1.220479,200.63049 0.383024,201.96114 -0.870479,1.38314 -16.760227,1.75493 -89.5726485,2.09585 -48.6829365,0.22795 -95.2110995,1.00269 -103.3958945,1.72165 -25.15117,2.20929 -47.93847,3.81164 -51.33262,3.60959 -1.77801,-0.10591 -10.7665,-0.65185 -19.97441,-1.21332 z m 53.94532,-5.00141 c 12.27721,-0.7781 59.711886,-1.63832 105.410393,-1.91157 45.698507,-0.27326 86.994584,-0.88506 91.769054,-1.35957 l 8.680857,-0.86272 0.62006,-20.46202 c 0.523307,-17.269 0.391049,-67.14846 -0.462008,-174.23718 -0.08693,-10.91307 0.292831,-44.95442 0.843917,-75.64745 0.711321,-39.61775 0.589305,-60.12223 -0.42065,-70.68697 -0.782455,-8.1848 -1.619029,-37.76173 -1.859079,-65.72648 -0.240051,-27.96476 -0.538921,-57.26265 -0.664148,-65.10642 l -0.227712,-14.2614 -1.57493,13.02128 c -4.262349,35.24028 -5.430433,166.86506 -2.046995,230.66273 0.560684,10.57206 0.568695,28.42981 0.01786,39.68391 -0.631582,12.90309 -0.494511,28.02096 0.371056,40.92405 0.939368,14.003 1.030071,33.9672 0.287362,63.24623 -0.59692,23.53132 -0.920754,52.07945 -0.71963,63.4403 l 0.365675,20.65609 -10.286653,0.74755 c -11.463176,0.83303 -109.909625,2.23233 -157.861208,2.24379 -39.588781,0.0103 -107.211391,-0.97092 -149.645711,-2.16952 -25.55836,-0.72194 -34.43532,-0.57007 -39.06386,0.66828 -4.43265,1.18596 -17.27232,1.54942 -49.3939,1.3982 -23.8724,-0.11236 -81.91011,-0.3813 -128.97275,-0.59758 -47.06265,-0.21629 -88.33342,-0.0705 -91.71274,0.32413 -6.08627,0.71059 -6.14877,0.76299 -6.61123,5.54254 -0.59611,6.16148 0.64747,6.91139 11.51541,6.94431 4.77447,0.0145 14.26141,0.88458 21.08209,1.93359 14.73177,2.26573 73.62766,2.68777 109.7508,0.78647 12.61825,-0.66413 28.80184,-1.0027 35.96355,-0.75235 7.16171,0.25035 53.20129,0.73705 102.31012,1.08155 49.10884,0.34451 96.54352,1.07104 105.4104,1.6145 8.86687,0.54347 18.07478,0.82799 20.46201,0.63229 2.38724,-0.19571 14.38542,-0.99247 26.66263,-1.77056 z M 89.301354,257.3548 c 1.483794,-14.22419 1.43151,-20.08619 -0.724418,-81.22801 -0.252526,-7.1617 -0.612881,-44.83041 -0.800784,-83.708241 -0.283963,-58.753716 0.04638,-76.234876 1.956951,-103.550203 2.620167,-37.460642 1.994723,-81.762602 -2.310274,-163.645356 l -0.551533,-10.49026 -3.604972,-0.41166 c -2.766539,-0.31592 -3.756727,0.16866 -4.257476,2.0835 -0.358879,1.37236 -0.102684,19.11349 0.569204,39.42474 2.062397,62.341901 2.555309,156.20293 0.942877,179.543619 -1.977897,28.630913 -1.705751,55.069488 0.765912,74.407321 2.368447,18.53037 3.322137,60.95747 2.956873,131.54332 -0.241068,46.58525 0.967146,65.50783 2.686427,42.07379 0.450376,-6.1386 1.517413,-17.85775 2.371213,-26.04256 z M -537.10231,-171.41746 c 3.81586,-3.58086 9.02548,-8.24512 11.57705,-10.36503 l 4.63904,-3.85439 -7.61633,-0.79607 c -4.18901,-0.43784 -9.90635,-0.79735 -12.70505,-0.79891 l -5.0886,-0.002 0.39808,11.16394 c 0.21888,6.14018 0.72646,11.16395 1.12802,11.16395 0.40142,0 3.85194,-2.92978 7.66779,-6.51064 z"
       id="path4742"
       style="fill:#000000"
       inkscape:connector-curvature="0" />
  </g>
</svg>
