<?xml version="1.0" encoding="UTF-8" standalone="no"?>
<!-- Created with Inkscape (http://www.inkscape.org/) -->

<svg
   xmlns:dc="http://purl.org/dc/elements/1.1/"
   xmlns:cc="http://creativecommons.org/ns#"
   xmlns:rdf="http://www.w3.org/1999/02/22-rdf-syntax-ns#"
   xmlns:svg="http://www.w3.org/2000/svg"
   xmlns="http://www.w3.org/2000/svg"
   version="1.1"
   width="744.09448"
   height="1052.3622"
   id="svg4763">
  <defs
     id="defs4765" />
  <metadata
     id="metadata4768">
    <rdf:RDF>
      <cc:Work
         rdf:about="">
        <dc:format>image/svg+xml</dc:format>
        <dc:type
           rdf:resource="http://purl.org/dc/dcmitype/StillImage" />
        <dc:title></dc:title>
      </cc:Work>
    </rdf:RDF>
  </metadata>
  <g
     transform="translate(-100.21958,148.17233)"
     id="layer1">
    <path
       d="m 484.76999,863.38404 c -0.22632,-0.22633 -13.616,-0.77555 -29.75484,-1.22048 -26.65647,-0.73491 -45.89172,-2.33615 -35.46166,-2.95201 9.71939,-0.57391 38.88719,-0.21865 58.12413,0.70795 11.77778,0.5673 32.9778,0.95949 47.11114,0.87152 14.13333,-0.0879 78.70291,-0.35404 143.48792,-0.5913 116.55343,-0.42681 117.80046,-0.45711 118.69559,-2.88351 0.49758,-1.34869 0.66353,-35.76647 0.36884,-76.48395 -0.29471,-40.71748 -0.48588,-78.71232 -0.42483,-84.43295 0.89678,-84.04223 1.72014,-440.18978 1.23058,-532.29468 -0.1656,-31.15523 0.37309,-62.13264 1.39378,-80.150122 2.19757,-38.79191 2.40287,-112.243795 0.36016,-128.86173 -0.85275,-6.937414 -1.6032,-23.082561 -1.66765,-35.878105 l -0.11722,-23.264633 -3.17869,0.93791 c -1.74823,0.51584 -125.97351,1.0191 -276.05614,1.11835 -166.10991,0.10989 -281.46971,0.66438 -294.83758,1.41727 -20.12387,1.133379 -29.3987,0.835428 -46.67302,-1.49934 l -6.22614,-0.84151 -0.94801,28.581602 c -0.52143,15.719873 -1.21556,35.18939 -1.54252,43.265586 -0.47193,11.656983 -0.48902,157.217032 -0.0254,216.588872 0.0526,6.73016 -0.28125,65.925 -0.74178,131.54409 -0.46052,65.61908 -1.04289,155.92563 -1.29414,200.6812 -0.25125,44.75559 -1.05949,103.12446 -1.79611,129.7086 -0.7366,26.58414 -1.32477,80.26382 -1.30704,119.28818 0.0187,41.20464 -0.43139,71.10793 -1.07356,71.32199 -0.60819,0.20272 -1.45535,-2.54186 -1.88258,-6.09909 -1.23207,-10.25831 -0.81354,-124.86506 0.67157,-183.89925 0.74496,-29.61272 1.51146,-90.4595 1.70333,-135.21509 0.19187,-44.75557 0.63684,-135.8881 0.98883,-202.51671 0.35198,-66.6286 0.5232,-133.80786 0.3805,-149.28723 -1.03085,-111.816508 0.58694,-265.39163 2.81016,-266.76566 0.46319,-0.28625 9.19898,0.24324 19.41291,1.17667 14.2466,1.30197 24.3335,1.43115 43.31975,0.55481 13.61195,-0.62828 25.57496,-1.44874 26.58449,-1.82324 1.97943,-0.73432 176.25678,-0.76249 298.57449,-0.0483 77.2001,0.45077 240.22504,-0.70707 243.50952,-1.72947 1.57754,-0.49106 1.94454,3.21206 2.61138,26.349298 0.42673,14.806357 1.44907,32.977796 2.27186,40.380975 1.90213,17.114645 1.78083,72.359483 -0.26063,118.6956 -1.64015,37.227247 -1.98026,103.704967 -0.95161,185.997207 0.465,37.20007 -0.74206,376.87977 -1.55235,436.84875 -0.0727,5.38413 0.0674,40.35038 0.3116,77.70278 0.24412,37.3524 0.26769,71.768 0.0524,76.47912 l -0.39149,8.56566 -152.69918,0.18293 c -83.98456,0.10054 -152.88437,-0.002 -153.11071,-0.2286 z"
       id="path4958"
       style="fill:#000000" />
  </g>
</svg>
